<svg width="793" height="672" viewBox="0 0 793 672" fill="none" xmlns="http://www.w3.org/2000/svg">
<path opacity="0.18" d="M266.331 19.3307C222.559 42.8391 190.639 85.8289 176.437 133.432C168.033 161.627 165.413 191.344 155.83 219.183C128.563 298.32 49.9753 349.801 16.4927 426.474C-2.20817 469.175 -5.42038 518.953 10.2905 562.825C26.0014 606.696 61.1406 643.788 105.095 659.276C132.032 668.764 160.989 670.185 189.535 671.094C242.965 672.798 296.818 672.992 349.425 663.504C374.477 658.979 399.164 652.278 424.451 649.363C473.375 643.706 523.323 652.305 571.93 644.42C605.776 638.925 637.865 625.565 668.519 610.212C691.537 598.67 714.164 585.767 733.169 568.36C783.385 522.299 801.986 447.62 788.496 380.831C775.008 314.044 732.603 255.377 679.234 213.02C655.772 194.394 630.209 178.624 605.609 161.526C573.911 139.508 543.799 115.289 515.499 89.0476C447.791 26.2465 360.455 -31.1878 266.331 19.3307Z" fill="url(#paint0_linear)" fill-opacity="0.8"/>
<path opacity="0.18" d="M271.835 36.4964C229.913 58.9904 199.344 100.125 185.742 145.673C177.692 172.652 175.183 201.086 166.006 227.723C139.892 303.447 64.6259 352.705 32.5592 426.071C14.6488 466.928 11.5724 514.558 26.6191 556.536C41.6657 598.515 75.3193 634.005 117.415 648.825C143.213 657.903 170.946 659.264 198.285 660.134C249.456 661.763 301.032 661.95 351.415 652.872C375.408 648.541 399.052 642.13 423.269 639.34C470.125 633.929 517.962 642.155 564.514 634.612C596.929 629.353 627.66 616.569 657.019 601.878C679.063 590.835 700.734 578.489 718.933 561.833C767.029 517.76 784.841 446.303 771.923 382.398C759.006 318.492 718.393 262.356 667.28 221.827C644.81 204.005 620.327 188.914 596.767 172.554C566.409 151.488 537.571 128.314 510.467 103.205C445.624 43.1139 361.979 -11.8418 271.835 36.4964Z" fill="url(#paint1_linear)" fill-opacity="0.91"/>
<path opacity="0.18" d="M277.42 51.5759C237.375 72.9504 208.174 112.038 195.183 155.318C187.493 180.955 185.097 207.975 176.331 233.285C151.387 305.241 79.4925 352.049 48.8621 421.761C31.7541 460.587 28.8156 505.845 43.1882 545.735C57.5607 585.624 89.7068 619.347 129.917 633.429C154.559 642.057 181.05 643.349 207.164 644.176C256.043 645.725 305.308 645.902 353.436 637.274C376.352 633.161 398.937 627.068 422.07 624.418C466.827 619.275 512.52 627.094 556.987 619.923C587.951 614.928 617.307 602.78 645.349 588.821C666.405 578.327 687.106 566.595 704.49 550.767C750.429 508.889 767.446 440.988 755.105 380.262C742.767 319.537 703.972 266.195 655.151 227.683C633.686 210.748 610.301 196.409 587.796 180.864C558.798 160.845 531.252 138.824 505.361 114.964C443.424 57.864 363.527 5.64336 277.42 51.5759Z" fill="url(#paint2_linear)" fill-opacity="0.8"/>
<defs>
<linearGradient id="paint0_linear" x1="48.7332" y1="583.164" x2="854.131" y2="111.761" gradientUnits="userSpaceOnUse">
<stop stop-color="#FF9473" stop-opacity="0.74"/>
<stop offset="0.700861" stop-color="#3ADAFF" stop-opacity="0.7"/>
<stop offset="1" stop-color="#F4FDFF" stop-opacity="0"/>
</linearGradient>
<linearGradient id="paint1_linear" x1="63.4365" y1="575.997" x2="834.423" y2="124.323" gradientUnits="userSpaceOnUse">
<stop stop-color="#FF9473" stop-opacity="0.6"/>
<stop offset="0.65625" stop-color="#3ADAFF"/>
<stop offset="1" stop-color="#F4FDFF" stop-opacity="0"/>
</linearGradient>
<linearGradient id="paint2_linear" x1="78.3563" y1="564.227" x2="812.837" y2="131.689" gradientUnits="userSpaceOnUse">
<stop stop-color="#FF9473" stop-opacity="0.75"/>
<stop offset="0.71875" stop-color="#3ADAFF" stop-opacity="0.95"/>
<stop offset="1" stop-color="#F4FDFF" stop-opacity="0"/>
</linearGradient>
</defs>
</svg>
