<svg width="673" height="762" viewBox="0 0 673 762" fill="none" xmlns="http://www.w3.org/2000/svg">
<g clip-path="url(#clip0)">
<path fill-rule="evenodd" clip-rule="evenodd" d="M673 0H0V626V646V682.811L14.0208 676.499C28.0417 670.186 56.0833 657.562 84.125 663.874C95.3417 666.399 106.558 671.954 117.775 677.509C134.6 685.841 151.425 694.173 168.25 692.28C180.268 690.927 192.286 684.357 204.304 677.787C220.327 669.027 236.351 660.267 252.375 663.874C270.086 667.861 287.796 686.955 305.507 706.05C315.838 717.188 326.169 728.326 336.5 736.466C364.542 758.559 392.583 758.559 420.625 739.622C429.038 733.941 437.45 726.556 445.863 719.17C465.492 701.938 485.121 684.705 504.75 689.123C519.849 692.522 534.949 708.733 550.048 724.943C562.99 738.838 575.933 752.732 588.875 758.559C616.917 771.184 644.958 745.935 658.979 733.31L673 720.685V646V626V0Z" fill="url(#paint0_linear)"/>
<path d="M243.77 155.315C194.722 228.489 99.4502 260.416 12.1622 240.586C-75.1639 221.222 -154.933 149.599 -159.606 75.2729C-164.493 0.695361 -94.2841 -76.585 -5.35188 -113.948C83.7937 -151.059 191.411 -148.04 243.74 -89.9094C296.03 -31.3143 292.78 82.6049 243.77 155.315Z" fill="#9BDBFF" fill-opacity="0.3"/>
<path d="M206.611 132.803C168.543 189.706 94.4555 214.438 26.5136 198.889C-41.4574 183.701 -103.615 127.84 -107.348 69.9712C-111.246 11.9064 -56.7182 -48.1657 12.4293 -77.138C81.7431 -105.914 165.481 -103.425 206.272 -58.103C247.033 -12.4194 244.651 76.2623 206.611 132.803Z" fill="#9BDBFF" fill-opacity="0.29"/>
<path d="M162.822 105.911C137.422 143.821 88.0634 160.348 42.8317 150.056C-2.41955 140.005 -43.7648 102.874 -46.2003 64.3567C-48.7464 25.7091 -12.3827 -14.3249 33.6901 -33.6699C79.8735 -52.8845 135.636 -51.2995 162.76 -21.1661C189.866 9.20816 188.203 68.2414 162.822 105.911Z" fill="#9BDBFF" fill-opacity="0.41"/>
<path d="M691.376 161.326C657.666 211.619 592.185 233.563 532.191 219.934C472.172 206.625 417.346 157.398 414.134 106.314C410.776 55.0561 459.03 1.9411 520.154 -23.7385C581.424 -49.2453 655.39 -47.17 691.355 -7.21687C727.295 33.0557 725.061 111.353 691.376 161.326Z" fill="#9BDBFF" fill-opacity="0.3"/>
<path d="M665.837 145.854C639.672 184.964 588.752 201.962 542.055 191.275C495.338 180.837 452.617 142.443 450.052 102.67C447.372 62.7615 484.85 21.4738 532.375 1.56101C580.014 -18.2169 637.568 -16.506 665.603 14.6438C693.619 46.0423 691.981 106.994 665.837 145.854Z" fill="#9BDBFF" fill-opacity="0.29"/>
<path d="M635.74 127.371C618.283 153.427 584.358 164.786 553.27 157.712C522.169 150.804 493.752 125.284 492.078 98.8108C490.329 72.2482 515.321 44.7326 546.987 31.4368C578.729 18.2305 617.055 19.3199 635.698 40.0307C654.327 60.907 653.185 101.481 635.74 127.371Z" fill="#9BDBFF" fill-opacity="0.42"/>
</g>
<defs>
<linearGradient id="paint0_linear" x1="-854" y1="-220" x2="673" y2="608" gradientUnits="userSpaceOnUse">
<stop stop-color="#28A9C6"/>
<stop offset="1" stop-color="#3D67D2" stop-opacity="0.74"/>
</linearGradient>
<clipPath id="clip0">
<rect width="673" height="762" fill="white"/>
</clipPath>
</defs>
</svg>
