<svg width="871" height="834" viewBox="0 0 871 834" fill="none" xmlns="http://www.w3.org/2000/svg">
<g clip-path="url(#clip0)">
<path fill-rule="evenodd" clip-rule="evenodd" d="M871 0H0V698V712V754.811L18.1458 748.499C36.2917 742.186 72.5833 729.562 108.875 735.874C123.392 738.399 137.908 743.954 152.425 749.509C174.2 757.841 195.975 766.173 217.75 764.28C233.304 762.927 248.857 756.357 264.411 749.787C285.149 741.027 305.887 732.267 326.625 735.874C349.546 739.861 372.467 758.955 395.388 778.05C408.759 789.188 422.129 800.326 435.5 808.466C471.792 830.559 508.083 830.559 544.375 811.622C555.263 805.941 566.15 798.556 577.038 791.17C602.442 773.938 627.846 756.705 653.25 761.123C672.792 764.522 692.333 780.733 711.875 796.943C728.625 810.838 745.375 824.732 762.125 830.559C798.417 843.184 834.708 817.935 852.854 805.31L871 792.685L871 712L871 698L871 0Z" fill="url(#paint0_linear)"/>
<path d="M183.898 146.731C146.521 202.494 73.9173 226.824 7.39825 211.713C-59.1498 196.957 -119.939 142.375 -123.5 85.7339C-127.224 28.9011 -73.7206 -29.9914 -5.94859 -58.4643C61.986 -86.7455 143.998 -84.4445 183.875 -40.1456C223.724 4.50765 221.247 91.3214 183.898 146.731Z" fill="#9BDBFF" fill-opacity="0.3"/>
<path d="M155.581 129.576C126.57 172.94 70.111 191.787 18.3349 179.937C-33.4633 168.363 -80.8317 125.793 -83.6757 81.6937C-86.6465 37.4446 -45.093 -8.33417 7.60182 -30.4129C60.4234 -52.3422 124.237 -50.4451 155.322 -15.907C186.385 18.9068 184.569 86.4879 155.581 129.576Z" fill="#9BDBFF" fill-opacity="0.29"/>
<path d="M122.211 109.082C102.854 137.972 65.2398 150.566 30.7704 142.723C-3.71397 135.064 -35.2217 106.768 -37.0777 77.4151C-39.0179 47.9631 -11.3065 17.4547 23.8039 2.71255C58.9986 -11.9302 101.493 -10.7223 122.164 12.2412C142.82 35.3884 141.552 80.3754 122.211 109.082Z" fill="#9BDBFF" fill-opacity="0.41"/>
<path d="M941.376 143.326C907.666 193.619 842.185 215.563 782.191 201.934C722.172 188.625 667.346 139.398 664.134 88.3135C660.776 37.0561 709.03 -16.0589 770.154 -41.7385C831.424 -67.2453 905.39 -65.17 941.355 -25.2169C977.295 15.0557 975.061 93.3528 941.376 143.326Z" fill="#9BDBFF" fill-opacity="0.3"/>
<path d="M915.837 127.854C889.672 166.964 838.752 183.962 792.055 173.275C745.338 162.837 702.617 124.443 700.052 84.6696C697.372 44.7615 734.85 3.47376 782.375 -16.439C830.014 -36.2169 887.568 -34.506 915.603 -3.35619C943.619 28.0423 941.981 88.9936 915.837 127.854Z" fill="#9BDBFF" fill-opacity="0.29"/>
<path d="M885.74 109.371C868.283 135.427 834.358 146.786 803.27 139.712C772.169 132.804 743.752 107.284 742.078 80.8108C740.329 54.2482 765.321 26.7326 796.987 13.4368C828.729 0.230539 867.055 1.31988 885.698 22.0307C904.327 42.907 903.185 83.4807 885.74 109.371Z" fill="#9BDBFF" fill-opacity="0.42"/>
</g>
<defs>
<linearGradient id="paint0_linear" x1="-656" y1="-220" x2="871" y2="608" gradientUnits="userSpaceOnUse">
<stop stop-color="#28A9C6"/>
<stop offset="1" stop-color="#3D67D2" stop-opacity="0.74"/>
</linearGradient>
<clipPath id="clip0">
<rect width="871" height="834" fill="white"/>
</clipPath>
</defs>
</svg>
