<svg width="1600" height="1200" viewBox="0 0 1600 1200" fill="none" xmlns="http://www.w3.org/2000/svg">
<path fill-rule="evenodd" clip-rule="evenodd" d="M0 16.4848L38.6667 65.9394C76 115.394 152 214.303 228 230.788C283.379 242.593 338.075 212.129 392.577 181.774C414.182 169.74 435.758 157.723 457.333 148.364C533.333 115.394 609.333 115.394 685.333 131.879C706.837 136.543 728.446 142.527 750.103 148.523C804.987 163.721 860.17 179.001 914.667 173.091C978 166.222 1041.33 130.734 1104.67 95.2457C1117.33 88.1481 1130 81.0505 1142.67 74.1818C1218.67 32.9697 1294.67 0 1372 0C1448 0 1524 32.9697 1561.33 49.4545L1600 65.9394V362.667V848V864V1051.36L1556 1085.25C1554.52 1086.36 1553 1087.5 1551.44 1088.67C1504.94 1123.5 1419.76 1187.3 1333.33 1198.23C1259.35 1207.59 1186.29 1178.2 1112.62 1148.58C1097.33 1142.43 1082.02 1136.27 1066.67 1130.44C977.333 1096.55 889.333 1073.96 800 1096.55C764.171 1105.61 728.556 1121.94 692.984 1138.26C639.864 1162.62 586.838 1186.93 533.333 1186.93C466.704 1186.93 400.817 1149.22 334.565 1111.31C311.989 1098.39 289.371 1085.44 266.667 1073.96C177.333 1028.76 89.3333 1006.17 44 994.871L0 983.573V864V848V362.667V16.4848Z" fill="url(#paint0_linear)"/>
<defs>
<linearGradient id="paint0_linear" x1="1.44385e-05" y1="378.667" x2="1605.8" y2="488.564" gradientUnits="userSpaceOnUse">
<stop stop-color="#6BD5ED" stop-opacity="0.31"/>
<stop offset="1" stop-color="#FFD699" stop-opacity="0.29"/>
</linearGradient>
</defs>
</svg>
