<svg width="1059" height="1036" viewBox="0 0 1059 1036" fill="none" xmlns="http://www.w3.org/2000/svg">
<g clip-path="url(#clip0)">
<path fill-rule="evenodd" clip-rule="evenodd" d="M1059 0H0V900V920V956.811L22.0625 950.499C44.125 944.186 88.25 931.562 132.375 937.874C150.025 940.399 167.675 945.954 185.325 951.509C211.8 959.841 238.275 968.173 264.75 966.28C283.661 964.927 302.571 958.357 321.482 951.787C346.696 943.027 371.911 934.267 397.125 937.874C424.993 941.861 452.862 960.955 480.73 980.05C496.987 991.188 513.243 1002.33 529.5 1010.47C573.625 1032.56 617.75 1032.56 661.875 1013.62C675.113 1007.94 688.35 1000.56 701.588 993.17C732.475 975.938 763.363 958.705 794.25 963.123C818.01 966.522 841.769 982.733 865.529 998.943C885.894 1012.84 906.26 1026.73 926.625 1032.56C970.75 1045.18 1014.87 1019.93 1036.94 1007.31L1059 994.685V920V900V0Z" fill="url(#paint0_linear)"/>
<path d="M216.938 181.495C168.616 253.587 74.7536 285.042 -11.2431 265.506C-97.2772 246.428 -175.866 175.864 -180.47 102.638C-185.284 29.1639 -116.114 -46.9731 -28.498 -83.7832C59.3287 -120.345 165.354 -117.371 216.909 -60.1004C268.425 -2.37222 265.223 109.862 216.938 181.495Z" fill="#9BDBFF" fill-opacity="0.3"/>
<path d="M180.329 159.317C142.824 215.379 69.8327 239.745 2.89601 224.425C-64.0693 209.462 -125.308 154.427 -128.985 97.4147C-132.825 40.209 -79.1043 -18.9743 -10.9799 -47.518C57.3084 -75.8684 139.808 -73.4159 179.995 -28.7646C220.153 16.2431 217.806 103.613 180.329 159.317Z" fill="#9BDBFF" fill-opacity="0.29"/>
<path d="M137.188 132.823C112.164 170.172 63.5351 186.454 18.9727 176.314C-25.6091 166.412 -66.3426 129.831 -68.7421 91.8833C-71.2505 53.8075 -35.4248 14.3658 9.96635 -4.69298C55.4664 -23.6233 110.404 -22.0618 137.127 7.62581C163.831 37.5507 162.193 95.7105 137.188 132.823Z" fill="#9BDBFF" fill-opacity="0.41"/>
<path d="M1108.94 200.495C1060.62 272.587 966.754 304.042 880.757 284.506C794.723 265.428 716.134 194.864 711.53 121.638C706.716 48.1639 775.886 -27.9731 863.502 -64.7832C951.329 -101.345 1057.35 -98.3707 1108.91 -41.1004C1160.43 16.6278 1157.22 128.862 1108.94 200.495Z" fill="#9BDBFF" fill-opacity="0.3"/>
<path d="M1072.33 178.317C1034.82 234.379 961.833 258.745 894.896 243.425C827.931 228.462 766.692 173.427 763.015 116.415C759.175 59.209 812.896 0.0256869 881.02 -28.518C949.308 -56.8684 1031.81 -54.4159 1071.99 -9.76461C1112.15 35.2431 1109.81 122.613 1072.33 178.317Z" fill="#9BDBFF" fill-opacity="0.29"/>
<path d="M1029.19 151.823C1004.16 189.172 955.535 205.454 910.973 195.314C866.391 185.412 825.657 148.831 823.258 110.883C820.75 72.8075 856.575 33.3658 901.966 14.307C947.466 -4.62327 1002.4 -3.06178 1029.13 26.6258C1055.83 56.5507 1054.19 114.711 1029.19 151.823Z" fill="#9BDBFF" fill-opacity="0.42"/>
</g>
<defs>
<linearGradient id="paint0_linear" x1="-468" y1="-220" x2="1059" y2="608" gradientUnits="userSpaceOnUse">
<stop stop-color="#28A9C6"/>
<stop offset="1" stop-color="#3D67D2" stop-opacity="0.74"/>
</linearGradient>
<clipPath id="clip0">
<rect width="1059" height="1036" fill="white"/>
</clipPath>
</defs>
</svg>
