<svg width="1440" height="620" viewBox="0 0 1440 620" fill="none" xmlns="http://www.w3.org/2000/svg">
<g clip-path="url(#clip0)">
<path fill-rule="evenodd" clip-rule="evenodd" d="M1440 0H0V415V438V497.71L30 488.52C60 479.33 120 460.95 180 470.14C204 473.816 228 481.903 252 489.991C288 502.121 324 514.252 360 511.495C385.714 509.526 411.429 499.961 437.143 490.396C471.429 477.642 505.714 464.889 540 470.14C577.895 475.944 615.789 503.744 653.684 531.543C675.789 547.759 697.895 563.975 720 575.826C780 607.991 840 607.991 900 580.421C918 572.149 936 561.397 954 550.645C996 525.556 1038 500.467 1080 506.9C1112.31 511.849 1144.62 535.449 1176.92 559.05C1204.62 579.279 1232.31 599.508 1260 607.991C1320 626.371 1380 589.611 1410 571.231L1440 552.85V438V415V0Z" fill="url(#paint0_linear)"/>
<path d="M239.938 183.495C191.616 255.587 97.7536 287.042 11.757 267.506C-74.2772 248.428 -152.866 177.864 -157.47 104.638C-162.284 31.1639 -93.1145 -44.9731 -5.498 -81.7832C82.3287 -118.345 188.354 -115.371 239.909 -58.1004C291.425 -0.372218 288.223 111.862 239.938 183.495Z" fill="#9BDBFF" fill-opacity="0.3"/>
<path d="M203.329 161.317C165.824 217.379 92.8327 241.745 25.896 226.425C-41.0693 211.462 -102.308 156.427 -105.985 99.4147C-109.825 42.209 -56.1043 -16.9743 12.0201 -45.518C80.3085 -73.8684 162.808 -71.4159 202.995 -26.7646C243.153 18.2431 240.806 105.613 203.329 161.317Z" fill="#9BDBFF" fill-opacity="0.29"/>
<path d="M160.188 134.823C135.164 172.172 86.5351 188.454 41.9727 178.314C-2.60906 168.412 -43.3426 131.831 -45.742 93.8833C-48.2505 55.8075 -12.4248 16.3658 32.9664 -2.69298C78.4665 -21.6233 133.404 -20.0618 160.127 9.62581C186.831 39.5507 185.193 97.7105 160.188 134.823Z" fill="#9BDBFF" fill-opacity="0.41"/>
<path d="M1457.94 124.495C1409.62 196.587 1315.75 228.042 1229.76 208.506C1143.72 189.428 1065.13 118.864 1060.53 45.6381C1055.72 -27.8361 1124.89 -103.973 1212.5 -140.783C1300.33 -177.345 1406.35 -174.371 1457.91 -117.1C1509.43 -59.3722 1506.22 52.8616 1457.94 124.495Z" fill="#9BDBFF" fill-opacity="0.3"/>
<path d="M1421.33 102.317C1383.82 158.379 1310.83 182.745 1243.9 167.425C1176.93 152.462 1115.69 97.4273 1112.02 40.4147C1108.17 -16.791 1161.9 -75.9743 1230.02 -104.518C1298.31 -132.868 1380.81 -130.416 1420.99 -85.7646C1461.15 -40.7569 1458.81 46.6128 1421.33 102.317Z" fill="#9BDBFF" fill-opacity="0.29"/>
<path d="M1378.19 75.8226C1353.16 113.172 1304.54 129.454 1259.97 119.314C1215.39 109.412 1174.66 72.8306 1172.26 34.8833C1169.75 -3.19251 1205.58 -42.6342 1250.97 -61.693C1296.47 -80.6233 1351.4 -79.0618 1378.13 -49.3742C1404.83 -19.4493 1403.19 38.7105 1378.19 75.8226Z" fill="#9BDBFF" fill-opacity="0.42"/>
</g>
<defs>
<linearGradient id="paint0_linear" x1="-87" y1="-220" x2="1440" y2="608" gradientUnits="userSpaceOnUse">
<stop stop-color="#28A9C6"/>
<stop offset="1" stop-color="#3D67D2" stop-opacity="0.74"/>
</linearGradient>
<clipPath id="clip0">
<rect width="1440" height="620" fill="white"/>
</clipPath>
</defs>
</svg>
