<svg width="559" height="474" viewBox="0 0 559 474" fill="none" xmlns="http://www.w3.org/2000/svg">
<path opacity="0.18" d="M187.685 13.6351C156.81 30.2169 134.295 60.54 124.277 94.1169C118.349 114.005 116.501 134.966 109.742 154.602C90.5091 210.422 35.0763 246.735 11.4592 300.817C-1.73165 330.936 -3.99741 366.047 7.0844 396.993C18.1662 427.938 42.9519 454.1 73.9552 465.025C92.9553 471.718 113.38 472.72 133.516 473.361C171.203 474.563 209.189 474.7 246.295 468.007C263.966 464.816 281.379 460.089 299.215 458.033C333.724 454.042 368.956 460.108 403.241 454.546C427.115 450.67 449.749 441.247 471.37 430.417C487.607 422.276 503.566 413.175 516.972 400.897C552.392 368.407 565.512 315.732 555.997 268.622C546.483 221.513 516.573 180.132 478.928 150.256C462.38 137.117 444.349 125.994 426.997 113.933C404.638 98.4031 383.398 81.3201 363.437 62.8104C315.679 18.5132 254.076 -21.9985 187.685 13.6351Z" fill="url(#paint0_linear)" fill-opacity="0.98"/>
<path opacity="0.18" d="M193.269 29.8008C164.272 45.3681 143.127 73.8361 133.719 105.359C128.15 124.03 126.415 143.708 120.068 162.143C102.004 214.549 49.9428 248.639 27.7623 299.413C15.3737 327.689 13.2457 360.652 23.6536 389.704C34.0613 418.756 57.3394 443.318 86.4572 453.574C104.302 459.857 123.484 460.798 142.395 461.4C177.79 462.528 213.465 462.657 248.315 456.375C264.911 453.378 281.265 448.94 298.016 447.01C330.426 443.265 363.515 448.958 395.715 443.737C418.137 440.098 439.394 431.251 459.701 421.084C474.949 413.441 489.938 404.897 502.527 393.369C535.795 362.868 548.115 313.415 539.18 269.188C530.245 224.961 502.153 186.111 466.798 158.062C451.256 145.728 434.321 135.285 418.025 123.962C397.026 109.383 377.078 93.3448 358.331 75.9677C313.479 34.3805 255.622 -3.65257 193.269 29.8008Z" fill="url(#paint1_linear)" fill-opacity="0.98"/>
<path opacity="0.18" d="M200.168 47.7077C173.49 61.9457 154.036 87.9827 145.381 116.813C140.258 133.89 138.662 151.889 132.822 168.748C116.204 216.679 68.3074 247.859 47.9012 294.296C36.5037 320.158 34.5461 350.306 44.1212 376.878C53.6963 403.448 75.1122 425.912 101.901 435.293C118.317 441.04 135.966 441.9 153.363 442.451C185.927 443.483 218.747 443.601 250.81 437.854C266.078 435.114 281.123 431.055 296.535 429.29C326.352 425.864 356.793 431.072 386.417 426.296C407.046 422.969 426.603 414.876 445.285 405.578C459.313 398.587 473.104 390.773 484.685 380.23C515.29 352.333 526.627 307.103 518.405 266.652C510.185 226.202 484.34 190.67 451.815 165.016C437.515 153.736 421.936 144.184 406.943 133.829C387.624 120.494 369.273 105.825 352.024 89.9321C310.761 51.8963 257.533 17.111 200.168 47.7077Z" fill="url(#paint2_linear)" fill-opacity="0.98"/>
<defs>
<linearGradient id="paint0_linear" x1="34.2002" y1="411.339" x2="602.294" y2="78.8315" gradientUnits="userSpaceOnUse">
<stop stop-color="#FF9473" stop-opacity="0.74"/>
<stop offset="0.700861" stop-color="#3ADAFF" stop-opacity="0.7"/>
<stop offset="1" stop-color="#F4FDFF" stop-opacity="0"/>
</linearGradient>
<linearGradient id="paint1_linear" x1="49.1201" y1="403.172" x2="582.556" y2="90.831" gradientUnits="userSpaceOnUse">
<stop stop-color="#FF9473" stop-opacity="0.6"/>
<stop offset="0.65625" stop-color="#3ADAFF"/>
<stop offset="1" stop-color="#F4FDFF" stop-opacity="0"/>
</linearGradient>
<linearGradient id="paint2_linear" x1="67.5505" y1="389.195" x2="556.834" y2="101.017" gradientUnits="userSpaceOnUse">
<stop stop-color="#FF9473" stop-opacity="0.75"/>
<stop offset="0.71875" stop-color="#3ADAFF" stop-opacity="0.95"/>
<stop offset="1" stop-color="#F4FDFF" stop-opacity="0"/>
</linearGradient>
</defs>
</svg>
