<svg width="498" height="559" viewBox="0 0 498 559" fill="none" xmlns="http://www.w3.org/2000/svg">
<path d="M391.575 98.7448C439.871 146.452 485.196 190.831 495.598 242.236C506 294.012 481.481 352.813 443.958 390.166C406.064 427.888 354.795 444.16 297.954 479.293C241.484 514.426 179.07 568.051 135.975 557.695C92.5083 547.34 67.9886 473.006 43.4688 409.396C18.9491 345.417 -5.57063 292.162 1.11658 242.236C7.43227 192.68 44.9549 146.082 89.9078 98.0052C134.861 49.5584 187.244 -0.367781 239.255 0.00204205C291.267 0.371865 343.278 51.0377 391.575 98.7448Z" fill="url(#paint0_linear)" fill-opacity="0.09"/>
<path d="M379.551 112.972C423.774 156.925 465.276 197.81 474.801 245.169C484.326 292.869 461.874 347.043 427.516 381.455C392.817 416.208 345.873 431.199 293.825 463.567C242.118 495.935 184.968 545.338 145.507 535.798C105.706 526.258 83.2546 457.775 60.8028 399.172C38.351 340.229 15.8992 291.166 22.0224 245.169C27.8054 199.514 62.1635 156.584 103.325 112.291C144.487 67.6575 192.452 21.6612 240.077 22.0019C287.702 22.3426 335.327 69.0204 379.551 112.972Z" fill="url(#paint1_linear)" fill-opacity="0.08"/>
<path d="M368.819 127.064C409.407 167.297 447.498 204.723 456.24 248.075C464.982 291.738 444.376 341.327 412.842 372.827C380.996 404.639 337.91 418.362 290.141 447.991C242.684 477.62 190.231 522.842 154.014 514.11C117.485 505.377 96.8788 442.689 76.2725 389.045C55.6662 335.09 35.0599 290.179 40.6798 248.075C45.9875 206.282 77.5213 166.985 115.3 126.441C153.078 85.5841 197.1 43.4801 240.811 43.792C284.521 44.1039 328.231 86.8317 368.819 127.064Z" fill="url(#paint2_linear)" fill-opacity="0.1"/>
<defs>
<linearGradient id="paint0_linear" x1="23.7739" y1="398.396" x2="613.02" y2="12.6324" gradientUnits="userSpaceOnUse">
<stop stop-color="#FF9473" stop-opacity="0.76"/>
<stop offset="0.78125" stop-color="#3ADAFF" stop-opacity="0.7"/>
</linearGradient>
<linearGradient id="paint1_linear" x1="42.7689" y1="389.038" x2="477.298" y2="96.9986" gradientUnits="userSpaceOnUse">
<stop stop-color="#FF9473" stop-opacity="0.6"/>
<stop offset="1" stop-color="#3ADAFF"/>
</linearGradient>
<linearGradient id="paint2_linear" x1="59.7209" y1="379.769" x2="457.876" y2="111.468" gradientUnits="userSpaceOnUse">
<stop stop-color="#FF9473" stop-opacity="0.67"/>
<stop offset="1" stop-color="#3ADAFF" stop-opacity="0.87"/>
</linearGradient>
</defs>
</svg>
