<svg width="465" height="394" viewBox="0 0 465 394" fill="none" xmlns="http://www.w3.org/2000/svg">
<path opacity="0.18" d="M156.124 11.3338C130.441 25.117 111.712 50.3223 103.379 78.2322C98.4477 94.7633 96.9107 112.187 91.288 128.509C75.2893 174.908 29.178 205.092 9.53223 250.046C-1.44046 275.082 -3.32521 304.267 5.89311 329.99C15.1114 355.712 35.7292 377.459 61.5191 386.54C77.3242 392.103 94.3147 392.936 111.064 393.469C142.414 394.468 174.012 394.582 204.879 389.019C219.578 386.366 234.063 382.437 248.9 380.728C277.606 377.411 306.913 382.453 335.433 377.83C355.292 374.608 374.12 366.775 392.106 357.773C405.612 351.006 418.888 343.441 430.039 333.235C459.503 306.229 470.417 262.444 462.502 223.285C454.588 184.127 429.707 149.73 398.393 124.896C384.627 113.975 369.628 104.729 355.194 94.7041C336.595 81.795 318.927 67.5952 302.322 52.2095C262.595 15.3886 211.351 -18.2857 156.124 11.3338Z" fill="url(#paint0_linear)"/>
<path opacity="0.18" d="M164.008 32.1831C140.976 44.567 124.181 67.2134 116.708 92.2898C112.285 107.143 110.907 122.797 105.865 137.462C91.5175 179.151 50.166 206.27 32.5483 246.661C22.7082 269.155 21.018 295.377 29.2848 318.488C37.5515 341.599 56.041 361.138 79.1688 369.297C93.3424 374.295 108.579 375.044 123.599 375.523C151.713 376.42 180.049 376.523 207.73 371.525C220.912 369.141 233.902 365.611 247.207 364.075C272.95 361.096 299.232 365.625 324.808 361.472C342.617 358.577 359.501 351.539 375.631 343.451C387.742 337.371 399.648 330.574 409.647 321.404C436.071 297.14 445.857 257.8 438.76 222.617C431.663 187.434 409.35 156.529 381.268 134.216C368.923 124.404 355.472 116.096 342.528 107.089C325.849 95.491 310.005 82.7327 295.114 68.9091C259.489 35.8263 213.534 5.57075 164.008 32.1831Z" fill="url(#paint1_linear)"/>
<path opacity="0.18" d="M171.564 51.0325C151.072 62.0171 136.129 82.1046 129.481 104.347C125.546 117.522 124.32 131.408 119.834 144.415C107.07 181.394 70.2796 205.449 54.6053 241.275C45.8507 261.228 44.347 284.487 51.7018 304.987C59.0566 325.486 75.5065 342.817 96.083 350.054C108.693 354.488 122.249 355.152 135.612 355.577C160.625 356.373 185.835 356.464 210.463 352.03C222.19 349.916 233.747 346.785 245.585 345.423C268.488 342.78 291.87 346.798 314.625 343.113C330.47 340.546 345.492 334.303 359.842 327.129C370.617 321.736 381.21 315.707 390.106 307.573C413.614 286.051 422.322 251.156 416.007 219.948C409.693 188.741 389.841 161.328 364.858 141.536C353.874 132.833 341.907 125.464 330.391 117.475C315.552 107.187 301.456 95.8703 288.207 83.6086C256.512 54.264 215.627 27.4272 171.564 51.0325Z" fill="url(#paint2_linear)"/>
<defs>
<linearGradient id="paint0_linear" x1="28.4492" y1="341.915" x2="500.834" y2="65.2203" gradientUnits="userSpaceOnUse">
<stop stop-color="#FF9473" stop-opacity="0.48"/>
<stop offset="0.700861" stop-color="#3ADAFF" stop-opacity="0.52"/>
<stop offset="1" stop-color="#F4FDFF" stop-opacity="0"/>
</linearGradient>
<linearGradient id="paint1_linear" x1="49.5125" y1="329.202" x2="473.545" y2="81.3007" gradientUnits="userSpaceOnUse">
<stop stop-color="#FF9473" stop-opacity="0.48"/>
<stop offset="0.700861" stop-color="#3ADAFF" stop-opacity="0.52"/>
<stop offset="1" stop-color="#F4FDFF" stop-opacity="0"/>
</linearGradient>
<linearGradient id="paint2_linear" x1="69.6982" y1="314.49" x2="446.374" y2="93.6088" gradientUnits="userSpaceOnUse">
<stop stop-color="#FF9473" stop-opacity="0.48"/>
<stop offset="0.700861" stop-color="#3ADAFF" stop-opacity="0.52"/>
<stop offset="1" stop-color="#F4FDFF" stop-opacity="0"/>
</linearGradient>
</defs>
</svg>
