<svg width="1600" height="1200" viewBox="0 0 1600 1200" fill="none" xmlns="http://www.w3.org/2000/svg">
<g clip-path="url(#clip0)">
<path d="M815.488 640.169C916.443 732.622 1060.26 712.332 1163.01 604.142C1265.77 495.953 1245.17 326.68 1126 256.72C1006.83 186.76 875.425 189.247 778.473 292.746C681.52 396.245 714.534 547.715 815.488 640.169Z" fill="url(#paint0_linear)" fill-opacity="0.29"/>
<path d="M1229.29 154.379C1324.58 206.61 1442.52 211.251 1512.38 124.981C1582.24 38.7104 1568.76 -87.9994 1482.28 -158.034C1395.79 -228.068 1275.52 -194.871 1199.19 -128.635C1122.87 -62.3999 1134.01 102.148 1229.29 154.379Z" fill="#EFF3F0" fill-opacity="0.1"/>
<path d="M1078.45 209.872C1128.12 250.097 1195.59 240.977 1234.05 193.48C1272.51 145.983 1266.33 67.4971 1217.73 37.8707C1169.14 8.24426 1097.56 -3.02032 1062.13 54.2626C1026.7 111.546 1028.78 169.648 1078.45 209.872Z" fill="#7252A4" fill-opacity="0.1"/>
<path d="M665.316 229.54C685.006 245.485 711.749 241.87 726.996 223.042C742.242 204.215 739.79 173.103 720.527 161.359C701.265 149.615 672.892 145.15 658.847 167.857C644.803 190.563 645.625 213.595 665.316 229.54Z" fill="#7252A4" fill-opacity="0.1"/>
<path d="M867.598 462.08C876.548 469.328 888.704 467.684 895.634 459.126C902.564 450.568 901.449 436.427 892.694 431.089C883.938 425.751 871.041 423.721 864.657 434.042C858.273 444.363 858.647 454.832 867.598 462.08Z" fill="#7252A4" fill-opacity="0.1"/>
<path d="M1384.27 264.25C1431.39 302.408 1517.35 254.677 1570.21 202.936C1623.07 151.195 1615.63 58.8592 1550.14 15.4964C1484.65 -27.8664 1408.86 -22.2616 1362.62 34.8401C1316.38 91.9417 1337.15 226.092 1384.27 264.25Z" fill="#7252A4" fill-opacity="0.1"/>
<path d="M1380.93 721.518C1413.48 751.323 1459.84 744.781 1492.97 709.903C1526.09 675.026 1519.45 620.456 1481.03 597.902C1442.62 575.348 1400.25 576.15 1369 609.516C1337.74 642.882 1348.39 691.713 1380.93 721.518Z" fill="#F0C933" fill-opacity="0.1"/>
<path d="M406.175 877.424C415.127 885.622 427.879 883.823 436.991 874.23C446.103 864.636 444.276 849.626 433.709 843.422C423.142 837.219 411.489 837.439 402.892 846.617C394.295 855.795 397.223 869.226 406.175 877.424Z" fill="#F0C933" fill-opacity="0.1"/>
<path d="M1321.17 846.424C1330.13 854.622 1342.88 852.823 1351.99 843.23C1361.1 833.636 1359.28 818.626 1348.71 812.422C1338.14 806.219 1326.49 806.439 1317.89 815.617C1309.3 824.795 1312.22 838.226 1321.17 846.424Z" fill="#F0C933" fill-opacity="0.1"/>
<path d="M440.088 822.894C444.564 826.993 450.94 826.093 455.496 821.297C460.052 816.5 459.138 808.995 453.855 805.893C448.571 802.791 442.745 802.902 438.446 807.49C434.148 812.079 435.612 818.795 440.088 822.894Z" fill="#F0C933" fill-opacity="0.1"/>
<path d="M705.895 564.321C733.158 589.288 771.995 583.809 799.745 554.592C827.495 525.376 821.931 479.663 789.749 460.77C757.567 441.877 722.081 442.549 695.899 470.499C669.717 498.449 678.632 539.354 705.895 564.321Z" fill="#453264" fill-opacity="0.1"/>
<path d="M1214.17 1003.42C1223.13 1011.62 1235.88 1009.82 1244.99 1000.23C1254.1 990.636 1252.28 975.626 1241.71 969.422C1231.14 963.219 1219.49 963.439 1210.89 972.617C1202.29 981.795 1205.22 995.226 1214.17 1003.42Z" fill="#453264" fill-opacity="0.1"/>
<path d="M690.439 596.387C684.281 606.848 688.692 618.948 699.97 625.866C711.249 632.784 725.551 627.876 729.422 616.25C733.293 604.624 730.655 593.272 719.89 586.771C709.126 580.27 696.596 585.926 690.439 596.387Z" fill="#453264" fill-opacity="0.1"/>
<path d="M1467.35 466.682C1506.83 502.834 1563.06 494.899 1603.24 452.595C1643.42 410.29 1635.37 344.101 1588.77 316.745C1542.17 289.389 1490.79 290.361 1452.88 330.832C1414.97 371.302 1427.88 430.531 1467.35 466.682Z" fill="#0F90D1" fill-opacity="0.1"/>
<path d="M1421.73 465.706C1486.46 556.233 1455.91 667.047 1375.01 746.814C1294.11 826.581 1177.16 888.277 1090.3 950.377C1003.44 1012.48 878.061 999.983 809.19 903.657C740.32 807.331 761.967 675.1 855.91 622.549C949.854 569.998 1039.77 476.476 1140.62 418.986C1241.48 361.496 1357.01 375.179 1421.73 465.706Z" fill="url(#paint1_linear)" fill-opacity="0.1"/>
<path d="M1359.79 1102.1C1422.96 1159.95 1512.95 1147.25 1577.25 1079.55C1641.55 1011.85 1628.66 905.931 1554.09 862.153C1479.52 818.375 1397.29 819.931 1336.62 884.696C1275.96 949.461 1296.61 1044.24 1359.79 1102.1Z" fill="url(#paint2_linear)"/>
<path d="M995.691 80.5209C1005.11 85.6786 1016.77 86.1268 1023.69 77.5865C1030.6 69.0462 1029.28 56.5135 1020.74 49.5938C1012.19 42.6741 1000.29 45.9691 992.741 52.5282C985.188 59.0872 986.274 75.3631 995.691 80.5209Z" fill="#EFF3F0"/>
</g>
<defs>
<linearGradient id="paint0_linear" x1="1127.54" y1="254.96" x2="815.272" y2="640.58" gradientUnits="userSpaceOnUse">
<stop stop-color="#FFDAA3"/>
<stop offset="1" stop-color="#AEF2FC" stop-opacity="0.44"/>
</linearGradient>
<linearGradient id="paint1_linear" x1="1423.04" y1="467.534" x2="810.497" y2="905.485" gradientUnits="userSpaceOnUse">
<stop stop-color="#CD0FD1" stop-opacity="0.32"/>
<stop offset="1" stop-color="#0F90D1"/>
</linearGradient>
<linearGradient id="paint2_linear" x1="1555.05" y1="861.051" x2="1359.65" y2="1102.35" gradientUnits="userSpaceOnUse">
<stop stop-color="#FDA488" stop-opacity="0.51"/>
<stop offset="1" stop-color="#83FCC2" stop-opacity="0"/>
</linearGradient>
<clipPath id="clip0">
<rect width="1600" height="1200" fill="white"/>
</clipPath>
</defs>
</svg>
