<svg width="1600" height="1200" viewBox="0 0 1600 1200" fill="none" xmlns="http://www.w3.org/2000/svg">
<g clip-path="url(#clip0)">
<path d="M125.729 901.111C262.56 905.214 358.234 795.941 365.418 646.902C372.601 497.863 246.466 383.113 110.527 407.939C-25.4114 432.765 -123.312 520.452 -129.161 662.148C-135.01 803.843 -11.1012 897.007 125.729 901.111Z" fill="url(#paint0_linear)" fill-opacity="0.29"/>
<path d="M121.935 262.98C228.209 240.32 320.567 166.824 317.146 55.8675C313.726 -55.089 220.782 -142.258 109.549 -138.829C-1.68328 -135.4 -71.1036 -31.7198 -85.6622 68.2841C-100.221 168.288 15.6609 285.64 121.935 262.98Z" fill="#EFF3F0" fill-opacity="0.1"/>
<path d="M135.177 755.396C199.065 753.427 244.208 702.467 242.325 641.378C240.442 580.29 184.508 524.885 128.358 534.176C72.2089 543.468 10.642 581.674 21.2107 648.194C31.7793 714.715 71.2903 757.366 135.177 755.396Z" fill="#7252A4" fill-opacity="0.1"/>
<path d="M48.9102 732.203C60.4214 731.849 68.5554 722.666 68.2161 711.66C67.8768 700.653 57.7986 690.67 47.6816 692.344C37.5646 694.018 26.4715 700.902 28.3757 712.888C30.28 724.873 37.3991 732.558 48.9102 732.203Z" fill="#7252A4" fill-opacity="0.1"/>
<path d="M142.31 419.518C202.914 417.65 236.847 325.375 243.098 251.671C249.348 177.967 183.423 112.889 105.508 122.809C27.593 132.729 -26.147 186.46 -23.8832 259.901C-21.6194 333.342 81.7047 421.386 142.31 419.518Z" fill="#7252A4" fill-opacity="0.1"/>
<path d="M515.617 515.173C537.546 515.831 552.879 498.318 554.031 474.432C555.182 450.546 534.967 432.155 513.181 436.134C491.394 440.113 475.704 454.166 474.767 476.875C473.829 499.584 493.688 514.515 515.617 515.173Z" fill="#F07733" fill-opacity="0.1"/>
<path d="M429.177 432.733C451.106 433.39 466.439 415.877 467.59 391.992C468.742 368.106 448.527 349.715 426.74 353.694C404.954 357.673 389.264 371.726 388.326 394.435C387.389 417.144 407.247 432.075 429.177 432.733Z" fill="#F07733" fill-opacity="0.1"/>
<path d="M643.407 727.131C655.541 727.495 664.024 717.805 664.661 704.589C665.298 691.373 654.114 681.198 642.059 683.399C630.005 685.601 621.324 693.376 620.805 705.941C620.287 718.506 631.274 726.767 643.407 727.131Z" fill="#F0C933" fill-opacity="0.1"/>
<path d="M664.882 915.908C677.016 916.272 685.499 906.582 686.136 893.366C686.773 880.151 675.588 869.975 663.534 872.177C651.48 874.378 642.799 882.154 642.28 894.718C641.762 907.283 652.749 915.544 664.882 915.908Z" fill="#453264" fill-opacity="0.1"/>
<path d="M2.43011 949.604C4.59684 961.548 15.8386 967.832 28.8981 965.707C41.9576 963.583 49.5852 950.527 44.9256 939.194C40.2661 927.861 30.8555 920.986 18.4576 923.091C6.05967 925.196 0.263369 937.661 2.43011 949.604Z" fill="#453264" fill-opacity="0.1"/>
<path d="M425.904 601.839C479.408 603.444 516.818 560.716 519.628 502.438C522.437 444.16 473.115 399.29 419.96 408.998C366.805 418.705 328.523 452.993 326.236 508.399C323.949 563.805 372.4 600.235 425.904 601.839Z" fill="#0F90D1" fill-opacity="0.1"/>
<path d="M411.167 908.844C312.701 960.698 207.051 915.412 138.988 824.445C70.9252 733.477 25.6555 609.236 -24.0961 514.762C-73.8478 420.288 -44.471 297.759 60.3028 242.583C165.077 187.407 293.152 226.781 332.482 326.982C371.811 427.183 452.279 528.95 495.566 636.665C538.852 744.38 509.633 856.99 411.167 908.844Z" fill="url(#paint1_linear)" fill-opacity="0.28"/>
<path d="M452.272 715.375C460.348 800.654 535.625 851.576 628.724 844.465C721.822 837.355 783.28 750.126 757.311 667.647C731.342 585.168 669.295 531.188 580.86 538.557C492.425 545.926 444.197 630.096 452.272 715.375Z" fill="url(#paint2_linear)" fill-opacity="0.66"/>
<path d="M42.0686 935.972C79.0199 937.08 104.857 907.571 106.797 867.322C108.737 827.074 74.6738 796.086 37.9633 802.79C1.25281 809.494 -25.1855 833.174 -26.7651 871.44C-28.3446 909.705 5.11732 934.864 42.0686 935.972Z" fill="#453264" fill-opacity="0.1"/>
</g>
<defs>
<linearGradient id="paint0_linear" x1="110.546" y1="405.599" x2="125.834" y2="901.564" gradientUnits="userSpaceOnUse">
<stop stop-color="#FFDAA3"/>
<stop offset="1" stop-color="#AEF2FC" stop-opacity="0.44"/>
</linearGradient>
<linearGradient id="paint1_linear" x1="409.179" y1="909.891" x2="58.3143" y2="243.63" gradientUnits="userSpaceOnUse">
<stop stop-color="#CD0FD1" stop-opacity="0.32"/>
<stop offset="1" stop-color="#0F90D1"/>
</linearGradient>
<linearGradient id="paint2_linear" x1="758.765" y1="667.477" x2="451.999" y2="715.475" gradientUnits="userSpaceOnUse">
<stop stop-color="#FDA488" stop-opacity="0.51"/>
<stop offset="1" stop-color="#83FCC2" stop-opacity="0"/>
</linearGradient>
<clipPath id="clip0">
<rect width="1600" height="1200" fill="white"/>
</clipPath>
</defs>
</svg>
