<svg width="1436" height="709" viewBox="0 0 1436 709" fill="none" xmlns="http://www.w3.org/2000/svg">
<path d="M104 150.76C83.3877 133.516 24 58.7071 0 21.1345V703.076C38 694.152 127.6 670.669 182 648.126C250 619.947 314.447 586.974 394 611.493C490 641.081 594 767.888 708 676.305C822 584.722 876 611.493 954 641.081C1032 670.669 1092 622.765 1112 611.493C1132 600.221 1223.55 512.607 1274 515.683C1378 522.023 1398.67 620.886 1436 676.305V0C1414.67 11.7414 1375 -19.0211 1304 35.2242C1257.9 70.4425 1121.09 117.152 994 83.1292C894 56.3588 920 57.7677 804 35.2242C688 12.6807 604 83.1292 568 95.8099C532 108.491 514 102.452 450 83.1292C382.8 62.84 371 64.8126 338 83.1292C251 145.124 234 162.736 192 177.53C150.124 192.281 136 177.53 104 150.76Z" fill="url(#paint0_linear)"/>
<defs>
<linearGradient id="paint0_linear" x1="-146" y1="282.498" x2="1477.14" y2="-2.70652" gradientUnits="userSpaceOnUse">
<stop stop-color="#FF866B" stop-opacity="0.49"/>
<stop offset="1" stop-color="#4E73D2" stop-opacity="0.24"/>
</linearGradient>
</defs>
</svg>
