<svg width="814" height="797" viewBox="0 0 814 797" fill="none" xmlns="http://www.w3.org/2000/svg">
<g clip-path="url(#clip0)">
<path fill-rule="evenodd" clip-rule="evenodd" d="M15.2625 86.3069L0 98.9049V117V129V671V701V754.848L19.2194 746.308C19.794 746.071 20.3842 745.828 20.9897 745.577C41.237 737.21 78.5757 721.78 116.447 732.333C132.412 737.009 148.475 746.506 164.554 756.013L164.555 756.013C187.189 769.396 209.856 782.798 232.329 782.798C255.214 782.798 278.099 769.301 300.869 755.871C316.908 746.412 332.891 736.986 348.776 732.333C387.781 721.464 426.219 738.156 465.224 757.566C468.135 759.065 471.049 760.578 473.967 762.092C509.57 780.572 545.621 799.284 581.671 796.772C603.425 795.235 625.361 785.615 647.273 776.006C664.077 768.636 680.868 761.272 697.553 757.566C736.557 749.414 774.996 760.283 794.781 766.106L814 771.54L814 701L814 671V129L814 117L814 23.3172L798.737 18.068C784.04 13.1688 753.515 3.02045 723.556 0.570851C693.596 -1.87875 663.071 3.02045 633.111 25.7668C620.905 35.0338 608.606 47.2051 596.288 59.3936C578.373 77.1221 560.42 94.887 542.667 103.804C512.707 118.852 482.182 108.703 452.222 88.7565C445.453 84.1709 438.656 79.0851 431.842 73.9875C408.498 56.5223 384.969 38.9182 361.778 40.8143C347.341 41.9947 332.773 50.8132 318.2 59.6345C302.531 69.1197 286.856 78.6082 271.333 78.6082C252.24 78.6082 232.918 64.2534 213.658 49.9455C202.696 41.8023 191.755 33.6742 180.889 28.2164C150.929 13.1688 120.404 18.068 90.4444 33.1156C60.4847 48.5131 29.9597 73.709 15.2625 86.3069Z" fill="url(#paint0_linear)"/>
</g>
<defs>
<linearGradient id="paint0_linear" x1="-616" y1="159.461" x2="1496.6" y2="715.828" gradientUnits="userSpaceOnUse">
<stop stop-color="#36A4F4"/>
<stop offset="1" stop-color="#F44336"/>
</linearGradient>
<clipPath id="clip0">
<rect width="814" height="797" fill="white"/>
</clipPath>
</defs>
</svg>
