<svg width="1010" height="509" viewBox="0 0 1010 509" fill="none" xmlns="http://www.w3.org/2000/svg">
<path fill-rule="evenodd" clip-rule="evenodd" d="M18.9375 86.3069L0 98.9049V117V129V383V399V466.848L23.8472 458.308C24.5601 458.071 25.2924 457.828 26.0438 457.577C51.1663 449.21 97.4956 433.78 144.486 444.333C164.296 449.009 184.226 458.506 204.177 468.013C232.261 481.396 260.386 494.798 288.271 494.798C316.666 494.798 345.061 481.301 373.315 467.871C393.216 458.412 413.046 448.986 432.757 444.333C481.153 433.464 528.847 450.156 577.243 469.566C580.855 471.065 584.471 472.577 588.09 474.092L588.091 474.092C632.268 492.572 676.999 511.284 721.729 508.772C748.722 507.235 775.939 497.615 803.127 488.006C823.978 480.636 844.812 473.272 865.514 469.566C913.91 461.414 961.604 472.283 986.153 478.106L1010 483.54V399V383V129V117V23.3172L991.062 18.068C972.826 13.1688 934.951 3.02045 897.778 0.570851C860.604 -1.87875 822.729 3.02045 785.556 25.7668C770.411 35.0338 755.149 47.2051 739.867 59.3936C717.637 77.1221 695.362 94.887 673.333 103.804C636.16 118.852 598.285 108.703 561.111 88.7565C552.712 84.1709 544.278 79.0851 535.824 73.9875C506.859 56.5223 477.664 38.9182 448.889 40.8143C430.976 41.9947 412.9 50.8132 394.819 59.6345C375.377 69.1197 355.927 78.6082 336.667 78.6082C312.976 78.6082 289.001 64.2534 265.104 49.9455C251.503 41.8023 237.928 33.6742 224.444 28.2164C187.271 13.1688 149.396 18.068 112.222 33.1156C75.0486 48.5131 37.1736 73.709 18.9375 86.3069Z" fill="url(#paint0_linear)"/>
<defs>
<linearGradient id="paint0_linear" x1="-420" y1="159.461" x2="1692.6" y2="715.828" gradientUnits="userSpaceOnUse">
<stop stop-color="#36A4F4"/>
<stop offset="1" stop-color="#F44336"/>
</linearGradient>
</defs>
</svg>
