<svg width="1440" height="691" viewBox="0 0 1440 691" fill="none" xmlns="http://www.w3.org/2000/svg">
<g clip-path="url(#clip0)">
<path fill-rule="evenodd" clip-rule="evenodd" d="M0 98.9049L27 86.3069C53 73.709 107 48.5131 160 33.1156C213 18.068 267 13.1688 320 28.2164C339.224 33.6742 358.579 41.8023 377.97 49.9455C412.041 64.2534 446.224 78.6082 480 78.6082C507.461 78.6082 535.19 69.1197 562.91 59.6345C588.69 50.8132 614.461 41.9947 640 40.8143C681.026 38.9182 722.651 56.5223 763.947 73.9875C776 79.0851 788.026 84.1709 800 88.7565C853 108.703 907 118.852 960 103.804C991.407 94.8871 1023.17 77.1221 1054.86 59.3936C1076.65 47.2051 1098.41 35.0338 1120 25.7668C1173 3.02045 1227 -1.87875 1280 0.570851C1333 3.02045 1387 13.1688 1413 18.068L1440 23.3172V117V129V565V583V665.54L1406 660.106C1371 654.283 1303 643.414 1234 651.566C1204.48 655.272 1174.78 662.636 1145.05 670.006C1106.29 679.615 1067.48 689.235 1029 690.772C965.226 693.284 901.452 674.572 838.467 656.092C833.306 654.578 828.15 653.065 823 651.566C754 632.156 686 615.464 617 626.333C588.897 630.986 560.624 640.412 532.251 649.871C491.968 663.301 451.484 676.798 411 676.798C371.243 676.798 331.145 663.396 291.104 650.013C262.659 640.506 234.243 631.009 206 626.333C139.004 615.78 72.95 631.21 37.1317 639.577C36.0605 639.828 35.0163 640.071 34 640.308L0 648.848V583V565V129V117V98.9049Z" fill="url(#paint0_linear)"/>
<path d="M227.53 290.077C248.852 364.903 215.846 447.299 152.462 494.757C89.37 542.506 -4.68375 555.316 -57.5525 516.011C-110.713 476.705 -122.689 385.284 -96.9849 304.052C-70.9887 222.821 -7.31258 152.071 61.9133 150.033C131.431 148.286 206.499 215.542 227.53 290.077Z" fill="#9BBDFF" fill-opacity="0.15"/>
<path d="M198.126 299.91C215.661 361.25 188.518 428.795 136.393 467.699C84.5082 506.842 7.16138 517.344 -36.3162 485.123C-80.034 452.901 -89.8825 377.957 -68.7442 311.366C-47.3657 244.775 4.99951 186.777 61.9287 185.106C119.098 183.674 180.831 238.808 198.126 299.91Z" fill="#9BBDFF" fill-opacity="0.15"/>
<path d="M166.545 310.377C180.012 357.36 159.166 409.097 119.134 438.896C79.2863 468.878 19.8839 476.922 -13.5068 452.242C-47.0821 427.562 -54.6457 370.157 -38.4115 319.152C-21.9929 268.146 18.2236 223.722 61.9452 222.442C105.851 221.345 153.263 263.576 166.545 310.377Z" fill="#9BBDFF" fill-opacity="0.15"/>
<path d="M1567.84 243.159C1604.85 311.599 1590.45 399.185 1538.84 459.232C1487.57 519.501 1398.52 552.359 1338.4 525.423C1277.99 498.551 1246.52 411.886 1254.04 327.018C1261.84 242.086 1308.7 159.235 1375.85 142.267C1443.34 125.52 1531.18 174.94 1567.84 243.159Z" fill="#9BBDFF" fill-opacity="0.15"/>
<path d="M1541.26 259.12C1571.65 315.213 1559.77 387.032 1517.3 436.293C1475.11 485.735 1401.87 512.723 1352.45 490.672C1302.79 468.673 1276.96 397.635 1283.19 328.048C1289.66 258.409 1328.23 190.454 1383.45 176.505C1438.96 162.738 1511.16 203.209 1541.26 259.12Z" fill="#9BBDFF" fill-opacity="0.15"/>
<path d="M1512.69 276.173C1536.01 319.13 1526.85 374.151 1494.21 411.906C1461.8 449.8 1405.54 470.506 1367.6 453.635C1329.48 436.804 1309.68 382.396 1314.49 329.086C1319.49 275.736 1349.14 223.662 1391.55 212.953C1434.18 202.382 1489.6 233.354 1512.69 276.173Z" fill="#9BBDFF" fill-opacity="0.15"/>
</g>
<defs>
<linearGradient id="paint0_linear" x1="10" y1="125" x2="2040" y2="807" gradientUnits="userSpaceOnUse">
<stop stop-color="#36A4F4"/>
<stop offset="1" stop-color="#F44336"/>
</linearGradient>
<clipPath id="clip0">
<rect width="1440" height="691" fill="white"/>
</clipPath>
</defs>
</svg>
