<svg width="1440" height="646" viewBox="0 0 1440 646" fill="none" xmlns="http://www.w3.org/2000/svg">
<g clip-path="url(#clip0)">
<path fill-rule="evenodd" clip-rule="evenodd" d="M1440 0H0V454V458V596.639L27 611.167C53 625.035 107 653.43 160 644.185C195.963 637.912 232.386 614.004 268.645 590.204C285.823 578.929 302.963 567.678 320 558.338C373 529.942 427 520.697 480 544.47C501.819 554.257 523.807 569.64 545.825 585.043C577.292 607.057 608.819 629.113 640 634.94C688.219 643.351 737.265 612.408 785.633 581.892C790.429 578.866 795.219 575.844 800 572.866C853 539.848 907 510.791 960 529.942C982 537.892 1004.17 554.034 1026.38 570.197C1057.66 592.972 1089 615.79 1120 615.79C1151 615.79 1182.34 592.972 1213.62 570.197C1235.83 554.034 1258 537.892 1280 529.942C1332.72 510.892 1386.43 539.543 1412.59 553.495L1413 553.715L1440 568.243V458V454V0Z" fill="url(#paint0_linear)"/>
<path d="M307.531 139.955C275.37 243.44 174.358 314.646 64.6489 322.079C-44.9427 330.072 -163.911 273.849 -195.405 187.955C-227.238 101.841 -171.598 -13.9433 -79.9522 -89.3167C12.0324 -164.469 139.8 -198.87 221.741 -148.861C303.8 -98.2904 339.81 37.0308 307.531 139.955Z" fill="#BEE4FF" fill-opacity="0.17"/>
<path d="M263.791 128.43C237.648 212.548 155.54 270.429 66.3621 276.471C-22.7203 282.968 -119.424 237.266 -145.025 167.447C-170.901 97.4487 -125.673 3.33245 -51.178 -57.9354C23.5924 -119.024 127.449 -146.987 194.056 -106.336C260.758 -65.2298 290.029 44.7671 263.791 128.43Z" fill="#BEE4FF" fill-opacity="0.17"/>
<path d="M213.524 115.185C194.298 177.047 133.914 219.614 68.3309 224.057C2.81779 228.836 -68.3005 195.226 -87.1274 143.879C-106.157 92.4008 -72.8955 23.1857 -18.1106 -21.8719C36.8771 -66.7974 113.256 -87.3623 162.239 -57.467C211.293 -27.2364 232.82 53.6576 213.524 115.185Z" fill="#BEE4FF" fill-opacity="0.17"/>
<path d="M1374.78 99.2442C1322.71 166.263 1229.06 190.663 1146.57 165.912C1064.02 141.605 992.278 67.6351 992.832 -4.0085C993.198 -75.9076 1065.86 -145.48 1153.8 -175.514C1241.93 -205.292 1345.08 -195.343 1391.39 -136.122C1437.63 -76.4565 1426.78 32.6693 1374.78 99.2442Z" fill="#BEE4FF" fill-opacity="0.17"/>
<path d="M1345.88 78.7538C1303.56 133.23 1227.43 153.065 1160.38 132.945C1093.28 113.187 1034.96 53.0601 1035.41 -5.17596C1035.71 -63.6197 1094.78 -120.173 1166.26 -144.586C1237.9 -168.791 1321.74 -160.704 1359.38 -112.565C1396.97 -64.0659 1388.15 24.6378 1345.88 78.7538Z" fill="#BEE4FF" fill-opacity="0.17"/>
<path d="M1312.68 55.2061C1281.55 95.2693 1225.56 109.856 1176.26 95.0598C1126.91 80.529 1084.02 36.3104 1084.35 -6.51764C1084.57 -49.4984 1128.01 -91.0885 1180.58 -109.042C1233.26 -126.844 1294.92 -120.896 1322.6 -85.4939C1350.25 -49.8265 1343.76 15.408 1312.68 55.2061Z" fill="#BEE4FF" fill-opacity="0.17"/>
</g>
<defs>
<linearGradient id="paint0_linear" x1="26" y1="92" x2="1440" y2="496" gradientUnits="userSpaceOnUse">
<stop stop-color="#169CBA"/>
<stop offset="1" stop-color="#1C60C7" stop-opacity="0.71"/>
</linearGradient>
<clipPath id="clip0">
<rect width="1440" height="646" fill="white"/>
</clipPath>
</defs>
</svg>
