<svg width="648" height="752" viewBox="0 0 648 752" fill="none" xmlns="http://www.w3.org/2000/svg">
<g clip-path="url(#clip0)">
<path fill-rule="evenodd" clip-rule="evenodd" d="M648 0H0V560V578V702.639L12.15 717.167C23.85 731.035 48.15 759.43 72 750.185C88.1833 743.912 104.574 720.004 120.89 696.204C128.62 684.929 136.333 673.678 144 664.338C167.85 635.942 192.15 626.697 216 650.47C225.818 660.257 235.713 675.64 245.621 691.043C259.781 713.057 273.968 735.113 288 740.94C309.698 749.351 331.769 718.408 353.535 687.892C355.693 684.866 357.848 681.844 360 678.866C383.85 645.848 408.15 616.791 432 635.942C441.9 643.892 451.878 660.034 461.869 676.197C475.946 698.972 490.05 721.79 504 721.79C517.95 721.79 532.053 698.972 546.131 676.197C556.122 660.034 566.1 643.892 576 635.942C599.724 616.892 623.894 645.543 635.664 659.495L635.85 659.715L648 674.243V578V560V0Z" fill="url(#paint0_linear)"/>
<path d="M139.045 249.821C150.596 357.571 86.1418 463.019 -11.6074 513.382C-109.026 564.214 -240.537 559.824 -303.534 493.485C-366.93 427.077 -361.812 298.719 -307.608 193.164C-253.004 87.6771 -149.383 5.39247 -54.3245 18.7738C41.0651 32.6234 127.824 142.539 139.045 249.821Z" fill="#BEE4FF" fill-opacity="0.17"/>
<path d="M94.323 256.602C103.713 344.187 51.3202 429.901 -28.136 470.84C-107.323 512.159 -214.223 508.591 -265.431 454.666C-316.963 400.686 -312.802 296.35 -268.742 210.548C-224.357 124.802 -140.128 57.9165 -62.8589 68.7937C14.6793 80.0514 85.2022 169.397 94.323 256.602Z" fill="#BEE4FF" fill-opacity="0.17"/>
<path d="M42.9283 264.395C49.8336 328.807 11.3031 391.843 -47.1306 421.95C-105.367 452.337 -183.983 449.713 -221.642 410.055C-259.54 370.357 -256.48 293.626 -224.077 230.526C-191.436 167.467 -129.492 118.277 -72.6666 126.277C-15.6434 134.556 36.2207 200.262 42.9283 264.395Z" fill="#BEE4FF" fill-opacity="0.17"/>
<path d="M607.087 446.147C532.029 406.541 491.699 318.558 501.715 233.028C511.283 147.508 571.636 63.9813 642.283 52.0566C713.148 39.9024 794.307 99.35 839.189 180.72C883.851 262.319 892.007 365.621 841.75 421.532C791.044 477.453 681.696 485.764 607.087 446.147Z" fill="#BEE4FF" fill-opacity="0.17"/>
<path d="M622.235 414.126C561.223 381.931 528.441 310.414 536.583 240.89C544.36 171.374 593.419 103.479 650.844 93.7858C708.448 83.9062 774.418 132.229 810.901 198.371C847.205 264.699 853.835 348.669 812.983 394.117C771.766 439.573 682.882 446.328 622.235 414.126Z" fill="#BEE4FF" fill-opacity="0.17"/>
<path d="M639.643 377.326C594.774 353.649 570.665 301.054 576.653 249.925C582.373 198.801 618.451 148.87 660.683 141.741C703.046 134.476 751.562 170.013 778.392 218.655C805.091 267.435 809.966 329.188 779.923 362.611C749.612 396.041 684.244 401.009 639.643 377.326Z" fill="#BEE4FF" fill-opacity="0.17"/>
</g>
<defs>
<linearGradient id="paint0_linear" x1="-766" y1="108.1" x2="678.046" y2="459.236" gradientUnits="userSpaceOnUse">
<stop stop-color="#169CBA"/>
<stop offset="1" stop-color="#1C60C7" stop-opacity="0.71"/>
</linearGradient>
<clipPath id="clip0">
<rect width="648" height="752" fill="white"/>
</clipPath>
</defs>
</svg>
