<svg width="1440" height="577" viewBox="0 0 1440 577" fill="none" xmlns="http://www.w3.org/2000/svg">
<g clip-path="url(#clip0)">
<path fill-rule="evenodd" clip-rule="evenodd" d="M1440 0H0V407V413V458.645L27 454.441C53 450.238 107 441.83 160 454.441C184.046 460.435 208.297 470.756 232.568 481.084C261.793 493.521 291.046 505.969 320 510.89C364.989 518.027 410.699 506.557 455.906 495.213C463.956 493.193 471.989 491.178 480 489.272C533 476.06 587 467.653 640 489.272C661.819 498.172 683.807 512.16 705.825 526.168C737.292 546.186 768.819 566.244 800 571.543C835.108 577.112 870.656 563.709 906.06 550.359C924.103 543.556 942.108 536.766 960 532.509C1013 519.298 1067 528.306 1120 545.12C1128.48 547.907 1136.99 550.908 1145.51 553.916C1190.25 569.707 1235.48 585.667 1280 571.543C1333 554.128 1387 493.475 1413 463.449L1440 432.822V413V407V0Z" fill="url(#paint0_linear)"/>
<path d="M433.163 313.84C390.659 377.252 308.097 404.919 232.455 387.736C156.779 370.955 87.6532 308.887 83.6033 244.477C79.3686 179.85 140.21 112.88 217.278 80.5017C294.53 48.3416 387.79 50.9582 433.137 101.333C478.451 152.111 475.634 250.831 433.163 313.84Z" fill="#6678A0" fill-opacity="0.54"/>
<path d="M411.086 300.529C375.151 354.242 305.217 377.587 241.084 362.909C176.923 348.573 118.249 295.843 114.727 241.218C111.047 186.409 162.518 129.704 227.789 102.356C293.217 75.1928 372.261 77.5426 410.765 120.324C449.241 163.446 446.993 247.157 411.086 300.529Z" fill="#6678A0" fill-opacity="0.52"/>
<path d="M385.734 284.908C357.096 327.65 301.445 346.284 250.448 334.68C199.429 323.347 152.813 281.484 150.067 238.057C147.197 194.483 188.196 149.346 240.141 127.535C292.211 105.871 355.082 107.658 385.664 141.632C416.224 175.879 414.349 242.437 385.734 284.908Z" fill="#687AA4" fill-opacity="0.55"/>
</g>
<defs>
<linearGradient id="paint0_linear" x1="1324" y1="69" x2="1492" y2="701" gradientUnits="userSpaceOnUse">
<stop stop-color="#45526E"/>
<stop offset="1" stop-color="#0C44BB" stop-opacity="0.83"/>
</linearGradient>
<clipPath id="clip0">
<rect width="1440" height="577" fill="white"/>
</clipPath>
</defs>
</svg>
