<svg width="550" height="523" viewBox="0 0 550 523" fill="none" xmlns="http://www.w3.org/2000/svg">
<path d="M428.482 104.895C472.03 150.281 515.951 186.367 536.795 236.589C557.639 286.811 555.406 351.17 518.557 377.212C481.336 403.625 409.871 391.348 348.457 419.25C287.042 446.779 235.305 514.486 183.567 522.298C132.202 529.739 80.0928 476.912 44.3606 415.157C8.25614 353.031 -11.8432 281.603 7.51171 225.429C26.8667 168.882 85.6759 127.216 140.763 83.6899C195.85 40.5359 246.843 -4.4782 294.114 0.358026C341.385 5.19425 384.561 59.5088 428.482 104.895Z" fill="url(#paint0_linear)" fill-opacity="0.19"/>
<defs>
<linearGradient id="paint0_linear" x1="538" y1="35" x2="-19" y2="442" gradientUnits="userSpaceOnUse">
<stop stop-color="#3ADAFF" stop-opacity="0.48"/>
<stop offset="0.895833" stop-color="#FF9473"/>
</linearGradient>
</defs>
</svg>

