<svg width="1440" height="1024" viewBox="0 0 1440 1024" fill="none" xmlns="http://www.w3.org/2000/svg">
<g clip-path="url(#clip0)">
<path d="M1554.08 329.631C1580.18 421.348 1539.78 522.343 1462.21 580.514C1385 639.041 1269.89 654.744 1205.19 606.565C1140.13 558.387 1125.47 446.329 1156.93 346.761C1188.74 247.193 1266.67 160.472 1351.39 157.974C1436.47 155.833 1528.34 238.271 1554.08 329.631Z" fill="#D9F1FF" fill-opacity="0.78"/>
<path d="M1511.94 343.477C1532.61 416.203 1500.62 496.286 1439.18 542.412C1378.03 588.821 1286.86 601.272 1235.62 563.07C1184.09 524.867 1172.48 436.011 1197.4 357.06C1222.6 278.108 1284.32 209.344 1351.42 207.363C1418.8 205.665 1491.56 271.034 1511.94 343.477Z" fill="#D2EFFF" fill-opacity="0.78"/>
<path d="M1469.81 357.323C1485.05 411.058 1461.46 470.229 1416.16 504.31C1371.06 538.601 1303.84 547.8 1266.05 519.574C1228.06 491.347 1219.5 425.694 1237.87 367.359C1256.45 309.024 1301.96 258.216 1351.44 256.752C1401.12 255.497 1454.78 303.796 1469.81 357.323Z" fill="#C8EBFF" fill-opacity="0.78"/>
<path d="M273.947 642.937C297.191 724.633 261.21 814.593 192.114 866.408C123.336 918.54 20.807 932.527 -36.8261 889.613C-94.7775 846.699 -107.833 746.884 -79.8121 658.195C-51.4732 569.507 17.9412 492.262 93.4055 490.036C169.188 488.129 251.021 561.56 273.947 642.937Z" fill="#D9F1FF" fill-opacity="0.78"/>
<path d="M236.414 655.27C254.823 720.05 226.326 791.383 171.602 832.469C117.13 873.807 35.9271 884.898 -9.71826 850.87C-55.6158 816.841 -65.9554 737.694 -43.7632 667.369C-21.3187 597.044 33.6575 535.793 93.4252 534.029C153.445 532.516 218.256 590.743 236.414 655.27Z" fill="#D2EFFF" fill-opacity="0.78"/>
<path d="M198.881 667.603C212.455 715.467 191.443 768.173 151.091 798.531C110.924 829.074 51.0473 837.269 17.3896 812.126C-16.4541 786.984 -24.0782 728.504 -7.71424 676.543C8.83567 624.582 49.3737 579.325 93.4448 578.021C137.702 576.904 185.492 619.926 198.881 667.603Z" fill="#C8EBFF" fill-opacity="0.78"/>
</g>
<defs>
<clipPath id="clip0">
<rect width="1440" height="1024" fill="white"/>
</clipPath>
</defs>
</svg>
