<svg width="1000" height="705" viewBox="0 0 1000 705" fill="none" xmlns="http://www.w3.org/2000/svg">
<g clip-path="url(#clip0)">
<rect width="1000" height="705" fill="white" fill-opacity="0.01"/>
<rect width="1000" height="705" fill="url(#paint0_linear)"/>
<g opacity="0.37">
<path d="M305.869 -60.4175C347.141 37.259 316.363 154.228 238.757 228.991C161.595 304.1 36.8153 337.101 -41.0924 292.734C-119.394 248.416 -150.824 126.731 -129.706 12.5541C-108.194 -101.671 -34.0845 -207.994 58.9905 -222.285C152.508 -236.23 265.041 -157.749 305.869 -60.4175Z" fill="#F1FAFF" fill-opacity="0.46"/>
<path d="M266.261 -41.6515C299.899 37.9357 274.807 133.245 211.546 194.167C148.646 255.37 46.9344 282.264 -16.5681 246.117C-80.3919 210.008 -106.007 110.858 -88.7886 17.8237C-71.2491 -75.2503 -10.8369 -161.887 65.0311 -173.535C141.26 -184.901 232.984 -120.957 266.261 -41.6515Z" fill="#F1FAFF" fill-opacity="0.34"/>
<path d="M219.415 -19.7721C244.081 38.8458 225.764 109.009 179.488 153.831C133.477 198.861 59.0359 218.609 12.5311 191.959C-34.2089 165.339 -53.0127 92.3208 -40.4584 23.8292C-27.6689 -44.6916 16.5079 -108.45 72.0389 -116.985C127.834 -125.313 195.013 -78.1826 219.415 -19.7721Z" fill="#F1FAFF" fill-opacity="0.46"/>
</g>
<g opacity="0.57">
<path d="M752.75 707.498C693.434 639.206 687.444 536.204 730.597 455.039C773.299 373.71 865.759 313.931 940.679 329.296C1015.91 344.518 1073.59 434.884 1086.68 533.065C1099.46 631.391 1067.49 737.225 995.791 773.442C923.641 809.496 811.615 775.627 752.75 707.498Z" fill="#F1FAFF" fill-opacity="0.46"/>
<path d="M779.905 681.799C731.567 626.157 726.697 542.225 761.879 476.08C796.694 409.803 872.062 361.079 933.126 373.591C994.439 385.985 1041.45 459.615 1052.1 539.619C1062.5 619.74 1036.44 705.985 977.993 735.506C919.181 764.894 827.876 737.308 779.905 681.799Z" fill="#F1FAFF" fill-opacity="0.34"/>
<path d="M812.106 651.659C776.592 610.649 772.881 548.903 798.549 500.308C823.948 451.616 879.092 415.904 923.857 425.21C968.806 434.431 1003.38 488.671 1011.32 547.537C1019.08 606.489 1000.12 669.884 957.346 691.5C914.302 713.017 847.351 692.572 812.106 651.659Z" fill="#F1FAFF" fill-opacity="0.46"/>
</g>
</g>
<defs>
<linearGradient id="paint0_linear" x1="45" y1="53.9118" x2="796.408" y2="808.364" gradientUnits="userSpaceOnUse">
<stop stop-color="#169CBA"/>
<stop offset="1" stop-color="#1C60C7" stop-opacity="0.74"/>
</linearGradient>
<clipPath id="clip0">
<rect width="1000" height="705" fill="white"/>
</clipPath>
</defs>
</svg>
