<svg width="1600" height="721" viewBox="0 0 1600 721" fill="none" xmlns="http://www.w3.org/2000/svg">
<g clip-path="url(#clip0)">
<path fill-rule="evenodd" clip-rule="evenodd" d="M53.3333 58.8235L0 72.4706V186V208V496V521V639.677L44 615.73C44.8228 615.296 45.6596 614.853 46.5102 614.404L46.5909 614.361C92.629 590.016 179.006 544.341 266.667 567.838C311.333 579.811 355.667 609.744 400 639.676C444.333 669.609 488.667 699.542 533.333 711.515C604.503 730.592 674.827 704.074 745.653 677.367L745.654 677.366C763.729 670.55 781.837 663.722 800 657.636C889.333 627.703 977.333 615.73 1066.67 615.73C1154.71 615.73 1241.45 627.359 1329.45 639.156L1333.33 639.677C1372.5 644.926 1411.42 650.176 1446.59 654.921C1491.63 660.998 1530.54 666.247 1556 669.609L1600 675.596V521V496V208V186V72.4706L1546.67 54.5882C1493.33 36.2353 1386.67 0 1280 0C1185.59 0 1091.19 28.3841 996.781 56.7682C984.521 60.4544 972.26 64.1406 960 67.7647C853.333 99.7647 746.667 126.588 640 112.941C586.667 106.353 533.333 89.4118 480 72.4706C426.667 55.5294 373.333 38.5882 320 32C213.333 18.3529 106.667 45.1765 53.3333 58.8235Z" fill="url(#paint0_linear)"/>
<path d="M1679.91 235.291C1705.36 325.188 1665.96 424.18 1590.3 481.196C1514.99 538.562 1402.72 553.953 1339.61 506.731C1276.15 459.509 1261.85 349.673 1292.54 252.081C1323.57 154.488 1399.58 69.4886 1482.21 67.04C1565.2 64.9412 1654.81 145.744 1679.91 235.291Z" fill="url(#paint1_linear)" fill-opacity="0.79"/>
<path d="M1647.62 245.907C1668.96 321.243 1635.93 404.201 1572.52 451.982C1509.4 500.057 1415.3 512.955 1362.41 473.381C1309.22 433.808 1297.24 341.763 1322.96 259.978C1348.96 178.192 1412.67 106.96 1481.93 104.908C1551.48 103.149 1626.58 170.864 1647.62 245.907Z" fill="url(#paint2_linear)" fill-opacity="0.78"/>
<path d="M1612.76 257.446C1629.6 316.955 1603.53 382.485 1553.47 420.228C1503.63 458.203 1429.35 468.392 1387.59 437.132C1345.6 405.872 1336.14 333.164 1356.44 268.561C1376.97 203.957 1427.27 147.69 1481.95 146.069C1536.86 144.679 1596.15 198.168 1612.76 257.446Z" fill="url(#paint3_linear)"/>
</g>
<defs>
<linearGradient id="paint0_linear" x1="432" y1="229" x2="1744" y2="465" gradientUnits="userSpaceOnUse">
<stop stop-color="#4CA1DA"/>
<stop offset="1" stop-color="#169CBA" stop-opacity="0.59"/>
</linearGradient>
<linearGradient id="paint1_linear" x1="1277" y1="86.7606" x2="1482.32" y2="534.667" gradientUnits="userSpaceOnUse">
<stop stop-color="#93D1FB" stop-opacity="0.29"/>
<stop offset="1" stop-color="#BED0FF" stop-opacity="0.33"/>
</linearGradient>
<linearGradient id="paint2_linear" x1="1309.93" y1="121.434" x2="1481.98" y2="496.808" gradientUnits="userSpaceOnUse">
<stop stop-color="#93D1FB" stop-opacity="0.29"/>
<stop offset="1" stop-color="#BED0FF" stop-opacity="0.33"/>
</linearGradient>
<linearGradient id="paint3_linear" x1="1346.16" y1="159.123" x2="1482.12" y2="455.579" gradientUnits="userSpaceOnUse">
<stop stop-color="#93D1FB" stop-opacity="0.29"/>
<stop offset="1" stop-color="#BED0FF" stop-opacity="0.33"/>
</linearGradient>
<clipPath id="clip0">
<rect width="1600" height="721" fill="white"/>
</clipPath>
</defs>
</svg>
