<svg width="1682" height="700" viewBox="0 0 1682 800" fill="none" xmlns="http://www.w3.org/2000/svg">
<path fill-rule="evenodd" clip-rule="evenodd" d="M0 10.9899L38.6667 43.9596C76 76.9293 152 142.869 228 153.859C283.379 161.729 338.075 141.42 392.577 121.183C414.182 113.16 435.758 105.149 457.333 98.9091C533.333 76.9293 609.333 76.9293 685.333 87.9192C706.837 91.0286 728.446 95.0179 750.103 99.0156C804.987 109.147 860.17 119.334 914.667 115.394C978 110.815 1041.33 87.156 1104.67 63.4972C1117.33 58.7654 1130 54.0337 1142.67 49.4545C1218.67 21.9798 1294.67 0 1372 0C1448 0 1524 21.9798 1561.33 32.9697L1600 43.9596V241.778V565.333V576V700.906L1556 723.502C1554.52 724.238 1553 724.997 1551.44 725.778C1504.94 749 1419.76 791.534 1333.33 798.82C1259.35 805.058 1186.29 785.468 1112.62 765.717C1097.33 761.618 1082.02 757.513 1066.67 753.629C977.333 731.034 889.333 715.97 800 731.034C764.171 737.075 728.556 747.963 692.984 758.838C639.864 775.078 586.838 791.289 533.333 791.289C466.704 791.289 400.817 766.149 334.565 740.871C311.989 732.257 289.371 723.627 266.667 715.97C177.333 685.843 89.3333 670.779 44 663.247L0 655.715V576V565.333V241.778V10.9899Z" fill="url(#paint0_linear)"/>
<path d="M1358.03 219.677L1589.2 278.75L1587.92 505.386L1355.96 586.382L1213.88 409.805L1358.03 219.677Z" fill="#7BE2FA" fill-opacity="0.49"/>
<circle cx="1358" cy="416" r="16" fill="#F9894A" fill-opacity="0.26"/>
<circle cx="1302" cy="312" r="40" fill="#4ACFF9" fill-opacity="0.26"/>
<circle cx="1178" cy="376" r="24" fill="#4ACFF9" fill-opacity="0.26"/>
<circle cx="1286" cy="488" r="40" fill="#F9894A" fill-opacity="0.26"/>
<defs>
<linearGradient id="paint0_linear" x1="1.44385e-05" y1="252.444" x2="1596.5" y2="416.335" gradientUnits="userSpaceOnUse">
<stop stop-color="#7BE2FA"/>
<stop offset="1" stop-color="#FF9078" stop-opacity="0.29"/>
</linearGradient>
</defs>
</svg>
