<svg width="1920" height="721" viewBox="0 0 1920 721" fill="none" xmlns="http://www.w3.org/2000/svg">
<g clip-path="url(#clip0)">
<path fill-rule="evenodd" clip-rule="evenodd" d="M64 59.8235L0 73.4706V187V209V497V522V640.677L52.8 616.73C53.791 616.294 54.7989 615.85 55.8236 615.399L55.9091 615.361C111.155 591.016 214.807 545.341 320 568.838C373.6 580.811 426.8 610.744 480 640.677C533.2 670.609 586.4 700.542 640 712.515C725.404 731.592 809.792 705.074 894.783 678.367C916.474 671.55 938.204 664.722 960 658.636C1067.2 628.703 1172.8 616.73 1280 616.73C1385.65 616.73 1489.74 628.359 1595.34 640.156L1600 640.677C1647 645.926 1693.7 651.176 1735.9 655.921L1736.04 655.936C1790.04 662.006 1836.68 667.25 1867.2 670.609L1920 676.596V522V497V209V187V73.4706L1856 55.5882C1792 37.2353 1664 1 1536 1C1422.71 1 1309.43 29.3841 1196.14 57.7682C1181.43 61.4544 1166.71 65.1406 1152 68.7647C1024 100.765 896 127.588 768 113.941C704 107.353 640 90.4118 576 73.4706C512 56.5294 448 39.5882 384 33C256 19.3529 128 46.1765 64 59.8235Z" fill="url(#paint0_linear)"/>
<path d="M2003.91 279.291C2029.36 369.188 1989.96 468.18 1914.3 525.196C1838.99 582.562 1726.72 597.953 1663.61 550.731C1600.15 503.509 1585.85 393.673 1616.54 296.081C1647.57 198.488 1723.58 113.489 1806.21 111.04C1889.2 108.941 1978.81 189.744 2003.91 279.291Z" fill="url(#paint1_linear)"/>
<path d="M1971.62 289.907C1992.96 365.243 1959.93 448.201 1896.52 495.982C1833.4 544.057 1739.3 556.955 1686.41 517.381C1633.22 477.808 1621.24 385.763 1646.96 303.978C1672.96 222.192 1736.67 150.96 1805.93 148.908C1875.48 147.149 1950.58 214.864 1971.62 289.907Z" fill="url(#paint2_linear)"/>
<path d="M1936.76 301.446C1953.6 360.955 1927.53 426.485 1877.47 464.228C1827.63 502.203 1753.35 512.392 1711.59 481.132C1669.6 449.872 1660.14 377.164 1680.44 312.561C1700.97 247.957 1751.27 191.69 1805.95 190.069C1860.86 188.679 1920.15 242.168 1936.76 301.446Z" fill="url(#paint3_linear)"/>
</g>
<defs>
<linearGradient id="paint0_linear" x1="508" y1="230" x2="1820" y2="466" gradientUnits="userSpaceOnUse">
<stop stop-color="#4CA1DA"/>
<stop offset="1" stop-color="#169CBA" stop-opacity="0.59"/>
</linearGradient>
<linearGradient id="paint1_linear" x1="1601" y1="130.761" x2="1806.32" y2="578.667" gradientUnits="userSpaceOnUse">
<stop stop-color="#93D1FB" stop-opacity="0.29"/>
<stop offset="1" stop-color="#BED0FF" stop-opacity="0.33"/>
</linearGradient>
<linearGradient id="paint2_linear" x1="1633.93" y1="165.434" x2="1805.98" y2="540.808" gradientUnits="userSpaceOnUse">
<stop stop-color="#93D1FB" stop-opacity="0.29"/>
<stop offset="1" stop-color="#BED0FF" stop-opacity="0.33"/>
</linearGradient>
<linearGradient id="paint3_linear" x1="1670.16" y1="203.123" x2="1806.12" y2="499.579" gradientUnits="userSpaceOnUse">
<stop stop-color="#93D1FB" stop-opacity="0.29"/>
<stop offset="1" stop-color="#BED0FF" stop-opacity="0.33"/>
</linearGradient>
<clipPath id="clip0">
<rect width="1920" height="721" fill="white"/>
</clipPath>
</defs>
</svg>
