<svg width="916" height="901" viewBox="0 0 916 901" fill="none" xmlns="http://www.w3.org/2000/svg">
<g clip-path="url(#clip0)">
<path fill-rule="evenodd" clip-rule="evenodd" d="M30.5333 58.8235L0 72.4706V186V208V679V695V822.677L25.19 798.73C25.6759 798.282 26.1704 797.825 26.6733 797.361C53.0301 773.016 102.481 727.341 152.667 750.838C178.238 762.811 203.619 792.744 229 822.677C254.381 852.609 279.762 882.542 305.333 894.515C346.078 913.592 386.338 887.074 426.886 860.367C437.234 853.55 447.601 846.722 458 840.636C509.143 810.703 559.523 798.73 610.667 798.73C661.069 798.73 710.729 810.359 761.11 822.156L761.111 822.156L763.333 822.677C785.756 827.926 808.032 833.175 828.167 837.92C853.958 843.997 876.235 849.247 890.81 852.609L916 858.596V695V679V208V186V72.4706L885.467 54.5882C854.933 36.2353 793.867 0 732.8 0C678.752 0 624.705 28.3841 570.657 56.7682C563.638 60.4544 556.619 64.1407 549.6 67.7647C488.533 99.7647 427.467 126.588 366.4 112.941C335.867 106.353 305.333 89.4118 274.8 72.4706C244.267 55.5294 213.733 38.5882 183.2 32C122.133 18.3529 61.0667 45.1765 30.5333 58.8235Z" fill="url(#paint0_linear)"/>
<path d="M1067.91 348.291C1093.36 438.188 1053.96 537.18 978.302 594.196C902.989 651.562 790.716 666.953 727.607 619.731C664.149 572.509 649.853 462.673 680.536 365.081C711.568 267.488 787.578 182.489 870.214 180.04C953.198 177.941 1042.81 258.744 1067.91 348.291Z" fill="url(#paint1_linear)" fill-opacity="0.79"/>
<path d="M1035.62 358.907C1056.96 434.243 1023.93 517.201 960.521 564.982C897.399 613.057 803.3 625.955 750.407 586.381C697.221 546.808 685.239 454.763 710.956 372.978C736.964 291.192 800.67 219.96 869.929 217.908C939.48 216.149 1014.58 283.864 1035.62 358.907Z" fill="url(#paint2_linear)" fill-opacity="0.78"/>
<path d="M1000.76 370.446C1017.6 429.955 991.531 495.485 941.467 533.228C891.634 571.203 817.346 581.392 775.588 550.132C733.599 518.872 724.14 446.164 744.442 381.561C764.975 316.957 815.269 260.69 869.947 259.069C924.856 257.679 984.148 311.168 1000.76 370.446Z" fill="url(#paint3_linear)"/>
</g>
<defs>
<linearGradient id="paint0_linear" x1="-252" y1="229" x2="1060" y2="465" gradientUnits="userSpaceOnUse">
<stop stop-color="#4CA1DA"/>
<stop offset="1" stop-color="#169CBA" stop-opacity="0.59"/>
</linearGradient>
<linearGradient id="paint1_linear" x1="665" y1="199.761" x2="870.317" y2="647.667" gradientUnits="userSpaceOnUse">
<stop stop-color="#93D1FB" stop-opacity="0.29"/>
<stop offset="1" stop-color="#BED0FF" stop-opacity="0.33"/>
</linearGradient>
<linearGradient id="paint2_linear" x1="697.934" y1="234.434" x2="869.983" y2="609.808" gradientUnits="userSpaceOnUse">
<stop stop-color="#93D1FB" stop-opacity="0.29"/>
<stop offset="1" stop-color="#BED0FF" stop-opacity="0.33"/>
</linearGradient>
<linearGradient id="paint3_linear" x1="734.162" y1="272.123" x2="870.115" y2="568.579" gradientUnits="userSpaceOnUse">
<stop stop-color="#93D1FB" stop-opacity="0.29"/>
<stop offset="1" stop-color="#BED0FF" stop-opacity="0.33"/>
</linearGradient>
<clipPath id="clip0">
<rect width="916" height="901" fill="white"/>
</clipPath>
</defs>
</svg>
