<svg width="800" height="926" viewBox="0 0 800 926" fill="none" xmlns="http://www.w3.org/2000/svg">
<g clip-path="url(#clip0)">
<path fill-rule="evenodd" clip-rule="evenodd" d="M803 0H0V771V783V861.55L11.2922 876.641C22.1661 891.733 44.7505 921.916 66.9167 918.772C81.3921 916.924 96.046 900.863 110.645 884.862C118.402 876.361 126.143 867.877 133.833 861.55C155.999 843.314 178.584 843.314 200.75 858.406C207.211 862.805 213.709 868.487 220.22 874.181C236.047 888.022 251.962 901.939 267.667 897.707C278.799 894.707 290.036 882.587 301.273 870.468C312.412 858.456 323.549 846.444 334.583 843.314C347.279 839.892 360.113 848.333 372.926 856.76C382.484 863.046 392.03 869.324 401.5 870.668C411.462 871.939 421.509 867.813 431.565 863.683C443.882 858.623 456.213 853.559 468.417 858.406C478.15 862.41 487.964 872.84 497.789 883.28C510.337 896.616 522.901 909.969 535.333 909.969C547.265 909.969 559.317 897.671 571.36 885.383C581.691 874.842 592.015 864.308 602.25 861.55C612.869 858.688 623.583 864.124 634.302 869.562C645.958 875.475 657.619 881.391 669.167 876.641C681.743 871.468 694.453 853.746 707.146 836.049C716.825 822.554 726.493 809.073 736.083 801.183C758.249 782.948 780.834 795.209 791.708 801.183L803 807.157V783V771V0Z" fill="url(#paint0_linear)"/>
<path d="M123.938 387.495C75.6163 459.587 -18.2464 491.042 -104.243 471.506C-190.277 452.428 -268.866 381.864 -273.47 308.638C-278.284 235.164 -209.114 159.027 -121.498 122.217C-33.6713 85.6546 72.3542 88.6293 123.909 145.9C175.425 203.628 172.223 315.862 123.938 387.495Z" fill="#9BDBFF" fill-opacity="0.3"/>
<path d="M87.3293 365.317C49.8241 421.379 -23.1672 445.745 -90.104 430.425C-157.069 415.462 -218.308 360.427 -221.985 303.415C-225.825 246.209 -172.104 187.026 -103.98 158.482C-35.6915 130.132 46.8078 132.584 86.9946 177.235C127.153 222.243 124.806 309.613 87.3293 365.317Z" fill="#9BDBFF" fill-opacity="0.29"/>
<path d="M44.1881 338.823C19.1637 376.172 -29.4649 392.454 -74.0273 382.314C-118.609 372.412 -159.343 335.831 -161.742 297.883C-164.25 259.808 -128.425 220.366 -83.0336 201.307C-37.5335 182.377 17.4037 183.938 44.1271 213.626C70.8312 243.551 69.1931 301.711 44.1881 338.823Z" fill="#9BDBFF" fill-opacity="0.41"/>
<path d="M1020.94 358.495C972.616 430.587 878.754 462.042 792.757 442.506C706.723 423.428 628.134 352.864 623.53 279.638C618.716 206.164 687.886 130.027 775.502 93.2168C863.329 56.6546 969.354 59.6293 1020.91 116.9C1072.43 174.628 1069.22 286.862 1020.94 358.495Z" fill="#9BDBFF" fill-opacity="0.3"/>
<path d="M984.329 336.317C946.824 392.379 873.833 416.745 806.896 401.425C739.931 386.462 678.692 331.427 675.015 274.415C671.175 217.209 724.896 158.026 793.02 129.482C861.308 101.132 943.808 103.584 983.995 148.235C1024.15 193.243 1021.81 280.613 984.329 336.317Z" fill="#9BDBFF" fill-opacity="0.29"/>
<path d="M941.188 309.823C916.164 347.172 867.535 363.454 822.973 353.314C778.391 343.412 737.657 306.831 735.258 268.883C732.75 230.808 768.575 191.366 813.966 172.307C859.466 153.377 914.404 154.938 941.127 184.626C967.831 214.551 966.193 272.711 941.188 309.823Z" fill="#9BDBFF" fill-opacity="0.42"/>
</g>
<defs>
<linearGradient id="paint0_linear" x1="-556" y1="88.5" x2="1098.5" y2="681.5" gradientUnits="userSpaceOnUse">
<stop stop-color="#28A9C6"/>
<stop offset="1" stop-color="#3D67D2" stop-opacity="0.69"/>
</linearGradient>
<clipPath id="clip0">
<rect width="800" height="926" fill="white"/>
</clipPath>
</defs>
</svg>
