<svg width="1920" height="700" viewBox="0 0 1920 700" fill="none" xmlns="http://www.w3.org/2000/svg">
<g clip-path="url(#clip0)">
<path fill-rule="evenodd" clip-rule="evenodd" d="M1920 0H0V481V504V614.989L27 637.321C53 659.652 107 704.315 160 699.663C194.611 696.928 229.649 673.163 264.556 649.485C283.102 636.906 301.611 624.351 320 614.989C373 588.005 427 588.005 480 610.337C495.45 616.846 510.984 625.254 526.554 633.68C564.397 654.161 602.45 674.755 640 668.492C666.617 664.052 693.487 646.119 720.355 628.186C746.987 610.411 773.617 592.637 800 588.005C830.357 582.942 861.042 595.432 891.679 607.902C914.531 617.203 937.357 626.494 960 628.481C983.82 630.363 1007.84 624.257 1031.89 618.145C1061.34 610.659 1090.82 603.165 1120 610.337C1143.27 616.261 1166.74 631.695 1190.23 647.145C1220.23 666.878 1250.27 686.636 1280 686.636C1308.53 686.636 1337.35 668.439 1366.14 650.256C1390.84 634.658 1415.53 619.071 1440 614.989C1465.39 610.755 1491.01 618.798 1516.64 626.845C1544.51 635.595 1572.39 644.349 1600 637.321C1630.07 629.666 1660.46 603.442 1690.81 577.255C1713.95 557.285 1737.07 537.338 1760 525.663C1813 498.679 1867 516.823 1893 525.663L1920 534.503V504V481V0Z" fill="url(#paint0_linear)"/>
<path d="M239.939 183.495C191.616 255.587 97.7536 287.042 11.757 267.506C-74.2772 248.428 -152.866 177.864 -157.47 104.638C-162.284 31.1639 -93.1145 -44.9731 -5.49799 -81.7832C82.3287 -118.345 188.354 -115.371 239.909 -58.1004C291.425 -0.372228 288.223 111.862 239.939 183.495Z" fill="#9BDBFF" fill-opacity="0.3"/>
<path d="M203.329 161.317C165.824 217.379 92.8328 241.745 25.896 226.425C-41.0693 211.462 -102.308 156.427 -105.985 99.4148C-109.825 42.209 -56.1043 -16.9743 12.0201 -45.518C80.3085 -73.8684 162.808 -71.4159 202.995 -26.7646C243.153 18.2431 240.806 105.613 203.329 161.317Z" fill="#9BDBFF" fill-opacity="0.29"/>
<path d="M160.188 134.823C135.164 172.172 86.5352 188.454 41.9727 178.314C-2.60906 168.412 -43.3426 131.831 -45.742 93.8833C-48.2505 55.8075 -12.4248 16.3658 32.9664 -2.69301C78.4665 -21.6233 133.404 -20.0618 160.127 9.62578C186.831 39.5507 185.193 97.7105 160.188 134.823Z" fill="#9BDBFF" fill-opacity="0.41"/>
<path d="M1844.94 78.4955C1796.62 150.587 1702.75 182.042 1616.76 162.506C1530.72 143.428 1452.13 72.8644 1447.53 -0.361931C1442.72 -73.8361 1511.89 -149.973 1599.5 -186.783C1687.33 -223.345 1793.35 -220.371 1844.91 -163.1C1896.43 -105.372 1893.22 6.86158 1844.94 78.4955Z" fill="#9BDBFF" fill-opacity="0.3"/>
<path d="M1808.33 56.3175C1770.82 112.379 1697.83 136.745 1630.9 121.425C1563.93 106.462 1502.69 51.4273 1499.02 -5.58524C1495.17 -62.791 1548.9 -121.974 1617.02 -150.518C1685.31 -178.868 1767.81 -176.416 1807.99 -131.765C1848.15 -86.7569 1845.81 0.612829 1808.33 56.3175Z" fill="#9BDBFF" fill-opacity="0.29"/>
<path d="M1765.19 29.8226C1740.16 67.1721 1691.54 83.4542 1646.97 73.3144C1602.39 63.412 1561.66 26.8306 1559.26 -11.1167C1556.75 -49.1925 1592.58 -88.6342 1637.97 -107.693C1683.47 -126.623 1738.4 -125.062 1765.13 -95.3742C1791.83 -65.4493 1790.19 -7.28951 1765.19 29.8226Z" fill="#9BDBFF" fill-opacity="0.42"/>
</g>
<defs>
<linearGradient id="paint0_linear" x1="141" y1="88.5" x2="1795.5" y2="681.5" gradientUnits="userSpaceOnUse">
<stop stop-color="#28A9C6"/>
<stop offset="1" stop-color="#3D67D2" stop-opacity="0.69"/>
</linearGradient>
<clipPath id="clip0">
<rect width="1920" height="700" fill="white"/>
</clipPath>
</defs>
</svg>
