<svg width="1500" height="700" viewBox="0 0 1500 588" fill="none" xmlns="http://www.w3.org/2000/svg">
<g clip-path="url(#clip0)">
<path fill-rule="evenodd" clip-rule="evenodd" d="M1500 0H0V369V400V502.989L21.0938 525.321C41.4062 547.652 83.5938 592.315 125 587.663C152.04 584.928 179.413 561.163 206.685 537.485C221.174 524.906 235.634 512.351 250 502.989C291.406 476.005 333.594 476.005 375 498.337C387.07 504.846 399.206 513.254 411.371 521.68C440.935 542.161 470.664 562.755 500 556.492C520.795 552.052 541.786 534.119 562.777 516.186C583.583 498.411 604.388 480.637 625 476.005C648.716 470.942 672.689 483.432 696.624 495.902C714.478 505.203 732.31 514.494 750 516.481C768.61 518.363 787.377 512.257 806.161 506.145C829.17 498.659 852.203 491.165 875 498.337C893.182 504.261 911.515 519.695 929.867 535.145C953.306 554.878 976.776 574.636 1000 574.636C1022.29 574.636 1044.8 556.439 1067.3 538.256C1086.6 522.658 1105.88 507.071 1125 502.989C1144.84 498.755 1164.85 506.798 1184.87 514.845C1206.65 523.595 1228.43 532.349 1250 525.321C1273.49 517.666 1297.24 491.442 1320.94 465.255C1339.02 445.285 1357.09 425.338 1375 413.663C1387.7 405.388 1400.47 401.357 1412.66 400H1432.86C1451.98 402.004 1468.38 409.083 1478.91 413.663L1500 422.503V400V369V0Z" fill="url(#paint0_linear)"/>
<path d="M1643.94 136.495C1595.62 208.587 1501.75 240.042 1415.76 220.506C1329.72 201.428 1251.13 130.864 1246.53 57.6381C1241.72 -15.8361 1310.89 -91.9731 1398.5 -128.783C1486.33 -165.345 1592.35 -162.371 1643.91 -105.1C1695.43 -47.3722 1692.22 64.8616 1643.94 136.495Z" fill="#9BDBFF" fill-opacity="0.3"/>
<path d="M1607.33 114.317C1569.82 170.379 1496.83 194.745 1429.9 179.425C1362.93 164.462 1301.69 109.427 1298.02 52.4148C1294.17 -4.79099 1347.9 -63.9743 1416.02 -92.518C1484.31 -120.868 1566.81 -118.416 1606.99 -73.7646C1647.15 -28.7569 1644.81 58.6128 1607.33 114.317Z" fill="#9BDBFF" fill-opacity="0.29"/>
<path d="M1564.19 87.8226C1539.16 125.172 1490.54 141.454 1445.97 131.314C1401.39 121.412 1360.66 84.8306 1358.26 46.8833C1355.75 8.80749 1391.58 -30.6342 1436.97 -49.693C1482.47 -68.6233 1537.4 -67.0618 1564.13 -37.3742C1590.83 -7.44933 1589.19 50.7105 1564.19 87.8226Z" fill="#9BDBFF" fill-opacity="0.42"/>
<path d="M239.939 183.495C191.616 255.587 97.7536 287.042 11.757 267.506C-74.2772 248.428 -152.866 177.864 -157.47 104.638C-162.284 31.1639 -93.1145 -44.9731 -5.49799 -81.7832C82.3287 -118.345 188.354 -115.371 239.909 -58.1004C291.425 -0.372228 288.223 111.862 239.939 183.495Z" fill="#9BDBFF" fill-opacity="0.3"/>
<path d="M203.329 161.317C165.824 217.379 92.8328 241.745 25.896 226.425C-41.0693 211.462 -102.308 156.427 -105.985 99.4148C-109.825 42.209 -56.1043 -16.9743 12.0201 -45.518C80.3085 -73.8684 162.808 -71.4159 202.995 -26.7646C243.153 18.2431 240.806 105.613 203.329 161.317Z" fill="#9BDBFF" fill-opacity="0.29"/>
<path d="M160.188 134.823C135.164 172.172 86.5352 188.454 41.9727 178.314C-2.60906 168.412 -43.3426 131.831 -45.742 93.8833C-48.2505 55.8075 -12.4248 16.3658 32.9664 -2.69301C78.4665 -21.6233 133.404 -20.0618 160.127 9.62578C186.831 39.5507 185.193 97.7105 160.188 134.823Z" fill="#9BDBFF" fill-opacity="0.41"/>
</g>
<defs>
<linearGradient id="paint0_linear" x1="141" y1="88.5" x2="1795.5" y2="681.5" gradientUnits="userSpaceOnUse">
<stop stop-color="#28A9C6"/>
<stop offset="1" stop-color="#3D67D2" stop-opacity="0.69"/>
</linearGradient>
<clipPath id="clip0">
<rect width="1500" height="588" fill="white"/>
</clipPath>
</defs>
</svg>
