<svg width="1575" height="1592" viewBox="0 0 1575 1592" fill="none" xmlns="http://www.w3.org/2000/svg">
<path d="M1224.79 372.331C1394.74 557.918 1584.56 756.76 1574.63 953.394C1564.69 1151.13 1356.12 1346.66 1107.81 1469.28C859.509 1590.79 573.683 1639.4 362.9 1534.46C153.221 1430.62 18.5845 1175.43 2.03089 939.033C-15.6263 701.526 83.6955 485.009 228.264 306.05C371.729 127.092 561.544 -14.3073 732.598 1.15829C902.549 16.6238 1053.74 187.849 1224.79 372.331Z" fill="url(#paint0_linear)" fill-opacity="0.07"/>
<path d="M1194.25 402.137C1352.33 574.667 1528.89 759.521 1519.65 942.321C1510.41 1126.15 1316.41 1307.92 1085.44 1421.91C854.48 1534.88 588.616 1580.07 392.555 1482.5C197.52 1385.97 72.2866 1148.74 56.889 928.97C40.465 708.173 132.85 506.888 267.322 340.519C400.767 174.151 577.325 42.6993 736.432 57.0768C894.513 71.4543 1035.14 230.634 1194.25 402.137Z" fill="url(#paint1_linear)" fill-opacity="0.07"/>
<path d="M1167.71 435.943C1313.92 595.417 1477.22 766.282 1468.68 935.248C1460.13 1105.16 1280.69 1273.18 1067.07 1378.55C853.451 1482.96 607.55 1524.73 426.209 1434.55C245.818 1345.32 129.989 1126.05 115.747 922.908C100.556 718.819 186.005 532.766 310.379 378.988C433.805 225.21 597.106 103.706 744.267 116.995C890.478 130.285 1020.55 277.418 1167.71 435.943Z" fill="url(#paint2_linear)" fill-opacity="0.07"/>
<g opacity="0.1">
<path opacity="0.1" d="M1154.44 603.307C1126.96 587.557 1082.4 588.291 1055.43 604.975L686.157 833.018C659.195 849.702 659.629 876.181 687.125 891.947L997.139 1069.59C1024.63 1085.34 1069.18 1084.6 1096.14 1067.92L1465.44 839.792C1492.4 823.107 1491.95 796.613 1464.45 780.862L1154.44 603.307Z" fill="#334752"/>
</g>
<path d="M1052.25 280.63L725.266 92.4459C722.162 90.4179 718.418 89.6096 714.755 90.1768C707.397 91.2112 698.07 97.0508 687.209 102.723C687.163 102.741 687.123 102.77 687.092 102.807C683.621 104.726 681.436 108.93 681.436 114.953V851.404C681.436 863.267 689.778 877.816 700.139 883.739L1027.15 1071.92C1029.95 1073.7 1033.24 1074.55 1036.55 1074.36C1041.55 1074.19 1047.96 1072.11 1055.98 1068.14C1062.86 1064.45 1066.15 1061.64 1067.66 1059.69L1067.96 1059.33C1070.05 1056.47 1071.09 1052.99 1070.92 1049.47V312.997C1070.95 301.101 1062.53 286.553 1052.25 280.63Z" fill="#E6E4EB"/>
<path d="M1045.77 324.677C1045.77 312.814 1037.43 298.248 1027.07 292.342L700.056 104.158C689.811 98.2187 681.386 103.091 681.386 114.953V851.404C681.386 863.267 689.728 877.816 700.089 883.739L1027.1 1071.92C1037.4 1077.85 1045.81 1072.97 1045.81 1061.11L1045.77 324.677Z" fill="#314584"/>
<path d="M836.985 915.856C833.031 913.571 829.794 915.439 829.794 920.011V935.027C829.932 937.518 830.655 939.941 831.904 942.101C833.154 944.26 834.894 946.095 836.985 947.457L875.659 969.714C879.597 971.983 882.834 970.114 882.834 965.559V950.443C882.693 947.957 881.971 945.538 880.725 943.382C879.479 941.226 877.744 939.393 875.659 938.03L836.985 915.856Z" fill="#5767C7"/>
<path d="M699.739 157.832C695.451 155.363 691.947 157.398 691.947 162.337V807.791C692.097 810.49 692.88 813.115 694.234 815.454C695.587 817.794 697.473 819.781 699.739 821.256L1025.75 1008.89C1030.04 1011.36 1033.54 1009.34 1033.54 1004.38V358.93C1033.39 356.232 1032.61 353.607 1031.25 351.268C1029.9 348.93 1028.02 346.942 1025.75 345.465L699.739 157.832Z" fill="#C7E6FF"/>
<path d="M819.182 192.069C816.279 190.4 813.893 191.768 813.893 195.122V200.411C813.992 202.246 814.523 204.032 815.442 205.624C816.361 207.215 817.642 208.568 819.182 209.571L910.78 262.277C913.7 263.945 916.086 262.577 916.086 259.223V253.935C915.985 252.098 915.452 250.311 914.53 248.719C913.608 247.127 912.323 245.776 910.78 244.775L819.182 192.069Z" fill="#5768C8"/>
<path d="M1049.95 627.382C1049.95 631.687 1052.95 633.355 1056.62 631.103L1059.46 629.351C1061.4 628 1063.01 626.223 1064.17 624.156C1065.32 622.089 1065.99 619.786 1066.13 617.422V586.706C1066.13 582.384 1063.13 580.716 1059.46 582.968L1056.62 584.72C1054.68 586.073 1053.07 587.85 1051.91 589.917C1050.75 591.983 1050.08 594.286 1049.95 596.65V627.382Z" fill="#334787"/>
<path d="M845.644 166.608C843.705 165.635 841.561 165.142 839.392 165.171C837.223 165.2 835.093 165.75 833.181 166.775L832.58 167.159C829.243 169.244 829.243 172.581 832.697 174.567L906.108 216.828C908.042 217.811 910.186 218.308 912.354 218.276C914.523 218.244 916.651 217.684 918.555 216.645L919.156 216.278C922.493 214.192 922.493 210.855 919.056 208.87L845.644 166.608Z" fill="#334787"/>
<path d="M1049.95 530.396C1049.95 534.7 1052.95 536.385 1056.62 534.133L1059.46 532.364C1061.4 531.013 1063.01 529.237 1064.17 527.17C1065.32 525.103 1065.99 522.8 1066.13 520.435V397.437C1066.13 393.133 1063.13 391.448 1059.46 393.717L1056.62 395.469C1054.67 396.82 1053.06 398.597 1051.91 400.663C1050.75 402.73 1050.08 405.033 1049.95 407.398V530.396Z" fill="#334787"/>
<path d="M711.301 150.074C715.122 155.947 721.462 158.6 725.466 155.997C729.47 153.394 729.62 146.52 725.8 140.647C721.979 134.774 715.639 132.121 711.635 134.724C707.63 137.327 707.48 144.201 711.301 150.074Z" fill="#5768C8"/>
<path d="M734.893 162.304C735.877 163.805 737.495 164.473 738.513 163.805C739.531 163.138 739.581 161.386 738.613 159.884C737.646 158.383 736.011 157.715 734.993 158.366C733.975 159.017 733.925 160.802 734.893 162.304Z" fill="#5768C8"/>
<path d="M1012.77 321.99C1014.21 324.209 1016.61 325.21 1018.11 324.226C1019.61 323.242 1019.68 320.656 1018.24 318.437C1016.81 316.218 1014.41 315.2 1012.89 316.184C1011.37 317.169 1011.32 319.771 1012.77 321.99Z" fill="#5768C8"/>
<path opacity="0.1" d="M457.314 867.171C457.314 885.057 432.287 899.539 401.571 899.539C370.855 899.539 345.845 885.057 345.845 867.171C345.845 849.285 370.788 834.82 401.571 834.82C432.354 834.82 457.314 849.302 457.314 867.171Z" fill="#334752"/>
<path d="M453.076 809.309L428.466 807.274L410.931 805.706L374.876 806.84L351.935 808.408L348.231 810.878L354.688 863.817C354.688 878.566 375.276 890.513 400.67 890.513C425.296 890.513 445.401 879.284 446.619 865.169L453.076 809.309Z" fill="#C3D0D8"/>
<path d="M453.093 810.277C453.093 825.46 429.617 837.773 400.67 837.773C371.722 837.773 348.264 825.46 348.264 810.277C348.264 795.094 371.722 782.781 400.67 782.781C429.617 782.781 453.093 795.178 453.093 810.277Z" fill="#EDF2F6"/>
<path opacity="0.2" d="M434.84 810.277C434.84 820.171 419.54 828.196 400.67 828.196C381.8 828.196 366.517 820.171 366.517 810.277C366.517 800.383 381.817 792.358 400.67 792.358C419.523 792.358 434.84 800.383 434.84 810.277Z" fill="#334752"/>
<path d="M431.203 719.547C431.016 711.575 427.718 703.993 422.014 698.42C416.31 692.848 408.653 689.728 400.678 689.728C392.704 689.728 385.047 692.848 379.342 698.42C373.638 703.993 370.341 711.575 370.154 719.547V719.547V810.06C370.154 810.06 370.154 810.21 370.154 810.277C370.154 819.137 383.835 826.311 400.703 826.311C417.571 826.311 431.269 819.137 431.269 810.277C431.269 810.277 431.269 810.127 431.269 810.06V719.547H431.203Z" fill="url(#paint3_linear)"/>
<path d="M400.67 689.665C392.687 689.668 385.022 692.797 379.318 698.383C373.614 703.968 370.324 711.566 370.154 719.547V719.547V720.215C374.147 722.595 378.346 724.61 382.701 726.238C401.271 734.029 411.465 726.238 420.458 734.33C424.366 737.863 427.982 741.707 431.269 745.825V719.547C431.095 711.553 427.792 703.945 422.071 698.358C416.35 692.771 408.667 689.65 400.67 689.665Z" fill="url(#paint4_linear)"/>
<path d="M431.236 810.277C431.236 810.277 431.236 810.127 431.236 810.06V736.131C429.2 745.224 425.53 753.867 412.032 757.704C387.756 764.595 386.255 780.779 370.671 791.257L370.121 791.641V809.994C370.121 809.994 370.121 810.144 370.121 810.21C370.121 819.07 383.802 826.244 400.67 826.244C417.538 826.244 431.236 819.137 431.236 810.277Z" fill="url(#paint5_linear)"/>
<path opacity="0.1" d="M1391.28 1050.55C1391.28 1068.44 1366.25 1082.92 1335.55 1082.92C1304.85 1082.92 1279.82 1068.44 1279.82 1050.55C1279.82 1032.66 1304.85 1018.18 1335.55 1018.18C1366.25 1018.18 1391.28 1032.68 1391.28 1050.55Z" fill="#334752"/>
<path d="M1387.14 992.688L1362.53 990.653L1344.99 989.084L1308.92 990.202L1286 991.871L1282.29 994.34L1288.7 1047.2C1288.7 1061.95 1309.29 1073.89 1334.68 1073.89C1359.31 1073.89 1379.41 1062.66 1380.61 1048.53L1387.14 992.688Z" fill="#C3D0D8"/>
<path d="M1387.14 993.723C1387.14 1008.91 1363.66 1021.22 1334.71 1021.22C1305.77 1021.22 1282.31 1008.91 1282.31 993.723C1282.31 978.54 1305.77 966.227 1334.71 966.227C1363.66 966.227 1387.14 978.473 1387.14 993.723Z" fill="#EDF2F6"/>
<path opacity="0.2" d="M1368.78 993.723C1368.78 1003.62 1353.5 1011.64 1334.63 1011.64C1315.76 1011.64 1300.48 1003.62 1300.48 993.723C1300.48 983.829 1315.76 975.803 1334.63 975.803C1353.5 975.803 1368.78 983.712 1368.78 993.723Z" fill="#334752"/>
<path d="M1365.18 902.926C1365.18 894.828 1361.96 887.062 1356.24 881.336C1350.51 875.61 1342.75 872.393 1334.65 872.393C1326.55 872.393 1318.78 875.61 1313.06 881.336C1307.33 887.062 1304.12 894.828 1304.12 902.926V902.926V993.439C1304.12 993.439 1304.12 993.589 1304.12 993.656C1304.12 1002.52 1317.8 1009.69 1334.68 1009.69C1351.57 1009.69 1365.25 1002.52 1365.25 993.656C1365.25 993.656 1365.25 993.506 1365.25 993.439V902.926H1365.18Z" fill="url(#paint6_linear)"/>
<path d="M1334.65 873.044C1326.66 873.046 1319 876.175 1313.29 881.76C1307.58 887.345 1304.29 894.943 1304.12 902.926V902.926V903.627C1308.11 906.016 1312.31 908.037 1316.66 909.666C1335.25 917.458 1345.43 909.666 1354.44 917.758C1358.34 921.292 1361.96 925.136 1365.25 929.254V902.926C1365.07 894.931 1361.77 887.324 1356.05 881.737C1350.33 876.15 1342.64 873.029 1334.65 873.044V873.044Z" fill="url(#paint7_linear)"/>
<path d="M1365.21 993.723C1365.21 993.723 1365.21 993.572 1365.21 993.506V919.51C1363.16 928.587 1359.49 937.246 1345.99 941.083C1321.73 947.974 1320.23 964.158 1304.65 974.636L1304.08 975.019V993.372C1304.08 993.372 1304.08 993.522 1304.08 993.589C1304.08 1002.45 1317.76 1009.62 1334.65 1009.62C1351.53 1009.62 1365.21 1002.52 1365.21 993.723Z" fill="url(#paint8_linear)"/>
<path opacity="0.1" d="M1205.99 1171.28L1138.07 1132.35C1137.67 1132.12 1137.27 1131.92 1136.85 1131.72L1071.17 1094.08C1067.79 1092.38 1064.06 1091.53 1060.28 1091.59C1056.5 1091.66 1052.79 1092.64 1049.48 1094.45L968.558 1144.5C962.652 1148.14 962.752 1153.96 968.775 1157.4L1036.76 1196.25C1037.15 1196.49 1037.57 1196.69 1037.98 1196.89L1103.67 1234.53C1107.04 1236.22 1110.78 1237.07 1114.56 1237.01C1118.33 1236.95 1122.04 1235.98 1125.36 1234.18L1206.28 1184.13C1212.12 1180.59 1211.95 1174.72 1205.99 1171.28Z" fill="#334752"/>
<path d="M1125.73 1117.85C1125.6 1115.54 1124.92 1113.29 1123.76 1111.29C1122.61 1109.28 1120.99 1107.58 1119.05 1106.31L980.921 1026.81C980.34 1026.42 979.688 1026.16 979.003 1026.03C978.318 1025.9 977.615 1025.91 976.934 1026.06C973.847 1027.01 970.947 1028.49 968.358 1030.43C967.718 1030.92 967.214 1031.57 966.893 1032.31C966.572 1033.05 966.445 1033.86 966.523 1034.67V1142.71C966.653 1145.03 967.324 1147.28 968.483 1149.29C969.642 1151.3 971.257 1153.01 973.196 1154.28L1111.33 1233.76C1112.32 1234.39 1113.49 1234.7 1114.66 1234.65C1116.23 1234.58 1117.75 1234.09 1119.07 1233.24C1122.52 1231.18 1124.07 1230.44 1124.86 1229.21C1125.49 1228.21 1125.8 1227.05 1125.74 1225.87L1125.73 1117.85Z" fill="#E6E4EB"/>
<path d="M1118 1121.88C1117.87 1119.56 1117.2 1117.31 1116.04 1115.31C1114.88 1113.3 1113.27 1111.6 1111.33 1110.33L973.196 1030.83C969.526 1028.73 966.523 1030.46 966.523 1034.7V1142.75C966.653 1145.06 967.324 1147.32 968.483 1149.32C969.643 1151.33 971.257 1153.04 973.196 1154.31L1111.33 1233.79C1115 1235.91 1118 1234.18 1118 1229.94V1121.88Z" fill="url(#paint9_linear)"/>
<path d="M1060.62 1165.29C1068.43 1177.3 1081.41 1182.74 1089.6 1177.42C1097.8 1172.1 1098.11 1158.03 1090.3 1146C1082.5 1133.97 1069.52 1128.55 1061.31 1133.89C1053.1 1139.23 1052.81 1153.26 1060.62 1165.29Z" fill="#FFE600"/>
<path d="M1118 1229.94V1212.44L1087.25 1195.12L1058.45 1145.68L1043.44 1157.46L1013.01 1097.17C1013.01 1097.17 980.705 1117.42 966.506 1126.06V1142.75C966.636 1145.06 967.308 1147.32 968.467 1149.32C969.626 1151.33 971.24 1153.04 973.18 1154.31L1111.31 1233.79C1114.98 1235.91 1118 1234.18 1118 1229.94Z" fill="url(#paint10_linear)"/>
<g opacity="0.1">
<path opacity="0.1" d="M204.211 1120.52L239.031 1099.1C243.369 1096.43 243.402 1092.24 239.281 1089.59L175.564 1052.89C173.004 1051.6 170.171 1050.95 167.307 1051C164.444 1051.04 161.632 1051.77 159.113 1053.14L124.309 1074.64C119.971 1077.31 119.921 1081.5 124.025 1084.14L187.76 1120.84C190.324 1122.12 193.159 1122.76 196.024 1122.7C198.889 1122.65 201.698 1121.9 204.211 1120.52Z" fill="#334752"/>
</g>
<path d="M262.957 767.365C260.587 775.123 255.332 793.426 249.609 804.521C244.237 814.949 236.061 826.728 233.258 826.494C230.889 826.111 232.658 825.293 230.088 825.677C227.519 826.061 216.941 834.286 219.527 836.255C219.509 836.348 219.509 836.445 219.527 836.538C223.303 840.006 227.895 842.462 232.875 843.679C233.261 843.838 233.674 843.923 234.093 843.93C234.83 843.926 235.544 843.666 236.111 843.195C239.448 841.527 259.253 830.499 266.944 792.758C268.925 782.431 270.351 772.005 271.215 761.525C271.149 759.156 265.309 759.606 262.957 767.365Z" fill="url(#paint11_linear)"/>
<path d="M155.976 976.905C156.126 977.505 157.761 995.024 152.639 1027.39C147.517 1059.76 147.4 1061.03 146.8 1067.32C146.533 1071.46 153.991 1075.78 160.281 1077.81C166.571 1079.85 179.718 1081.15 185.574 1074.99C186.253 1074.01 186.515 1072.79 186.302 1071.61C186.09 1070.44 185.42 1069.39 184.44 1068.7C184.44 1068.7 178.684 1069.3 176.097 1069.24C174.129 1069.14 167.622 1068.7 168.356 1065.67C169.09 1062.63 175.664 1027.01 177.232 1008.25C178.8 989.502 179.818 969.881 179.818 969.881L175.847 960.487L151.571 957.451L155.976 976.905Z" fill="url(#paint12_linear)"/>
<path d="M192.965 1069.84C190.18 1068.59 187.138 1068.01 184.089 1068.17C184.089 1068.17 181.82 1068.52 184.64 1070.3C186.308 1070.99 187.009 1076.46 177.849 1077.83C170.041 1079.06 167.839 1078.8 163.851 1077.71H163.601C148.018 1073.22 148.401 1062.36 146.683 1064.23C144.547 1066.55 142.345 1068.55 142.345 1073.89C142.236 1076.58 142.773 1079.25 143.913 1081.68C145.252 1084.98 146.231 1088.41 146.833 1091.91V1097.25C146.833 1098.52 147.667 1098.92 148.935 1098.92C150.203 1098.92 151.388 1098.45 151.388 1097.25V1090.33C151.589 1088.19 152.124 1086.09 152.973 1084.12C152.973 1084.12 154.474 1081.02 156.46 1084C158.445 1086.99 161.465 1091.76 168.139 1091.79C174.813 1091.83 179.534 1089.44 187.46 1083.7C195.385 1077.96 196.836 1071.79 192.965 1069.84Z" fill="#2C4755"/>
<path d="M186.542 986.181C186.692 986.782 188.327 1004.32 183.205 1036.68C178.083 1069.05 177.966 1070.32 177.365 1076.61C177.098 1080.73 184.556 1085.07 190.846 1087.09C197.136 1089.11 210.284 1090.43 216.123 1084.29C216.808 1083.3 217.075 1082.09 216.865 1080.91C216.656 1079.73 215.987 1078.68 215.005 1078C215.005 1078 209.233 1078.6 206.663 1078.53C204.694 1078.43 198.188 1078 198.922 1074.96C199.656 1071.92 206.229 1036.3 207.798 1017.53C209.366 998.761 210.384 979.157 210.384 979.157L206.346 969.83L182.07 966.794L186.542 986.181Z" fill="url(#paint13_linear)"/>
<path d="M223.531 1079.11C220.739 1077.89 217.696 1077.35 214.655 1077.55C214.655 1077.55 212.386 1077.88 215.206 1079.68C216.874 1080.35 217.575 1085.82 208.415 1087.21C200.607 1088.44 198.405 1088.16 194.417 1087.09L194.167 1087.01C178.583 1082.53 178.967 1071.66 177.249 1073.54C175.113 1075.84 172.911 1077.86 172.911 1083.2C172.803 1085.89 173.341 1088.56 174.479 1090.99C175.817 1094.28 176.796 1097.7 177.399 1101.2V1106.56C177.399 1107.81 178.233 1108.23 179.501 1108.23C180.769 1108.23 181.954 1107.74 181.954 1106.56V1099.64C182.181 1097.49 182.744 1095.4 183.622 1093.43C183.622 1093.43 185.124 1090.31 187.109 1093.31C189.095 1096.32 192.115 1101.07 198.788 1101.1C205.462 1101.14 210.184 1098.75 218.109 1093.01C226.034 1087.27 227.402 1081.08 223.531 1079.11Z" fill="#2C4755"/>
<path d="M156.276 819.987C156.276 827.379 171.659 833.335 143.629 833.335C136.655 833.335 132.067 827.212 130.649 819.987C125.644 794.711 136.655 806.64 143.629 806.64C147.075 806.736 150.343 808.195 152.714 810.698C155.085 813.2 156.366 816.541 156.276 819.987V819.987Z" fill="url(#paint14_linear)"/>
<path d="M159.163 783.766C159.163 781.663 151.371 754.101 151.371 753.65C151.371 753.2 148.518 747.16 147.016 743.99C148.351 736.715 164.068 720.999 144.23 727.989C136.939 730.626 134.603 734.38 132.551 742.555C131.636 745.9 131.381 749.39 131.8 752.833C132.284 755.068 132.301 771.519 129.548 784.967C126.712 798.898 124.91 810.144 130.149 813.33C135.387 816.517 141.994 816.183 146.833 815.733C151.671 815.282 162.867 810.494 162.867 810.494C162.867 810.494 159.163 785.868 159.163 783.766Z" fill="url(#paint15_linear)"/>
<path d="M213.053 838.557C207.965 830.315 207.965 830.465 207.965 825.527C208.013 814.06 208.664 802.605 209.917 791.207C211.585 777.726 216.207 773.822 215.306 763.944C214.405 754.067 215.306 745.358 197.47 737.716C189.528 735.664 169.641 727.122 162.533 726.454C160.563 725.929 158.533 725.659 156.493 725.654C147.584 725.654 140.142 730.576 138.441 737.082C134.403 747.46 138.007 762.109 139.075 779.828C140.209 798.364 148.401 822.974 148.852 824.993C149.302 827.012 150.52 829.164 148.518 831.4C140.092 841.293 138.074 855.342 138.074 855.342C138.074 855.342 138.074 855.492 138.074 855.742C137.637 858.244 137.413 860.778 137.406 863.317C137.406 864.735 137.506 866.137 137.623 867.505C137.54 872.226 139.292 876.181 143.813 890.73C148.985 915.756 145.481 971.415 145.481 971.415C145.481 979.908 161.482 986.815 181.22 986.815C200.957 986.815 216.958 979.908 216.958 971.415C216.958 971.415 217.408 891.063 217.859 879.651C218.309 868.239 218.142 846.899 213.053 838.557Z" fill="url(#paint16_linear)"/>
<path d="M254.898 802.602C254.37 803.929 253.339 804.994 252.03 805.566C250.721 806.138 249.24 806.17 247.907 805.656L198.138 786.252C196.81 785.723 195.744 784.693 195.17 783.385C194.595 782.077 194.559 780.596 195.068 779.261L222.113 709.97C222.631 708.639 223.657 707.567 224.965 706.991C226.272 706.416 227.755 706.383 229.087 706.9L278.857 726.304C280.187 726.829 281.256 727.859 281.831 729.168C282.406 730.477 282.44 731.961 281.927 733.295L254.898 802.602Z" fill="#2C4755"/>
<path d="M249.876 800.634H249.859H249.843L200.09 781.23L227.135 711.922L276.888 731.343L249.859 800.634H249.876Z" fill="url(#paint17_linear)"/>
<path d="M229.121 818.269C229.121 818.269 226.201 811.912 221.529 802.119C216.691 792.008 212.319 781.914 213.838 775.423C214.725 771.211 215.239 766.929 215.373 762.626C215.373 761.959 215.456 761.292 215.456 760.608C215.456 750.146 208.882 741.654 200.774 741.654C193.016 741.654 186.692 749.412 186.142 759.239C184.64 773.405 194.484 796.212 197.904 801.968C201.324 807.724 208.983 825.327 210.568 829.014C212.153 832.701 217.158 837.356 220.745 838.157C224.332 838.958 230.122 830.649 232.207 827.662C233.592 825.794 229.121 818.269 229.121 818.269Z" fill="url(#paint18_linear)"/>
<path d="M190.997 717.912L189.996 716.394L185.157 711.856L175.146 711.288L167.338 712.957C167.338 712.957 168.356 715.159 167.905 720.498C167.719 723.387 167.123 726.235 166.137 728.957C165.885 729.282 165.709 729.658 165.62 730.058C165.086 732.861 169.457 736.065 175.38 737.199C181.303 738.334 186.542 736.999 187.059 734.196C187.109 733.926 187.109 733.649 187.059 733.379C187.143 732.511 187.226 731.176 187.309 728.974C187.584 725.034 188.852 721.228 190.997 717.912V717.912Z" fill="url(#paint19_linear)"/>
<path d="M218.075 667.508C218.359 670.311 218.459 681.356 218.459 684.41C218.459 701.795 213.454 714.825 204.828 717.195C177.332 724.436 170.658 710.187 170.658 692.802C170.658 675.417 202.359 652.943 208.048 652.943C212.786 652.943 216.824 654.428 218.075 667.508Z" fill="url(#paint20_linear)"/>
<path d="M218.91 662.32C218.91 663.871 218.793 668.993 217.241 668.993C210.417 668.826 205.262 671.98 207.231 680.339C208.632 686.078 206.947 696.306 200.106 711.388C198.188 715.66 202.659 722.484 199.672 722.484C198.621 722.484 196.185 721.316 196.135 715.142C196.135 707.084 200.106 701.061 200.557 699.109C205.045 682.758 192.498 684.81 190.68 687.646C188.144 691.601 183.705 696.723 191.047 703.764C197.136 709.587 180.419 717.962 175.647 716.644C162.867 713.107 162.616 719.397 160.364 722.267C148.802 736.999 150.971 673.715 150.971 662.336C150.971 650.957 163.684 642.932 182.437 642.932C201.191 642.932 218.91 650.941 218.91 662.32Z" fill="url(#paint21_linear)"/>
<path d="M174.863 668.009C174.863 676.351 168.74 683.225 161.182 683.225C153.624 683.225 147.517 676.401 147.517 668.009C147.517 659.617 153.64 652.793 161.182 652.793C168.723 652.793 174.863 659.6 174.863 668.009Z" fill="url(#paint22_linear)"/>
<path d="M167.822 693.703C170.058 675.433 170.158 672.514 169.657 669.594C168.923 663.404 164.285 658.649 158.662 658.649C153.039 658.649 150.053 663.654 147.667 669.427C147.667 669.427 134.737 699.543 137.44 729.207C140.142 758.872 139.675 760.524 154.524 786.452C160.514 798.882 161.198 800.083 160.814 804.805C160.431 809.526 164.402 812.146 165.152 802.269C165.903 792.391 166.654 780.095 159.913 760.007C156.613 749.659 156.352 738.581 159.163 728.09C161.382 719.18 164.518 711.372 167.822 693.703Z" fill="url(#paint23_linear)"/>
<g opacity="0.1">
<path opacity="0.1" d="M935.273 603.307C930.117 600.354 925.913 602.773 925.913 608.712V849.385C926.092 852.627 927.032 855.78 928.659 858.589C930.285 861.398 932.551 863.784 935.273 865.553L1020.85 914.805C1025.99 917.775 1030.19 915.339 1030.19 909.399V668.676C1030.01 665.438 1029.07 662.289 1027.44 659.481C1025.82 656.673 1023.56 654.285 1020.85 652.509L935.273 603.307Z" fill="#334752"/>
</g>
<path d="M1004.36 663.971L918.789 614.719C916.186 613.217 913.783 613.05 912.115 614.118C907.467 615.819 902.996 617.97 898.767 620.542C896.999 621.493 895.881 623.595 895.881 626.648V867.371C896.064 870.609 897.005 873.759 898.628 876.567C900.251 879.375 902.51 881.763 905.224 883.539L990.815 932.791C991.96 933.488 993.251 933.91 994.586 934.026C995.253 934.126 998.74 934.343 1004.86 930.605C1008.1 928.553 1009.77 927.535 1010.59 927.052C1010.81 926.944 1011.03 926.815 1011.24 926.668V926.668C1012.05 925.957 1012.68 925.066 1013.08 924.066C1013.49 923.067 1013.65 921.986 1013.56 920.912V680.139C1013.4 676.912 1012.48 673.768 1010.89 670.96C1009.29 668.152 1007.05 665.758 1004.36 663.971V663.971Z" fill="#E6E4EB"/>
<path d="M905.291 621.243C900.152 618.273 895.948 620.709 895.948 626.648V867.371C896.131 870.609 897.072 873.759 898.695 876.567C900.318 879.375 902.577 881.763 905.291 883.539L990.882 932.791C996.021 935.744 1000.23 933.308 1000.23 927.385V686.729C1000.04 683.493 999.102 680.345 997.479 677.54C995.856 674.734 993.596 672.35 990.882 670.578L905.291 621.243Z" fill="#EDF2F6"/>
<path d="M922.626 691.901L961.718 714.408V695.071L922.626 672.564V691.901Z" fill="#6A6D89"/>
<path d="M985.843 779.578V760.24L918.572 721.516V740.87L985.843 779.578Z" fill="#6A6D89"/>
<path d="M967.123 776.575L907.193 742.088V761.425L967.123 795.912V776.575Z" fill="#6A6D89"/>
<path d="M918.572 795.094L985.843 833.819V814.482L918.572 775.757V795.094Z" fill="#6A6D89"/>
<path d="M907.193 815.666L985.843 860.931V841.594L907.193 796.329V815.666Z" fill="#6A6D89"/>
<path d="M907.193 823.441V842.778L945.984 865.119V845.765L907.193 823.441Z" fill="#6A6D89"/>
<g opacity="0.1">
<path opacity="0.1" d="M741.45 252.666C736.311 249.697 732.106 252.133 732.106 258.072V498.795C732.287 502.034 733.227 505.185 734.85 507.993C736.473 510.801 738.734 513.189 741.45 514.963L827.041 564.215C832.18 567.168 836.384 564.749 836.384 558.809V318.086C836.204 314.847 835.265 311.696 833.642 308.887C832.019 306.079 829.757 303.692 827.041 301.919L741.45 252.666Z" fill="#334752"/>
</g>
<path d="M810.49 313.381L724.915 264.129C722.313 262.627 719.91 262.46 718.242 263.528C713.594 265.229 709.123 267.38 704.894 269.952C703.109 270.903 702.008 273.005 702.008 276.042V516.765C702.187 520.003 703.127 523.155 704.75 525.963C706.373 528.772 708.634 531.159 711.351 532.932L796.942 582.201C798.086 582.9 799.377 583.323 800.713 583.436C801.38 583.519 804.867 583.753 810.99 579.999C814.227 577.963 815.895 576.945 816.713 576.462C816.947 576.345 817.147 576.211 817.364 576.078C818.181 575.375 818.818 574.488 819.224 573.49C819.631 572.492 819.794 571.412 819.7 570.338V329.549C819.535 326.321 818.616 323.178 817.016 320.37C815.417 317.562 813.182 315.169 810.49 313.381V313.381Z" fill="#E6E4EB"/>
<path d="M711.418 270.636C706.279 267.683 702.074 270.118 702.074 276.041V516.765C702.254 520.003 703.193 523.155 704.817 525.963C706.44 528.772 708.701 531.159 711.418 532.932L797.009 582.201C802.148 585.154 806.352 582.718 806.352 576.778V336.055C806.169 332.817 805.227 329.668 803.605 326.86C801.982 324.052 799.723 321.664 797.009 319.888L711.418 270.636Z" fill="#EDF2F6"/>
<path d="M728.736 341.311L767.844 363.818V344.464L728.736 321.974V341.311Z" fill="#6A6D89"/>
<path d="M791.97 428.988V409.65L724.698 370.926V390.263L791.97 428.988Z" fill="#6A6D89"/>
<path d="M773.233 425.984L713.303 391.498V410.835L773.233 445.322V425.984Z" fill="#6A6D89"/>
<path d="M724.698 444.504L791.97 483.212V463.875L724.698 425.167V444.504Z" fill="#6A6D89"/>
<path d="M713.303 465.076L791.97 510.341V491.004L713.303 445.722V465.076Z" fill="#6A6D89"/>
<path d="M713.303 472.851V492.188L752.111 514.529V495.175L713.303 472.851Z" fill="#6A6D89"/>
<path opacity="0.1" d="M1024.9 551.585L1025.44 551.685C1025.68 551.71 1025.93 551.71 1026.17 551.685H1026.52C1026.75 551.632 1026.96 551.554 1027.17 551.451C1027.95 551.049 1028.58 550.419 1028.98 549.647C1029.39 548.874 1029.55 547.996 1029.44 547.13V418.36C1029.32 416.116 1028.67 413.933 1027.54 411.987C1026.42 410.042 1024.85 408.39 1022.97 407.164L877.344 323.342C875.242 322.141 873.39 322.257 872.206 323.342L871.872 323.692C871.762 323.847 871.662 324.009 871.572 324.176C871.484 324.309 871.406 324.449 871.338 324.593C871.24 324.825 871.162 325.065 871.104 325.311C871.104 325.444 871.021 325.578 870.988 325.728C870.904 326.173 870.865 326.626 870.871 327.079V455.766C870.996 458.009 871.647 460.192 872.771 462.137C873.896 464.081 875.463 465.734 877.344 466.961L956.946 512.777L996.988 535.868L1009.59 543.126L1010.05 543.393L1022.88 550.784C1023.29 551.017 1023.72 551.212 1024.17 551.368L1024.9 551.585Z" fill="#334752"/>
<path d="M1005.23 418.226L859.592 334.42C858.497 333.695 857.164 333.42 855.871 333.653C853.702 334.438 851.575 335.335 849.498 336.339C847.181 337.2 845.01 338.41 843.058 339.926C842.513 340.422 842.09 341.037 841.821 341.722C841.552 342.408 841.444 343.146 841.506 343.88V472.567C841.631 474.811 842.282 476.993 843.407 478.938C844.531 480.883 846.098 482.535 847.98 483.763L970.443 554.271L980.771 560.194L993.601 567.569C994.246 568.026 994.997 568.311 995.782 568.396C996.568 568.48 997.363 568.362 998.09 568.052C998.84 567.836 1000.14 567.435 1002.28 566.651C1005.14 565.736 1007.76 564.21 1009.97 562.18C1010.56 561.693 1011.02 561.068 1011.31 560.361C1011.6 559.654 1011.71 558.886 1011.64 558.125V429.438C1011.52 427.199 1010.88 425.019 1009.76 423.072C1008.65 421.125 1007.1 419.465 1005.23 418.226V418.226Z" fill="url(#paint24_linear)"/>
<path d="M995.537 568.269C995.72 568.269 995.904 568.369 996.071 568.386C996.315 568.411 996.561 568.411 996.805 568.386C996.921 568.403 997.039 568.403 997.155 568.386C997.38 568.339 997.598 568.266 997.806 568.169C998.576 567.762 999.204 567.131 999.609 566.36C1000.01 565.589 1000.18 564.713 1000.08 563.848V435.144C999.949 432.899 999.297 430.715 998.173 428.768C997.049 426.82 995.483 425.164 993.602 423.932L847.98 340.126C845.878 338.925 844.026 339.042 842.841 340.126C842.721 340.235 842.61 340.352 842.507 340.477C842.384 340.623 842.283 340.786 842.207 340.961C842.119 341.094 842.041 341.233 841.973 341.378C841.878 341.605 841.8 341.839 841.74 342.078C841.74 342.229 841.656 342.345 841.623 342.496C841.539 342.947 841.5 343.405 841.506 343.864V472.551C841.631 474.794 842.282 476.976 843.407 478.921C844.531 480.866 846.098 482.519 847.98 483.746L927.581 529.561L967.624 552.653L980.237 559.91L980.705 560.177L993.535 567.552C993.945 567.79 994.374 567.991 994.82 568.153C995.053 568.269 995.32 568.269 995.537 568.269Z" fill="url(#paint25_linear)"/>
<path d="M939.895 483.996C950.823 500.831 969.009 508.439 980.488 500.964C991.967 493.49 992.4 473.835 981.455 457.001C970.51 440.166 952.341 432.541 940.862 440.016C929.383 447.491 928.95 467.162 939.895 483.996Z" fill="#FFE600"/>
<path d="M991.266 534.767L950.806 465.543L929.834 482.027L887.288 397.521C887.288 397.521 862.462 413.104 841.556 426.085V472.567C841.681 474.811 842.332 476.993 843.457 478.938C844.581 480.883 846.148 482.535 848.03 483.763L927.631 529.578L967.674 552.669L980.287 559.927L980.754 560.194L993.585 567.569C993.994 567.806 994.424 568.007 994.87 568.169C995.086 568.169 995.303 568.253 995.52 568.303C995.737 568.353 995.887 568.403 996.054 568.42C996.298 568.444 996.544 568.444 996.788 568.42C996.904 568.436 997.022 568.436 997.139 568.42C997.363 568.372 997.581 568.3 997.789 568.203C998.559 567.795 999.187 567.164 999.592 566.393C999.997 565.622 1000.16 564.746 1000.06 563.881V539.739L991.266 534.767Z" fill="#6A6D89"/>
<path opacity="0.1" d="M869.252 845.848C869.364 845.855 869.475 845.855 869.586 845.848C869.741 845.865 869.898 845.865 870.053 845.848H870.27C870.415 845.822 870.555 845.778 870.687 845.715C871.176 845.458 871.575 845.059 871.831 844.57C872.087 844.082 872.189 843.526 872.122 842.979V761.509C872.045 760.087 871.632 758.704 870.919 757.472C870.206 756.239 869.212 755.193 868.018 754.418L775.803 701.344C775.332 700.96 774.743 700.749 774.135 700.749C773.526 700.749 772.937 700.96 772.466 701.344L772.249 701.561C772.249 701.645 772.132 701.762 772.066 701.862L771.915 702.129C771.853 702.274 771.803 702.425 771.765 702.579C771.765 702.662 771.765 702.746 771.765 702.846C771.739 703.129 771.739 703.414 771.765 703.697V785.167C771.847 786.588 772.261 787.969 772.974 789.201C773.686 790.432 774.678 791.48 775.87 792.258L826.273 821.272L851.567 835.971L859.559 840.576L859.859 840.743L867.968 845.415C868.225 845.568 868.499 845.691 868.785 845.782L869.252 845.848Z" fill="#334752"/>
<path d="M856.789 761.425L764.557 708.419C763.861 707.971 763.022 707.798 762.205 707.935C761.888 707.935 761.321 708.302 758.167 709.603C756.699 710.151 755.321 710.915 754.08 711.872C753.737 712.188 753.471 712.577 753.301 713.011C753.13 713.444 753.06 713.911 753.095 714.375V795.845C753.177 797.266 753.591 798.647 754.304 799.879C755.016 801.11 756.008 802.158 757.2 802.936L834.749 847.583L841.306 851.337L849.431 856.009C849.837 856.301 850.313 856.481 850.81 856.534C851.307 856.587 851.809 856.509 852.268 856.309C852.751 856.176 853.569 855.926 854.92 855.425C856.729 854.84 858.391 853.873 859.792 852.589C860.176 852.287 860.478 851.893 860.67 851.444C860.863 850.996 860.939 850.506 860.894 850.019V768.483C860.807 767.068 860.391 765.693 859.678 764.467C858.965 763.242 857.976 762.2 856.789 761.425V761.425Z" fill="url(#paint26_linear)"/>
<path d="M850.649 856.476C850.766 856.484 850.883 856.484 851 856.476C851.149 856.493 851.301 856.493 851.45 856.476H851.684C851.822 856.447 851.956 856.402 852.084 856.343C852.571 856.084 852.969 855.685 853.225 855.197C853.481 854.708 853.583 854.154 853.519 853.607V772.136C853.441 770.717 853.03 769.336 852.32 768.104C851.61 766.872 850.62 765.825 849.431 765.046L757.2 711.972C756.74 711.607 756.169 711.408 755.581 711.408C754.994 711.408 754.423 711.607 753.963 711.972L753.746 712.189C753.666 712.28 753.599 712.381 753.546 712.49L753.396 712.757C753.339 712.903 753.295 713.053 753.262 713.207C753.225 713.293 753.197 713.382 753.179 713.474C753.151 713.757 753.151 714.042 753.179 714.325V795.845C753.261 797.266 753.674 798.647 754.387 799.879C755.1 801.11 756.092 802.158 757.283 802.936L807.62 831.883L833.014 846.499L840.989 851.087L841.289 851.271L849.415 855.942C849.666 856.096 849.935 856.219 850.216 856.309L850.649 856.476Z" fill="url(#paint27_linear)"/>
<path opacity="0.1" d="M823.404 697.524H823.737C823.893 697.541 824.049 697.541 824.204 697.524H824.438C824.576 697.494 824.71 697.45 824.838 697.39C825.325 697.132 825.723 696.732 825.979 696.244C826.235 695.756 826.338 695.202 826.273 694.654V613.184C826.196 611.762 825.784 610.379 825.07 609.147C824.357 607.915 823.363 606.868 822.169 606.093L729.954 553.02C729.483 552.635 728.894 552.425 728.286 552.425C727.677 552.425 727.088 552.635 726.617 553.02C726.546 553.093 726.479 553.171 726.417 553.253C726.341 553.341 726.273 553.436 726.217 553.537L726.067 553.821C726.005 553.959 725.96 554.105 725.933 554.254C725.926 554.349 725.926 554.444 725.933 554.538C725.878 554.818 725.85 555.103 725.85 555.389V636.893C725.931 638.313 726.345 639.695 727.058 640.926C727.771 642.158 728.763 643.205 729.954 643.983L780.374 672.998L805.768 687.613L813.76 692.218L814.06 692.385L822.169 697.057C822.43 697.203 822.704 697.326 822.986 697.424L823.404 697.524Z" fill="#334752"/>
<path d="M810.94 613.1L718.709 560.027C718.016 559.569 717.173 559.395 716.356 559.543C714.981 560.026 713.633 560.583 712.319 561.212C710.852 561.752 709.478 562.517 708.248 563.481C707.9 563.794 707.629 564.182 707.456 564.616C707.282 565.05 707.211 565.518 707.247 565.984V647.52C707.328 648.941 707.742 650.323 708.455 651.554C709.168 652.786 710.16 653.833 711.351 654.611L788.917 699.259L795.457 703.013L803.582 707.685C803.989 707.976 804.464 708.157 804.961 708.21C805.458 708.262 805.961 708.185 806.419 707.985C806.903 707.851 807.72 707.584 809.072 707.101C810.88 706.516 812.542 705.548 813.944 704.264C814.327 703.962 814.629 703.569 814.822 703.12C815.014 702.671 815.091 702.181 815.045 701.695V620.191C814.963 618.771 814.549 617.389 813.836 616.157C813.124 614.926 812.132 613.879 810.94 613.1V613.1Z" fill="url(#paint28_linear)"/>
<path d="M804.85 708.152H805.201C805.351 708.168 805.502 708.168 805.651 708.152H805.885C806.026 708.124 806.161 708.073 806.285 708.002C806.779 707.754 807.183 707.36 807.443 706.872C807.703 706.385 807.806 705.83 807.737 705.282V623.812C807.655 622.391 807.241 621.01 806.529 619.778C805.816 618.546 804.824 617.499 803.633 616.721L711.418 563.648C710.956 563.285 710.386 563.088 709.799 563.088C709.212 563.088 708.642 563.285 708.181 563.648L707.964 563.865C707.891 563.961 707.825 564.061 707.764 564.165L707.613 564.449C707.557 564.595 707.512 564.746 707.48 564.899C707.445 564.98 707.417 565.064 707.397 565.149C707.37 565.438 707.37 565.728 707.397 566.017V647.52C707.478 648.941 707.892 650.323 708.605 651.554C709.318 652.786 710.31 653.833 711.501 654.611L761.921 683.626L787.315 698.241L795.29 702.829L795.591 703.013L803.716 707.685C803.971 707.831 804.239 707.954 804.517 708.052L804.85 708.152Z" fill="url(#paint29_linear)"/>
<path d="M770.898 226.455L625.259 142.633C624.161 141.916 622.831 141.641 621.539 141.865C621.038 141.865 620.137 142.449 615.165 144.551C612.845 145.413 610.673 146.628 608.725 148.155C608.179 148.647 607.753 149.258 607.481 149.941C607.209 150.624 607.098 151.36 607.157 152.093V280.78C607.283 283.027 607.937 285.212 609.064 287.16C610.192 289.108 611.762 290.763 613.647 291.992L711.251 348.152L733.424 410.468L746.438 403.794V368.407L759.269 375.798C759.912 376.257 760.664 376.542 761.451 376.624C762.238 376.705 763.032 376.582 763.757 376.265C764.508 376.065 765.809 375.664 767.945 374.88C770.804 373.961 773.429 372.429 775.636 370.392C776.228 369.907 776.69 369.283 776.982 368.575C777.273 367.868 777.384 367.099 777.304 366.338V237.651C777.188 235.413 776.548 233.234 775.435 231.289C774.322 229.345 772.768 227.689 770.898 226.455V226.455Z" fill="url(#paint30_linear)"/>
<path d="M759.269 232.161L613.647 148.355C610.076 146.303 607.157 147.988 607.157 152.093V280.78C607.283 283.027 607.937 285.212 609.064 287.16C610.192 289.108 611.761 290.763 613.647 291.992L693.248 337.791L733.291 410.685V360.882L759.202 375.798C762.772 377.85 765.675 376.148 765.675 372.044V243.357C765.561 241.119 764.921 238.939 763.808 236.995C762.695 235.05 761.14 233.394 759.269 232.161V232.161Z" fill="url(#paint31_linear)"/>
<path d="M663.7 269.718L648.401 250.481C647.96 249.977 647.59 249.416 647.299 248.812C647.09 248.351 646.982 247.851 646.982 247.344V246.443C646.947 246.039 647.059 245.636 647.299 245.309C647.594 245.003 647.981 244.804 648.401 244.741L663.7 241.405H664.184C664.426 241.377 664.67 241.424 664.885 241.538C665.178 241.7 665.429 241.929 665.619 242.205C665.801 242.477 665.9 242.796 665.902 243.123V245.275C665.92 245.42 665.905 245.567 665.859 245.706C665.813 245.844 665.737 245.971 665.636 246.076C665.384 246.257 665.092 246.371 664.785 246.41L651.537 249.213L664.785 265.814C665.119 266.22 665.415 266.655 665.669 267.115C665.819 267.434 665.899 267.781 665.902 268.133V270.285C665.902 270.619 665.802 270.853 665.619 270.936C665.505 270.994 665.38 271.025 665.252 271.025C665.124 271.025 664.998 270.994 664.885 270.936C664.427 270.597 664.027 270.185 663.7 269.718Z" fill="white"/>
<path d="M670.808 281.781C670.631 281.519 670.533 281.212 670.524 280.897C670.532 280.706 670.577 280.519 670.658 280.346L687.342 246.41C687.412 246.31 687.501 246.226 687.604 246.162C687.707 246.097 687.822 246.055 687.942 246.036C688.062 246.017 688.184 246.023 688.302 246.053C688.42 246.083 688.53 246.136 688.627 246.21L690.429 247.194C690.709 247.35 690.947 247.573 691.119 247.844C691.291 248.116 691.392 248.425 691.413 248.746C691.4 248.932 691.349 249.114 691.263 249.28L674.445 283.099C674.411 283.189 674.357 283.269 674.288 283.336C674.218 283.402 674.135 283.452 674.045 283.483C673.897 283.519 673.744 283.524 673.595 283.498C673.446 283.472 673.303 283.416 673.177 283.333L671.408 282.448C671.164 282.271 670.959 282.043 670.808 281.781V281.781Z" fill="white"/>
<path d="M696.402 286.719C696.227 286.444 696.129 286.127 696.118 285.802V283.683C696.099 283.412 696.182 283.144 696.352 282.932C696.614 282.744 696.917 282.618 697.236 282.565L710.483 279.962L697.236 263.561C696.919 263.173 696.635 262.761 696.385 262.327C696.205 262 696.113 261.632 696.118 261.259V259.157C696.118 258.84 696.201 258.639 696.385 258.556C696.492 258.498 696.613 258.467 696.735 258.467C696.858 258.467 696.978 258.498 697.086 258.556C697.352 258.728 697.593 258.936 697.803 259.173L698.32 259.724L713.62 278.761C714.049 279.274 714.418 279.833 714.721 280.429C714.927 280.868 715.035 281.346 715.038 281.831V282.698C715.062 283.086 714.95 283.469 714.721 283.783C714.419 284.061 714.03 284.226 713.62 284.25L698.32 287.337C697.919 287.468 697.487 287.468 697.086 287.337C696.816 287.183 696.582 286.972 696.402 286.719Z" fill="white"/>
<g opacity="0.1">
<path opacity="0.1" d="M596.629 950.193C593.813 948.775 590.697 948.059 587.545 948.105C584.393 948.152 581.299 948.959 578.526 950.46L540.252 974.002C535.247 977.038 535.397 981.893 540.402 984.78L665.535 1056.77C668.351 1058.19 671.467 1058.91 674.62 1058.86C677.772 1058.81 680.866 1058.01 683.638 1056.51L721.896 1032.96C726.901 1029.93 726.767 1025.07 721.745 1022.19L596.629 950.193Z" fill="#334752"/>
</g>
<path d="M565.479 666.908L613.297 664.805C613.297 664.805 614.698 657.798 620.304 658.315C625.91 658.832 642.211 658.148 642.211 658.148C642.211 658.148 652.021 656.58 637.305 663.054C622.59 669.527 620.137 671.396 615.616 670.061C612.279 670.228 572.003 683.025 568.499 681.273C564.995 679.521 565.696 674.966 565.696 674.966L565.479 666.908Z" fill="url(#paint32_linear)"/>
<path d="M603.636 591.844H595.878C595.878 591.844 581.896 596.066 573.904 620.458C565.913 644.851 561.942 656.397 561.708 661.719C561.475 667.041 559.489 677.469 565.262 680.355C571.035 683.242 575.473 679.905 578.359 676.585C581.246 673.264 579.911 669.711 582.564 662.837C585.217 655.963 586.768 645.752 591.89 642.198C597.012 638.644 603.853 629.334 603.853 629.334L603.636 591.844Z" fill="url(#paint33_linear)"/>
<path d="M579.477 972.917L577.392 974.469C577.088 977.093 576.96 979.735 577.008 982.377C577.191 985.313 575.857 988.417 577.392 988.917C578.927 989.418 582.914 990.586 585.734 989.451C588.554 988.317 588.22 985.147 589.938 985.313C591.657 985.48 601.751 982.894 608.625 979.457C615.499 976.02 617.584 971.015 611.962 971.365C606.339 971.716 594.243 973.768 589.471 974.702C588.437 974.919 588.27 974.168 588.27 974.168L586.234 973.851L583.682 973.501L579.477 972.917Z" fill="url(#paint34_linear)"/>
<path d="M588.437 974.469C588.437 975.987 585.967 977.222 582.914 977.222C579.861 977.222 577.392 975.987 577.392 974.469C577.392 972.95 579.861 971.716 582.914 971.716C585.967 971.716 588.437 972.934 588.437 974.469Z" fill="#131316"/>
<path d="M597.646 742.922C585.6 745.241 588.954 751.865 588.954 758.055C588.954 764.245 585.367 797.147 580.962 840.042C576.908 879.534 578.943 896.769 578.459 927.035C578.076 951.111 576.357 963.54 575.656 967.645C575.468 968.181 575.372 968.745 575.373 969.313C575.373 972.65 578.893 975.503 583.231 975.503C587.569 975.503 591.09 972.734 591.09 969.313C591.09 969.313 595.711 908.932 596.512 902.575C600.566 870.591 611.344 832.334 615.399 818.035C619.453 803.737 636.855 754.051 636.855 754.051C636.855 754.051 624.342 737.8 597.646 742.922Z" fill="url(#paint35_linear)"/>
<path d="M618.485 608.312C619.42 606.644 625.826 592.662 626.828 583.519C627.829 574.376 627.378 569.287 627.995 569.087C628.613 568.887 634.269 567.552 634.269 567.552L645.047 573.308L650.052 575.46C650.052 575.46 653.089 583.252 649.034 587.139C639.374 595.765 641.426 616.738 647.9 616.22C648.501 616.22 647.9 623.094 641.526 620.842C636.084 618.917 630.824 616.511 625.81 613.651C624.659 612.583 618.485 608.312 618.485 608.312Z" fill="url(#paint36_linear)"/>
<path d="M654.007 572.557C654.575 572.391 655.083 572.062 655.468 571.612C655.853 571.161 656.099 570.609 656.176 570.021C656.176 568.503 651.304 559.86 649.018 557.942C648.834 556.273 648.584 554.271 648.367 552.553C647.883 548.915 646.982 546.663 644.046 546.663C640.859 546.922 637.696 547.424 634.586 548.165C634.586 548.165 626.978 552.419 626.978 552.619C626.978 552.82 617.534 573.925 617.534 574.609C617.534 575.293 630.064 590.91 649.936 590.977C651.135 590.977 652.285 590.501 653.133 589.653C653.981 588.805 654.457 587.655 654.457 586.455C654.452 585.924 654.351 585.398 654.157 584.904C653.933 583.653 653.805 582.387 653.773 581.116C653.773 578.914 655.008 577.963 654.457 576.862C653.906 575.761 653.089 575.077 653.506 573.992C653.623 573.642 653.806 573.108 654.007 572.557Z" fill="url(#paint37_linear)"/>
<path d="M648.918 1005.87L646.348 1008.02C645.965 1011.66 645.808 1015.31 645.881 1018.97C646.115 1023.04 644.446 1027.31 646.348 1028.04C648.25 1028.78 653.256 1030.41 656.843 1028.74C660.43 1027.07 659.929 1022.79 662.082 1023.04C664.234 1023.29 676.864 1019.7 685.44 1014.93C694.016 1010.16 696.635 1003.25 689.728 1003.72C682.82 1004.18 667.554 1007.05 661.598 1008.25C660.313 1008.56 660.096 1007.52 660.096 1007.52L657.544 1007.07L654.374 1006.59L648.918 1005.87Z" fill="url(#paint38_linear)"/>
<path d="M660.13 1008.02C660.13 1010.12 657.026 1011.83 653.206 1011.83C649.385 1011.83 646.298 1010.16 646.298 1008.02C646.298 1005.89 649.402 1004.2 653.206 1004.2C657.01 1004.2 660.13 1005.9 660.13 1008.02Z" fill="#131316"/>
<path d="M666.37 750.447L638.573 754.968C636.788 743.406 628.997 734.697 619.653 734.697C608.992 734.697 600.333 746.025 600.333 759.974C600.312 764.585 601.315 769.144 603.269 773.321C608.358 786.886 629.08 803.353 631.316 824.342C633.702 846.733 640.626 856.276 641.56 869.39C642.494 882.504 643.479 942.802 644.663 962.106C645.848 981.409 646.515 1004.35 646.515 1004.35C646.751 1005.89 647.529 1007.29 648.709 1008.3C649.889 1009.32 651.392 1009.87 652.947 1009.87C654.502 1009.87 656.006 1009.32 657.185 1008.3C658.365 1007.29 659.143 1005.89 659.379 1004.35C659.379 1004.35 666.353 906.329 666.837 884.406C667.321 862.483 667.07 861.048 667.304 833.652C667.638 801.852 666.37 750.447 666.37 750.447Z" fill="url(#paint39_linear)"/>
<path d="M666.637 682.575C671.525 662.553 674.395 654.845 674.395 654.845L671.525 618.022C664.046 613.794 655.967 610.728 647.566 608.929C638.023 607.144 633.084 606.26 624.041 601.605C621.806 600.454 617.451 594.297 606.623 591.294C606.623 591.294 596.145 588.124 591.89 595.398C586.284 604.908 589.221 615.586 592.107 639.545C594.994 663.504 595.211 691.267 592.107 711.639C590.305 723.485 587.302 737.583 588.77 746.009C588.77 746.109 588.77 746.192 588.77 746.292C588.861 747.105 589.093 747.895 589.454 748.628C589.722 749.528 590.169 750.364 590.768 751.087C591.367 751.81 592.107 752.403 592.941 752.833C599.398 758.072 612.746 761.709 628.73 761.709C643.846 761.709 656.359 758.822 663.1 754.284C666.103 753.25 669.406 749.729 669.273 739.585C669.073 722.067 661.765 702.546 666.637 682.575Z" fill="url(#paint40_linear)"/>
<path d="M646.198 548.381C647.566 541.107 646.015 526.275 646.015 526.275C646.006 525.987 645.94 525.704 645.821 525.441C645.702 525.179 645.532 524.944 645.321 524.748C645.109 524.552 644.861 524.401 644.591 524.302C644.321 524.203 644.033 524.159 643.746 524.172C625.543 523.522 607.173 546.529 603.603 551.251C601.605 553.502 600.491 556.401 600.466 559.41C600.471 560.336 600.577 561.259 600.783 562.163C600.783 562.246 600.783 562.33 600.783 562.413C602.034 571.306 616.066 585.771 616.066 585.771H616.183C617.788 587.352 619.953 588.234 622.206 588.224C624.098 588.272 625.946 587.656 627.431 586.482C628.915 585.309 629.942 583.652 630.331 581.8V581.684C631.509 576.431 631.88 571.03 631.432 565.667C631.266 562.73 640.442 559.927 640.676 559.894H640.792C641.624 559.612 642.382 559.146 643.009 558.531C643.636 557.915 644.116 557.166 644.413 556.34V556.34C644.413 556.34 644.413 556.34 644.413 556.24C644.505 555.94 644.572 555.633 644.613 555.322C645.014 553.403 645.014 553.036 646.198 548.381Z" fill="#334752"/>
<path d="M700.806 683.242L761.354 680.572C761.354 680.572 763.139 671.713 770.23 672.364C777.321 673.014 797.96 672.147 797.96 672.147C797.96 672.147 810.39 670.145 791.753 678.353C773.117 686.562 770.063 689.015 764.24 687.246C760.036 687.463 709.015 703.647 704.577 701.428C700.139 699.209 701.023 693.436 701.023 693.436L700.806 683.242Z" fill="url(#paint41_linear)"/>
<path d="M708.298 680.055C707.68 676.952 702.458 672.63 691.48 647.17C685.006 632.154 679.801 625.046 676.697 621.71C675.131 619.904 673.193 618.459 671.016 617.474C668.838 616.489 666.474 615.988 664.084 616.003C659.907 615.891 655.857 617.441 652.823 620.313C649.788 623.185 648.018 627.144 647.9 631.32C647.901 632.358 648.013 633.392 648.234 634.406C648.017 645.602 681.386 677.986 686.391 683.959C691.396 689.932 692.931 695.955 699.372 701.144C706.412 706.65 708.364 703.53 706.963 697.056C705.611 691.05 709.749 687.73 708.298 680.055Z" fill="url(#paint42_linear)"/>
<g opacity="0.1">
<path opacity="0.1" d="M975.482 1294.44C978.659 1292.85 982.174 1292.04 985.73 1292.09C989.285 1292.14 992.775 1293.05 995.904 1294.74L1039.07 1321.3C1044.62 1324.64 1044.54 1330.2 1038.88 1333.45L897.799 1414.64C894.626 1416.23 891.113 1417.04 887.56 1416.99C884.007 1416.94 880.52 1416.03 877.394 1414.34L834.232 1387.79C828.676 1384.36 828.759 1378.88 834.415 1375.63L975.482 1294.44Z" fill="#334752"/>
</g>
<path d="M978.636 985.914L930.434 961.605C930.434 961.605 932.253 953.763 926.23 951.694C920.207 949.626 903.806 941.383 903.806 941.383C903.806 941.383 894.446 935.21 906.576 948.691C918.705 962.172 920.324 965.376 925.663 965.96C928.999 967.628 964.504 999.479 968.925 999.328C973.347 999.178 974.732 994.14 974.732 994.14L978.636 985.914Z" fill="url(#paint43_linear)"/>
<path d="M974.164 891.063L982.139 894.65C982.139 894.65 994.569 905.462 991.483 934.259C988.396 963.057 987.145 976.755 984.909 982.327C982.673 987.9 979.904 999.562 972.629 999.846C965.355 1000.13 962.352 994.674 960.95 989.835C959.549 984.997 962.619 982.044 963.002 973.751C963.386 965.459 966.573 954.231 963.002 948.224C959.432 942.218 956.646 929.454 956.646 929.454L974.164 891.063Z" fill="url(#paint44_linear)"/>
<path d="M994.819 1320.07L997.189 1321.74C997.528 1324.71 997.667 1327.69 997.606 1330.68C997.406 1334.02 998.907 1337.47 997.189 1338.06C995.47 1338.64 990.949 1339.99 987.729 1338.64C984.509 1337.29 984.926 1333.78 982.99 1333.98C981.055 1334.19 969.643 1331.27 961.918 1327.31C954.193 1323.36 951.807 1317.78 958.047 1318.18C964.287 1318.59 978.068 1320.9 983.424 1321.87C984.575 1322.12 984.776 1321.27 984.776 1321.27L987.078 1320.92L989.948 1320.5L994.819 1320.07Z" fill="url(#paint45_linear)"/>
<path d="M984.709 1321.81C984.709 1323.47 987.495 1324.91 990.949 1324.91C994.402 1324.91 997.189 1323.52 997.189 1321.81C997.189 1320.09 994.386 1318.7 990.949 1318.7C987.512 1318.7 984.709 1320.1 984.709 1321.81Z" fill="#131316"/>
<path d="M974.331 1060.69C987.912 1063.3 984.142 1070.7 984.142 1077.76C984.142 1084.82 988.162 1121.84 993.151 1170.23C997.723 1214.76 995.42 1234.2 995.971 1268.33C996.388 1295.48 998.34 1309.51 999.124 1314.11C999.336 1314.69 999.449 1315.3 999.458 1315.92C999.458 1319.77 995.487 1322.89 990.598 1322.89C985.71 1322.89 981.722 1319.77 981.722 1315.92C981.722 1315.92 976.517 1247.81 975.599 1240.59C971.044 1204.5 958.915 1161.35 954.293 1145.23C949.672 1129.12 930.117 1073.06 930.117 1073.06C930.117 1073.06 944.216 1054.92 974.331 1060.69Z" fill="url(#paint46_linear)"/>
<path d="M950.823 908.799C949.771 906.83 942.48 891.147 941.396 880.836C940.311 870.525 940.779 864.802 940.078 864.568C939.377 864.335 933.02 862.9 933.02 862.9L920.841 869.39L915.285 871.826C915.285 871.826 911.848 880.619 916.436 884.907C927.331 894.65 925.012 918.276 917.721 917.708C917.037 917.708 917.721 925.467 924.912 922.93C931.043 920.75 936.972 918.037 942.631 914.822C943.915 913.637 950.823 908.799 950.823 908.799Z" fill="url(#paint47_linear)"/>
<path d="M910.78 868.589C910.132 868.416 909.551 868.05 909.113 867.541C908.676 867.032 908.402 866.403 908.327 865.736C908.327 864.068 913.817 854.291 916.386 852.122C916.603 850.27 916.887 848.001 917.137 846.049C917.671 841.944 918.688 839.375 922.009 839.375C925.6 839.658 929.164 840.215 932.67 841.043C932.67 841.043 941.246 845.832 941.246 846.049C941.246 846.265 951.907 870.074 951.907 870.858C951.907 871.642 937.775 889.211 915.368 889.311C914.541 889.331 913.721 889.146 912.983 888.772C912.244 888.398 911.61 887.846 911.138 887.166C910.665 886.487 910.368 885.701 910.273 884.878C910.179 884.056 910.29 883.223 910.597 882.454C910.854 881.05 910.999 879.627 911.03 878.199C911.03 875.713 909.645 874.629 910.263 873.394C910.88 872.16 911.814 871.392 911.347 870.158C911.197 869.774 910.997 869.19 910.78 868.589Z" fill="url(#paint48_linear)"/>
<path d="M916.503 1357.23L919.456 1359.65C919.894 1363.75 920.072 1367.88 919.99 1372.01C919.74 1376.58 921.658 1381.42 919.456 1382.24C917.254 1383.05 911.664 1384.92 907.627 1383.04C903.589 1381.15 904.14 1376.36 901.72 1376.58C899.301 1376.8 885.036 1372.83 875.376 1367.45C865.715 1362.08 862.746 1354.27 870.537 1354.81C878.329 1355.34 895.564 1358.58 902.238 1359.91C903.689 1360.26 903.906 1359.1 903.906 1359.1L906.776 1358.59L910.363 1358.04L916.503 1357.23Z" fill="url(#paint49_linear)"/>
<path d="M903.872 1359.65C903.872 1362.03 907.36 1363.95 911.664 1363.95C915.969 1363.95 919.456 1362.03 919.456 1359.65C919.456 1357.26 915.969 1355.34 911.664 1355.34C907.36 1355.34 903.872 1357.28 903.872 1359.65Z" fill="#131316"/>
<path d="M896.765 1069.19L928.132 1074.19C930.134 1061.16 938.927 1051.35 949.471 1051.35C961.484 1051.35 971.244 1064.11 971.244 1079.85C971.258 1085.04 970.118 1090.17 967.907 1094.86C962.185 1110.16 938.81 1128.68 936.207 1152.39C933.521 1177.67 925.729 1188.41 924.661 1203.2C923.594 1217.98 922.509 1285.98 921.158 1307.76C919.806 1329.53 919.072 1355.41 919.072 1355.41C919.072 1358.84 915.735 1361.63 911.831 1361.63C907.927 1361.63 904.573 1358.84 904.573 1355.41C904.573 1355.41 896.698 1244.86 896.231 1220.13C895.764 1195.4 895.964 1193.79 895.697 1162.89C895.397 1127.05 896.765 1069.19 896.765 1069.19Z" fill="url(#paint50_linear)"/>
<path d="M896.615 992.638C891.109 970.114 887.856 961.355 887.856 961.355L891.109 919.827C899.543 915.063 908.651 911.603 918.121 909.566C928.883 907.564 934.455 906.563 944.649 901.324C947.169 900.006 952.091 892.982 964.287 889.645C964.287 889.645 976.1 886.091 980.971 894.283C987.295 905.011 983.991 917.041 980.738 944.07C977.484 971.098 977.234 1002.35 980.738 1025.37C982.773 1038.72 986.144 1054.64 984.458 1064.15C984.458 1064.25 984.458 1064.35 984.458 1064.46C984.347 1065.38 984.082 1066.26 983.674 1067.08C983.371 1068.1 982.868 1069.04 982.195 1069.86C981.522 1070.68 980.691 1071.35 979.753 1071.84C972.462 1077.73 957.413 1081.85 939.394 1081.85C922.342 1081.85 908.227 1078.51 900.636 1073.51C897.299 1072.32 893.528 1068.37 893.662 1056.92C893.778 1037.1 902.021 1015.15 896.615 992.638Z" fill="url(#paint51_linear)"/>
<path d="M919.573 841.277C918.021 833.085 919.79 816.35 919.79 816.35C919.8 816.028 919.875 815.711 920.008 815.418C920.141 815.124 920.331 814.86 920.567 814.64C920.802 814.42 921.079 814.248 921.38 814.135C921.682 814.022 922.003 813.97 922.326 813.981C942.881 813.247 963.586 839.208 967.607 844.53C969.863 847.065 971.126 850.33 971.161 853.723C971.158 854.768 971.035 855.81 970.794 856.827C970.794 856.927 970.794 857.01 970.794 857.11C969.392 867.121 953.559 883.539 953.559 883.539H953.425C952.532 884.424 951.472 885.125 950.306 885.6C949.141 886.076 947.893 886.316 946.635 886.308C944.505 886.363 942.423 885.67 940.75 884.351C939.077 883.031 937.918 881.168 937.475 879.084C937.475 879.084 937.475 879.084 937.475 878.95C936.149 873.025 935.727 866.933 936.224 860.881C936.424 857.544 926.08 854.407 925.813 854.357H925.679C924.733 854.031 923.875 853.488 923.174 852.773C922.474 852.058 921.949 851.189 921.642 850.236V850.236C921.649 850.203 921.649 850.169 921.642 850.136C921.551 849.797 921.484 849.451 921.441 849.102C920.924 846.899 920.924 846.532 919.573 841.277Z" fill="#6A3C20"/>
<path d="M885.953 1004.42L869.269 1096.05C869.269 1096.05 859.075 1096.62 858.691 1104.64C858.307 1112.67 854.086 1135.54 854.086 1135.54C854.086 1135.54 849.898 1149.09 862.011 1129.58C874.124 1110.08 877.361 1106.99 876.277 1100.27C877.194 1095.61 902.021 1042.99 901.003 1037.49C900.152 1032.93 909.195 1014.68 904.623 1007.45C904.006 1006.47 895.514 1014.13 895.514 1014.13L885.953 1004.42Z" fill="url(#paint52_linear)"/>
<path d="M884.585 1009.61C882.149 1007 885.636 999.028 880.665 968.162C877.745 949.942 878.329 940.049 879.33 934.976C879.724 932.313 880.69 929.766 882.161 927.511C883.633 925.255 885.576 923.346 887.856 921.913C896.365 916.49 907.41 918.576 912.532 926.668C913.161 927.66 913.682 928.717 914.083 929.821C921.108 940.299 908.961 991.303 907.843 1000.01C906.726 1008.72 908.311 1016.2 901.086 1015.95C895.614 1015.76 888.273 1013.61 884.585 1009.61Z" fill="url(#paint53_linear)"/>
<g opacity="0.1">
<path opacity="0.1" d="M655.491 1188.25C653.316 1187.03 650.879 1186.36 648.389 1186.3C645.899 1186.23 643.43 1186.77 641.193 1187.86L531.726 1249.18C527.739 1251.41 527.639 1255.23 531.509 1257.69L668.155 1343.96C670.33 1345.18 672.767 1345.85 675.257 1345.91C677.747 1345.98 680.216 1345.44 682.453 1344.35L791.92 1283.05C795.908 1280.81 796.024 1276.97 792.137 1274.52L655.491 1188.25Z" fill="#334752"/>
</g>
<path d="M785.046 1271.47L785.463 1260.16C785.597 1259.24 785.43 1258.3 784.988 1257.48C784.547 1256.66 783.853 1256.01 783.011 1255.62L660.513 1178.25C658.559 1177.17 656.373 1176.57 654.139 1176.52C651.906 1176.46 649.691 1176.94 647.683 1177.92L549.579 1232.88C548.787 1233.22 548.109 1233.78 547.624 1234.49C547.139 1235.2 546.868 1236.04 546.842 1236.9L546.375 1248.44C546.351 1248.67 546.351 1248.9 546.375 1249.13V1249.24C546.494 1249.98 546.784 1250.68 547.221 1251.29C547.659 1251.89 548.232 1252.39 548.895 1252.73L671.375 1330.1C673.325 1331.18 675.509 1331.78 677.741 1331.84C679.972 1331.9 682.185 1331.41 684.189 1330.43L782.327 1275.47C783.117 1275.14 783.795 1274.58 784.279 1273.87C784.764 1273.16 785.036 1272.33 785.063 1271.47H785.046Z" fill="url(#paint54_linear)"/>
<path d="M660.513 1178.25C658.559 1177.17 656.373 1176.57 654.139 1176.52C651.906 1176.46 649.691 1176.94 647.683 1177.92L549.579 1232.88C545.991 1234.88 545.908 1238.32 549.378 1240.52L671.892 1317.87C673.844 1318.96 676.031 1319.56 678.266 1319.62C680.501 1319.68 682.717 1319.19 684.723 1318.2L782.844 1263.24C786.431 1261.24 786.531 1257.8 783.044 1255.62L660.513 1178.25Z" fill="url(#paint55_linear)"/>
<path d="M808.888 1252.77L808.638 1241.45C808.714 1240.53 808.491 1239.6 808.002 1238.81C807.512 1238.02 806.782 1237.41 805.918 1237.07L679.117 1167.09C677.102 1166.12 674.882 1165.66 672.648 1165.73C670.414 1165.81 668.231 1166.42 666.286 1167.52L571.585 1228.21C570.816 1228.59 570.173 1229.19 569.732 1229.93C569.292 1230.67 569.072 1231.52 569.099 1232.38L569.316 1243.94C569.291 1244.17 569.291 1244.4 569.316 1244.62V1244.74C569.483 1245.47 569.817 1246.15 570.292 1246.73C570.767 1247.31 571.369 1247.77 572.053 1248.08L698.854 1318.05C700.87 1319.02 703.089 1319.48 705.322 1319.4C707.556 1319.33 709.738 1318.72 711.685 1317.62L806.385 1256.94C807.154 1256.55 807.796 1255.96 808.237 1255.22C808.677 1254.49 808.898 1253.64 808.871 1252.78L808.888 1252.77Z" fill="url(#paint56_linear)"/>
<path d="M679.033 1167.09C677.018 1166.12 674.799 1165.66 672.565 1165.73C670.33 1165.81 668.148 1166.42 666.203 1167.52L571.502 1228.21C568.048 1230.42 568.165 1233.84 571.752 1235.83L698.637 1305.72C700.651 1306.69 702.869 1307.16 705.104 1307.09C707.338 1307.02 709.522 1306.4 711.468 1305.3L806.169 1244.62C809.622 1242.4 809.506 1238.98 805.918 1237L679.033 1167.09Z" fill="url(#paint57_linear)"/>
<path d="M797.476 1228.41V1217.09C797.577 1216.17 797.376 1215.24 796.904 1214.44C796.432 1213.64 795.714 1213.01 794.857 1212.66L669.223 1140.38C667.226 1139.36 665.011 1138.85 662.77 1138.88C660.529 1138.9 658.329 1139.48 656.359 1140.55L560.59 1199.51C559.809 1199.88 559.151 1200.46 558.696 1201.2C558.24 1201.93 558.006 1202.78 558.021 1203.65V1215.19C558.004 1215.42 558.004 1215.65 558.021 1215.88V1215.99C558.178 1216.72 558.501 1217.4 558.964 1217.97C559.427 1218.55 560.018 1219.02 560.69 1219.33L686.258 1291.61C688.254 1292.61 690.464 1293.11 692.697 1293.08C694.931 1293.04 697.123 1292.47 699.088 1291.41L794.84 1232.53C795.617 1232.16 796.272 1231.57 796.727 1230.84C797.183 1230.11 797.419 1229.27 797.409 1228.41H797.476Z" fill="url(#paint58_linear)"/>
<path d="M669.223 1140.38C667.225 1139.36 665.011 1138.85 662.77 1138.88C660.529 1138.9 658.329 1139.48 656.359 1140.55L560.59 1199.51C557.103 1201.66 557.137 1205.1 560.707 1207.15L686.274 1279.41C688.269 1280.42 690.477 1280.93 692.712 1280.9C694.946 1280.86 697.14 1280.29 699.105 1279.23L794.84 1220.28C798.344 1218.14 798.294 1214.71 794.74 1212.66L669.223 1140.38Z" fill="url(#paint59_linear)"/>
<path d="M686.474 1250.66L679.717 1194.6L644.863 1200.21L653.573 1175.32L591.723 1180.32L560.59 1199.51C557.103 1201.66 557.137 1205.1 560.707 1207.15L686.274 1279.41C688.269 1280.42 690.477 1280.93 692.712 1280.9C694.946 1280.86 697.14 1280.29 699.105 1279.23L718.041 1267.55L716.373 1244.99L686.474 1250.66Z" fill="#6A6D89"/>
<path d="M744.103 1216.38C744.103 1228.57 731.105 1238.45 715.088 1238.45C699.071 1238.45 686.091 1228.57 686.091 1216.38C686.091 1204.18 699.071 1194.32 715.088 1194.32C731.105 1194.32 744.103 1204.2 744.103 1216.38Z" fill="#FFE600"/>
<g opacity="0.1">
<path opacity="0.1" d="M392.011 977.806C393.868 976.774 395.947 976.206 398.07 976.151C400.194 976.096 402.299 976.555 404.207 977.489L497.406 1029.68C500.743 1031.6 500.893 1034.85 497.59 1036.94L381.233 1110.35C379.379 1111.38 377.303 1111.95 375.182 1112C373.061 1112.06 370.958 1111.6 369.053 1110.66L275.854 1058.46C272.517 1056.56 272.367 1053.3 275.67 1051.22L392.011 977.806Z" fill="#334752"/>
</g>
<path d="M281.71 1048.68L281.343 1039.05C281.233 1038.27 281.376 1037.47 281.751 1036.77C282.126 1036.07 282.713 1035.51 283.428 1035.17L387.74 969.313C389.4 968.388 391.259 967.877 393.159 967.825C395.058 967.773 396.943 968.18 398.651 969.013L482.207 1015.73C482.885 1016.02 483.466 1016.49 483.88 1017.1C484.294 1017.71 484.524 1018.43 484.543 1019.17L484.943 1028.99C484.968 1029.19 484.968 1029.38 484.943 1029.58V1029.66C484.837 1030.29 484.587 1030.89 484.214 1031.4C483.841 1031.92 483.354 1032.35 482.791 1032.65L378.48 1098.52C376.818 1099.44 374.958 1099.95 373.059 1100C371.159 1100.05 369.275 1099.64 367.568 1098.8L283.996 1052.08C283.333 1051.8 282.764 1051.34 282.353 1050.75C281.943 1050.16 281.708 1049.47 281.677 1048.75L281.71 1048.68Z" fill="#C3D0D8"/>
<path d="M387.74 969.313C389.4 968.388 391.259 967.877 393.159 967.825C395.058 967.773 396.943 968.18 398.651 969.013L482.207 1015.73C485.26 1017.4 485.344 1020.37 482.39 1022.24L378.063 1088.11C376.401 1089.03 374.541 1089.54 372.642 1089.59C370.742 1089.64 368.858 1089.23 367.151 1088.39L283.595 1041.67C280.542 1040.01 280.459 1037.04 283.412 1035.17L387.74 969.313Z" fill="url(#paint60_linear)"/>
<path d="M273.668 1027.83V1018.2C273.588 1017.4 273.768 1016.61 274.18 1015.92C274.592 1015.24 275.214 1014.71 275.954 1014.41L382.884 952.879C384.582 952.019 386.464 951.584 388.367 951.61C390.27 951.636 392.139 952.123 393.813 953.029L475.383 1003.22C476.045 1003.53 476.603 1004.03 476.987 1004.66C477.372 1005.28 477.568 1006 477.552 1006.74V1016.58C477.568 1016.77 477.568 1016.96 477.552 1017.15V1017.25C477.421 1017.87 477.148 1018.46 476.755 1018.96C476.361 1019.46 475.857 1019.86 475.283 1020.13L368.352 1081.68C366.652 1082.54 364.77 1082.97 362.867 1082.94C360.965 1082.91 359.097 1082.42 357.424 1081.52L275.854 1031.33C275.192 1031.02 274.634 1030.52 274.247 1029.9C273.859 1029.28 273.658 1028.56 273.668 1027.83Z" fill="#C3D0D8"/>
<path d="M382.884 952.879C384.582 952.019 386.464 951.584 388.367 951.61C390.27 951.636 392.139 952.123 393.813 953.029L475.383 1003.22C478.353 1005.05 478.303 1007.97 475.283 1009.72L368.352 1071.26C366.653 1072.11 364.772 1072.55 362.87 1072.52C360.967 1072.49 359.099 1072.01 357.424 1071.1L275.854 1020.9C272.884 1019.08 272.934 1016.16 275.954 1014.41L382.884 952.879Z" fill="url(#paint61_linear)"/>
<path d="M391.76 1009.86C391.638 1009.92 391.531 1010.01 391.447 1010.12C391.364 1010.23 391.305 1010.36 391.277 1010.49C391.272 1010.62 391.3 1010.74 391.359 1010.85C391.417 1010.96 391.504 1011.06 391.61 1011.12L394.163 1012.93C394.419 1013.11 394.731 1013.21 395.047 1013.19C395.396 1013.19 395.737 1013.1 396.032 1012.91L399.102 1011.04C399.228 1010.99 399.338 1010.9 399.422 1010.79C399.507 1010.69 399.563 1010.56 399.585 1010.42C399.609 1010.3 399.592 1010.18 399.537 1010.07C399.483 1009.96 399.394 1009.88 399.285 1009.82L396.749 1008C396.476 1007.83 396.157 1007.74 395.831 1007.74C395.482 1007.73 395.137 1007.82 394.83 1007.99L391.76 1009.86Z" fill="#334752"/>
<path d="M376.828 986.882C376.528 987.049 376.344 987.249 376.327 987.466C376.319 987.583 376.345 987.701 376.401 987.804C376.457 987.908 376.541 987.993 376.644 988.05L377.896 988.934C378.142 989.116 378.441 989.21 378.747 989.201C379.06 989.208 379.368 989.121 379.631 988.951L379.865 988.817C381.089 988.034 382.5 987.591 383.952 987.533C385.331 987.535 386.688 987.873 387.906 988.517C389.759 989.499 391.538 990.614 393.229 991.854C394.52 992.829 395.999 993.525 397.573 993.899C399.146 994.272 400.781 994.314 402.372 994.023C401.204 996.092 402.038 998.144 404.908 1000.2C406.565 1001.32 408.128 1002.58 409.58 1003.97C409.972 1004.29 410.284 1004.7 410.492 1005.17C410.701 1005.64 410.799 1006.14 410.781 1006.65C410.631 1007.47 409.863 1008.32 408.462 1009.22L408.245 1009.36C408.138 1009.42 408.045 1009.5 407.973 1009.6C407.901 1009.7 407.852 1009.82 407.828 1009.94C407.814 1010.05 407.834 1010.16 407.885 1010.26C407.935 1010.36 408.014 1010.44 408.111 1010.49L409.396 1011.41C409.643 1011.59 409.942 1011.68 410.247 1011.68C410.584 1011.67 410.914 1011.57 411.198 1011.39L411.415 1011.26C413.189 1010.39 414.622 1008.96 415.486 1007.19C415.701 1006.48 415.735 1005.74 415.587 1005.02C415.438 1004.3 415.111 1003.63 414.635 1003.07C413.141 1001.26 411.387 999.685 409.429 998.394C408.452 997.799 407.647 996.96 407.094 995.958C406.941 995.576 406.872 995.164 406.892 994.753C406.912 994.341 407.021 993.938 407.21 993.572L407.377 993.272C407.563 992.985 407.657 992.647 407.644 992.304C407.556 992.01 407.359 991.759 407.094 991.604L406.443 991.137C406.133 990.912 405.772 990.768 405.392 990.719C404.905 990.65 404.411 990.65 403.924 990.719L403.39 990.82C402.198 991.011 400.98 990.971 399.802 990.703C398.557 990.368 397.385 989.802 396.349 989.034C394.279 987.512 392.039 986.236 389.675 985.23C387.735 984.447 385.634 984.144 383.552 984.346C381.227 984.637 378.998 985.447 377.028 986.715L376.828 986.882Z" fill="#334752"/>
<path d="M380.615 1016.63C380.49 1016.69 380.38 1016.78 380.296 1016.89C380.212 1017 380.155 1017.13 380.131 1017.26C380.126 1017.39 380.154 1017.51 380.213 1017.62C380.272 1017.73 380.359 1017.82 380.465 1017.88L383.001 1019.7C383.266 1019.88 383.583 1019.97 383.902 1019.95C384.25 1019.97 384.594 1019.87 384.886 1019.68L387.956 1017.81C388.08 1017.75 388.189 1017.67 388.276 1017.56C388.362 1017.46 388.424 1017.33 388.457 1017.2C388.465 1017.08 388.438 1016.95 388.378 1016.85C388.319 1016.74 388.231 1016.65 388.123 1016.6L385.587 1014.78C385.325 1014.59 385.008 1014.5 384.686 1014.51C384.341 1014.5 383.998 1014.58 383.702 1014.76L380.615 1016.63Z" fill="#334752"/>
<path d="M338.821 1009.94C337.037 1010.82 335.593 1012.26 334.716 1014.04C334.501 1014.75 334.467 1015.49 334.619 1016.21C334.77 1016.93 335.103 1017.59 335.584 1018.15C337.077 1019.97 338.831 1021.55 340.789 1022.85C341.772 1023.44 342.574 1024.29 343.109 1025.31C343.257 1025.69 343.32 1026.1 343.294 1026.52C343.268 1026.93 343.154 1027.33 342.958 1027.69L342.792 1027.99C342.609 1028.28 342.516 1028.61 342.525 1028.94C342.6 1029.23 342.786 1029.49 343.042 1029.64L343.743 1030.14C344.04 1030.35 344.384 1030.48 344.744 1030.53C345.248 1030.59 345.758 1030.59 346.262 1030.53L346.746 1030.43C347.995 1030.2 349.281 1030.24 350.511 1030.56C351.742 1030.87 352.888 1031.46 353.87 1032.26C355.934 1033.79 358.175 1035.05 360.544 1036.03C362.486 1036.81 364.584 1037.12 366.667 1036.94C368.985 1036.66 371.211 1035.86 373.174 1034.6L373.441 1034.43C373.554 1034.37 373.654 1034.29 373.734 1034.19C373.815 1034.09 373.874 1033.97 373.908 1033.85C373.924 1033.73 373.903 1033.61 373.85 1033.5C373.796 1033.4 373.712 1033.31 373.608 1033.25L372.323 1032.33C372.068 1032.17 371.771 1032.1 371.472 1032.11C371.146 1032.13 370.827 1032.21 370.538 1032.36L370.304 1032.5C369.085 1033.27 367.69 1033.72 366.25 1033.8C364.865 1033.79 363.504 1033.44 362.279 1032.8C360.421 1031.82 358.637 1030.7 356.94 1029.46C355.661 1028.48 354.19 1027.79 352.623 1027.42C351.056 1027.04 349.429 1027.01 347.847 1027.31C348.998 1025.24 348.147 1023.17 345.294 1021.14C343.649 1020.01 342.097 1018.74 340.656 1017.36C340.258 1017.04 339.942 1016.62 339.73 1016.16C339.519 1015.69 339.419 1015.18 339.438 1014.66C339.572 1013.84 340.339 1012.99 341.74 1012.11L341.941 1011.94C342.055 1011.88 342.155 1011.8 342.232 1011.7C342.31 1011.6 342.365 1011.48 342.391 1011.36C342.415 1011.24 342.4 1011.12 342.348 1011.02C342.297 1010.91 342.212 1010.83 342.108 1010.77L340.856 1009.87C340.596 1009.7 340.285 1009.62 339.972 1009.64C339.654 1009.64 339.341 1009.72 339.071 1009.89L338.821 1009.94Z" fill="#334752"/>
<path d="M369.47 1023.4C369.347 1023.46 369.238 1023.55 369.154 1023.65C369.07 1023.76 369.013 1023.89 368.986 1024.02C368.976 1024.15 369.002 1024.27 369.061 1024.39C369.12 1024.5 369.21 1024.59 369.32 1024.66L371.856 1026.47C372.121 1026.65 372.437 1026.74 372.757 1026.72C373.103 1026.73 373.444 1026.63 373.741 1026.46L376.811 1024.59C376.934 1024.53 377.042 1024.44 377.126 1024.33C377.209 1024.22 377.267 1024.09 377.295 1023.95C377.306 1023.84 377.284 1023.72 377.231 1023.61C377.178 1023.51 377.096 1023.42 376.995 1023.35L374.392 1021.55C374.128 1021.37 373.813 1021.27 373.491 1021.27C373.139 1021.26 372.792 1021.35 372.49 1021.54L369.47 1023.4Z" fill="#334752"/>
<g opacity="0.1">
<path opacity="0.1" d="M196.719 1172.96C195.663 1172.37 194.476 1172.04 193.264 1172.01C192.051 1171.98 190.849 1172.24 189.762 1172.78L136.372 1202.63C135.944 1202.77 135.57 1203.05 135.302 1203.41C135.034 1203.77 134.884 1204.21 134.873 1204.66C134.862 1205.11 134.991 1205.56 135.241 1205.93C135.491 1206.31 135.851 1206.6 136.272 1206.77L202.793 1248.79C203.855 1249.38 205.044 1249.7 206.257 1249.74C207.471 1249.77 208.675 1249.51 209.767 1248.98L263.073 1219.13C263.5 1218.98 263.871 1218.71 264.138 1218.34C264.404 1217.98 264.552 1217.54 264.563 1217.09C264.574 1216.64 264.447 1216.19 264.199 1215.81C263.95 1215.44 263.593 1215.14 263.174 1214.98L196.719 1172.96Z" fill="#334752"/>
</g>
<path d="M259.803 1213.49L260.004 1207.98C260.069 1207.54 259.989 1207.08 259.776 1206.68C259.563 1206.28 259.228 1205.96 258.819 1205.77L199.205 1168.09C198.254 1167.57 197.19 1167.28 196.104 1167.25C195.018 1167.23 193.941 1167.46 192.965 1167.94L145.181 1194.64C144.795 1194.8 144.464 1195.07 144.227 1195.42C143.99 1195.76 143.858 1196.17 143.846 1196.59L143.613 1202.21C143.605 1202.32 143.605 1202.43 143.613 1202.55C143.676 1202.9 143.818 1203.23 144.029 1203.52C144.24 1203.81 144.514 1204.05 144.831 1204.21L204.494 1241.89C205.444 1242.41 206.508 1242.71 207.594 1242.73C208.68 1242.76 209.758 1242.53 210.734 1242.05L258.519 1215.36C258.905 1215.2 259.236 1214.92 259.473 1214.58C259.709 1214.23 259.842 1213.83 259.853 1213.41L259.803 1213.49Z" fill="#C3D0D8"/>
<path d="M199.205 1168.09C198.254 1167.57 197.19 1167.28 196.104 1167.25C195.017 1167.23 193.941 1167.46 192.965 1167.94L145.181 1194.64C144.796 1194.76 144.46 1195.01 144.218 1195.33C143.976 1195.66 143.84 1196.05 143.829 1196.45C143.818 1196.86 143.932 1197.26 144.156 1197.6C144.381 1197.93 144.703 1198.19 145.081 1198.34L204.745 1236.01C205.692 1236.55 206.756 1236.84 207.844 1236.87C208.931 1236.9 210.01 1236.66 210.985 1236.18L258.769 1209.49C259.152 1209.35 259.486 1209.11 259.726 1208.78C259.966 1208.46 260.101 1208.07 260.112 1207.66C260.123 1207.26 260.01 1206.86 259.787 1206.52C259.565 1206.18 259.245 1205.92 258.869 1205.77L199.205 1168.09Z" fill="url(#paint62_linear)"/>
<path d="M264.391 1201.56V1196.05C264.438 1195.6 264.338 1195.15 264.107 1194.76C263.875 1194.37 263.525 1194.06 263.107 1193.89L201.958 1158.7C200.989 1158.21 199.913 1157.96 198.826 1157.97C197.738 1157.99 196.671 1158.27 195.718 1158.8L149.002 1187.5C148.625 1187.68 148.307 1187.96 148.085 1188.31C147.864 1188.67 147.748 1189.08 147.751 1189.5V1195.12C147.734 1195.24 147.734 1195.35 147.751 1195.47V1195.47C147.825 1195.83 147.98 1196.17 148.206 1196.46C148.432 1196.75 148.721 1196.98 149.052 1197.14L210.25 1232.31C211.22 1232.8 212.295 1233.05 213.383 1233.03C214.47 1233.02 215.537 1232.73 216.49 1232.21L263.207 1203.51C263.585 1203.33 263.904 1203.05 264.126 1202.7C264.348 1202.34 264.463 1201.93 264.458 1201.51L264.391 1201.56Z" fill="url(#paint63_linear)"/>
<path d="M201.942 1158.7C200.972 1158.21 199.897 1157.96 198.809 1157.97C197.722 1157.99 196.655 1158.27 195.702 1158.8L148.985 1187.5C148.606 1187.64 148.279 1187.89 148.048 1188.22C147.817 1188.56 147.693 1188.95 147.693 1189.36C147.693 1189.76 147.817 1190.16 148.048 1190.49C148.279 1190.82 148.606 1191.07 148.985 1191.22L210.134 1226.4C211.105 1226.89 212.18 1227.13 213.266 1227.12C214.352 1227.1 215.418 1226.82 216.374 1226.3L263.09 1197.61C263.469 1197.46 263.796 1197.21 264.027 1196.88C264.258 1196.55 264.382 1196.15 264.382 1195.75C264.382 1195.34 264.258 1194.95 264.027 1194.61C263.796 1194.28 263.469 1194.03 263.09 1193.89L201.942 1158.7Z" fill="url(#paint64_linear)"/>
<path d="M216.791 1190.48C216.845 1190.5 216.894 1190.53 216.93 1190.58C216.965 1190.62 216.987 1190.68 216.991 1190.73C216.991 1190.83 216.924 1190.92 216.791 1190.98L204.594 1198.09C204.462 1198.17 204.313 1198.21 204.161 1198.21C204.008 1198.21 203.856 1198.17 203.727 1198.09L202.859 1197.61C202.742 1197.61 202.676 1197.47 202.676 1197.37C202.676 1197.27 202.676 1197.21 202.876 1197.12L208.248 1194L201.925 1190.47L196.536 1193.6C196.401 1193.67 196.253 1193.71 196.102 1193.72C195.951 1193.71 195.804 1193.67 195.668 1193.6L194.801 1193.12C194.684 1193.12 194.617 1192.98 194.617 1192.88C194.633 1192.83 194.661 1192.78 194.699 1192.74C194.736 1192.7 194.783 1192.67 194.834 1192.65L207.014 1185.54C207.144 1185.46 207.294 1185.42 207.447 1185.41C207.591 1185.4 207.735 1185.43 207.865 1185.49L208.732 1185.98C208.866 1185.98 208.932 1186.14 208.932 1186.24C208.932 1186.34 208.932 1186.41 208.732 1186.49L203.543 1189.51L209.867 1193.05L215.056 1190.02C215.189 1189.94 215.338 1189.9 215.489 1189.9C215.64 1189.89 215.789 1189.93 215.923 1190L216.791 1190.48Z" fill="white"/>
<path d="M203.026 1183.93C203.126 1184.76 202.526 1185.59 201.241 1186.31C199.994 1187.05 198.567 1187.42 197.12 1187.38C195.631 1187.32 194.178 1186.9 192.882 1186.16L189.545 1184.34L184.84 1187.08C184.704 1187.14 184.557 1187.18 184.406 1187.2C184.261 1187.2 184.117 1187.17 183.989 1187.1L183.072 1186.58C182.955 1186.58 182.905 1186.44 182.905 1186.34C182.905 1186.24 182.905 1186.19 183.105 1186.11L195.301 1179C195.477 1178.92 195.675 1178.89 195.869 1178.92C196.015 1178.91 196.161 1178.94 196.286 1179.02L200.891 1181.59C202.175 1182.26 202.909 1183.12 203.026 1183.93ZM194.317 1185.23C195.084 1185.72 195.975 1186 196.889 1186.01C197.803 1186.03 198.703 1185.79 199.489 1185.33C200.273 1184.86 200.674 1184.38 200.64 1183.88C200.607 1183.37 200.123 1182.87 199.205 1182.37L196.019 1180.59L191.13 1183.44L194.317 1185.23V1185.23Z" fill="white"/>
<path d="M227.569 1197.67C227.702 1198.51 227.085 1199.34 225.8 1200.06C224.551 1200.8 223.116 1201.17 221.663 1201.13C220.178 1201.07 218.73 1200.65 217.441 1199.91L214.105 1198.09L209.4 1200.83C209.276 1200.91 209.13 1200.95 208.982 1200.94C208.836 1200.96 208.69 1200.92 208.565 1200.84L207.664 1200.34C207.531 1200.34 207.464 1200.19 207.481 1200.11C207.498 1200.03 207.481 1199.94 207.681 1199.88L219.861 1192.77C219.996 1192.68 220.152 1192.64 220.311 1192.63C220.458 1192.62 220.606 1192.65 220.728 1192.73L225.316 1195.29C226.801 1196.05 227.569 1196.86 227.569 1197.67ZM218.86 1198.97C219.633 1199.47 220.528 1199.74 221.446 1199.76C222.364 1199.78 223.27 1199.55 224.065 1199.09C224.849 1198.62 225.216 1198.14 225.2 1197.64C225.183 1197.14 224.682 1196.64 223.765 1196.12L220.578 1194.35L215.723 1197.27L218.91 1199.04L218.86 1198.97Z" fill="white"/>
<path opacity="0.1" d="M431.553 1298.55C431.553 1316.43 406.526 1330.91 375.81 1330.91C345.094 1330.91 320.084 1316.43 320.084 1298.55C320.084 1280.66 345.027 1266.2 375.81 1266.2C406.593 1266.2 431.553 1280.69 431.553 1298.55Z" fill="#334752"/>
<path d="M427.315 1240.65L402.756 1238.65L385.22 1237.08L349.148 1238.22L326.224 1239.78L322.47 1242.32L328.927 1295.28C328.927 1310.03 349.516 1321.97 374.909 1321.97C399.536 1321.97 419.64 1310.73 420.858 1296.61L427.315 1240.65Z" fill="#C3D0D8"/>
<path d="M427.332 1241.65C427.332 1256.85 403.873 1269.15 374.909 1269.15C345.945 1269.15 322.503 1256.85 322.503 1241.65C322.503 1226.45 345.962 1214.16 374.909 1214.16C403.857 1214.16 427.332 1226.47 427.332 1241.65Z" fill="#EDF2F6"/>
<path opacity="0.2" d="M409.079 1241.65C409.079 1251.55 393.779 1259.57 374.909 1259.57C356.039 1259.57 340.756 1251.55 340.756 1241.65C340.756 1231.76 356.039 1223.73 374.909 1223.73C393.779 1223.73 409.079 1231.76 409.079 1241.65Z" fill="#334752"/>
<g opacity="0.1">
<path opacity="0.1" d="M500.343 1112.72C499.442 1112.22 498.436 1111.95 497.408 1111.92C496.38 1111.9 495.361 1112.12 494.437 1112.57L449.255 1137.86C448.896 1137.99 448.583 1138.22 448.36 1138.53C448.136 1138.84 448.012 1139.21 448.003 1139.59C447.994 1139.97 448.1 1140.35 448.309 1140.67C448.518 1140.99 448.819 1141.24 449.172 1141.38L505.565 1176.98C506.463 1177.49 507.47 1177.77 508.5 1177.79C509.529 1177.82 510.549 1177.59 511.471 1177.13L556.636 1151.84C556.996 1151.71 557.31 1151.48 557.535 1151.17C557.76 1150.87 557.887 1150.5 557.898 1150.12C557.908 1149.73 557.803 1149.36 557.596 1149.04C557.389 1148.72 557.089 1148.47 556.736 1148.32L500.343 1112.72Z" fill="#334752"/>
</g>
<path d="M553.8 1147.07L553.966 1142.4C554.008 1142.02 553.929 1141.63 553.74 1141.3C553.552 1140.97 553.263 1140.7 552.915 1140.55L502.362 1108.63C501.553 1108.18 500.649 1107.93 499.725 1107.91C498.801 1107.89 497.886 1108.09 497.056 1108.49L456.563 1131.17C456.237 1131.31 455.959 1131.54 455.761 1131.84C455.563 1132.14 455.453 1132.48 455.445 1132.84L455.245 1137.59C455.237 1137.69 455.237 1137.78 455.245 1137.88C455.297 1138.18 455.42 1138.47 455.602 1138.72C455.784 1138.98 456.021 1139.18 456.296 1139.33L506.85 1171.25C507.655 1171.69 508.557 1171.94 509.478 1171.96C510.399 1171.98 511.312 1171.78 512.139 1171.38L552.632 1148.7C552.959 1148.56 553.24 1148.33 553.441 1148.03C553.642 1147.74 553.755 1147.39 553.766 1147.04L553.8 1147.07Z" fill="#C3D0D8"/>
<path d="M502.412 1108.59C501.603 1108.15 500.699 1107.9 499.775 1107.88C498.851 1107.85 497.936 1108.05 497.106 1108.46L456.613 1131.14C456.285 1131.25 456.001 1131.46 455.799 1131.74C455.598 1132.03 455.49 1132.37 455.49 1132.71C455.49 1133.06 455.598 1133.4 455.799 1133.68C456.001 1133.96 456.285 1134.18 456.613 1134.29L507.167 1166.21C507.974 1166.66 508.877 1166.91 509.801 1166.93C510.725 1166.96 511.641 1166.76 512.472 1166.36L552.915 1143.68C553.249 1143.57 553.54 1143.36 553.746 1143.08C553.952 1142.79 554.063 1142.45 554.063 1142.1C554.063 1141.75 553.952 1141.4 553.746 1141.12C553.54 1140.83 553.249 1140.62 552.915 1140.51L502.412 1108.59Z" fill="url(#paint65_linear)"/>
<path d="M557.687 1136.98V1132.3C557.731 1131.92 557.648 1131.54 557.453 1131.2C557.257 1130.87 556.959 1130.61 556.603 1130.47L504.781 1100.64C503.965 1100.21 503.058 1099.99 502.136 1099.99C501.215 1099.99 500.308 1100.21 499.492 1100.64L459.95 1124.95C459.635 1125.1 459.37 1125.33 459.184 1125.63C458.998 1125.92 458.899 1126.27 458.899 1126.61V1131.39C458.882 1131.47 458.882 1131.56 458.899 1131.65C458.96 1131.96 459.092 1132.24 459.283 1132.48C459.474 1132.73 459.72 1132.92 460 1133.05L511.822 1162.89C512.639 1163.31 513.546 1163.53 514.466 1163.53C515.387 1163.53 516.293 1163.31 517.111 1162.89L556.653 1138.56C556.967 1138.41 557.233 1138.17 557.419 1137.88C557.605 1137.58 557.704 1137.24 557.704 1136.89L557.687 1136.98Z" fill="url(#paint66_linear)"/>
<path d="M504.764 1100.64C503.948 1100.21 503.041 1099.99 502.12 1099.99C501.199 1099.99 500.291 1100.21 499.475 1100.64L459.933 1124.95C459.605 1125.06 459.321 1125.27 459.12 1125.55C458.919 1125.84 458.81 1126.18 458.81 1126.52C458.81 1126.87 458.919 1127.21 459.12 1127.49C459.321 1127.77 459.605 1127.99 459.933 1128.1L511.755 1157.93C512.578 1158.34 513.489 1158.55 514.41 1158.54C515.331 1158.52 516.235 1158.29 517.044 1157.85L556.586 1133.52C556.908 1133.4 557.187 1133.19 557.383 1132.91C557.58 1132.63 557.685 1132.3 557.685 1131.95C557.685 1131.61 557.58 1131.28 557.383 1131C557.187 1130.71 556.908 1130.5 556.586 1130.38L504.764 1100.64Z" fill="url(#paint67_linear)"/>
<path d="M503.963 1118.86C504.742 1119.21 505.398 1119.79 505.849 1120.52C506 1120.77 506.089 1121.06 506.106 1121.35C506.124 1121.64 506.07 1121.93 505.949 1122.19C505.675 1122.77 505.24 1123.26 504.698 1123.59L504.347 1123.68H504.013L503.213 1123.24L503.046 1123.06C503.046 1123.06 503.046 1122.91 503.179 1122.81C503.863 1122.19 504.13 1121.66 503.98 1121.14C503.83 1120.62 503.413 1120.24 502.595 1119.79C501.632 1119.31 500.557 1119.09 499.482 1119.17C498.408 1119.24 497.373 1119.61 496.489 1120.22C496.172 1120.39 495.721 1120.67 495.104 1121.04C494.487 1121.41 494.003 1121.71 493.686 1121.93C491.634 1123.28 491.517 1124.45 493.352 1125.45C494.101 1125.86 494.933 1126.11 495.788 1126.16C496.741 1126.17 497.686 1125.98 498.558 1125.6C498.689 1125.54 498.831 1125.51 498.975 1125.51L499.325 1125.6L500.109 1126.03L500.259 1126.21L500.126 1126.41C499.382 1126.8 498.583 1127.08 497.757 1127.23C496.811 1127.37 495.849 1127.37 494.904 1127.23C493.881 1127.07 492.894 1126.74 491.984 1126.25C490.566 1125.48 489.898 1124.58 489.965 1123.78C490.032 1122.98 490.733 1122.01 492.084 1121.11L493.536 1120.22L495.054 1119.31C496.423 1118.51 497.96 1118.04 499.542 1117.94C501.073 1117.81 502.608 1118.13 503.963 1118.86V1118.86Z" fill="white"/>
<path d="M523.885 1129.58C524.564 1129.9 525.142 1130.39 525.553 1131.02C525.69 1131.23 525.778 1131.46 525.813 1131.71C525.848 1131.95 525.827 1132.2 525.753 1132.44C525.584 1132.9 525.267 1133.29 524.852 1133.55L524.502 1133.65H524.168L523.367 1133.22L523.217 1133.04L523.317 1132.8C523.501 1132.69 523.641 1132.51 523.716 1132.31C523.792 1132.1 523.798 1131.88 523.734 1131.67C523.496 1131.14 523.067 1130.72 522.533 1130.48C521.864 1130.12 521.125 1129.9 520.364 1129.83C519.687 1129.77 519.006 1129.92 518.429 1130.28C518.276 1130.36 518.14 1130.46 518.029 1130.59C517.917 1130.71 517.832 1130.86 517.778 1131.02C517.745 1131.33 517.834 1131.65 518.028 1131.9C518.369 1132.39 518.749 1132.85 519.163 1133.27C519.676 1133.77 520.124 1134.33 520.498 1134.94C520.612 1135.12 520.685 1135.32 520.711 1135.53C520.737 1135.74 520.716 1135.96 520.648 1136.16C520.403 1136.65 520.005 1137.05 519.513 1137.29C518.439 1137.94 517.194 1138.24 515.943 1138.16C514.556 1138.1 513.202 1137.72 511.989 1137.04C511.267 1136.7 510.638 1136.19 510.153 1135.56C509.996 1135.35 509.886 1135.11 509.831 1134.85C509.776 1134.59 509.778 1134.33 509.836 1134.07C509.998 1133.56 510.35 1133.12 510.821 1132.85L511.154 1132.77H511.488L512.272 1133.19C512.456 1133.29 512.473 1133.42 512.272 1133.6C512.098 1133.74 511.967 1133.92 511.899 1134.13C511.83 1134.34 511.827 1134.56 511.889 1134.77C512.005 1135.22 512.456 1135.67 513.307 1136.14C514.076 1136.59 514.937 1136.86 515.826 1136.93C516.543 1136.97 517.257 1136.8 517.878 1136.44C518.03 1136.37 518.163 1136.27 518.265 1136.14C518.367 1136.01 518.435 1135.85 518.462 1135.69C518.475 1135.36 518.362 1135.03 518.145 1134.77C517.756 1134.27 517.338 1133.78 516.894 1133.32C516.422 1132.88 516.027 1132.36 515.726 1131.79C515.64 1131.6 515.596 1131.39 515.596 1131.19C515.596 1130.98 515.64 1130.77 515.726 1130.58C515.995 1130.1 516.401 1129.71 516.894 1129.45C517.529 1129.07 518.232 1128.82 518.963 1128.72C520.685 1128.45 522.445 1128.77 523.968 1129.62L523.885 1129.58Z" fill="white"/>
<path d="M514.024 1124.26C514.698 1124.58 515.274 1125.08 515.693 1125.7C515.821 1125.91 515.904 1126.14 515.936 1126.39C515.967 1126.63 515.947 1126.88 515.876 1127.11C515.713 1127.58 515.395 1127.97 514.975 1128.23L514.641 1128.33H514.291L513.507 1127.9L513.357 1127.73V1127.48C513.543 1127.37 513.684 1127.19 513.76 1126.99C513.835 1126.78 513.84 1126.56 513.774 1126.35C513.535 1125.82 513.107 1125.39 512.573 1125.16C511.91 1124.79 511.176 1124.57 510.42 1124.51C509.744 1124.45 509.065 1124.61 508.485 1124.96C508.331 1125.03 508.192 1125.14 508.077 1125.26C507.963 1125.39 507.875 1125.54 507.817 1125.7C507.79 1126.01 507.886 1126.33 508.084 1126.58C508.419 1127.07 508.799 1127.53 509.219 1127.95C509.722 1128.46 510.169 1129.02 510.554 1129.62C510.665 1129.8 510.736 1130 510.762 1130.21C510.788 1130.42 510.768 1130.63 510.704 1130.84C510.455 1131.32 510.058 1131.72 509.569 1131.97C508.488 1132.61 507.239 1132.92 505.982 1132.85C504.596 1132.78 503.244 1132.39 502.028 1131.72C501.309 1131.38 500.685 1130.87 500.209 1130.23C500.043 1130.03 499.925 1129.8 499.867 1129.54C499.81 1129.29 499.812 1129.02 499.876 1128.77C500.05 1128.25 500.405 1127.81 500.877 1127.53H501.21H501.527L502.312 1127.95C502.346 1127.97 502.374 1128 502.394 1128.04C502.413 1128.08 502.424 1128.12 502.424 1128.16C502.424 1128.2 502.413 1128.24 502.394 1128.28C502.374 1128.31 502.346 1128.34 502.312 1128.37C502.138 1128.5 502.007 1128.68 501.936 1128.89C501.864 1129.1 501.856 1129.32 501.911 1129.53C502.028 1129.98 502.495 1130.45 503.329 1130.9C504.1 1131.35 504.961 1131.62 505.849 1131.69C506.566 1131.73 507.28 1131.56 507.901 1131.2C508.29 1130.97 508.49 1130.72 508.502 1130.45C508.507 1130.12 508.395 1129.79 508.185 1129.53C507.788 1129.03 507.365 1128.54 506.917 1128.08C506.452 1127.64 506.063 1127.13 505.765 1126.56C505.68 1126.37 505.636 1126.16 505.636 1125.96C505.636 1125.75 505.68 1125.54 505.765 1125.35C506.041 1124.86 506.453 1124.47 506.95 1124.21C507.583 1123.83 508.287 1123.58 509.019 1123.48C509.831 1123.34 510.659 1123.34 511.471 1123.48C512.359 1123.6 513.221 1123.86 514.024 1124.26V1124.26Z" fill="white"/>
<defs>
<linearGradient id="paint0_linear" x1="787.5" y1="0" x2="787.5" y2="1592" gradientUnits="userSpaceOnUse">
<stop stop-color="#3ADAFF"/>
<stop offset="1" stop-color="#FF9473" stop-opacity="0.77"/>
</linearGradient>
<linearGradient id="paint1_linear" x1="787.5" y1="56" x2="787.5" y2="1536" gradientUnits="userSpaceOnUse">
<stop stop-color="#3ADAFF"/>
<stop offset="1" stop-color="#FF9473" stop-opacity="0.77"/>
</linearGradient>
<linearGradient id="paint2_linear" x1="791.5" y1="116" x2="791.5" y2="1484" gradientUnits="userSpaceOnUse">
<stop stop-color="#3ADAFF"/>
<stop offset="1" stop-color="#FF9473" stop-opacity="0.77"/>
</linearGradient>
<linearGradient id="paint3_linear" x1="393.996" y1="731.81" x2="411.381" y2="816.017" gradientUnits="userSpaceOnUse">
<stop stop-color="#AFF57A"/>
<stop offset="1" stop-color="#54D169"/>
</linearGradient>
<linearGradient id="paint4_linear" x1="22174.8" y1="24368.9" x2="22905.7" y2="27284.7" gradientUnits="userSpaceOnUse">
<stop stop-color="#AFF57A"/>
<stop offset="1" stop-color="#54D169"/>
</linearGradient>
<linearGradient id="paint5_linear" x1="22176" y1="41892.4" x2="24118.9" y2="45630.9" gradientUnits="userSpaceOnUse">
<stop stop-color="#AFF57A"/>
<stop offset="1" stop-color="#54D169"/>
</linearGradient>
<linearGradient id="paint6_linear" x1="57211.6" y1="75963.8" x2="59966.9" y2="81911.6" gradientUnits="userSpaceOnUse">
<stop stop-color="#AFF57A"/>
<stop offset="1" stop-color="#54D169"/>
</linearGradient>
<linearGradient id="paint7_linear" x1="57335.7" y1="30751.4" x2="58067.6" y2="33669.6" gradientUnits="userSpaceOnUse">
<stop stop-color="#AFF57A"/>
<stop offset="1" stop-color="#54D169"/>
</linearGradient>
<linearGradient id="paint8_linear" x1="57336.3" y1="51980" x2="59278.9" y2="55719" gradientUnits="userSpaceOnUse">
<stop stop-color="#AFF57A"/>
<stop offset="1" stop-color="#54D169"/>
</linearGradient>
<linearGradient id="paint9_linear" x1="1063.21" y1="1086.19" x2="992.6" y2="1241.54" gradientUnits="userSpaceOnUse">
<stop stop-color="#15EDED"/>
<stop offset="1" stop-color="#029CF5"/>
</linearGradient>
<linearGradient id="paint10_linear" x1="1052.25" y1="1156.56" x2="1021.13" y2="1225.57" gradientUnits="userSpaceOnUse">
<stop stop-color="#46EEAA"/>
<stop offset="1" stop-color="#2CBFC7"/>
</linearGradient>
<linearGradient id="paint11_linear" x1="258.986" y1="847.984" x2="232.925" y2="754.785" gradientUnits="userSpaceOnUse">
<stop stop-color="#F8A980"/>
<stop offset="1" stop-color="#FFDF75"/>
</linearGradient>
<linearGradient id="paint12_linear" x1="9284.2" y1="80837.3" x2="1739.12" y2="73100.9" gradientUnits="userSpaceOnUse">
<stop stop-color="#F8A980"/>
<stop offset="1" stop-color="#FFDF75"/>
</linearGradient>
<linearGradient id="paint13_linear" x1="10038.7" y1="81477.7" x2="2498.16" y2="73742.4" gradientUnits="userSpaceOnUse">
<stop stop-color="#F8A980"/>
<stop offset="1" stop-color="#FFDF75"/>
</linearGradient>
<linearGradient id="paint14_linear" x1="6532.57" y1="15229.6" x2="6130.5" y2="15248.6" gradientUnits="userSpaceOnUse">
<stop stop-color="#F8A980"/>
<stop offset="1" stop-color="#FFDF75"/>
</linearGradient>
<linearGradient id="paint15_linear" x1="6882.52" y1="42127.3" x2="7533.95" y2="42119.5" gradientUnits="userSpaceOnUse">
<stop stop-color="#2CBFC7"/>
<stop offset="1" stop-color="#2CBFC7"/>
</linearGradient>
<linearGradient id="paint16_linear" x1="15435.1" y1="112359" x2="37199.9" y2="127897" gradientUnits="userSpaceOnUse">
<stop stop-color="#3ADAFF"/>
<stop offset="1" stop-color="#3AF3FF"/>
</linearGradient>
<linearGradient id="paint17_linear" x1="20342" y1="38468.3" x2="20162.7" y2="44106.2" gradientUnits="userSpaceOnUse">
<stop stop-color="#15EDED"/>
<stop offset="1" stop-color="#029CF5"/>
</linearGradient>
<linearGradient id="paint18_linear" x1="10989" y1="44743.6" x2="13989.9" y2="46506.4" gradientUnits="userSpaceOnUse">
<stop stop-color="#2CBFC7"/>
<stop offset="1" stop-color="#2CBFC7"/>
</linearGradient>
<linearGradient id="paint19_linear" x1="5987.79" y1="12307" x2="5724.76" y2="11735.9" gradientUnits="userSpaceOnUse">
<stop stop-color="#F8A980"/>
<stop offset="1" stop-color="#FFDF75"/>
</linearGradient>
<linearGradient id="paint20_linear" x1="11406.3" y1="29317.8" x2="11442.9" y2="25876.5" gradientUnits="userSpaceOnUse">
<stop stop-color="#F8A980"/>
<stop offset="1" stop-color="#FFDF75"/>
</linearGradient>
<linearGradient id="paint21_linear" x1="171.809" y1="650.023" x2="193.699" y2="710.404" gradientUnits="userSpaceOnUse">
<stop stop-color="#2C4755"/>
<stop offset="1" stop-color="#334752"/>
</linearGradient>
<linearGradient id="paint22_linear" x1="150.554" y1="659.366" x2="185.608" y2="687.83" gradientUnits="userSpaceOnUse">
<stop stop-color="#FF7C6E"/>
<stop offset="1" stop-color="#F5317F"/>
</linearGradient>
<linearGradient id="paint23_linear" x1="7036.58" y1="63301.1" x2="9550.38" y2="66812.8" gradientUnits="userSpaceOnUse">
<stop stop-color="#2C4755"/>
<stop offset="1" stop-color="#334752"/>
</linearGradient>
<linearGradient id="paint24_linear" x1="121216" y1="42660.6" x2="103327" y2="77001.4" gradientUnits="userSpaceOnUse">
<stop stop-color="#15EDED"/>
<stop offset="1" stop-color="#029CF5"/>
</linearGradient>
<linearGradient id="paint25_linear" x1="108535" y1="53125.4" x2="100873" y2="77999.9" gradientUnits="userSpaceOnUse">
<stop stop-color="#15EDED"/>
<stop offset="1" stop-color="#029CF5"/>
</linearGradient>
<linearGradient id="paint26_linear" x1="65728.7" y1="58128.2" x2="65636.5" y2="73819.1" gradientUnits="userSpaceOnUse">
<stop stop-color="#46EEAA"/>
<stop offset="1" stop-color="#2CBFC7"/>
</linearGradient>
<linearGradient id="paint27_linear" x1="60350.7" y1="64412" x2="65079.1" y2="79446.5" gradientUnits="userSpaceOnUse">
<stop stop-color="#46EEAA"/>
<stop offset="1" stop-color="#2CBFC7"/>
</linearGradient>
<linearGradient id="paint28_linear" x1="62721" y1="44785.5" x2="62626.7" y2="60484.1" gradientUnits="userSpaceOnUse">
<stop stop-color="#FF7C6E"/>
<stop offset="1" stop-color="#F5317F"/>
</linearGradient>
<linearGradient id="paint29_linear" x1="57547.3" y1="51364.4" x2="62275.4" y2="66398.5" gradientUnits="userSpaceOnUse">
<stop stop-color="#FF7C6E"/>
<stop offset="1" stop-color="#F5317F"/>
</linearGradient>
<linearGradient id="paint30_linear" x1="100965" y1="13143.2" x2="82250.7" y2="35381.2" gradientUnits="userSpaceOnUse">
<stop stop-color="#46EEAA"/>
<stop offset="1" stop-color="#2CBFC7"/>
</linearGradient>
<linearGradient id="paint31_linear" x1="85138.9" y1="31829.4" x2="78600.8" y2="74749.7" gradientUnits="userSpaceOnUse">
<stop stop-color="#3ADAFF"/>
<stop offset="1" stop-color="#2CBFC7"/>
</linearGradient>
<linearGradient id="paint32_linear" x1="36784.1" y1="10130.2" x2="39527.4" y2="8113.14" gradientUnits="userSpaceOnUse">
<stop stop-color="#F8A980"/>
<stop offset="1" stop-color="#FFDF75"/>
</linearGradient>
<linearGradient id="paint33_linear" x1="19971.1" y1="34643" x2="21061.5" y2="34643" gradientUnits="userSpaceOnUse">
<stop stop-color="#4789EC"/>
<stop offset="1" stop-color="#54D169"/>
</linearGradient>
<linearGradient id="paint34_linear" x1="576.641" y1="980.658" x2="615.249" y2="980.658" gradientUnits="userSpaceOnUse">
<stop stop-color="#334752"/>
<stop offset="1" stop-color="#6A6D89"/>
</linearGradient>
<linearGradient id="paint35_linear" x1="23624.4" y1="129769" x2="35602.5" y2="128511" gradientUnits="userSpaceOnUse">
<stop stop-color="#0470AE"/>
<stop offset="1" stop-color="#029CF5"/>
</linearGradient>
<linearGradient id="paint36_linear" x1="17106.7" y1="20210.8" x2="16454.5" y2="19407.7" gradientUnits="userSpaceOnUse">
<stop stop-color="#F8A980"/>
<stop offset="1" stop-color="#FFDF75"/>
</linearGradient>
<linearGradient id="paint37_linear" x1="19705.1" y1="15880.1" x2="20897.7" y2="15215.7" gradientUnits="userSpaceOnUse">
<stop stop-color="#D28259"/>
<stop offset="1" stop-color="#FFDF75"/>
</linearGradient>
<linearGradient id="paint38_linear" x1="25765.7" y1="16764.7" x2="25741.7" y2="16527.4" gradientUnits="userSpaceOnUse">
<stop stop-color="#334752"/>
<stop offset="1" stop-color="#6A6D89"/>
</linearGradient>
<linearGradient id="paint39_linear" x1="40288" y1="174103" x2="16986.7" y2="166638" gradientUnits="userSpaceOnUse">
<stop stop-color="#15EDED"/>
<stop offset="1" stop-color="#029CF5"/>
</linearGradient>
<linearGradient id="paint40_linear" x1="41825.4" y1="58731.2" x2="49920.2" y2="75008.7" gradientUnits="userSpaceOnUse">
<stop stop-color="#7AABF5"/>
<stop offset="1" stop-color="#54D169"/>
</linearGradient>
<linearGradient id="paint41_linear" x1="54714.6" y1="12969.3" x2="60613.8" y2="10151.9" gradientUnits="userSpaceOnUse">
<stop stop-color="#F8A980"/>
<stop offset="1" stop-color="#FFDF75"/>
</linearGradient>
<linearGradient id="paint42_linear" x1="33669.3" y1="37787.9" x2="30393.7" y2="34007.1" gradientUnits="userSpaceOnUse">
<stop stop-color="#029CF5"/>
<stop offset="1" stop-color="#4789EC"/>
</linearGradient>
<linearGradient id="paint43_linear" x1="-143992" y1="-13805" x2="-147418" y2="-16694" gradientUnits="userSpaceOnUse">
<stop stop-color="#F8A980"/>
<stop offset="1" stop-color="#FFDF75"/>
</linearGradient>
<linearGradient id="paint44_linear" x1="1003.21" y1="956.312" x2="959.419" y2="936.584" gradientUnits="userSpaceOnUse">
<stop stop-color="#EDF2F6"/>
<stop offset="1" stop-color="#C3D0D8"/>
</linearGradient>
<linearGradient id="paint45_linear" x1="-164138" y1="18054.6" x2="-165274" y2="18054.6" gradientUnits="userSpaceOnUse">
<stop stop-color="#334752"/>
<stop offset="1" stop-color="#6A6D89"/>
</linearGradient>
<linearGradient id="paint46_linear" x1="1166.12" y1="1265.25" x2="846.395" y2="1137.66" gradientUnits="userSpaceOnUse">
<stop stop-color="#00FFFF"/>
<stop offset="1" stop-color="#00D1FF"/>
</linearGradient>
<linearGradient id="paint47_linear" x1="-139298" y1="33915.9" x2="-138470" y2="32895.6" gradientUnits="userSpaceOnUse">
<stop stop-color="#F8A980"/>
<stop offset="1" stop-color="#FFDF75"/>
</linearGradient>
<linearGradient id="paint48_linear" x1="-165726" y1="27006.9" x2="-167242" y2="26161.2" gradientUnits="userSpaceOnUse">
<stop stop-color="#F8A980"/>
<stop offset="1" stop-color="#FFDF75"/>
</linearGradient>
<linearGradient id="paint49_linear" x1="-210210" y1="25291.7" x2="-210180" y2="24990.1" gradientUnits="userSpaceOnUse">
<stop stop-color="#334752"/>
<stop offset="1" stop-color="#6A6D89"/>
</linearGradient>
<linearGradient id="paint50_linear" x1="50439.8" y1="224941" x2="53864" y2="224941" gradientUnits="userSpaceOnUse">
<stop stop-color="#00F0FF"/>
<stop offset="1" stop-color="#FFC400"/>
</linearGradient>
<linearGradient id="paint51_linear" x1="64257.2" y1="107672" x2="80933.5" y2="117680" gradientUnits="userSpaceOnUse">
<stop stop-color="#EDF2F6"/>
<stop offset="1" stop-color="#C3D0D8"/>
</linearGradient>
<linearGradient id="paint52_linear" x1="-720147" y1="285647" x2="-721143" y2="290699" gradientUnits="userSpaceOnUse">
<stop stop-color="#F8A980"/>
<stop offset="1" stop-color="#FFDF75"/>
</linearGradient>
<linearGradient id="paint53_linear" x1="25022.5" y1="54330.3" x2="29626.1" y2="57232.1" gradientUnits="userSpaceOnUse">
<stop stop-color="#EDF2F6"/>
<stop offset="1" stop-color="#C3D0D8"/>
</linearGradient>
<linearGradient id="paint54_linear" x1="674.178" y1="1166.72" x2="660.497" y2="1311.69" gradientUnits="userSpaceOnUse">
<stop stop-color="#FFDF40"/>
<stop offset="1" stop-color="#FF8359"/>
</linearGradient>
<linearGradient id="paint55_linear" x1="124488" y1="106970" x2="123512" y2="116745" gradientUnits="userSpaceOnUse">
<stop stop-color="#FFDF40"/>
<stop offset="1" stop-color="#FF8359"/>
</linearGradient>
<linearGradient id="paint56_linear" x1="128418" y1="108641" x2="128087" y2="122464" gradientUnits="userSpaceOnUse">
<stop stop-color="#AFF57A"/>
<stop offset="1" stop-color="#54D169"/>
</linearGradient>
<linearGradient id="paint57_linear" x1="133270" y1="99861.6" x2="127401" y2="118448" gradientUnits="userSpaceOnUse">
<stop stop-color="#AFF57A"/>
<stop offset="1" stop-color="#54D169"/>
</linearGradient>
<linearGradient id="paint58_linear" x1="129101" y1="101187" x2="127650" y2="116028" gradientUnits="userSpaceOnUse">
<stop stop-color="#15EDED"/>
<stop offset="1" stop-color="#029CF5"/>
</linearGradient>
<linearGradient id="paint59_linear" x1="129846" y1="97791.4" x2="125875" y2="116804" gradientUnits="userSpaceOnUse">
<stop stop-color="#15EDED"/>
<stop offset="1" stop-color="#029CF5"/>
</linearGradient>
<linearGradient id="paint60_linear" x1="381.216" y1="1018.52" x2="397.116" y2="1113.87" gradientUnits="userSpaceOnUse">
<stop stop-color="#EDF2F6"/>
<stop offset="1" stop-color="#E6E4EB"/>
</linearGradient>
<linearGradient id="paint61_linear" x1="727003" y1="72129" x2="726266" y2="79309" gradientUnits="userSpaceOnUse">
<stop stop-color="#EDF2F6"/>
<stop offset="1" stop-color="#E6E4EB"/>
</linearGradient>
<linearGradient id="paint62_linear" x1="14487.6" y1="50974.4" x2="14256.4" y2="53290.6" gradientUnits="userSpaceOnUse">
<stop stop-color="#EDF2F6"/>
<stop offset="1" stop-color="#E6E4EB"/>
</linearGradient>
<linearGradient id="paint63_linear" x1="27824.4" y1="52705.3" x2="28230.5" y2="56260.9" gradientUnits="userSpaceOnUse">
<stop stop-color="#AFF57A"/>
<stop offset="1" stop-color="#54D169"/>
</linearGradient>
<linearGradient id="paint64_linear" x1="28947.5" y1="48406.8" x2="28491.8" y2="53313.6" gradientUnits="userSpaceOnUse">
<stop stop-color="#AFF57A"/>
<stop offset="1" stop-color="#54D169"/>
</linearGradient>
<linearGradient id="paint65_linear" x1="30526.8" y1="41098.7" x2="30360.8" y2="42762.8" gradientUnits="userSpaceOnUse">
<stop stop-color="#EDF2F6"/>
<stop offset="1" stop-color="#E6E4EB"/>
</linearGradient>
<linearGradient id="paint66_linear" x1="501.194" y1="1091.94" x2="512.873" y2="1157.71" gradientUnits="userSpaceOnUse">
<stop stop-color="#59C2FF"/>
<stop offset="1" stop-color="#1270E3"/>
</linearGradient>
<linearGradient id="paint67_linear" x1="42700.1" y1="39158.3" x2="42372.9" y2="42680.1" gradientUnits="userSpaceOnUse">
<stop stop-color="#59C2FF"/>
<stop offset="1" stop-color="#1270E3"/>
</linearGradient>
</defs>
</svg>
