<svg width="1516" height="795" viewBox="0 0 1516 795" fill="none" xmlns="http://www.w3.org/2000/svg">
<path fill-rule="evenodd" clip-rule="evenodd" d="M31.5833 48.376L0 0V339.26V361.878V795H1516V361.878V339.26V180.939L1484.42 204.813C1452.83 229.315 1389.67 277.691 1326.5 271.408C1288.78 267.656 1251.05 244.633 1213.33 221.609C1187.88 206.082 1162.44 190.555 1137 180.939C1073.83 157.065 1010.67 169.002 947.5 199.158C934.867 205.19 922.233 211.95 909.6 218.71C859.067 245.75 808.533 272.79 758 253.189C721.905 239.547 685.81 202.107 649.714 164.668C622.643 136.589 595.571 108.509 568.5 90.4694C505.333 48.376 442.167 60.3129 379 102.406C362.269 113.555 345.539 126.864 328.808 140.173C282.372 177.111 235.936 214.05 189.5 204.813C126.333 192.876 63.1667 96.752 31.5833 48.376Z" fill="url(#paint0_linear)"/>
<defs>
<linearGradient id="paint0_linear" x1="511.65" y1="72.3755" x2="1687.01" y2="482.699" gradientUnits="userSpaceOnUse">
<stop stop-color="#169CBA"/>
<stop offset="1" stop-color="#1C60C7" stop-opacity="0.67"/>
</linearGradient>
</defs>
</svg>
