<svg width="1600" height="652" viewBox="0 0 1600 752" fill="none" xmlns="http://www.w3.org/2000/svg">
<g clip-path="url(#clip0)">
<rect y="252" width="1600" height="512" fill="#169CBA"/>
<path fill-rule="evenodd" clip-rule="evenodd" d="M0 22.9724L67 13.3724C133 3.77238 267 -15.4276 400 22.9724C533 61.3724 667 157.372 800 157.372C933 157.372 1067 61.3724 1200 42.1724C1333 22.9724 1467 80.5724 1533 109.372L1600 138.172V368.572H1533C1467 368.572 1333 368.572 1200 368.572C1067 368.572 933 368.572 800 368.572C667 368.572 533 368.572 400 368.572C267 368.572 133 368.572 67 368.572H0V22.9724Z" fill="#169CBA"/>
</g>
<defs>
<clipPath id="clip0">
<rect width="1600" height="752" fill="white"/>
</clipPath>
</defs>
</svg>
