<svg width="1920" height="703" viewBox="0 0 1920 703" fill="none" xmlns="http://www.w3.org/2000/svg">
<path fill-rule="evenodd" clip-rule="evenodd" d="M40 42.7778L0 0V300V320V703H1920V320V300V160L1880 181.111C1840 202.778 1760 245.556 1680 240C1632.22 236.682 1584.44 216.323 1536.67 195.964C1504.44 182.234 1472.22 168.503 1440 160C1360 138.889 1280 149.444 1200 176.111C1184 181.444 1168 187.422 1152 193.4C1088 217.311 1024 241.222 960 223.889C914.286 211.825 868.571 178.719 822.857 145.612C788.571 120.782 754.286 95.9524 720 80C640 42.7778 560 53.3333 480 90.5556C458.811 100.414 437.622 112.183 416.432 123.952C357.622 156.615 298.811 189.279 240 181.111C160 170.556 80 85.5556 40 42.7778Z" fill="url(#paint0_linear)"/>
<defs>
<linearGradient id="paint0_linear" x1="648" y1="64" x2="1984" y2="732" gradientUnits="userSpaceOnUse">
<stop stop-color="#169CBA"/>
<stop offset="1" stop-color="#1C60C7" stop-opacity="0.67"/>
</linearGradient>
</defs>
</svg>
