<svg width="983" height="715" viewBox="0 0 983 715" fill="none" xmlns="http://www.w3.org/2000/svg">
<g clip-path="url(#clip0)">
<path fill-rule="evenodd" clip-rule="evenodd" d="M23.7558 0H0V106.217V124V747H983V124V106.217V15.5L959.244 20.6667C936.307 25.8333 889.615 36.1667 842.922 41.3333C795.411 46.5 748.718 46.5 702.026 38.75C684.516 35.8438 667.006 31.8477 649.497 27.8516C620.314 21.1914 591.131 14.5312 561.948 12.9167C515.256 10.3333 467.744 20.6667 421.052 33.5833C415.864 35.0185 410.676 36.4856 405.488 37.9527C363.983 49.6893 322.479 61.4259 280.974 56.8333C252.505 53.6831 224.035 42.8497 195.38 31.9457C177.038 24.9662 158.62 17.9577 140.077 12.9167C93.385 0 46.6925 0 23.7558 0Z" fill="url(#paint0_linear)"/>
</g>
<defs>
<linearGradient id="paint0_linear" x1="177.5" y1="167.475" x2="1077.48" y2="826.567" gradientUnits="userSpaceOnUse">
<stop stop-color="#169CBA"/>
<stop offset="1" stop-color="#1C60C7" stop-opacity="0.67"/>
</linearGradient>
<clipPath id="clip0">
<rect width="983" height="715" fill="white"/>
</clipPath>
</defs>
</svg>
