<svg width="983" height="877" viewBox="0 0 983 877" fill="none" xmlns="http://www.w3.org/2000/svg">
<path fill-rule="evenodd" clip-rule="evenodd" d="M23.7558 0H0V236.217V253.845V877H983V253.845V236.217V31.7307L959.244 42.3075C936.307 52.8844 889.615 74.0382 842.922 84.6151C795.411 95.192 748.718 95.192 702.026 79.3266C684.516 73.3771 667.006 65.1966 649.497 57.016C620.314 43.3818 591.131 29.7475 561.948 26.4422C515.256 21.1538 467.744 42.3075 421.052 68.7497C415.864 71.6878 410.676 74.6911 405.488 77.6944C363.983 101.721 322.479 125.747 280.974 116.346C252.505 109.897 224.035 87.7193 195.38 65.3972C177.038 51.1092 158.62 36.7619 140.077 26.4422C93.385 0 46.6925 0 23.7558 0Z" fill="url(#paint0_linear)"/>
<defs>
<linearGradient id="paint0_linear" x1="177.5" y1="297.475" x2="1077.48" y2="956.567" gradientUnits="userSpaceOnUse">
<stop stop-color="#169CBA"/>
<stop offset="1" stop-color="#1C60C7" stop-opacity="0.67"/>
</linearGradient>
</defs>
</svg>
