<svg width="677" height="578" viewBox="0 0 677 578" fill="none" xmlns="http://www.w3.org/2000/svg">
<g opacity="0.48">
<path opacity="0.18" d="M456.317 543.786C491.558 523.014 516.358 486.708 526.404 447.246C532.349 423.872 533.474 399.454 540.401 376.334C560.113 310.6 623.061 265.713 647.979 201.781C661.901 166.174 662.819 125.315 648.354 89.9509C633.89 54.589 603.658 25.4553 566.914 14.3119C544.397 7.48555 520.494 7.33488 496.95 7.58738C452.879 8.05917 408.514 9.78092 365.509 19.3862C345.03 23.9646 324.929 30.3129 304.2 33.5818C264.097 39.9214 222.656 34.6274 182.891 42.7805C155.201 48.4595 129.232 60.5187 104.516 74.1562C85.9569 84.409 67.7655 95.7605 52.7175 110.674C12.9524 150.132 0.222405 211.913 13.6535 266.113C27.0819 320.312 64.0495 366.854 109.479 399.662C129.453 414.088 151.056 426.105 171.914 439.241C198.789 456.157 224.432 474.931 248.656 495.422C306.605 544.464 380.539 588.427 456.317 543.786Z" fill="url(#paint0_linear)" fill-opacity="0.57"/>
<g opacity="0.18" filter="url(#filter0_i)">
<path d="M445.14 519.707C477.048 500.898 499.504 468.025 508.599 432.295C513.982 411.131 515.001 389.022 521.273 368.087C539.122 308.569 596.118 267.926 618.68 210.039C631.285 177.799 632.116 140.803 619.02 108.782C605.923 76.764 578.549 50.3849 545.279 40.2952C524.892 34.1143 503.249 33.9778 481.93 34.2065C442.026 34.6336 401.856 36.1926 362.917 44.8896C344.375 49.0352 326.174 54.7832 307.405 57.7431C271.094 63.4832 233.572 58.6898 197.567 66.072C172.494 71.2141 148.981 82.133 126.602 94.4811C109.798 103.764 93.3263 114.043 79.7012 127.546C43.6959 163.274 32.1695 219.213 44.3307 268.288C56.4894 317.363 89.9617 359.504 131.096 389.21C149.181 402.272 168.742 413.153 187.627 425.047C211.961 440.363 235.18 457.362 257.113 475.916C309.583 520.321 376.527 560.127 445.14 519.707Z" fill="url(#paint1_linear)" fill-opacity="0.63"/>
</g>
<g opacity="0.18" filter="url(#filter1_i)">
<path d="M434.027 495.766C462.622 478.91 482.747 449.45 490.898 417.429C495.722 398.463 496.635 378.649 502.256 359.888C518.251 306.549 569.329 270.126 589.549 218.249C600.846 189.356 601.59 156.202 589.853 127.505C578.117 98.8114 553.585 75.1712 523.769 66.129C505.498 60.5898 486.103 60.4675 466.998 60.6724C431.237 61.0552 395.237 62.4523 360.341 70.2464C343.724 73.9615 327.413 79.1128 310.593 81.7654C278.051 86.9095 244.424 82.6138 212.158 89.2295C189.689 93.8377 168.617 103.623 148.561 114.689C133.501 123.009 118.74 132.22 106.53 144.321C74.2625 176.339 63.9329 226.47 74.8315 270.451C85.7278 314.43 115.725 352.196 152.588 378.818C168.796 390.524 186.326 400.275 203.25 410.934C225.058 424.66 245.866 439.894 265.522 456.521C312.544 496.316 372.538 531.989 434.027 495.766Z" fill="url(#paint2_linear)" fill-opacity="0.59"/>
</g>
<g opacity="0.18" filter="url(#filter2_i)">
<path d="M421.779 469.381C446.724 454.677 464.278 428.979 471.389 401.046C475.597 384.501 476.393 367.217 481.296 350.852C495.25 304.323 539.806 272.551 557.444 227.298C567.298 202.094 567.948 173.172 557.71 148.14C547.471 123.11 526.072 102.488 500.063 94.6002C484.125 89.7683 467.206 89.6616 450.54 89.8404C419.345 90.1743 387.942 91.393 357.502 98.1919C343.006 101.433 328.778 105.926 314.105 108.24C285.719 112.727 256.385 108.98 228.239 114.751C208.638 118.771 190.257 127.307 172.762 136.96C159.625 144.217 146.749 152.252 136.097 162.809C107.95 190.739 98.9392 234.469 108.446 272.834C117.951 311.198 144.118 344.142 176.275 367.365C190.413 377.576 205.705 386.082 220.468 395.38C239.491 407.353 257.642 420.642 274.789 435.147C315.808 469.861 368.141 500.979 421.779 469.381Z" fill="url(#paint3_linear)" fill-opacity="0.2"/>
</g>
</g>
<defs>
<filter id="filter0_i" x="32.0026" y="27.5474" width="619.2" height="529.138" filterUnits="userSpaceOnUse" color-interpolation-filters="sRGB">
<feFlood flood-opacity="0" result="BackgroundImageFix"/>
<feBlend mode="normal" in="SourceGraphic" in2="BackgroundImageFix" result="shape"/>
<feColorMatrix in="SourceAlpha" type="matrix" values="0 0 0 0 0 0 0 0 0 0 0 0 0 0 0 0 0 0 127 0" result="hardAlpha"/>
<feOffset dx="7" dy="6"/>
<feGaussianBlur stdDeviation="9"/>
<feComposite in2="hardAlpha" operator="arithmetic" k2="-1" k3="1"/>
<feColorMatrix type="matrix" values="0 0 0 0 0 0 0 0 0 0 0 0 0 0 0 0 0 0 0.25 0"/>
<feBlend mode="normal" in2="shape" result="effect1_innerShadow"/>
</filter>
<filter id="filter1_i" x="63.7833" y="54.7048" width="555.638" height="474.824" filterUnits="userSpaceOnUse" color-interpolation-filters="sRGB">
<feFlood flood-opacity="0" result="BackgroundImageFix"/>
<feBlend mode="normal" in="SourceGraphic" in2="BackgroundImageFix" result="shape"/>
<feColorMatrix in="SourceAlpha" type="matrix" values="0 0 0 0 0 0 0 0 0 0 0 0 0 0 0 0 0 0 127 0" result="hardAlpha"/>
<feOffset dx="7" dy="6"/>
<feGaussianBlur stdDeviation="9"/>
<feComposite in2="hardAlpha" operator="arithmetic" k2="-1" k3="1"/>
<feColorMatrix type="matrix" values="0 0 0 0 0 0 0 0 0 0 0 0 0 0 0 0 0 0 0.25 0"/>
<feBlend mode="normal" in2="shape" result="effect1_innerShadow"/>
</filter>
<filter id="filter2_i" x="98.8087" y="84.6347" width="485.588" height="414.964" filterUnits="userSpaceOnUse" color-interpolation-filters="sRGB">
<feFlood flood-opacity="0" result="BackgroundImageFix"/>
<feBlend mode="normal" in="SourceGraphic" in2="BackgroundImageFix" result="shape"/>
<feColorMatrix in="SourceAlpha" type="matrix" values="0 0 0 0 0 0 0 0 0 0 0 0 0 0 0 0 0 0 127 0" result="hardAlpha"/>
<feOffset dx="7" dy="6"/>
<feGaussianBlur stdDeviation="9"/>
<feComposite in2="hardAlpha" operator="arithmetic" k2="-1" k3="1"/>
<feColorMatrix type="matrix" values="0 0 0 0 0 0 0 0 0 0 0 0 0 0 0 0 0 0 0.25 0"/>
<feBlend mode="normal" in2="shape" result="effect1_innerShadow"/>
</filter>
<linearGradient id="paint0_linear" x1="615.982" y1="74.6468" x2="-28.7909" y2="492.18" gradientUnits="userSpaceOnUse">
<stop stop-color="#FFAF96" stop-opacity="0.75"/>
<stop offset="0.71875" stop-color="#6CE3FF" stop-opacity="0.95"/>
<stop offset="1" stop-color="#F4FDFF" stop-opacity="0"/>
</linearGradient>
<linearGradient id="paint1_linear" x1="589.708" y1="94.9253" x2="5.89946" y2="472.98" gradientUnits="userSpaceOnUse">
<stop stop-color="#FF9979" stop-opacity="0.75"/>
<stop offset="0.71875" stop-color="#4DDDFE" stop-opacity="0.95"/>
<stop offset="1" stop-color="#F4FDFF" stop-opacity="0"/>
</linearGradient>
<linearGradient id="paint2_linear" x1="563.586" y1="115.087" x2="40.3903" y2="453.891" gradientUnits="userSpaceOnUse">
<stop stop-color="#FF9473" stop-opacity="0.75"/>
<stop offset="0.71875" stop-color="#3ADAFF" stop-opacity="0.95"/>
<stop offset="1" stop-color="#F4FDFF" stop-opacity="0"/>
</linearGradient>
<linearGradient id="paint3_linear" x1="534.796" y1="137.307" x2="78.4025" y2="432.852" gradientUnits="userSpaceOnUse">
<stop stop-color="#BB3910" stop-opacity="0.5"/>
<stop offset="0.71875" stop-color="#128EAB" stop-opacity="0.95"/>
<stop offset="1" stop-color="#F4FDFF" stop-opacity="0"/>
</linearGradient>
</defs>
</svg>
