<svg width="439" height="624" viewBox="0 0 439 624" fill="none" xmlns="http://www.w3.org/2000/svg">
<g clip-path="url(#clip0)">
<path fill-rule="evenodd" clip-rule="evenodd" d="M442 0H0V519V524V564L9.20833 556.5C18.4167 549 36.8333 534 55.25 545.25C63.3073 550.172 71.3646 560.118 79.4219 570.064C89.7812 582.853 100.141 595.641 110.5 597.75C120.859 599.859 131.219 591.29 141.578 582.721C149.635 576.056 157.693 569.391 165.75 567.75C175.667 565.731 185.583 571.322 195.5 576.914C204 581.707 212.5 586.5 221 586.5C232.05 586.5 243.1 578.4 254.15 570.3C261.517 564.9 268.883 559.5 276.25 556.5C294.667 549 313.083 556.5 331.5 575.25C336.523 580.364 341.545 586.314 346.568 592.265C359.962 608.132 373.356 624 386.75 624C405.167 624 423.583 594 432.792 579L442 564V524V519V0Z" fill="url(#paint0_linear)"/>
<g opacity="0.67">
<path d="M85.561 215.344C100.189 266.808 77.5455 323.479 34.0611 356.12C-9.22292 388.961 -73.7482 397.772 -110.019 370.738C-146.489 343.704 -154.705 280.826 -137.071 224.956C-119.236 169.086 -75.5517 120.425 -28.0595 119.023C19.6331 117.821 71.133 164.079 85.561 215.344Z" fill="#F1FAFF" fill-opacity="0.78"/>
<path d="M61.7037 223.126C73.2589 263.916 55.3721 308.833 21.0231 334.704C-13.1676 360.734 -64.1372 367.718 -92.7877 346.291C-121.597 324.864 -128.086 275.027 -114.157 230.744C-100.069 186.462 -65.5618 147.894 -28.0469 146.783C9.62618 145.831 50.3068 182.494 61.7037 223.126Z" fill="white" fill-opacity="0.35"/>
<path d="M36.892 231.464C45.2511 260.818 32.3117 293.142 7.46346 311.759C-17.2703 330.491 -54.1418 335.516 -74.8678 320.097C-95.7082 304.677 -100.403 268.813 -90.3263 236.947C-80.1351 205.08 -55.1724 177.325 -28.034 176.526C-0.781109 175.84 28.6474 202.225 36.892 231.464Z" fill="white" fill-opacity="0.62"/>
</g>
<g opacity="0.78">
<path d="M350.953 347.465C310.745 301.172 306.684 231.351 335.936 176.331C364.883 121.201 427.559 80.6787 478.345 91.0943C529.339 101.412 568.443 162.669 577.313 229.223C585.975 295.875 564.306 367.616 515.703 392.167C466.795 416.607 390.856 393.648 350.953 347.465Z" fill="#F1FAFF" fill-opacity="0.46"/>
<path d="M369.361 330.045C336.594 292.327 333.293 235.432 357.142 190.594C380.742 145.667 431.832 112.639 473.225 121.12C514.787 129.522 546.652 179.433 553.874 233.666C560.927 287.977 543.256 346.44 503.638 366.451C463.772 386.372 401.879 367.673 369.361 330.045Z" fill="#F1FAFF" fill-opacity="0.34"/>
<path d="M391.189 309.614C367.116 281.815 364.6 239.959 382 207.018C399.217 174.011 436.597 149.803 466.942 156.111C497.411 162.362 520.845 199.129 526.229 239.033C531.488 278.995 518.639 321.968 489.643 336.621C460.464 351.207 415.081 337.347 391.189 309.614Z" fill="#F1FAFF" fill-opacity="0.46"/>
</g>
</g>
<defs>
<linearGradient id="paint0_linear" x1="-738" y1="31" x2="266" y2="539" gradientUnits="userSpaceOnUse">
<stop stop-color="#169CBA"/>
<stop offset="1" stop-color="#2052D2" stop-opacity="0.75"/>
</linearGradient>
<clipPath id="clip0">
<rect width="439" height="624" fill="white"/>
</clipPath>
</defs>
</svg>
