<svg width="1440" height="596" viewBox="0 0 1440 596" fill="none" xmlns="http://www.w3.org/2000/svg">
<g clip-path="url(#clip0)">
<path fill-rule="evenodd" clip-rule="evenodd" d="M1443 0H0V376V404V470.286L30 454.571C60 438.857 120 407.429 180 431C206.25 441.312 232.5 462.152 258.75 482.992C292.5 509.786 326.25 536.58 360 541C393.75 545.42 427.5 527.465 461.25 509.51C487.5 495.545 513.75 481.58 540 478.143C572.308 473.912 604.615 485.628 636.923 497.344C664.615 507.386 692.308 517.429 720 517.429C756 517.429 792 500.457 828 483.486C852 472.171 876 460.857 900 454.571C960 438.857 1020 454.571 1080 493.857C1096.36 504.571 1112.73 517.039 1129.09 529.506C1172.73 562.753 1216.36 596 1260 596C1320 596 1380 533.143 1410 501.714L1440 470.286V404H1443V0Z" fill="url(#paint0_linear)"/>
<g opacity="0.67">
<path d="M270.686 60.7175C298.084 157.104 255.674 263.243 174.233 324.375C93.1672 385.883 -27.6809 402.385 -95.611 351.753C-163.916 301.122 -179.304 183.358 -146.277 78.7197C-112.875 -25.9182 -31.0586 -117.054 57.8886 -119.68C147.211 -121.93 243.664 -35.2943 270.686 60.7175Z" fill="#F1FAFF" fill-opacity="0.78"/>
<path d="M226.004 75.293C247.646 151.689 214.146 235.813 149.814 284.266C85.7792 333.016 -9.68065 346.096 -63.3398 305.966C-117.295 265.836 -129.45 172.497 -103.362 89.5614C-76.9769 6.62619 -12.3488 -65.6077 57.912 -67.6885C128.469 -69.4721 204.659 -0.805286 226.004 75.293Z" fill="white" fill-opacity="0.35"/>
<path d="M179.535 90.9093C195.191 145.886 170.957 206.424 124.419 241.292C78.0956 276.374 9.03952 285.786 -29.7777 256.908C-68.8094 228.029 -77.6023 160.86 -58.7298 101.177C-39.6429 41.4949 7.10938 -10.4866 57.9364 -11.984C108.978 -13.2675 164.094 36.147 179.535 90.9093Z" fill="white" fill-opacity="0.62"/>
</g>
<g opacity="0.78">
<path d="M1430.72 147.966C1377.97 203.655 1291.54 217.202 1219.48 187.476C1147.32 158.142 1089.25 85.0406 1096.04 20.5458C1102.69 -44.1961 1174.19 -100.331 1255.97 -119.469C1337.9 -138.359 1429.85 -120.107 1466.33 -62.5827C1502.71 -4.66506 1483.36 92.6707 1430.72 147.966Z" fill="#F1FAFF" fill-opacity="0.46"/>
<path d="M1406.79 127.167C1363.81 172.549 1293.38 183.579 1234.66 159.341C1175.86 135.423 1128.52 75.8336 1134.05 23.2684C1139.45 -29.4982 1197.72 -75.2408 1264.36 -90.8278C1331.12 -106.213 1406.05 -91.3242 1435.78 -44.4345C1465.43 2.776 1449.68 82.1064 1406.79 127.167Z" fill="#F1FAFF" fill-opacity="0.34"/>
<path d="M1378.7 102.476C1347.02 135.829 1295.21 144.051 1252.08 126.395C1208.9 108.975 1174.21 65.3811 1178.37 26.8346C1182.45 -11.8594 1225.38 -45.5062 1274.4 -57.062C1323.51 -68.4704 1378.58 -57.6999 1400.35 -23.3822C1422.05 11.1708 1410.32 69.3588 1378.7 102.476Z" fill="#F1FAFF" fill-opacity="0.46"/>
</g>
</g>
<defs>
<linearGradient id="paint0_linear" x1="263" y1="31" x2="1267" y2="539" gradientUnits="userSpaceOnUse">
<stop stop-color="#169CBA"/>
<stop offset="1" stop-color="#2052D2" stop-opacity="0.75"/>
</linearGradient>
<clipPath id="clip0">
<rect width="1440" height="596" fill="white"/>
</clipPath>
</defs>
</svg>
