<svg width="797" height="800" viewBox="0 0 797 800" fill="none" xmlns="http://www.w3.org/2000/svg">
<g clip-path="url(#clip0)">
<path fill-rule="evenodd" clip-rule="evenodd" d="M800 0H0V580V595V674.286L16.6667 658.571C33.3333 642.857 66.6667 611.429 100 635C114.583 645.312 129.167 666.152 143.75 686.992C162.5 713.786 181.25 740.58 200 745C218.75 749.42 237.5 731.465 256.25 713.51C270.833 699.545 285.417 685.58 300 682.143C317.949 677.912 335.897 689.628 353.846 701.344C369.231 711.386 384.615 721.429 400 721.429C420 721.429 440 704.457 460 687.486C473.333 676.171 486.667 664.857 500 658.571C533.333 642.857 566.667 658.571 600 697.857C609.091 708.571 618.182 721.039 627.273 733.506C651.515 766.753 675.758 800 700 800C733.333 800 766.667 737.143 783.333 705.714L800 674.286V595V580V0Z" fill="url(#paint0_linear)"/>
<g opacity="0.67">
<path d="M174.094 67.186C193.557 135.66 163.429 211.061 105.573 254.49C47.9831 298.186 -37.8683 309.909 -86.1264 273.94C-134.651 237.971 -145.582 154.31 -122.12 79.9749C-98.3909 5.63937 -40.2679 -59.1045 22.9209 -60.9695C86.3762 -62.5681 154.897 -1.02152 174.094 67.186Z" fill="#F1FAFF" fill-opacity="0.78"/>
<path d="M142.352 77.5406C157.726 131.813 133.927 191.575 88.2256 225.996C42.7346 260.629 -25.0808 269.921 -63.2006 241.412C-101.531 212.904 -110.166 146.595 -91.6326 87.6769C-72.8886 28.7592 -26.9763 -22.5563 22.9375 -24.0346C73.0619 -25.3016 127.188 23.4798 142.352 77.5406Z" fill="white" fill-opacity="0.35"/>
<path d="M109.339 88.6345C120.461 127.69 103.245 170.697 70.1845 195.467C37.276 220.39 -11.7819 227.076 -39.3579 206.561C-67.0863 186.045 -73.3328 138.328 -59.9257 95.9289C-46.3662 53.5301 -13.1531 16.6021 22.9548 15.5384C59.215 14.6266 98.3699 49.7309 109.339 88.6345Z" fill="white" fill-opacity="0.62"/>
</g>
<g opacity="0.78">
<path d="M669.953 235.465C629.745 189.172 625.684 119.351 654.936 64.3312C683.883 9.2013 746.559 -31.3213 797.345 -20.9057C848.339 -10.5875 887.443 50.6688 896.313 117.223C904.975 183.875 883.306 255.616 834.703 280.167C785.795 304.607 709.856 281.648 669.953 235.465Z" fill="#F1FAFF" fill-opacity="0.46"/>
<path d="M688.361 218.045C655.594 180.327 652.293 123.432 676.142 78.5944C699.742 33.6672 750.832 0.63896 792.225 9.12026C833.787 17.5221 865.652 67.4335 872.874 121.666C879.927 175.977 862.256 234.44 822.638 254.451C782.772 274.372 720.879 255.673 688.361 218.045Z" fill="#F1FAFF" fill-opacity="0.34"/>
<path d="M710.189 197.614C686.116 169.815 683.6 127.959 701 95.018C718.217 62.0108 755.597 37.8027 785.942 44.1113C816.411 50.3619 839.845 87.1291 845.229 127.033C850.488 166.995 837.639 209.968 808.643 224.621C779.464 239.207 734.081 225.347 710.189 197.614Z" fill="#F1FAFF" fill-opacity="0.46"/>
</g>
</g>
<defs>
<linearGradient id="paint0_linear" x1="-380" y1="31" x2="624" y2="539" gradientUnits="userSpaceOnUse">
<stop stop-color="#169CBA"/>
<stop offset="1" stop-color="#2052D2" stop-opacity="0.75"/>
</linearGradient>
<clipPath id="clip0">
<rect width="797" height="800" fill="white"/>
</clipPath>
</defs>
</svg>
