<svg width="600" height="875" viewBox="0 0 600 875" fill="none" xmlns="http://www.w3.org/2000/svg">
<g clip-path="url(#clip0)">
<path fill-rule="evenodd" clip-rule="evenodd" d="M603 0H-1V655V675V749.286L11.5833 733.571C24.1667 717.857 49.3333 686.429 74.5 710C85.5104 720.312 96.5208 741.152 107.531 761.992C121.688 788.786 135.844 815.58 150 820C164.156 824.42 178.312 806.465 192.469 788.51C203.479 774.545 214.49 760.58 225.5 757.143C239.051 752.912 252.603 764.628 266.154 776.344C277.769 786.386 289.385 796.429 301 796.429C316.1 796.429 331.2 779.457 346.3 762.486C356.367 751.171 366.433 739.857 376.5 733.571C401.667 717.857 426.833 733.571 452 772.857C458.864 783.571 465.727 796.039 472.591 808.507C490.894 841.753 509.197 875 527.5 875C552.667 875 577.833 812.143 590.417 780.714L603 749.286V675V655V0Z" fill="url(#paint0_linear)"/>
<g opacity="0.67">
<path d="M96.2005 124.464C108.721 168.514 89.3398 217.02 52.1201 244.959C15.0719 273.068 -40.1573 280.61 -71.2023 257.471C-102.419 234.332 -109.451 180.512 -94.3574 132.691C-79.0922 84.8699 -41.701 43.2194 -1.05091 42.0196C39.7707 40.9912 83.8512 80.5849 96.2005 124.464Z" fill="#F1FAFF" fill-opacity="0.78"/>
<path d="M75.7803 131.125C85.6708 166.039 70.3609 204.485 40.9604 226.628C11.6955 248.908 -31.931 254.885 -56.4539 236.545C-81.1123 218.206 -86.6673 175.548 -74.7445 137.646C-62.6863 99.7431 -33.1503 66.7313 -1.04019 65.7803C31.2055 64.9652 66.0253 96.3469 75.7803 131.125Z" fill="white" fill-opacity="0.35"/>
<path d="M54.5432 138.262C61.698 163.387 50.6227 191.053 29.3543 206.989C8.18394 223.022 -23.3756 227.323 -41.1156 214.125C-58.9536 200.927 -62.9721 170.23 -54.3471 142.954C-45.6241 115.679 -24.2577 91.9224 -1.0291 91.2381C22.2975 90.6515 47.4864 113.235 54.5432 138.262Z" fill="white" fill-opacity="0.62"/>
</g>
<g opacity="0.78">
<path d="M533.953 411.465C493.745 365.172 489.684 295.351 518.936 240.331C547.883 185.201 610.559 144.679 661.345 155.094C712.339 165.412 751.443 226.669 760.313 293.223C768.975 359.875 747.306 431.616 698.703 456.167C649.795 480.607 573.856 457.648 533.953 411.465Z" fill="#F1FAFF" fill-opacity="0.46"/>
<path d="M552.361 394.045C519.594 356.327 516.293 299.432 540.142 254.594C563.742 209.667 614.832 176.639 656.225 185.12C697.787 193.522 729.652 243.433 736.874 297.666C743.927 351.977 726.256 410.44 686.638 430.451C646.772 450.372 584.879 431.673 552.361 394.045Z" fill="#F1FAFF" fill-opacity="0.34"/>
<path d="M574.189 373.614C550.116 345.815 547.6 303.959 565 271.018C582.217 238.011 619.597 213.803 649.942 220.111C680.411 226.362 703.845 263.129 709.229 303.033C714.488 342.995 701.639 385.968 672.643 400.621C643.464 415.207 598.081 401.347 574.189 373.614Z" fill="#F1FAFF" fill-opacity="0.46"/>
</g>
</g>
<defs>
<linearGradient id="paint0_linear" x1="-577" y1="31" x2="427" y2="539" gradientUnits="userSpaceOnUse">
<stop stop-color="#169CBA"/>
<stop offset="1" stop-color="#2052D2" stop-opacity="0.75"/>
</linearGradient>
<clipPath id="clip0">
<rect width="600" height="875" fill="white"/>
</clipPath>
</defs>
</svg>
