<svg width="1133" height="596" viewBox="0 0 1133 596" fill="none" xmlns="http://www.w3.org/2000/svg">
<g clip-path="url(#clip0)">
<path fill-rule="evenodd" clip-rule="evenodd" d="M1136 0H0V376V404V470.286L23.6042 454.571C47.2083 438.857 94.4167 407.429 141.625 431C162.279 441.312 182.932 462.152 203.586 482.992C230.141 509.786 256.695 536.58 283.25 541C309.805 545.42 336.359 527.465 362.914 509.51C383.568 495.545 404.221 481.58 424.875 478.143C450.295 473.912 475.715 485.628 501.135 497.344C522.923 507.386 544.712 517.429 566.5 517.429C594.825 517.429 623.15 500.457 651.475 483.486C670.358 472.171 689.242 460.857 708.125 454.571C755.333 438.857 802.542 454.571 849.75 493.857C862.625 504.571 875.5 517.039 888.375 529.506C922.708 562.753 957.042 596 991.375 596C1038.58 596 1085.79 533.143 1109.4 501.714L1133 470.286V404H1136V0Z" fill="url(#paint0_linear)"/>
<g opacity="0.67">
<path d="M273.686 52.4402C301.084 148.827 258.674 254.965 177.233 316.098C96.1672 377.605 -24.6809 394.107 -92.611 343.476C-160.916 292.845 -176.304 175.08 -143.277 70.4424C-109.875 -34.1955 -28.0586 -125.332 60.8886 -127.957C150.211 -130.207 246.664 -43.5717 273.686 52.4402Z" fill="#F1FAFF" fill-opacity="0.78"/>
<path d="M229.004 67.0157C250.646 143.411 217.146 227.535 152.814 275.989C88.7792 324.739 -6.68065 337.819 -60.3398 297.689C-114.295 257.559 -126.45 164.219 -100.362 81.2841C-73.9769 -1.65116 -9.34879 -73.8851 60.912 -75.9659C131.469 -77.7494 207.659 -9.08263 229.004 67.0157Z" fill="white" fill-opacity="0.35"/>
<path d="M182.535 82.632C198.191 137.608 173.957 198.146 127.419 233.014C81.0956 268.097 12.0395 277.509 -26.7777 248.63C-65.8094 219.752 -74.6023 152.582 -55.7298 92.8999C-36.6429 33.2175 10.1094 -18.7639 60.9364 -20.2613C111.978 -21.5448 167.094 27.8696 182.535 82.632Z" fill="white" fill-opacity="0.62"/>
</g>
<g opacity="0.78">
<path d="M1123.72 147.966C1070.97 203.655 984.538 217.202 912.482 187.476C840.325 158.142 782.252 85.0406 789.042 20.5458C795.686 -44.1961 867.194 -100.331 948.974 -119.469C1030.9 -138.359 1122.85 -120.107 1159.33 -62.5827C1195.71 -4.66506 1176.36 92.6707 1123.72 147.966Z" fill="#F1FAFF" fill-opacity="0.46"/>
<path d="M1099.79 127.167C1056.81 172.549 986.383 183.579 927.66 159.341C868.856 135.423 821.522 75.8336 827.047 23.2684C832.452 -29.4982 890.716 -75.2408 957.356 -90.8278C1024.12 -106.213 1099.05 -91.3242 1128.78 -44.4345C1158.43 2.776 1142.68 82.1064 1099.79 127.167Z" fill="#F1FAFF" fill-opacity="0.34"/>
<path d="M1071.7 102.476C1040.02 135.829 988.211 144.051 945.084 126.395C901.896 108.975 867.211 65.3811 871.375 26.8346C875.451 -11.8594 918.376 -45.5062 967.4 -57.062C1016.51 -68.4704 1071.58 -57.6999 1093.35 -23.3822C1115.05 11.1708 1103.32 69.3588 1071.7 102.476Z" fill="#F1FAFF" fill-opacity="0.46"/>
</g>
</g>
<defs>
<linearGradient id="paint0_linear" x1="-44" y1="31" x2="960" y2="539" gradientUnits="userSpaceOnUse">
<stop stop-color="#169CBA"/>
<stop offset="1" stop-color="#2052D2" stop-opacity="0.75"/>
</linearGradient>
<clipPath id="clip0">
<rect width="1133" height="596" fill="white"/>
</clipPath>
</defs>
</svg>
