<svg width="1382" height="1422" viewBox="0 0 1382 1422" fill="none" xmlns="http://www.w3.org/2000/svg">
<g clip-path="url(#clip0)">
<path fill-rule="evenodd" clip-rule="evenodd" d="M0 149.612H38.335C77.8317 149.612 154.502 149.613 232.333 123.749C271.249 110.817 309.874 91.4188 348.5 72.021L348.5 72.0208C387.125 52.6229 425.751 33.225 464.667 20.2931C542.498 -5.57083 619.168 -5.57083 697 13.8271C723.115 20.3357 749.099 29.0281 775.04 37.7061C826.413 54.8917 877.617 72.0208 929.333 72.0208C975.949 72.0208 1022.15 58.1041 1068.43 44.1626C1099.42 34.8267 1130.45 25.4797 1161.67 20.2931C1238.39 7.54475 1313.99 19.931 1353.96 26.4798L1355.66 26.759L1394 33.225V184V266V1160V1196V1309.71L1355.66 1297.24C1354.25 1296.79 1352.78 1296.33 1351.27 1295.85C1310.67 1283 1236.71 1259.59 1161.67 1253.57C1083.83 1247.33 1007.16 1259.81 929.333 1297.24C906.844 1308.05 884.452 1320.95 862.1 1333.83C807.097 1365.51 752.342 1397.05 697 1397.05C648.468 1397.05 600.388 1372.79 552.196 1348.48C523.102 1333.81 493.966 1319.11 464.667 1309.71C386.835 1284.76 310.165 1297.24 232.333 1322.19C160.203 1345.32 89.0695 1379.16 47.5981 1398.88C44.3204 1400.44 41.228 1401.92 38.335 1403.29L0 1422V1196V1160V266V184V149.612Z" fill="url(#paint0_linear)"/>
</g>
<defs>
<linearGradient id="paint0_linear" x1="1394" y1="372" x2="-0.00841885" y2="378.073" gradientUnits="userSpaceOnUse">
<stop stop-color="#164EBA" stop-opacity="0.46"/>
<stop offset="1" stop-color="#169CBA"/>
</linearGradient>
<clipPath id="clip0">
<rect width="1382" height="1422" fill="white"/>
</clipPath>
</defs>
</svg>
