<svg width="996" height="1900" viewBox="0 0 996 1940" fill="none" xmlns="http://www.w3.org/2000/svg">
<g clip-path="url(#clip0)">
<path fill-rule="evenodd" clip-rule="evenodd" d="M27.39 54.6378L0 78.6805V248V259V1620V1644V1704.65L24.07 1711.71L24.8899 1711.96H24.8905C48.4103 1719.09 95.1701 1733.28 141.93 1768.14C156.714 1778.98 171.42 1791.81 186.071 1804.59L186.072 1804.59C219.129 1833.42 251.909 1862.02 284.69 1866.91C317.807 1871.85 350.924 1852.59 384.041 1833.33C398.234 1825.07 412.427 1816.82 426.62 1810.47C473.93 1789.31 522.07 1789.31 569.38 1817.53C588.304 1828.81 607.228 1844.62 626.152 1860.42C654.538 1884.12 682.924 1907.82 711.31 1916.29C758.62 1930.4 805.93 1902.18 854.07 1866.91C901.38 1831.64 948.69 1789.31 971.93 1768.14L996 1746.98V1644V1620V259V248V222.936L968.61 198.893C967.835 198.233 967.039 197.554 966.224 196.858C937.379 172.244 884.082 126.766 830 126.766C805.266 126.766 780.697 136.278 756.145 145.783C725.497 157.649 694.876 169.504 664 162.83C638.7 157.361 613.572 139.451 588.46 121.552C558.374 100.108 528.31 78.6805 498 78.6805C472.32 78.6805 446.817 94.0613 421.328 109.434C391.62 127.351 361.93 145.257 332 138.787C302.079 132.319 272.399 101.491 242.701 70.6436C217.202 44.1584 191.689 17.6593 166 6.55263C111.431 -17.0398 57.6617 28.8198 29.0029 53.2627C28.4561 53.7291 27.9184 54.1877 27.39 54.6378Z" fill="url(#paint0_linear)"/>
</g>
<defs>
<linearGradient id="paint0_linear" x1="236" y1="760" x2="1808" y2="928" gradientUnits="userSpaceOnUse">
<stop stop-color="#4CA1DA"/>
<stop offset="1" stop-color="#169CBA" stop-opacity="0.61"/>
</linearGradient>
<clipPath id="clip0">
<rect width="996" height="1940" fill="white"/>
</clipPath>
</defs>
</svg>
