<svg width="1000" height="1768" viewBox="0 0 1000 1768" fill="none" xmlns="http://www.w3.org/2000/svg">
<path fill-rule="evenodd" clip-rule="evenodd" d="M31.39 54.6378L4 78.6805V248V259V1468V1480V1552.65L28.07 1559.71L28.8899 1559.96H28.8905C52.4103 1567.09 99.1701 1581.28 145.93 1616.14C160.714 1626.98 175.42 1639.81 190.071 1652.59L190.072 1652.59C223.129 1681.42 255.909 1710.02 288.69 1714.91C321.807 1719.85 354.924 1700.59 388.041 1681.33C402.234 1673.07 416.427 1664.82 430.62 1658.47C477.93 1637.31 526.07 1637.31 573.38 1665.53C592.304 1676.81 611.228 1692.62 630.152 1708.42C658.538 1732.12 686.924 1755.82 715.31 1764.29C762.62 1778.4 809.93 1750.18 858.07 1714.91C905.38 1679.64 952.69 1637.31 975.93 1616.14L1000 1594.98V1480V1468V259V248V222.936L972.61 198.893C971.835 198.233 971.039 197.554 970.224 196.858C941.379 172.244 888.082 126.766 834 126.766C809.266 126.766 784.697 136.278 760.145 145.783C729.497 157.649 698.876 169.504 668 162.83C642.7 157.361 617.572 139.451 592.46 121.552C562.374 100.108 532.31 78.6805 502 78.6805C476.32 78.6805 450.817 94.0613 425.328 109.434C395.62 127.351 365.93 145.257 336 138.787C306.079 132.319 276.399 101.491 246.701 70.6436C221.202 44.1584 195.689 17.6593 170 6.55263C115.431 -17.0398 61.6617 28.8198 33.0029 53.2627C32.4561 53.7291 31.9184 54.1877 31.39 54.6378Z" fill="url(#paint0_linear)"/>
<defs>
<linearGradient id="paint0_linear" x1="240" y1="760" x2="1812" y2="928" gradientUnits="userSpaceOnUse">
<stop stop-color="#4CA1DA"/>
<stop offset="1" stop-color="#169CBA" stop-opacity="0.61"/>
</linearGradient>
</defs>
</svg>
