<svg width="1600" height="1684" viewBox="0 0 1600 1684" fill="none" xmlns="http://www.w3.org/2000/svg">
<path fill-rule="evenodd" clip-rule="evenodd" d="M0 10.9899L38.6667 43.9596C76 76.9293 152 142.869 228 153.859C283.379 161.729 338.075 141.42 392.577 121.183C414.182 113.16 435.758 105.149 457.333 98.9091C533.333 76.9293 609.333 76.9293 685.333 87.9192C706.837 91.0286 728.446 95.0179 750.103 99.0156C804.987 109.147 860.17 119.334 914.667 115.394C978 110.815 1041.33 87.156 1104.67 63.4972C1117.33 58.7654 1130 54.0337 1142.67 49.4545C1218.67 21.9798 1294.67 0 1372 0C1448 0 1524 21.9798 1561.33 32.9697L1600 43.9596V216V241.778V1449V1480V1584.57L1556 1607.17C1554.52 1607.9 1553 1608.66 1551.44 1609.45C1504.94 1632.67 1419.76 1675.2 1333.33 1682.49C1259.35 1688.72 1186.29 1669.13 1112.62 1649.38C1097.33 1645.28 1082.02 1641.18 1066.67 1637.3C977.333 1614.7 889.333 1599.64 800 1614.7C764.171 1620.74 728.556 1631.63 692.984 1642.5C639.864 1658.74 586.838 1674.96 533.333 1674.96C466.704 1674.96 400.817 1649.82 334.565 1624.54C311.989 1615.92 289.371 1607.29 266.667 1599.64C177.333 1569.51 89.3333 1554.45 44 1546.91L0 1539.38V1480V1449V241.778V216V10.9899Z" fill="url(#paint0_linear)"/>
<defs>
<linearGradient id="paint0_linear" x1="1.21691e-05" y1="252.444" x2="2559.42" y2="466.688" gradientUnits="userSpaceOnUse">
<stop stop-color="#CAE2FF"/>
<stop offset="1" stop-color="#97E6FF" stop-opacity="0.63"/>
</linearGradient>
</defs>
</svg>
