<svg width="1600" height="700" viewBox="0 0 1600 786" fill="none" xmlns="http://www.w3.org/2000/svg">
<path fill-rule="evenodd" clip-rule="evenodd" d="M0 103.491H44H44.0001C89.3334 103.491 177.333 103.491 266.667 85.6005C311.333 76.6552 355.667 63.237 400 49.8189C444.333 36.4008 488.667 22.9827 533.333 14.0373C622.667 -3.85351 710.667 -3.85351 800 9.5646C829.974 14.0668 859.798 20.0796 889.573 26.0824C948.537 37.9702 1007.31 49.8189 1066.67 49.8189C1120.17 49.8189 1173.2 40.1924 1226.32 30.5486C1261.89 24.0907 1297.5 17.625 1333.33 14.0373C1421.4 5.21893 1508.17 13.7869 1554.04 18.3168L1556 18.51L1600 22.9827V184V586V598V694.571L1556 685.524C1554.37 685.199 1552.69 684.863 1550.96 684.516C1504.35 675.196 1419.46 658.219 1333.33 653.857C1244 649.333 1156 658.381 1066.67 685.524C1040.85 693.367 1015.15 702.72 989.498 712.057C926.367 735.033 863.521 757.905 800 757.905C744.296 757.905 689.111 740.316 633.797 722.685C600.404 712.042 566.963 701.383 533.333 694.571C444 676.476 356 685.524 266.667 703.619C183.876 720.389 102.231 744.93 54.6316 759.237C50.8697 760.368 47.3204 761.435 44 762.429L0 776V598V586V184V103.491Z" fill="url(#paint0_linear)"/>
<defs>
<linearGradient id="paint0_linear" x1="1600" y1="372" x2="-2.58662e-05" y2="380" gradientUnits="userSpaceOnUse">
<stop stop-color="#164EBA" stop-opacity="0.46"/>
<stop offset="1" stop-color="#169CBA"/>
</linearGradient>
</defs>
</svg>
