<svg width="1000" height="1504" viewBox="0 0 1000 1504" fill="none" xmlns="http://www.w3.org/2000/svg">
<path fill-rule="evenodd" clip-rule="evenodd" d="M31.39 54.6378L4 78.6805V248V259V1204V1216V1288.65L28.07 1295.71L28.8899 1295.96H28.8905C52.4103 1303.09 99.1701 1317.28 145.93 1352.14C160.714 1362.98 175.42 1375.81 190.071 1388.59L190.072 1388.59C223.129 1417.42 255.909 1446.02 288.69 1450.91C321.807 1455.85 354.924 1436.59 388.041 1417.33C402.234 1409.07 416.427 1400.82 430.62 1394.47C477.93 1373.31 526.07 1373.31 573.38 1401.53C592.304 1412.81 611.228 1428.62 630.152 1444.42C658.538 1468.12 686.924 1491.82 715.31 1500.29C762.62 1514.4 809.93 1486.18 858.07 1450.91C905.38 1415.64 952.69 1373.31 975.93 1352.14L1000 1330.98V1216V1204V259V248V222.936L972.61 198.893C971.835 198.233 971.039 197.554 970.224 196.858C941.379 172.244 888.082 126.766 834 126.766C809.266 126.766 784.697 136.278 760.145 145.783C729.497 157.649 698.876 169.504 668 162.83C642.7 157.361 617.572 139.451 592.46 121.552C562.374 100.108 532.31 78.6805 502 78.6805C476.32 78.6805 450.817 94.0613 425.328 109.434C395.62 127.351 365.93 145.257 336 138.787C306.079 132.319 276.399 101.491 246.701 70.6436C221.202 44.1584 195.689 17.6593 170 6.55263C115.431 -17.0398 61.6617 28.8198 33.0029 53.2627C32.4561 53.7291 31.9184 54.1877 31.39 54.6378Z" fill="url(#paint0_linear)"/>
<defs>
<linearGradient id="paint0_linear" x1="240" y1="760" x2="1812" y2="928" gradientUnits="userSpaceOnUse">
<stop stop-color="#4CA1DA"/>
<stop offset="1" stop-color="#169CBA" stop-opacity="0.61"/>
</linearGradient>
</defs>
</svg>
