<svg width="1920" height="846" viewBox="0 0 1920 846" fill="none" xmlns="http://www.w3.org/2000/svg">
<path fill-rule="evenodd" clip-rule="evenodd" d="M52.8 54.6378L0 78.6805V254V259V546V562V630.654L46.4 637.709L47.9809 637.958L47.9819 637.958C93.3214 645.094 183.461 659.282 273.6 694.145C302.099 704.977 330.448 717.806 358.691 730.587L358.693 730.588C422.417 759.424 485.609 788.02 548.8 792.908C612.64 797.846 676.48 778.587 740.32 759.328C767.68 751.075 795.04 742.821 822.4 736.472C913.6 715.308 1006.4 715.308 1097.6 743.526C1134.08 754.814 1170.56 770.615 1207.04 786.417L1207.04 786.418C1261.76 810.121 1316.48 833.824 1371.2 842.29C1462.4 856.399 1553.6 828.181 1646.4 792.908C1737.6 757.635 1828.8 715.308 1873.6 694.145L1920 672.981V562V546V259V254V222.936L1867.2 198.893C1865.71 198.233 1864.17 197.554 1862.6 196.859C1807 172.245 1704.25 126.766 1600 126.766C1552.32 126.766 1504.96 136.278 1457.63 145.783C1398.55 157.649 1339.52 169.504 1280 162.83C1231.23 157.36 1182.79 139.451 1134.38 121.552C1076.38 100.108 1018.43 78.6805 960 78.6805C910.497 78.6805 861.335 94.0613 812.199 109.434C754.93 127.351 697.697 145.257 640 138.787C582.322 132.319 525.107 101.491 467.857 70.6436C418.702 44.1584 369.522 17.6593 320 6.55263C214.807 -17.0398 111.155 28.8198 55.9093 53.2627C54.8551 53.7291 53.8186 54.1877 52.8 54.6378Z" fill="url(#paint0_linear)"/>
<defs>
<linearGradient id="paint0_linear" x1="800" y1="354" x2="2372" y2="522" gradientUnits="userSpaceOnUse">
<stop stop-color="#4CA1DA"/>
<stop offset="1" stop-color="#169CBA" stop-opacity="0.61"/>
</linearGradient>
</defs>
</svg>
