<svg width="1364" height="1327" viewBox="0 0 1364 1327" fill="none" xmlns="http://www.w3.org/2000/svg">
<g id="Technology Flat Illustration">
<g id="Group" opacity="0.1">
<path id="Vector" opacity="0.1" d="M1033.16 513.307C1005.69 497.557 961.135 498.291 934.18 514.975L565.004 743.018C538.049 759.702 538.483 786.181 565.971 801.947L875.901 979.587C903.389 995.337 947.925 994.603 974.879 977.918L1344.07 749.792C1371.03 733.107 1370.58 706.613 1343.09 690.862L1033.16 513.307Z" fill="#334752"/>
</g>
<path id="Vector_2" d="M930.995 190.63L604.102 2.44587C600.999 0.417874 597.256 -0.390356 593.593 0.176787C586.237 1.21122 576.913 7.05078 566.055 12.7235C566.01 12.7414 565.97 12.7701 565.938 12.8069C562.469 14.7256 560.284 18.9301 560.284 24.9532V761.404C560.284 773.267 568.623 787.816 578.982 793.739L905.908 981.922C908.706 983.699 911.991 984.551 915.299 984.358C920.303 984.192 926.708 982.106 934.731 978.135C941.603 974.448 944.889 971.645 946.407 969.693L946.707 969.326C948.793 966.475 949.835 962.993 949.659 959.465V222.997C949.693 211.101 941.269 196.553 930.995 190.63Z" fill="#E6E4EB"/>
<path id="Vector_3" d="M924.523 234.677C924.523 222.814 916.183 208.248 905.824 202.342L578.898 14.1583C568.657 8.21866 560.233 13.0905 560.233 24.9531V761.404C560.233 773.267 568.573 787.816 578.932 793.739L905.858 981.922C916.149 987.845 924.556 982.974 924.556 971.111L924.523 234.677Z" fill="#314584"/>
<path id="Vector_4" d="M715.79 825.856C711.837 823.571 708.601 825.439 708.601 830.011V845.027C708.739 847.518 709.462 849.941 710.711 852.101C711.96 854.26 713.7 856.095 715.79 857.457L754.454 879.714C758.391 881.983 761.627 880.114 761.627 875.559V860.443C761.486 857.957 760.764 855.538 759.519 853.382C758.273 851.226 756.538 849.393 754.454 848.03L715.79 825.856Z" fill="#5767C7"/>
<path id="Vector_5" d="M578.581 67.8322C574.295 65.3629 570.792 67.3984 570.792 72.337V717.791C570.941 720.49 571.725 723.115 573.078 725.454C574.431 727.794 576.317 729.781 578.581 731.256L904.507 918.889C908.793 921.358 912.296 919.339 912.296 914.384V268.93C912.144 266.232 911.36 263.607 910.007 261.268C908.653 258.93 906.769 256.942 904.507 255.465L578.581 67.8322Z" fill="#C7E6FF"/>
<path id="Vector_6" d="M697.993 102.069C695.09 100.4 692.705 101.768 692.705 105.122V110.411C692.804 112.246 693.334 114.032 694.253 115.624C695.172 117.215 696.453 118.568 697.993 119.571L789.565 172.277C792.484 173.945 794.87 172.577 794.87 169.223V163.935C794.769 162.098 794.236 160.311 793.315 158.719C792.393 157.127 791.108 155.776 789.565 154.775L697.993 102.069Z" fill="#5768C8"/>
<path id="Vector_7" d="M928.693 537.382C928.693 541.687 931.695 543.355 935.365 541.103L938.2 539.351C940.145 538 941.756 536.223 942.912 534.156C944.068 532.089 944.738 529.786 944.872 527.422V496.706C944.872 492.384 941.87 490.716 938.2 492.968L935.365 494.72C933.422 496.073 931.812 497.85 930.656 499.917C929.5 501.983 928.829 504.286 928.693 506.65V537.382Z" fill="#334787"/>
<path id="Vector_8" d="M724.447 76.6082C722.509 75.6349 720.365 75.142 718.197 75.1711C716.028 75.2001 713.899 75.7502 711.987 76.775L711.387 77.1588C708.051 79.2443 708.051 82.5812 711.504 84.5667L784.895 126.828C786.828 127.811 788.971 128.308 791.139 128.276C793.308 128.244 795.435 127.684 797.338 126.645L797.939 126.278C801.275 124.192 801.275 120.855 797.839 118.87L724.447 76.6082Z" fill="#334787"/>
<path id="Vector_9" d="M928.693 440.396C928.693 444.7 931.695 446.385 935.365 444.133L938.2 442.364C940.145 441.013 941.756 439.237 942.912 437.17C944.068 435.103 944.738 432.8 944.872 430.435V307.437C944.872 303.133 941.87 301.448 938.2 303.717L935.365 305.469C933.42 306.82 931.809 308.597 930.653 310.663C929.497 312.73 928.827 315.033 928.693 317.398V440.396Z" fill="#334787"/>
<path id="Vector_10" d="M590.14 60.0739C593.96 65.9468 600.299 68.5997 604.302 65.9969C608.305 63.3941 608.455 56.5201 604.635 50.6472C600.816 44.7743 594.477 42.1215 590.474 44.7242C586.471 47.327 586.321 54.201 590.14 60.0739Z" fill="#5768C8"/>
<path id="Vector_11" d="M613.726 72.3036C614.71 73.8052 616.328 74.4726 617.345 73.8052C618.363 73.1378 618.413 71.3859 617.446 69.8843C616.478 68.3827 614.843 67.7154 613.826 68.3661C612.809 69.0167 612.759 70.802 613.726 72.3036Z" fill="#5768C8"/>
<path id="Vector_12" d="M891.53 231.99C892.964 234.209 895.366 235.21 896.867 234.226C898.369 233.242 898.435 230.656 897.001 228.437C895.566 226.218 893.164 225.2 891.647 226.184C890.129 227.169 890.079 229.771 891.53 231.99Z" fill="#5768C8"/>
<path id="Vector_13" opacity="0.1" d="M336.222 777.171C336.222 795.057 311.202 809.539 280.495 809.539C249.787 809.539 224.784 795.057 224.784 777.171C224.784 759.285 249.72 744.82 280.495 744.82C311.269 744.82 336.222 759.302 336.222 777.171Z" fill="#334752"/>
<path id="Vector_14" d="M331.986 719.309L307.383 717.274L289.852 715.706L253.807 716.84L230.872 718.408L227.169 720.878L233.624 773.817C233.624 788.566 254.207 800.513 279.594 800.513C304.214 800.513 324.313 789.284 325.531 775.169L331.986 719.309Z" fill="#C3D0D8"/>
<path id="Vector_15" d="M332.002 720.277C332.002 735.46 308.534 747.773 279.594 747.773C250.654 747.773 227.202 735.46 227.202 720.277C227.202 705.094 250.654 692.781 279.594 692.781C308.534 692.781 332.002 705.178 332.002 720.277Z" fill="#EDF2F6"/>
<path id="Vector_16" opacity="0.2" d="M313.754 720.277C313.754 730.171 298.459 738.196 279.594 738.196C260.729 738.196 245.45 730.171 245.45 720.277C245.45 710.383 260.746 702.358 279.594 702.358C298.442 702.358 313.754 710.383 313.754 720.277Z" fill="#334752"/>
<path id="Vector_17" d="M310.118 629.547C309.932 621.575 306.635 613.993 300.933 608.42C295.23 602.848 287.574 599.728 279.602 599.728C271.63 599.728 263.975 602.848 258.272 608.42C252.57 613.993 249.273 621.575 249.086 629.547V720.06C249.086 720.06 249.086 720.21 249.086 720.277C249.086 729.137 262.764 736.311 279.627 736.311C296.491 736.311 310.185 729.137 310.185 720.277C310.185 720.277 310.185 720.127 310.185 720.06V629.547H310.118Z" fill="url(#paint0_linear)"/>
<path id="Vector_18" d="M279.594 599.665C271.613 599.668 263.95 602.797 258.248 608.383C252.545 613.968 249.257 621.566 249.086 629.547V630.215C253.079 632.595 257.277 634.61 261.63 636.238C280.195 644.029 290.386 636.238 299.376 644.33C303.284 647.863 306.899 651.707 310.185 655.825V629.547C310.01 621.553 306.709 613.945 300.989 608.358C295.27 602.771 287.588 599.65 279.594 599.665Z" fill="url(#paint1_linear)"/>
<path id="Vector_19" d="M310.152 720.277C310.152 720.277 310.152 720.127 310.152 720.06V646.131C308.117 655.224 304.447 663.867 290.953 667.704C266.684 674.595 265.183 690.779 249.604 701.257L249.053 701.641V719.994C249.053 719.994 249.053 720.144 249.053 720.21C249.053 729.07 262.731 736.244 279.594 736.244C296.457 736.244 310.152 729.137 310.152 720.277Z" fill="url(#paint2_linear)"/>
<path id="Vector_20" opacity="0.1" d="M1269.93 960.55C1269.93 978.436 1244.91 992.918 1214.22 992.918C1183.53 992.918 1158.51 978.436 1158.51 960.55C1158.51 942.664 1183.53 928.182 1214.22 928.182C1244.91 928.182 1269.93 942.681 1269.93 960.55Z" fill="#334752"/>
<path id="Vector_21" d="M1265.79 902.688L1241.19 900.653L1223.66 899.084L1187.6 900.202L1164.68 901.871L1160.98 904.34L1167.38 957.196C1167.38 971.945 1187.97 983.891 1213.35 983.891C1237.97 983.891 1258.07 972.663 1259.27 958.531L1265.79 902.688Z" fill="#C3D0D8"/>
<path id="Vector_22" d="M1265.79 903.723C1265.79 918.905 1242.32 931.219 1213.39 931.219C1184.45 931.219 1160.99 918.905 1160.99 903.723C1160.99 888.54 1184.45 876.227 1213.39 876.227C1242.32 876.227 1265.79 888.473 1265.79 903.723Z" fill="#EDF2F6"/>
<path id="Vector_23" opacity="0.2" d="M1247.45 903.723C1247.45 913.616 1232.17 921.642 1213.3 921.642C1194.44 921.642 1179.16 913.616 1179.16 903.723C1179.16 893.829 1194.44 885.803 1213.3 885.803C1232.17 885.803 1247.45 893.712 1247.45 903.723Z" fill="#334752"/>
<path id="Vector_24" d="M1243.84 812.926C1243.84 804.828 1240.63 797.062 1234.9 791.336C1229.18 785.61 1221.41 782.393 1213.32 782.393C1205.22 782.393 1197.46 785.61 1191.73 791.336C1186.01 797.062 1182.79 804.828 1182.79 812.926V903.439C1182.79 903.439 1182.79 903.589 1182.79 903.656C1182.79 912.515 1196.47 919.69 1213.35 919.69C1230.23 919.69 1243.91 912.515 1243.91 903.656C1243.91 903.656 1243.91 903.506 1243.91 903.439V812.926H1243.84Z" fill="url(#paint3_linear)"/>
<path id="Vector_25" d="M1213.32 783.044C1205.34 783.046 1197.67 786.175 1191.97 791.76C1186.26 797.345 1182.97 804.943 1182.79 812.926V813.627C1186.78 816.016 1190.98 818.037 1195.34 819.666C1213.92 827.458 1224.09 819.666 1233.1 827.758C1237.01 831.292 1240.62 835.136 1243.91 839.254V812.926C1243.73 804.931 1240.43 797.324 1234.71 791.737C1228.99 786.15 1221.31 783.029 1213.32 783.044Z" fill="url(#paint4_linear)"/>
<path id="Vector_26" d="M1243.88 903.723C1243.88 903.723 1243.88 903.572 1243.88 903.506V829.51C1241.82 838.587 1238.15 847.246 1224.66 851.083C1200.41 857.974 1198.91 874.158 1183.33 884.636L1182.76 885.019V903.372C1182.76 903.372 1182.76 903.522 1182.76 903.589C1182.76 912.449 1196.44 919.623 1213.32 919.623C1230.2 919.623 1243.88 912.515 1243.88 903.723Z" fill="url(#paint5_linear)"/>
<path id="Vector_27" opacity="0.1" d="M1084.7 1081.28L1016.8 1042.35C1016.4 1042.12 1016 1041.92 1015.58 1041.72L949.909 1004.08C946.535 1002.38 942.799 1001.53 939.022 1001.59C935.246 1001.66 931.541 1002.64 928.226 1004.45L847.328 1054.5C841.423 1058.14 841.523 1063.96 847.545 1067.4L915.516 1106.25C915.899 1106.49 916.316 1106.69 916.733 1106.89L982.402 1144.53C985.777 1146.22 989.511 1147.07 993.287 1147.01C997.062 1146.95 1000.77 1145.98 1004.09 1144.18L1084.98 1094.13C1090.82 1090.59 1090.65 1084.72 1084.7 1081.28Z" fill="#334752"/>
<path id="Vector_28" d="M1004.45 1027.85C1004.32 1025.54 1003.65 1023.29 1002.49 1021.29C1001.33 1019.28 999.719 1017.58 997.781 1016.31L859.688 936.808C859.107 936.424 858.455 936.16 857.77 936.031C857.086 935.902 856.382 935.911 855.701 936.057C852.615 937.015 849.716 938.493 847.128 940.428C846.488 940.922 845.985 941.569 845.664 942.31C845.343 943.052 845.215 943.862 845.293 944.666V1052.71C845.423 1055.03 846.094 1057.28 847.253 1059.29C848.412 1061.3 850.026 1063.01 851.965 1064.28L990.058 1143.76C991.054 1144.39 992.218 1144.7 993.394 1144.65C994.96 1144.58 996.479 1144.09 997.797 1143.24C1001.25 1141.18 1002.8 1140.44 1003.59 1139.21C1004.22 1138.21 1004.53 1137.05 1004.47 1135.87L1004.45 1027.85Z" fill="#E6E4EB"/>
<path id="Vector_29" d="M996.73 1031.88C996.599 1029.56 995.926 1027.31 994.768 1025.31C993.609 1023.3 991.996 1021.6 990.058 1020.33L851.965 940.829C848.295 938.727 845.293 940.462 845.293 944.7V1052.75C845.423 1055.06 846.094 1057.32 847.253 1059.32C848.412 1061.33 850.026 1063.04 851.965 1064.31L990.058 1143.79C993.727 1145.91 996.73 1144.18 996.73 1139.94V1031.88Z" fill="url(#paint6_linear)"/>
<path id="Vector_30" d="M939.368 1075.29C947.174 1087.3 960.151 1092.74 968.341 1087.42C976.531 1082.1 976.848 1068.03 969.041 1056C961.235 1043.97 948.258 1038.55 940.052 1043.89C931.845 1049.23 931.562 1063.26 939.368 1075.29Z" fill="#FFE600"/>
<path id="Vector_31" d="M996.73 1139.94V1122.44L965.989 1105.12L937.199 1055.68L922.187 1067.46L891.763 1007.17C891.763 1007.17 859.471 1027.42 845.276 1036.06V1052.75C845.406 1055.06 846.078 1057.32 847.237 1059.32C848.395 1061.33 850.009 1063.04 851.948 1064.31L990.041 1143.79C993.711 1145.91 996.73 1144.18 996.73 1139.94Z" fill="url(#paint7_linear)"/>
<g id="Group_2" opacity="0.1">
<path id="Vector_32" opacity="0.1" d="M83.1881 1030.52L117.999 1009.1C122.336 1006.43 122.369 1002.24 118.249 999.591L54.5487 962.886C51.9894 961.601 49.158 960.953 46.2949 960.996C43.4317 961.04 40.6213 961.774 38.1023 963.136L3.30803 984.642C-1.02875 987.312 -1.07879 991.499 3.02447 994.136L66.7417 1030.84C69.3051 1032.12 72.1399 1032.76 75.0038 1032.7C77.8678 1032.65 80.6758 1031.9 83.1881 1030.52Z" fill="#334752"/>
</g>
<path id="Vector_33" d="M141.918 677.365C139.55 685.123 134.295 703.426 128.574 714.521C123.203 724.949 115.03 736.728 112.228 736.494C109.859 736.111 111.627 735.293 109.059 735.677C106.49 736.061 95.9149 744.286 98.5003 746.255C98.4822 746.348 98.4822 746.445 98.5003 746.538C102.276 750.006 106.866 752.462 111.844 753.679C112.231 753.838 112.644 753.923 113.062 753.93C113.799 753.926 114.513 753.666 115.08 753.195C118.416 751.527 138.215 740.499 145.905 702.758C147.885 692.431 149.31 682.005 150.175 671.525C150.108 669.156 144.27 669.606 141.918 677.365Z" fill="url(#paint8_linear)"/>
<path id="Vector_34" d="M34.9665 886.905C35.1166 887.505 36.7512 905.024 31.6305 937.392C26.5098 969.76 26.393 971.028 25.7925 977.318C25.5257 981.455 32.9816 985.777 39.2699 987.812C45.5582 989.848 58.702 991.149 64.5567 984.993C65.2352 984.006 65.4968 982.792 65.2843 981.614C65.0719 980.436 64.4027 979.389 63.4224 978.703C63.4224 978.703 57.6678 979.303 55.0825 979.236C53.1142 979.136 46.6091 978.702 47.343 975.666C48.0769 972.629 54.6488 937.008 56.2167 918.255C57.7846 899.502 58.8021 879.881 58.8021 879.881L54.8323 870.487L30.563 867.451L34.9665 886.905Z" fill="url(#paint9_linear)"/>
<path id="Vector_35" d="M71.9458 979.837C69.1616 978.586 66.1203 978.014 63.0721 978.169C63.0721 978.169 60.8037 978.519 63.6226 980.304C65.2905 980.988 65.9911 986.461 56.8338 987.829C49.0276 989.063 46.8259 988.797 42.8394 987.712H42.5892C27.0102 983.224 27.3938 972.362 25.6758 974.231C23.5407 976.55 21.339 978.552 21.339 983.891C21.2298 986.577 21.7676 989.249 22.9069 991.683C24.2451 994.977 25.2238 998.406 25.8259 1001.91V1007.25C25.8259 1008.52 26.6599 1008.92 27.9275 1008.92C29.1952 1008.92 30.3795 1008.45 30.3795 1007.25V1000.33C30.5804 998.187 31.1151 996.092 31.9641 994.119C31.9641 994.119 33.4653 991.016 35.4502 994.002C37.4351 996.989 40.4542 1001.76 47.1261 1001.79C53.7981 1001.83 58.5185 999.441 66.4415 993.702C74.3644 987.962 75.8156 981.789 71.9458 979.837Z" fill="#2C4755"/>
<path id="Vector_36" d="M65.524 896.181C65.6741 896.782 67.3087 914.317 62.188 946.685C57.0673 979.053 56.9505 980.321 56.35 986.611C56.0832 990.732 63.5391 995.07 69.8274 997.089C76.1157 999.108 89.2595 1000.43 95.0975 994.286C95.7821 993.303 96.0489 992.089 95.8394 990.909C95.6298 989.73 94.9611 988.682 93.9799 987.996C93.9799 987.996 88.2087 988.596 85.64 988.53C83.6717 988.429 77.1666 987.996 77.9005 984.959C78.6344 981.923 85.2063 946.301 86.7742 927.531C88.3421 908.761 89.3596 889.157 89.3596 889.157L85.323 879.83L61.0538 876.794L65.524 896.181Z" fill="url(#paint10_linear)"/>
<path id="Vector_37" d="M102.503 989.113C99.7122 987.893 96.6702 987.355 93.6297 987.545C93.6297 987.545 91.3613 987.879 94.1802 989.681C95.8482 990.348 96.5487 995.821 87.3915 997.205C79.5853 998.44 77.3835 998.156 73.397 997.089L73.1468 997.005C57.5678 992.534 57.9514 981.656 56.2334 983.541C54.0984 985.843 51.8966 987.862 51.8966 993.201C51.7894 995.886 52.327 998.558 53.4645 1000.99C54.8019 1004.28 55.7805 1007.7 56.3835 1011.2V1016.56C56.3835 1017.81 57.2175 1018.23 58.4852 1018.23C59.7529 1018.23 60.9371 1017.74 60.9371 1016.56V1009.64C61.1646 1007.49 61.7275 1005.4 62.6051 1003.43C62.6051 1003.43 64.1063 1000.31 66.0912 1003.31C68.0761 1006.32 71.0952 1011.07 77.7672 1011.1C84.4391 1011.14 89.1595 1008.75 97.0825 1003.01C105.005 997.272 106.373 991.082 102.503 989.113Z" fill="#2C4755"/>
<path id="Vector_38" d="M35.2667 729.987C35.2667 737.379 50.6456 743.335 22.6233 743.335C15.6511 743.335 11.0642 737.212 9.64638 729.987C4.6424 704.711 15.6511 716.64 22.6233 716.64C26.0684 716.736 29.3346 718.195 31.7051 720.698C34.0755 723.2 35.3564 726.541 35.2667 729.987Z" fill="url(#paint11_linear)"/>
<path id="Vector_39" d="M38.1524 693.766C38.1524 691.663 30.3629 664.101 30.3629 663.65C30.3629 663.2 27.5106 657.16 26.0094 653.99C27.3438 646.715 43.0563 630.999 23.2239 637.989C15.9348 640.626 13.5996 644.38 11.5479 652.555C10.6328 655.9 10.3778 659.39 10.7974 662.833C11.2811 665.068 11.2977 681.519 8.54556 694.967C5.70997 708.898 3.90854 720.144 9.14603 723.33C14.3835 726.517 20.9888 726.183 25.8259 725.733C30.6631 725.282 41.8553 720.494 41.8553 720.494C41.8553 720.494 38.1524 695.868 38.1524 693.766Z" fill="url(#paint12_linear)"/>
<path id="Vector_40" d="M92.0285 748.557C86.9411 740.315 86.9411 740.465 86.9411 735.527C86.989 724.06 87.6404 712.605 88.8927 701.207C90.5606 687.726 95.181 683.822 94.2803 673.944C93.3795 664.067 94.2803 655.358 76.4495 647.716C68.5098 645.664 48.6274 637.122 41.5217 636.454C39.5519 635.929 37.5224 635.659 35.4836 635.654C26.5765 635.654 19.1373 640.576 17.4359 647.082C13.3994 657.46 17.0023 672.109 18.0698 689.828C19.204 708.364 27.3939 732.974 27.8442 734.993C28.2946 737.012 29.5122 739.164 27.5106 741.4C19.0872 751.293 17.069 765.342 17.069 765.342C17.069 765.342 17.069 765.492 17.069 765.742C16.632 768.244 16.4088 770.778 16.4018 773.317C16.4018 774.735 16.5019 776.137 16.6186 777.505C16.5352 782.226 18.2866 786.181 22.8069 800.73C27.9776 825.756 24.4749 881.415 24.4749 881.415C24.4749 889.908 40.4709 896.815 60.2032 896.815C79.9355 896.815 95.9316 889.908 95.9316 881.415C95.9316 881.415 96.3819 801.063 96.8323 789.651C97.2826 778.239 97.1159 756.899 92.0285 748.557Z" fill="url(#paint13_linear)"/>
<path id="Vector_41" d="M133.862 712.602C133.334 713.929 132.303 714.994 130.995 715.566C129.686 716.138 128.205 716.17 126.873 715.656L77.1166 696.252C75.7897 695.723 74.724 694.693 74.1497 693.385C73.5754 692.077 73.5387 690.596 74.0475 689.261L101.086 619.97C101.603 618.639 102.629 617.567 103.936 616.991C105.244 616.416 106.726 616.383 108.058 616.9L157.814 636.304C159.144 636.829 160.212 637.859 160.787 639.168C161.362 640.477 161.396 641.961 160.883 643.295L133.862 712.602Z" fill="#2C4755"/>
<path id="Vector_42" d="M128.841 710.634H128.824H128.808L79.0682 691.23L106.106 621.922L155.846 641.343L128.824 710.634H128.841Z" fill="url(#paint14_linear)"/>
<path id="Vector_43" d="M108.091 728.269C108.091 728.269 105.172 721.912 100.502 712.118C95.6648 702.008 91.2947 691.914 92.8126 685.423C93.6999 681.211 94.2134 676.929 94.3471 672.626C94.3471 671.959 94.4305 671.292 94.4305 670.608C94.4305 660.146 87.8586 651.654 79.7522 651.654C71.996 651.654 65.6743 659.412 65.1239 669.239C63.6227 683.405 73.4639 706.212 76.8832 711.968C80.3026 717.724 87.9587 735.327 89.5433 739.014C91.1279 742.701 96.1319 747.356 99.718 748.157C103.304 748.958 109.092 740.649 111.177 737.662C112.562 735.794 108.091 728.269 108.091 728.269Z" fill="url(#paint15_linear)"/>
<path id="Vector_44" d="M69.9776 627.912L68.9768 626.394L64.1397 621.856L54.1317 621.288L46.3255 622.957C46.3255 622.957 47.343 625.159 46.8926 630.498C46.7061 633.387 46.1108 636.235 45.1246 638.957C44.8732 639.282 44.6966 639.658 44.6075 640.058C44.0737 642.861 48.4439 646.065 54.3652 647.199C60.2866 648.334 65.5241 646.999 66.0412 644.196C66.091 643.926 66.091 643.649 66.0412 643.379C66.1246 642.511 66.208 641.176 66.2914 638.974C66.5655 635.034 67.8338 631.228 69.9776 627.912Z" fill="url(#paint16_linear)"/>
<path id="Vector_45" d="M97.0491 577.508C97.3326 580.311 97.4327 591.356 97.4327 594.41C97.4327 611.795 92.4287 624.825 83.8052 627.195C56.3167 634.436 49.6448 620.187 49.6448 602.802C49.6448 585.417 81.3366 562.943 87.0245 562.943C91.7615 562.943 95.7981 564.428 97.0491 577.508Z" fill="url(#paint17_linear)"/>
<path id="Vector_46" d="M97.883 572.319C97.883 573.871 97.7662 578.993 96.215 578.993C89.3929 578.826 84.2388 581.98 86.2071 590.339C87.6082 596.078 85.9235 606.306 79.0847 621.388C77.1666 625.66 81.6368 632.484 78.6511 632.484C77.6002 632.484 75.165 631.316 75.1149 625.142C75.1149 617.084 79.0848 611.061 79.5351 609.109C84.022 592.758 71.4787 594.81 69.6606 597.646C67.1253 601.601 62.6884 606.723 70.0276 613.764C76.1157 619.587 59.4025 627.962 54.632 626.644C41.8552 623.107 41.605 629.397 39.3532 632.267C27.794 646.999 29.9624 583.715 29.9624 572.336C29.9624 560.957 42.6725 552.932 61.4207 552.932C80.1689 552.932 97.883 560.941 97.883 572.319Z" fill="url(#paint18_linear)"/>
<path id="Vector_47" d="M53.8483 578.009C53.8483 586.351 47.7267 593.225 40.1707 593.225C32.6147 593.225 26.5099 586.401 26.5099 578.009C26.5099 569.617 32.6314 562.793 40.1707 562.793C47.7101 562.793 53.8483 569.6 53.8483 578.009Z" fill="url(#paint19_linear)"/>
<path id="Vector_48" d="M46.8092 603.703C49.0443 585.433 49.1443 582.514 48.6439 579.594C47.91 573.404 43.273 568.649 37.6519 568.649C32.0308 568.649 29.0451 573.654 26.6598 579.427C26.6598 579.427 13.7329 609.543 16.435 639.207C19.1372 668.872 18.6702 670.524 33.5153 696.452C39.5034 708.882 40.1872 710.083 39.8036 714.805C39.42 719.526 43.3898 722.146 44.1404 712.269C44.891 702.391 45.6416 690.095 38.9029 670.007C35.6031 659.659 35.3426 648.581 38.1523 638.09C40.3707 629.18 43.5065 621.372 46.8092 603.703Z" fill="url(#paint20_linear)"/>
<g id="Group_3" opacity="0.1">
<path id="Vector_49" opacity="0.1" d="M814.051 513.307C808.897 510.354 804.694 512.773 804.694 518.712V759.385C804.873 762.627 805.814 765.78 807.439 768.589C809.065 771.398 811.331 773.784 814.051 775.553L899.603 824.805C904.74 827.775 908.944 825.339 908.944 819.399V578.676C908.76 575.438 907.819 572.289 906.197 569.481C904.575 566.673 902.316 564.285 899.603 562.509L814.051 513.307Z" fill="#334752"/>
</g>
<path id="Vector_50" d="M883.123 573.971L797.572 524.719C794.97 523.217 792.568 523.05 790.9 524.118C786.253 525.819 781.784 527.97 777.556 530.542C775.788 531.493 774.67 533.595 774.67 536.648V777.371C774.854 780.609 775.795 783.759 777.417 786.567C779.039 789.375 781.298 791.763 784.011 793.539L869.579 842.791C870.724 843.488 872.014 843.91 873.349 844.026C874.016 844.126 877.502 844.343 883.623 840.605C886.859 838.553 888.527 837.535 889.345 837.052C889.573 836.944 889.79 836.815 889.995 836.668C890.806 835.957 891.438 835.066 891.841 834.066C892.244 833.066 892.406 831.986 892.314 830.912V590.139C892.155 586.912 891.24 583.768 889.644 580.96C888.048 578.152 885.814 575.758 883.123 573.971Z" fill="#E6E4EB"/>
<path id="Vector_51" d="M784.078 531.243C778.94 528.273 774.737 530.709 774.737 536.648V777.371C774.921 780.609 775.861 783.759 777.484 786.567C779.106 789.375 781.365 791.763 784.078 793.539L869.646 842.791C874.783 845.744 878.986 843.308 878.986 837.385V596.729C878.804 593.493 877.864 590.345 876.241 587.54C874.619 584.734 872.359 582.35 869.646 580.578L784.078 531.243Z" fill="#EDF2F6"/>
<path id="Vector_52" d="M801.408 601.901L840.489 624.408V605.071L801.408 582.564V601.901Z" fill="#6A6D89"/>
<path id="Vector_53" d="M864.608 689.578V670.24L797.355 631.516V650.87L864.608 689.578Z" fill="#6A6D89"/>
<path id="Vector_54" d="M845.894 686.575L785.979 652.088V671.425L845.894 705.912V686.575Z" fill="#6A6D89"/>
<path id="Vector_55" d="M797.355 705.094L864.608 743.819V724.482L797.355 685.757V705.094Z" fill="#6A6D89"/>
<path id="Vector_56" d="M785.979 725.666L864.608 770.931V751.594L785.979 706.329V725.666Z" fill="#6A6D89"/>
<path id="Vector_57" d="M785.979 733.441V752.778L824.76 775.119V755.765L785.979 733.441Z" fill="#6A6D89"/>
<g id="Group_4" opacity="0.1">
<path id="Vector_58" opacity="0.1" d="M620.281 162.666C615.144 159.697 610.94 162.133 610.94 168.072V408.795C611.121 412.034 612.061 415.185 613.684 417.993C615.306 420.801 617.566 423.189 620.281 424.963L705.849 474.215C710.986 477.168 715.19 474.749 715.19 468.809V228.086C715.01 224.847 714.071 221.696 712.448 218.887C710.826 216.079 708.565 213.692 705.849 211.919L620.281 162.666Z" fill="#334752"/>
</g>
<path id="Vector_59" d="M689.302 223.381L603.751 174.129C601.149 172.627 598.747 172.46 597.079 173.528C592.433 175.229 587.963 177.38 583.735 179.952C581.951 180.903 580.85 183.005 580.85 186.042V426.765C581.029 430.004 581.968 433.155 583.591 435.963C585.214 438.772 587.475 441.159 590.19 442.932L675.758 492.201C676.902 492.9 678.193 493.323 679.528 493.436C680.195 493.519 683.681 493.753 689.803 489.999C693.039 487.963 694.707 486.945 695.524 486.462C695.758 486.345 695.958 486.211 696.175 486.078C696.991 485.375 697.629 484.488 698.035 483.49C698.441 482.492 698.604 481.412 698.51 480.338V239.549C698.345 236.321 697.426 233.178 695.827 230.37C694.228 227.562 691.994 225.169 689.302 223.381Z" fill="#E6E4EB"/>
<path id="Vector_60" d="M590.257 180.636C585.12 177.683 580.917 180.118 580.917 186.041V426.765C581.096 430.003 582.035 433.155 583.658 435.963C585.281 438.772 587.541 441.159 590.257 442.932L675.825 492.201C680.963 495.154 685.166 492.718 685.166 486.778V246.055C684.982 242.817 684.042 239.668 682.419 236.86C680.797 234.052 678.538 231.664 675.825 229.888L590.257 180.636Z" fill="#EDF2F6"/>
<path id="Vector_61" d="M607.571 251.311L646.669 273.818V254.464L607.571 231.974V251.311Z" fill="#6A6D89"/>
<path id="Vector_62" d="M670.788 338.988V319.65L603.534 280.926V300.263L670.788 338.988Z" fill="#6A6D89"/>
<path id="Vector_63" d="M652.056 335.984L592.142 301.498V320.835L652.056 355.322V335.984Z" fill="#6A6D89"/>
<path id="Vector_64" d="M603.534 354.504L670.788 393.212V373.875L603.534 335.167V354.504Z" fill="#6A6D89"/>
<path id="Vector_65" d="M592.142 375.076L670.788 420.341V401.004L592.142 355.722V375.076Z" fill="#6A6D89"/>
<path id="Vector_66" d="M592.142 382.851V402.188L630.94 424.529V405.175L592.142 382.851Z" fill="#6A6D89"/>
<path id="Vector_67" opacity="0.1" d="M903.656 461.585L904.19 461.685C904.434 461.71 904.68 461.71 904.924 461.685H905.274C905.499 461.632 905.717 461.554 905.925 461.451C906.699 461.049 907.331 460.419 907.737 459.647C908.142 458.874 908.301 457.996 908.193 457.13V328.36C908.071 326.116 907.421 323.933 906.296 321.987C905.172 320.042 903.604 318.39 901.721 317.164L756.139 233.342C754.037 232.141 752.186 232.257 751.002 233.342L750.668 233.692C750.558 233.847 750.458 234.009 750.368 234.176C750.28 234.309 750.202 234.449 750.134 234.593C750.036 234.825 749.958 235.065 749.901 235.311C749.901 235.444 749.817 235.578 749.784 235.728C749.701 236.173 749.662 236.626 749.667 237.079V365.766C749.792 368.009 750.443 370.192 751.567 372.137C752.692 374.081 754.258 375.734 756.139 376.961L835.719 422.777L875.751 445.868L888.344 453.126L888.811 453.393L901.638 460.784C902.048 461.017 902.477 461.212 902.922 461.368L903.656 461.585Z" fill="#334752"/>
<path id="Vector_68" d="M883.99 328.226L738.391 244.42C737.296 243.695 735.964 243.42 734.672 243.653C732.503 244.438 730.377 245.335 728.3 246.339C725.984 247.2 723.813 248.41 721.862 249.926C721.317 250.422 720.894 251.037 720.626 251.722C720.357 252.408 720.249 253.146 720.31 253.88V382.567C720.435 384.811 721.086 386.993 722.211 388.938C723.335 390.883 724.901 392.535 726.782 393.763L849.213 464.271L859.538 470.194L872.365 477.569C873.009 478.026 873.759 478.311 874.545 478.396C875.33 478.48 876.125 478.362 876.851 478.052C877.602 477.836 878.903 477.435 881.038 476.651C883.895 475.736 886.519 474.21 888.727 472.18C889.317 471.693 889.778 471.068 890.069 470.361C890.359 469.654 890.472 468.886 890.395 468.125V339.438C890.277 337.199 889.636 335.019 888.523 333.072C887.411 331.125 885.859 329.465 883.99 328.226Z" fill="url(#paint21_linear)"/>
<path id="Vector_69" d="M874.299 478.269C874.483 478.269 874.666 478.369 874.833 478.386C875.077 478.411 875.323 478.411 875.567 478.386C875.683 478.403 875.801 478.403 875.917 478.386C876.142 478.339 876.36 478.266 876.568 478.169C877.337 477.762 877.966 477.131 878.37 476.36C878.775 475.589 878.938 474.713 878.836 473.848V345.144C878.71 342.899 878.059 340.715 876.935 338.768C875.811 336.82 874.245 335.164 872.365 333.932L726.782 250.126C724.681 248.925 722.829 249.042 721.645 250.126C721.525 250.235 721.414 250.352 721.311 250.477C721.188 250.623 721.087 250.786 721.011 250.961C720.923 251.094 720.845 251.233 720.778 251.378C720.683 251.605 720.604 251.839 720.544 252.078C720.544 252.229 720.461 252.345 720.427 252.496C720.343 252.947 720.304 253.405 720.31 253.864V382.551C720.435 384.794 721.086 386.976 722.211 388.921C723.335 390.866 724.901 392.519 726.782 393.746L806.362 439.561L846.394 462.653L859.004 469.91L859.471 470.177L872.298 477.552C872.707 477.79 873.137 477.991 873.582 478.153C873.816 478.269 874.083 478.269 874.299 478.269Z" fill="url(#paint22_linear)"/>
<path id="Vector_70" d="M818.672 393.996C829.597 410.831 847.779 418.439 859.254 410.964C870.73 403.49 871.164 383.835 860.222 367.001C849.28 350.166 831.115 342.541 819.64 350.016C808.164 357.491 807.73 377.162 818.672 393.996Z" fill="#FFE600"/>
<path id="Vector_71" d="M870.029 444.767L829.58 375.543L808.614 392.027L766.08 307.521C766.08 307.521 741.26 323.104 720.36 336.085V382.567C720.485 384.811 721.136 386.993 722.26 388.938C723.385 390.883 724.951 392.535 726.832 393.763L806.412 439.578L846.444 462.669L859.054 469.927L859.521 470.194L872.348 477.569C872.757 477.806 873.187 478.007 873.632 478.169C873.849 478.169 874.066 478.253 874.283 478.303C874.5 478.353 874.65 478.403 874.816 478.42C875.06 478.445 875.306 478.445 875.55 478.42C875.666 478.436 875.784 478.436 875.901 478.42C876.125 478.372 876.343 478.3 876.551 478.203C877.321 477.795 877.949 477.164 878.354 476.393C878.759 475.622 878.921 474.746 878.82 473.881V449.739L870.029 444.767Z" fill="#6A6D89"/>
<path id="Vector_72" opacity="0.1" d="M748.049 755.848C748.16 755.855 748.272 755.855 748.383 755.848C748.538 755.865 748.695 755.865 748.85 755.848H749.067C749.211 755.822 749.351 755.778 749.484 755.715C749.972 755.458 750.371 755.059 750.627 754.57C750.883 754.082 750.985 753.526 750.918 752.979V671.509C750.841 670.087 750.428 668.704 749.715 667.472C749.002 666.239 748.009 665.193 746.815 664.418L654.625 611.344C654.154 610.96 653.565 610.749 652.957 610.749C652.349 610.749 651.76 610.96 651.289 611.344L651.072 611.561C651.072 611.645 650.955 611.762 650.889 611.862L650.739 612.129C650.676 612.274 650.626 612.425 650.588 612.579C650.588 612.662 650.588 612.746 650.588 612.846C650.562 613.129 650.562 613.414 650.588 613.697V695.167C650.67 696.588 651.084 697.969 651.797 699.201C652.509 700.432 653.501 701.48 654.692 702.258L705.082 731.272L730.368 745.971L738.358 750.576L738.658 750.743L746.765 755.415C747.022 755.568 747.296 755.691 747.582 755.782L748.049 755.848Z" fill="#334752"/>
<path id="Vector_73" d="M735.589 671.425L643.383 618.419C642.686 617.971 641.848 617.798 641.031 617.935C640.714 617.935 640.147 618.302 636.994 619.603C635.526 620.151 634.149 620.915 632.908 621.872C632.566 622.188 632.299 622.577 632.129 623.011C631.958 623.444 631.888 623.911 631.924 624.375V705.845C632.005 707.266 632.419 708.647 633.132 709.879C633.844 711.11 634.836 712.158 636.027 712.936L713.555 757.583L720.11 761.337L728.233 766.009C728.64 766.301 729.114 766.481 729.611 766.534C730.109 766.587 730.611 766.509 731.069 766.309C731.553 766.176 732.37 765.926 733.721 765.425C735.529 764.84 737.19 763.873 738.592 762.589C738.975 762.287 739.277 761.893 739.469 761.444C739.662 760.996 739.738 760.506 739.693 760.019V678.483C739.606 677.068 739.19 675.693 738.477 674.467C737.765 673.242 736.776 672.2 735.589 671.425Z" fill="url(#paint23_linear)"/>
<path id="Vector_74" d="M729.451 766.476C729.568 766.484 729.685 766.484 729.801 766.476C729.951 766.493 730.102 766.493 730.252 766.476H730.485C730.623 766.447 730.758 766.402 730.886 766.343C731.373 766.084 731.77 765.685 732.026 765.197C732.282 764.708 732.384 764.154 732.32 763.607V682.136C732.242 680.717 731.831 679.336 731.121 678.104C730.411 676.872 729.422 675.825 728.234 675.046L636.027 621.972C635.567 621.607 634.997 621.408 634.409 621.408C633.822 621.408 633.251 621.607 632.791 621.972L632.574 622.189C632.494 622.28 632.427 622.381 632.374 622.49L632.224 622.757C632.167 622.903 632.123 623.053 632.091 623.207C632.053 623.293 632.025 623.382 632.007 623.474C631.979 623.757 631.979 624.042 632.007 624.325V705.845C632.089 707.266 632.503 708.647 633.215 709.879C633.928 711.11 634.92 712.158 636.11 712.936L686.434 741.883L711.821 756.499L719.794 761.087L720.094 761.271L728.217 765.942C728.468 766.096 728.737 766.219 729.018 766.309L729.451 766.476Z" fill="url(#paint24_linear)"/>
<path id="Vector_75" opacity="0.1" d="M702.213 607.524H702.546C702.702 607.541 702.858 607.541 703.013 607.524H703.247C703.385 607.494 703.519 607.45 703.647 607.39C704.134 607.132 704.532 606.732 704.788 606.244C705.044 605.756 705.146 605.202 705.082 604.654V523.184C705.004 521.762 704.592 520.379 703.879 519.147C703.166 517.915 702.172 516.868 700.978 516.093L608.789 463.02C608.318 462.635 607.729 462.425 607.121 462.425C606.513 462.425 605.923 462.635 605.453 463.02C605.381 463.093 605.314 463.171 605.252 463.253C605.176 463.341 605.109 463.436 605.052 463.537L604.902 463.821C604.84 463.959 604.795 464.105 604.769 464.254C604.761 464.349 604.761 464.444 604.769 464.538C604.714 464.818 604.686 465.103 604.685 465.389V546.893C604.767 548.313 605.181 549.695 605.893 550.926C606.606 552.158 607.598 553.205 608.789 553.983L659.195 582.998L684.582 597.613L692.572 602.218L692.872 602.385L700.978 607.057C701.239 607.203 701.513 607.326 701.796 607.424L702.213 607.524Z" fill="#334752"/>
<path id="Vector_76" d="M689.753 523.1L597.546 470.027C596.854 469.569 596.012 469.395 595.195 469.543C593.82 470.026 592.472 470.583 591.158 471.212C589.692 471.752 588.318 472.517 587.088 473.481C586.741 473.794 586.47 474.182 586.297 474.616C586.123 475.05 586.051 475.518 586.087 475.984V557.52C586.169 558.941 586.583 560.323 587.295 561.554C588.008 562.786 589 563.833 590.191 564.611L667.735 609.259L674.274 613.013L682.397 617.685C682.803 617.976 683.278 618.157 683.775 618.21C684.272 618.262 684.774 618.185 685.233 617.985C685.716 617.851 686.534 617.584 687.885 617.101C689.693 616.516 691.354 615.548 692.755 614.264C693.139 613.962 693.441 613.569 693.633 613.12C693.825 612.671 693.902 612.181 693.856 611.695V530.191C693.775 528.771 693.361 527.389 692.648 526.157C691.936 524.926 690.944 523.879 689.753 523.1Z" fill="url(#paint25_linear)"/>
<path id="Vector_77" d="M683.665 618.152H684.015C684.165 618.168 684.316 618.168 684.465 618.152H684.699C684.84 618.124 684.975 618.073 685.099 618.002C685.592 617.754 685.997 617.36 686.257 616.872C686.517 616.385 686.619 615.83 686.55 615.282V533.812C686.469 532.391 686.055 531.01 685.342 529.778C684.63 528.546 683.638 527.499 682.447 526.721L590.257 473.648C589.796 473.285 589.226 473.088 588.639 473.088C588.052 473.088 587.483 473.285 587.021 473.648L586.804 473.865C586.732 473.961 586.665 474.061 586.604 474.165L586.454 474.449C586.397 474.595 586.353 474.746 586.321 474.899C586.285 474.98 586.258 475.064 586.237 475.149C586.21 475.438 586.21 475.728 586.237 476.017V557.52C586.319 558.941 586.733 560.323 587.445 561.554C588.158 562.786 589.15 563.833 590.341 564.611L640.747 593.626L666.134 608.241L674.107 612.829L674.407 613.013L682.53 617.685C682.786 617.831 683.054 617.954 683.331 618.052L683.665 618.152Z" fill="url(#paint26_linear)"/>
<path id="Vector_78" d="M649.721 136.455L504.122 52.6327C503.024 51.9157 501.695 51.6415 500.403 51.8652C499.902 51.8652 499.001 52.4492 494.031 54.5514C491.711 55.4126 489.54 56.6283 487.592 58.1552C487.047 58.6472 486.621 59.2582 486.349 59.941C486.077 60.6238 485.966 61.3601 486.025 62.0928V190.78C486.151 193.027 486.805 195.212 487.932 197.16C489.059 199.108 490.628 200.763 492.513 201.992L590.091 258.152L612.258 320.468L625.268 313.794V278.406L638.095 285.798C638.739 286.257 639.491 286.542 640.277 286.624C641.063 286.706 641.858 286.582 642.582 286.265C643.333 286.065 644.634 285.664 646.769 284.88C649.628 283.961 652.252 282.429 654.458 280.392C655.05 279.907 655.512 279.283 655.803 278.575C656.095 277.868 656.205 277.099 656.126 276.338V147.651C656.01 145.413 655.37 143.234 654.257 141.289C653.145 139.345 651.591 137.689 649.721 136.455Z" fill="url(#paint27_linear)"/>
<path id="Vector_79" d="M638.095 142.161L492.513 58.3555C488.943 56.3033 486.025 57.9884 486.025 62.0928V190.78C486.151 193.027 486.805 195.212 487.932 197.16C489.059 199.108 490.628 200.763 492.513 201.992L572.093 247.791L612.125 320.685V270.882L638.029 285.798C641.598 287.85 644.5 286.148 644.5 282.044V153.357C644.386 151.119 643.746 148.939 642.633 146.995C641.521 145.05 639.966 143.394 638.095 142.161Z" fill="url(#paint28_linear)"/>
<path id="Vector_80" d="M542.553 179.718L527.257 160.481C526.817 159.977 526.446 159.416 526.156 158.812C525.947 158.351 525.839 157.851 525.839 157.344V156.443C525.804 156.039 525.916 155.636 526.156 155.309C526.451 155.003 526.838 154.804 527.257 154.741L542.553 151.405H543.036C543.278 151.377 543.522 151.424 543.737 151.538C544.03 151.7 544.282 151.929 544.471 152.205C544.653 152.477 544.752 152.796 544.754 153.123V155.275C544.772 155.42 544.757 155.567 544.711 155.706C544.665 155.844 544.589 155.971 544.488 156.076C544.236 156.257 543.944 156.371 543.637 156.41L530.393 159.213L543.637 175.814C543.971 176.22 544.267 176.655 544.521 177.115C544.671 177.434 544.751 177.781 544.754 178.133V180.285C544.754 180.619 544.654 180.853 544.471 180.936C544.357 180.994 544.232 181.025 544.104 181.025C543.976 181.025 543.85 180.994 543.737 180.936C543.279 180.597 542.879 180.185 542.553 179.718Z" fill="white"/>
<path id="Vector_81" d="M549.658 191.781C549.482 191.519 549.384 191.212 549.375 190.897C549.382 190.706 549.428 190.519 549.508 190.346L566.188 156.41C566.258 156.31 566.347 156.226 566.45 156.162C566.553 156.097 566.668 156.055 566.788 156.036C566.908 156.017 567.03 156.023 567.148 156.053C567.266 156.083 567.376 156.136 567.473 156.21L569.274 157.194C569.555 157.35 569.792 157.573 569.964 157.844C570.136 158.116 570.237 158.425 570.258 158.746C570.245 158.932 570.194 159.114 570.108 159.28L553.295 193.099C553.26 193.189 553.207 193.269 553.137 193.336C553.068 193.402 552.985 193.452 552.894 193.483C552.747 193.519 552.594 193.524 552.445 193.498C552.296 193.472 552.153 193.416 552.027 193.333L550.259 192.448C550.014 192.271 549.809 192.043 549.658 191.781Z" fill="white"/>
<path id="Vector_82" d="M575.245 196.719C575.071 196.444 574.973 196.127 574.962 195.802V193.683C574.943 193.412 575.026 193.144 575.195 192.932C575.458 192.744 575.761 192.618 576.079 192.565L589.323 189.962L576.079 173.561C575.763 173.173 575.479 172.761 575.229 172.327C575.049 172 574.957 171.632 574.962 171.259V169.157C574.962 168.84 575.045 168.639 575.229 168.556C575.336 168.498 575.457 168.467 575.579 168.467C575.701 168.467 575.822 168.498 575.929 168.556C576.195 168.728 576.437 168.936 576.647 169.173L577.164 169.724L592.459 188.761C592.888 189.274 593.257 189.833 593.56 190.429C593.766 190.868 593.874 191.346 593.877 191.831V192.698C593.9 193.086 593.788 193.469 593.56 193.783C593.258 194.061 592.869 194.226 592.459 194.25L577.164 197.337C576.763 197.468 576.33 197.468 575.929 197.337C575.659 197.183 575.426 196.972 575.245 196.719Z" fill="white"/>
<g id="Group_5" opacity="0.1">
<path id="Vector_83" opacity="0.1" d="M475.5 860.193C472.685 858.775 469.569 858.059 466.418 858.105C463.267 858.152 460.174 858.959 457.402 860.46L419.138 884.002C414.134 887.038 414.284 891.893 419.288 894.78L544.388 966.773C547.202 968.191 550.318 968.907 553.469 968.861C556.62 968.814 559.714 968.006 562.485 966.506L600.732 942.964C605.736 939.928 605.603 935.073 600.582 932.186L475.5 860.193Z" fill="#334752"/>
</g>
<path id="Vector_84" d="M444.358 576.908L492.163 574.805C492.163 574.805 493.564 567.798 499.168 568.315C504.773 568.832 521.069 568.148 521.069 568.148C521.069 568.148 530.877 566.58 516.165 573.054C501.453 579.527 499.002 581.396 494.481 580.061C491.145 580.228 450.88 593.025 447.377 591.273C443.874 589.521 444.575 584.966 444.575 584.966L444.358 576.908Z" fill="url(#paint29_linear)"/>
<path id="Vector_85" d="M482.505 501.844H474.749C474.749 501.844 460.771 506.066 452.781 530.458C444.792 554.851 440.822 566.397 440.588 571.719C440.355 577.041 438.37 587.469 444.141 590.355C449.913 593.242 454.349 589.905 457.235 586.585C460.121 583.264 458.786 579.711 461.438 572.837C464.09 565.963 465.642 555.752 470.762 552.198C475.883 548.644 482.722 539.334 482.722 539.334L482.505 501.844Z" fill="url(#paint30_linear)"/>
<path id="Vector_86" d="M458.353 882.917L456.268 884.469C455.964 887.093 455.836 889.735 455.884 892.377C456.067 895.313 454.733 898.417 456.268 898.917C457.802 899.418 461.789 900.586 464.608 899.451C467.426 898.317 467.093 895.147 468.811 895.313C470.529 895.48 480.62 892.894 487.492 889.457C494.365 886.02 496.45 881.015 490.828 881.365C485.207 881.716 473.114 883.768 468.344 884.702C467.31 884.919 467.143 884.168 467.143 884.168L465.108 883.851L462.556 883.501L458.353 882.917Z" fill="url(#paint31_linear)"/>
<path id="Vector_87" d="M467.31 884.469C467.31 885.987 464.841 887.222 461.789 887.222C458.736 887.222 456.268 885.987 456.268 884.469C456.268 882.95 458.736 881.716 461.789 881.716C464.841 881.716 467.31 882.934 467.31 884.469Z" fill="#131316"/>
<path id="Vector_88" d="M476.517 652.922C464.474 655.241 467.827 661.865 467.827 668.055C467.827 674.245 464.241 707.147 459.837 750.042C455.784 789.534 457.819 806.769 457.335 837.035C456.951 861.111 455.233 873.54 454.533 877.645C454.344 878.181 454.248 878.745 454.249 879.313C454.249 882.65 457.769 885.503 462.106 885.503C466.442 885.503 469.962 882.734 469.962 879.313C469.962 879.313 474.582 818.932 475.383 812.575C479.436 780.591 490.211 742.334 494.264 728.035C498.318 713.737 515.715 664.051 515.715 664.051C515.715 664.051 503.205 647.8 476.517 652.922Z" fill="url(#paint32_linear)"/>
<path id="Vector_89" d="M497.35 518.312C498.284 516.644 504.689 502.662 505.69 493.519C506.691 484.376 506.241 479.287 506.858 479.087C507.475 478.887 513.129 477.552 513.129 477.552L523.905 483.308L528.909 485.46C528.909 485.46 531.944 493.252 527.891 497.139C518.233 505.765 520.285 526.738 526.757 526.22C527.357 526.22 526.757 533.094 520.385 530.842C514.944 528.917 509.686 526.511 504.673 523.651C503.522 522.583 497.35 518.312 497.35 518.312Z" fill="url(#paint33_linear)"/>
<path id="Vector_90" d="M532.862 482.557C533.43 482.391 533.938 482.062 534.323 481.612C534.708 481.161 534.954 480.609 535.03 480.021C535.03 478.503 530.16 469.86 527.874 467.942C527.691 466.273 527.441 464.271 527.224 462.553C526.74 458.915 525.839 456.663 522.904 456.663C519.718 456.922 516.556 457.424 513.446 458.165C513.446 458.165 505.84 462.419 505.84 462.619C505.84 462.82 496.399 483.925 496.399 484.609C496.399 485.293 508.926 500.91 528.792 500.977C529.991 500.977 531.14 500.501 531.988 499.653C532.836 498.805 533.312 497.655 533.312 496.455C533.307 495.924 533.206 495.398 533.012 494.904C532.788 493.653 532.66 492.387 532.628 491.116C532.628 488.914 533.862 487.963 533.312 486.862C532.762 485.761 531.944 485.077 532.361 483.992C532.478 483.642 532.662 483.108 532.862 482.557Z" fill="url(#paint34_linear)"/>
<path id="Vector_91" d="M527.774 915.869L525.206 918.021C524.822 921.656 524.666 925.312 524.739 928.966C524.972 933.037 523.304 937.308 525.206 938.043C527.107 938.777 532.111 940.412 535.697 938.743C539.283 937.075 538.783 932.787 540.935 933.037C543.086 933.287 555.713 929.7 564.287 924.929C572.86 920.157 575.479 913.249 568.573 913.717C561.668 914.184 546.406 917.054 540.451 918.255C539.167 918.555 538.95 917.521 538.95 917.521L536.398 917.07L533.229 916.586L527.774 915.869Z" fill="url(#paint35_linear)"/>
<path id="Vector_92" d="M538.983 918.021C538.983 920.123 535.881 921.825 532.061 921.825C528.241 921.825 525.156 920.157 525.156 918.021C525.156 915.886 528.258 914.2 532.061 914.2C535.864 914.2 538.983 915.902 538.983 918.021Z" fill="#131316"/>
<path id="Vector_93" d="M545.222 660.447L517.433 664.968C515.648 653.406 507.859 644.697 498.518 644.697C487.859 644.697 479.203 656.025 479.203 669.974C479.182 674.585 480.184 679.144 482.138 683.321C487.226 696.886 507.942 713.353 510.177 734.342C512.562 756.733 519.485 766.276 520.419 779.39C521.353 792.504 522.337 852.802 523.521 872.106C524.705 891.409 525.373 914.351 525.373 914.351C525.608 915.888 526.386 917.289 527.565 918.302C528.745 919.315 530.248 919.872 531.803 919.872C533.357 919.872 534.86 919.315 536.04 918.302C537.219 917.289 537.997 915.888 538.233 914.351C538.233 914.351 545.205 816.329 545.689 794.406C546.172 772.483 545.922 771.048 546.156 743.652C546.489 711.852 545.222 660.447 545.222 660.447Z" fill="url(#paint36_linear)"/>
<path id="Vector_94" d="M545.488 592.575C550.376 572.553 553.245 564.845 553.245 564.845L550.376 528.022C542.899 523.794 534.822 520.728 526.423 518.929C516.882 517.144 511.945 516.26 502.905 511.605C500.67 510.454 496.316 504.297 485.491 501.294C485.491 501.294 475.016 498.124 470.762 505.398C465.158 514.908 468.094 525.586 470.979 549.545C473.865 573.504 474.082 601.267 470.979 621.639C469.178 633.485 466.175 647.583 467.643 656.009C467.643 656.109 467.643 656.192 467.643 656.292C467.734 657.105 467.966 657.895 468.327 658.628C468.595 659.528 469.041 660.364 469.64 661.087C470.24 661.81 470.979 662.403 471.813 662.833C478.268 668.072 491.612 671.709 507.592 671.709C522.704 671.709 535.214 668.822 541.952 664.284C544.955 663.25 548.257 659.729 548.124 649.585C547.924 632.067 540.618 612.546 545.488 592.575Z" fill="url(#paint37_linear)"/>
<path id="Vector_95" d="M525.055 458.381C526.423 451.107 524.872 436.275 524.872 436.275C524.863 435.987 524.798 435.704 524.679 435.441C524.559 435.179 524.389 434.944 524.178 434.748C523.967 434.552 523.719 434.401 523.449 434.302C523.178 434.203 522.891 434.159 522.604 434.172C504.406 433.522 486.041 456.529 482.472 461.251C480.475 463.502 479.361 466.401 479.336 469.41C479.34 470.336 479.447 471.259 479.653 472.163C479.653 472.246 479.653 472.33 479.653 472.413C480.904 481.306 494.932 495.771 494.932 495.771H495.048C496.653 497.352 498.817 498.234 501.07 498.224C502.961 498.272 504.809 497.656 506.293 496.482C507.777 495.309 508.803 493.652 509.193 491.8V491.684C510.37 486.431 510.741 481.03 510.294 475.667C510.127 472.73 519.301 469.927 519.534 469.894H519.651C520.483 469.612 521.24 469.146 521.867 468.531C522.494 467.915 522.973 467.166 523.271 466.34C523.271 466.34 523.271 466.34 523.271 466.24C523.363 465.94 523.43 465.633 523.471 465.322C523.871 463.403 523.871 463.036 525.055 458.381Z" fill="#334752"/>
<path id="Vector_96" d="M579.649 593.242L640.18 590.572C640.18 590.572 641.965 581.713 649.054 582.364C656.143 583.014 676.776 582.147 676.776 582.147C676.776 582.147 689.202 580.145 670.571 588.353C651.94 596.562 648.887 599.015 643.066 597.246C638.862 597.463 587.855 613.647 583.419 611.428C578.982 609.209 579.866 603.436 579.866 603.436L579.649 593.242Z" fill="url(#paint38_linear)"/>
<path id="Vector_97" d="M587.138 590.055C586.521 586.952 581.3 582.63 570.325 557.17C563.853 542.154 558.649 535.046 555.546 531.71C553.981 529.904 552.043 528.459 549.866 527.474C547.69 526.489 545.325 525.988 542.936 526.003C538.761 525.891 534.712 527.441 531.678 530.313C528.645 533.185 526.875 537.144 526.757 541.32C526.758 542.358 526.87 543.392 527.09 544.406C526.874 555.602 560.233 587.986 565.237 593.959C570.241 599.932 571.776 605.955 578.214 611.144C585.253 616.65 587.205 613.53 585.804 607.056C584.453 601.05 588.589 597.73 587.138 590.055Z" fill="url(#paint39_linear)"/>
<g id="Group_6" opacity="0.1">
<path id="Vector_98" opacity="0.1" d="M854.25 1204.44C857.426 1202.85 860.941 1202.04 864.495 1202.09C868.049 1202.14 871.539 1203.05 874.666 1204.74L917.817 1231.3C923.372 1234.64 923.288 1240.2 917.634 1243.45L776.588 1324.64C773.415 1326.23 769.904 1327.04 766.352 1326.99C762.8 1326.94 759.314 1326.03 756.189 1324.34L713.038 1297.79C707.484 1294.36 707.567 1288.88 713.221 1285.63L854.25 1204.44Z" fill="#334752"/>
</g>
<path id="Vector_99" d="M857.403 895.914L809.215 871.605C809.215 871.605 811.033 863.763 805.011 861.694C798.99 859.626 782.593 851.383 782.593 851.383C782.593 851.383 773.236 845.21 785.362 858.691C797.488 872.172 799.106 875.376 804.444 875.96C807.78 877.628 843.275 909.479 847.695 909.328C852.115 909.178 853.5 904.14 853.5 904.14L857.403 895.914Z" fill="url(#paint40_linear)"/>
<path id="Vector_100" d="M852.932 801.063L860.905 804.65C860.905 804.65 873.332 815.462 870.246 844.259C867.16 873.057 865.909 886.755 863.674 892.327C861.439 897.9 858.67 909.562 851.398 909.846C844.125 910.129 841.123 904.674 839.722 899.835C838.321 894.997 841.39 892.044 841.774 883.751C842.157 875.459 845.343 864.231 841.774 858.224C838.204 852.218 835.419 839.454 835.419 839.454L852.932 801.063Z" fill="url(#paint41_linear)"/>
<path id="Vector_101" d="M873.582 1230.07L875.951 1231.74C876.29 1234.71 876.429 1237.69 876.368 1240.68C876.168 1244.02 877.669 1247.47 875.951 1248.06C874.233 1248.64 869.712 1249.99 866.493 1248.64C863.274 1247.29 863.691 1243.78 861.756 1243.98C859.821 1244.19 848.412 1241.27 840.689 1237.31C832.967 1233.36 830.581 1227.78 836.82 1228.18C843.058 1228.59 856.836 1230.9 862.19 1231.87C863.341 1232.12 863.541 1231.27 863.541 1231.27L865.843 1230.92L868.712 1230.5L873.582 1230.07Z" fill="url(#paint42_linear)"/>
<path id="Vector_102" d="M863.474 1231.81C863.474 1233.47 866.26 1234.91 869.712 1234.91C873.165 1234.91 875.951 1233.52 875.951 1231.81C875.951 1230.09 873.148 1228.7 869.712 1228.7C866.276 1228.7 863.474 1230.1 863.474 1231.81Z" fill="#131316"/>
<path id="Vector_103" d="M853.099 970.694C866.677 973.297 862.907 980.705 862.907 987.762C862.907 994.82 866.927 1031.84 871.914 1080.23C876.485 1124.76 874.183 1144.2 874.733 1178.33C875.15 1205.48 877.102 1219.51 877.886 1224.11C878.097 1224.69 878.21 1225.3 878.219 1225.92C878.219 1229.77 874.249 1232.89 869.362 1232.89C864.475 1232.89 860.489 1229.77 860.489 1225.92C860.489 1225.92 855.284 1157.81 854.367 1150.59C849.813 1114.5 837.687 1071.35 833.067 1055.23C828.446 1039.12 808.898 983.057 808.898 983.057C808.898 983.057 822.992 964.921 853.099 970.694Z" fill="url(#paint43_linear)"/>
<path id="Vector_104" d="M829.597 818.799C828.546 816.83 821.257 801.147 820.173 790.836C819.089 780.525 819.556 774.802 818.855 774.568C818.155 774.335 811.8 772.9 811.8 772.9L799.623 779.39L794.069 781.826C794.069 781.826 790.633 790.619 795.22 794.907C806.112 804.65 803.793 828.276 796.504 827.708C795.82 827.708 796.504 835.467 803.693 832.93C809.823 830.75 815.751 828.037 821.407 824.822C822.692 823.637 829.597 818.799 829.597 818.799Z" fill="url(#paint44_linear)"/>
<path id="Vector_105" d="M789.565 778.589C788.917 778.416 788.337 778.05 787.899 777.541C787.462 777.032 787.188 776.403 787.114 775.736C787.114 774.068 792.601 764.291 795.17 762.122C795.387 760.27 795.67 758.001 795.921 756.049C796.454 751.944 797.472 749.375 800.791 749.375C804.381 749.658 807.945 750.215 811.45 751.043C811.45 751.043 820.023 755.832 820.023 756.049C820.023 756.265 830.681 780.074 830.681 780.858C830.681 781.642 816.554 799.211 794.152 799.311C793.325 799.331 792.506 799.146 791.768 798.772C791.029 798.398 790.396 797.846 789.923 797.166C789.45 796.487 789.153 795.701 789.059 794.878C788.965 794.056 789.076 793.223 789.382 792.454C789.64 791.05 789.785 789.627 789.816 788.199C789.816 785.713 788.431 784.629 789.048 783.394C789.666 782.16 790.6 781.392 790.133 780.158C789.983 779.774 789.782 779.19 789.565 778.589Z" fill="url(#paint45_linear)"/>
<path id="Vector_106" d="M795.287 1267.23L798.239 1269.65C798.677 1273.75 798.855 1277.88 798.773 1282.01C798.523 1286.58 800.441 1291.42 798.239 1292.24C796.037 1293.05 790.45 1294.92 786.413 1293.04C782.376 1291.15 782.927 1286.36 780.508 1286.58C778.09 1286.8 763.828 1282.83 754.171 1277.45C744.513 1272.08 741.544 1264.27 749.334 1264.81C757.123 1265.34 774.353 1268.58 781.025 1269.91C782.477 1270.26 782.693 1269.1 782.693 1269.1L785.562 1268.59L789.148 1268.04L795.287 1267.23Z" fill="url(#paint46_linear)"/>
<path id="Vector_107" d="M782.66 1269.65C782.66 1272.03 786.146 1273.95 790.449 1273.95C794.753 1273.95 798.239 1272.03 798.239 1269.65C798.239 1267.26 794.753 1265.34 790.449 1265.34C786.146 1265.34 782.66 1267.28 782.66 1269.65Z" fill="#131316"/>
<path id="Vector_108" d="M775.554 979.186L806.913 984.192C808.914 971.161 817.704 961.351 828.246 961.351C840.256 961.351 850.013 974.114 850.013 989.848C850.027 995.038 848.888 1000.17 846.677 1004.86C840.956 1020.16 817.588 1038.68 814.986 1062.39C812.3 1087.67 804.511 1098.41 803.443 1113.2C802.376 1127.98 801.291 1195.98 799.94 1217.76C798.589 1239.53 797.855 1265.41 797.855 1265.41C797.855 1268.84 794.519 1271.63 790.616 1271.63C786.713 1271.63 783.361 1268.84 783.361 1265.41C783.361 1265.41 775.488 1154.86 775.021 1130.13C774.554 1105.4 774.754 1103.79 774.487 1072.89C774.187 1037.05 775.554 979.186 775.554 979.186Z" fill="url(#paint47_linear)"/>
<path id="Vector_109" d="M775.404 902.638C769.9 880.114 766.647 871.355 766.647 871.355L769.9 829.827C778.332 825.063 787.437 821.603 796.905 819.566C807.663 817.564 813.234 816.563 823.426 811.324C825.944 810.006 830.865 802.982 843.058 799.645C843.058 799.645 854.867 796.091 859.738 804.283C866.059 815.011 862.757 827.041 859.504 854.07C856.252 881.098 856.001 912.348 859.504 935.373C861.539 948.72 864.909 964.637 863.224 974.148C863.224 974.248 863.224 974.348 863.224 974.465C863.112 975.376 862.847 976.261 862.44 977.084C862.137 978.098 861.634 979.042 860.961 979.858C860.288 980.675 859.458 981.349 858.52 981.839C851.231 987.729 836.186 991.85 818.171 991.85C801.125 991.85 787.013 988.513 779.424 983.508C776.088 982.323 772.318 978.369 772.452 966.923C772.569 947.102 780.808 925.145 775.404 902.638Z" fill="url(#paint48_linear)"/>
<path id="Vector_110" d="M798.356 751.277C796.805 743.085 798.573 726.35 798.573 726.35C798.583 726.028 798.658 725.711 798.791 725.418C798.924 725.124 799.114 724.86 799.349 724.64C799.585 724.42 799.861 724.248 800.163 724.135C800.465 724.022 800.786 723.97 801.108 723.981C821.658 723.247 842.357 749.208 846.377 754.53C848.633 757.065 849.895 760.33 849.93 763.723C849.927 764.768 849.804 765.81 849.563 766.827C849.563 766.927 849.563 767.01 849.563 767.11C848.162 777.121 832.333 793.539 832.333 793.539H832.199C831.306 794.424 830.246 795.125 829.081 795.6C827.916 796.076 826.669 796.316 825.411 796.308C823.281 796.363 821.2 795.67 819.527 794.351C817.855 793.031 816.697 791.168 816.253 789.084C816.253 789.084 816.253 789.084 816.253 788.95C814.928 783.025 814.506 776.933 815.002 770.881C815.203 767.544 804.861 764.407 804.594 764.357H804.461C803.514 764.031 802.657 763.488 801.957 762.773C801.256 762.058 800.731 761.189 800.424 760.236C800.431 760.203 800.431 760.169 800.424 760.136C800.333 759.797 800.266 759.451 800.224 759.102C799.707 756.899 799.707 756.532 798.356 751.277Z" fill="#6A3C20"/>
<path id="Vector_111" d="M764.746 914.417L748.066 1006.05C748.066 1006.05 737.874 1006.62 737.491 1014.64C737.107 1022.67 732.887 1045.54 732.887 1045.54C732.887 1045.54 728.7 1059.09 740.81 1039.58C752.92 1020.08 756.156 1016.99 755.071 1010.27C755.989 1005.61 780.809 952.992 779.791 947.486C778.94 942.931 787.981 924.678 783.411 917.454C782.793 916.469 774.303 924.128 774.303 924.128L764.746 914.417Z" fill="url(#paint49_linear)"/>
<path id="Vector_112" d="M763.378 919.606C760.943 917.003 764.429 909.028 759.458 878.162C756.539 859.942 757.123 850.049 758.124 844.976C758.518 842.313 759.483 839.766 760.955 837.511C762.426 835.255 764.368 833.346 766.647 831.913C775.154 826.49 786.196 828.576 791.317 836.668C791.946 837.66 792.466 838.717 792.868 839.821C799.89 850.299 787.747 901.303 786.63 910.013C785.512 918.722 787.097 926.196 779.874 925.946C774.403 925.763 767.064 923.61 763.378 919.606Z" fill="url(#paint50_linear)"/>
<g id="Group_7" opacity="0.1">
<path id="Vector_113" opacity="0.1" d="M534.346 1098.25C532.172 1097.03 529.736 1096.36 527.246 1096.3C524.757 1096.23 522.288 1096.77 520.051 1097.86L410.615 1159.18C406.628 1161.41 406.528 1165.23 410.398 1167.69L547.006 1253.96C549.181 1255.18 551.617 1255.85 554.106 1255.91C556.596 1255.98 559.065 1255.44 561.301 1254.35L670.738 1193.05C674.724 1190.81 674.841 1186.97 670.955 1184.52L534.346 1098.25Z" fill="#334752"/>
</g>
<path id="Vector_114" d="M663.866 1181.47L664.283 1170.16C664.416 1169.24 664.25 1168.3 663.808 1167.48C663.366 1166.66 662.673 1166.01 661.831 1165.62L539.367 1088.25C537.413 1087.17 535.227 1086.57 532.994 1086.52C530.761 1086.46 528.547 1086.94 526.54 1087.92L428.462 1142.88C427.671 1143.22 426.993 1143.78 426.508 1144.49C426.023 1145.2 425.752 1146.04 425.727 1146.9L425.26 1158.44C425.235 1158.67 425.235 1158.9 425.26 1159.13V1159.24C425.378 1159.98 425.668 1160.68 426.106 1161.29C426.543 1161.89 427.116 1162.39 427.778 1162.73L550.226 1240.1C552.175 1241.18 554.359 1241.78 556.59 1241.84C558.821 1241.9 561.032 1241.41 563.036 1240.43L661.147 1185.47C661.937 1185.14 662.615 1184.58 663.099 1183.87C663.584 1183.16 663.856 1182.33 663.882 1181.47H663.866Z" fill="url(#paint51_linear)"/>
<path id="Vector_115" d="M539.367 1088.25C537.413 1087.17 535.227 1086.57 532.994 1086.52C530.761 1086.46 528.547 1086.94 526.54 1087.92L428.462 1142.88C424.876 1144.88 424.793 1148.32 428.262 1150.52L550.743 1227.87C552.694 1228.96 554.88 1229.56 557.115 1229.62C559.349 1229.68 561.564 1229.19 563.569 1228.2L661.664 1173.24C665.25 1171.24 665.35 1167.8 661.864 1165.62L539.367 1088.25Z" fill="url(#paint52_linear)"/>
<path id="Vector_116" d="M687.701 1162.77L687.451 1151.45C687.528 1150.53 687.305 1149.6 686.815 1148.81C686.326 1148.02 685.596 1147.41 684.732 1147.07L557.965 1077.09C555.951 1076.12 553.732 1075.66 551.498 1075.73C549.265 1075.81 547.082 1076.42 545.138 1077.52L450.463 1138.21C449.694 1138.59 449.051 1139.19 448.61 1139.93C448.17 1140.67 447.95 1141.52 447.978 1142.38L448.194 1153.94C448.17 1154.17 448.17 1154.4 448.194 1154.62V1154.74C448.361 1155.47 448.695 1156.15 449.17 1156.73C449.644 1157.31 450.247 1157.77 450.93 1158.08L577.697 1228.05C579.713 1229.02 581.931 1229.48 584.164 1229.4C586.397 1229.33 588.578 1228.72 590.524 1227.62L685.199 1166.94C685.967 1166.55 686.61 1165.96 687.05 1165.22C687.49 1164.49 687.711 1163.64 687.685 1162.78L687.701 1162.77Z" fill="url(#paint53_linear)"/>
<path id="Vector_117" d="M557.882 1077.09C555.867 1076.12 553.649 1075.66 551.415 1075.73C549.181 1075.81 546.999 1076.42 545.055 1077.52L450.38 1138.21C446.927 1140.42 447.044 1143.84 450.63 1145.83L577.481 1215.72C579.493 1216.69 581.711 1217.16 583.945 1217.09C586.179 1217.02 588.362 1216.4 590.307 1215.3L684.982 1154.62C688.435 1152.4 688.318 1148.98 684.732 1147L557.882 1077.09Z" fill="url(#paint54_linear)"/>
<path id="Vector_118" d="M676.292 1138.41V1127.09C676.393 1126.17 676.192 1125.24 675.72 1124.44C675.248 1123.64 674.53 1123.01 673.674 1122.66L548.074 1050.38C546.077 1049.36 543.863 1048.85 541.623 1048.88C539.383 1048.9 537.183 1049.48 535.214 1050.55L439.471 1109.51C438.69 1109.88 438.032 1110.46 437.577 1111.2C437.121 1111.93 436.887 1112.78 436.902 1113.65V1125.19C436.886 1125.42 436.886 1125.65 436.902 1125.88V1125.99C437.06 1126.72 437.382 1127.4 437.845 1127.97C438.308 1128.55 438.899 1129.02 439.571 1129.33L565.104 1201.61C567.1 1202.61 569.309 1203.11 571.542 1203.08C573.775 1203.04 575.967 1202.47 577.931 1201.41L673.657 1142.53C674.434 1142.16 675.089 1141.57 675.544 1140.84C675.999 1140.11 676.236 1139.27 676.226 1138.41H676.292Z" fill="url(#paint55_linear)"/>
<path id="Vector_119" d="M548.074 1050.38C546.077 1049.36 543.863 1048.85 541.623 1048.88C539.383 1048.9 537.183 1049.48 535.214 1050.55L439.471 1109.51C435.985 1111.66 436.018 1115.1 439.588 1117.15L565.121 1189.41C567.114 1190.42 569.323 1190.93 571.557 1190.9C573.79 1190.86 575.983 1190.29 577.947 1189.23L673.657 1130.28C677.16 1128.14 677.11 1124.71 673.557 1122.66L548.074 1050.38Z" fill="url(#paint56_linear)"/>
<path id="Vector_120" d="M565.321 1160.66L558.565 1104.6L523.721 1110.21L532.428 1085.32L470.596 1090.32L439.471 1109.51C435.985 1111.66 436.018 1115.1 439.588 1117.15L565.121 1189.41C567.114 1190.42 569.323 1190.93 571.557 1190.9C573.79 1190.86 575.983 1190.29 577.947 1189.23L596.879 1177.55L595.211 1154.99L565.321 1160.66Z" fill="#6A6D89"/>
<path id="Vector_121" d="M622.933 1126.38C622.933 1138.57 609.94 1148.45 593.927 1148.45C577.914 1148.45 564.937 1138.57 564.937 1126.38C564.937 1114.18 577.914 1104.32 593.927 1104.32C609.94 1104.32 622.933 1114.2 622.933 1126.38Z" fill="#FFE600"/>
<g id="Group_8" opacity="0.1">
<path id="Vector_122" opacity="0.1" d="M270.937 887.806C272.794 886.774 274.872 886.206 276.995 886.151C279.118 886.096 281.223 886.555 283.13 887.489L376.304 939.677C379.64 941.596 379.79 944.85 376.488 946.935L260.162 1020.35C258.309 1021.38 256.233 1021.95 254.113 1022C251.992 1022.06 249.89 1021.6 247.986 1020.66L154.812 968.458C151.476 966.556 151.326 963.303 154.628 961.217L270.937 887.806Z" fill="#334752"/>
</g>
<path id="Vector_123" d="M160.666 958.681L160.299 949.054C160.19 948.269 160.332 947.469 160.707 946.77C161.082 946.071 161.669 945.51 162.384 945.167L266.667 879.313C268.327 878.388 270.185 877.877 272.085 877.825C273.984 877.773 275.868 878.18 277.576 879.013L361.109 925.729C361.787 926.018 362.368 926.495 362.782 927.104C363.196 927.714 363.426 928.43 363.444 929.166L363.844 938.994C363.869 939.187 363.869 939.384 363.844 939.577V939.661C363.738 940.29 363.489 940.887 363.116 941.404C362.742 941.922 362.256 942.347 361.692 942.647L257.41 1008.52C255.749 1009.44 253.889 1009.95 251.99 1010C250.091 1010.05 248.208 1009.64 246.501 1008.8L162.951 962.085C162.289 961.805 161.72 961.343 161.309 960.752C160.899 960.161 160.664 959.466 160.633 958.748L160.666 958.681Z" fill="#C3D0D8"/>
<path id="Vector_124" d="M266.667 879.313C268.327 878.388 270.185 877.877 272.085 877.825C273.984 877.773 275.868 878.18 277.576 879.013L361.109 925.729C364.161 927.398 364.245 930.368 361.292 932.236L256.993 998.106C255.332 999.029 253.473 999.537 251.573 999.586C249.674 999.636 247.791 999.225 246.084 998.39L162.551 951.674C159.499 950.005 159.415 947.035 162.368 945.167L266.667 879.313Z" fill="url(#paint57_linear)"/>
<path id="Vector_125" d="M152.626 937.826V928.199C152.547 927.405 152.726 926.607 153.138 925.924C153.55 925.241 154.172 924.71 154.912 924.411L261.813 862.879C263.511 862.019 265.392 861.584 267.294 861.61C269.197 861.636 271.065 862.123 272.738 863.029L354.287 913.216C354.949 913.531 355.506 914.031 355.891 914.656C356.275 915.28 356.471 916.003 356.455 916.736V926.58C356.472 926.769 356.472 926.959 356.455 927.147V927.248C356.324 927.871 356.052 928.456 355.658 928.956C355.265 929.457 354.761 929.86 354.186 930.134L247.285 991.683C245.585 992.537 243.704 992.968 241.802 992.939C239.9 992.91 238.033 992.422 236.36 991.516L154.812 941.329C154.15 941.016 153.592 940.519 153.205 939.898C152.818 939.277 152.617 938.558 152.626 937.826Z" fill="#C3D0D8"/>
<path id="Vector_126" d="M261.813 862.879C263.511 862.019 265.392 861.584 267.294 861.61C269.197 861.636 271.065 862.123 272.739 863.029L354.287 913.216C357.256 915.051 357.206 917.971 354.186 919.723L247.285 981.255C245.586 982.112 243.706 982.546 241.804 982.52C239.902 982.494 238.034 982.008 236.36 981.105L154.812 930.901C151.843 929.083 151.893 926.163 154.912 924.411L261.813 862.879Z" fill="url(#paint58_linear)"/>
<path id="Vector_127" d="M270.687 919.856C270.564 919.92 270.458 920.01 270.374 920.119C270.29 920.229 270.232 920.356 270.203 920.49C270.198 920.616 270.227 920.741 270.285 920.852C270.344 920.963 270.431 921.057 270.537 921.124L273.089 922.926C273.345 923.113 273.656 923.207 273.973 923.193C274.321 923.194 274.662 923.096 274.957 922.91L278.026 921.041C278.152 920.987 278.262 920.902 278.347 920.794C278.431 920.686 278.487 920.559 278.51 920.424C278.533 920.304 278.516 920.181 278.462 920.072C278.407 919.964 278.319 919.876 278.21 919.823L275.674 918.004C275.401 917.828 275.082 917.735 274.757 917.738C274.407 917.733 274.062 917.819 273.756 917.988L270.687 919.856Z" fill="#334752"/>
<path id="Vector_128" d="M255.759 896.882C255.458 897.049 255.275 897.249 255.258 897.466C255.25 897.583 255.275 897.701 255.331 897.804C255.387 897.908 255.472 897.993 255.575 898.05L256.826 898.934C257.072 899.116 257.371 899.21 257.677 899.201C257.99 899.208 258.298 899.121 258.561 898.951L258.794 898.817C260.018 898.034 261.429 897.591 262.881 897.533C264.259 897.535 265.616 897.873 266.834 898.517C268.686 899.499 270.465 900.614 272.155 901.854C273.445 902.829 274.924 903.525 276.497 903.899C278.071 904.272 279.705 904.314 281.295 904.023C280.128 906.092 280.962 908.144 283.831 910.196C285.488 911.323 287.05 912.585 288.501 913.967C288.893 914.293 289.205 914.705 289.414 915.17C289.622 915.636 289.721 916.143 289.702 916.653C289.552 917.471 288.785 918.321 287.384 919.222L287.167 919.356C287.06 919.418 286.967 919.502 286.895 919.603C286.823 919.703 286.774 919.818 286.75 919.94C286.736 920.049 286.756 920.161 286.807 920.259C286.857 920.357 286.936 920.438 287.033 920.49L288.318 921.408C288.565 921.587 288.863 921.681 289.168 921.675C289.506 921.671 289.835 921.573 290.119 921.391L290.336 921.258C292.109 920.394 293.542 918.961 294.406 917.187C294.621 916.484 294.655 915.738 294.507 915.018C294.358 914.298 294.031 913.626 293.555 913.066C292.062 911.259 290.308 909.685 288.351 908.394C287.374 907.799 286.569 906.96 286.016 905.958C285.863 905.576 285.794 905.164 285.814 904.753C285.834 904.341 285.943 903.938 286.133 903.572L286.299 903.272C286.486 902.985 286.579 902.647 286.566 902.304C286.478 902.01 286.281 901.759 286.016 901.604L285.365 901.137C285.056 900.912 284.694 900.768 284.315 900.719C283.828 900.65 283.334 900.65 282.847 900.719L282.313 900.82C281.121 901.011 279.904 900.971 278.727 900.703C277.482 900.368 276.31 899.802 275.274 899.034C273.205 897.512 270.966 896.236 268.602 895.23C266.662 894.447 264.562 894.144 262.481 894.346C260.157 894.637 257.928 895.447 255.959 896.715L255.759 896.882Z" fill="#334752"/>
<path id="Vector_129" d="M259.545 926.63C259.419 926.689 259.31 926.778 259.226 926.888C259.142 926.999 259.085 927.127 259.061 927.264C259.056 927.388 259.084 927.51 259.143 927.619C259.201 927.728 259.288 927.818 259.395 927.881L261.93 929.7C262.195 929.88 262.511 929.967 262.831 929.95C263.179 929.966 263.523 929.873 263.815 929.683L266.884 927.815C267.008 927.755 267.116 927.669 267.203 927.562C267.289 927.455 267.351 927.331 267.384 927.197C267.392 927.076 267.365 926.954 267.306 926.848C267.247 926.741 267.158 926.654 267.051 926.597L264.515 924.778C264.253 924.592 263.936 924.498 263.615 924.511C263.269 924.497 262.927 924.584 262.63 924.761L259.545 926.63Z" fill="#334752"/>
<path id="Vector_130" d="M217.762 919.94C215.978 920.817 214.535 922.26 213.658 924.044C213.443 924.746 213.409 925.491 213.561 926.209C213.712 926.927 214.045 927.594 214.526 928.149C216.018 929.966 217.772 931.551 219.73 932.854C220.712 933.444 221.514 934.292 222.048 935.306C222.196 935.691 222.259 936.104 222.233 936.515C222.208 936.927 222.093 937.328 221.898 937.692L221.731 937.992C221.549 938.275 221.455 938.607 221.465 938.943C221.54 939.235 221.725 939.486 221.982 939.644L222.682 940.145C222.979 940.353 223.323 940.485 223.683 940.528C224.187 940.59 224.697 940.59 225.201 940.528L225.685 940.428C226.934 940.196 228.219 940.24 229.449 940.557C230.679 940.874 231.825 941.456 232.807 942.264C234.87 943.786 237.111 945.052 239.479 946.034C241.421 946.81 243.517 947.119 245.6 946.935C247.918 946.662 250.143 945.863 252.105 944.599L252.372 944.433C252.486 944.372 252.585 944.289 252.666 944.188C252.746 944.088 252.805 943.972 252.839 943.849C252.855 943.73 252.835 943.609 252.781 943.502C252.728 943.395 252.643 943.307 252.539 943.248L251.255 942.33C251 942.173 250.703 942.097 250.404 942.113C250.078 942.127 249.759 942.212 249.47 942.364L249.237 942.497C248.018 943.267 246.623 943.715 245.183 943.799C243.799 943.786 242.438 943.443 241.214 942.797C239.356 941.816 237.572 940.701 235.876 939.461C234.597 938.483 233.126 937.787 231.56 937.416C229.994 937.045 228.367 937.008 226.785 937.308C227.936 935.239 227.086 933.171 224.233 931.135C222.588 930.006 221.037 928.745 219.596 927.364C219.199 927.038 218.882 926.624 218.671 926.156C218.46 925.687 218.36 925.175 218.379 924.661C218.512 923.838 219.279 922.987 220.681 922.109L220.881 921.942C220.995 921.885 221.094 921.802 221.172 921.701C221.25 921.6 221.305 921.483 221.331 921.358C221.355 921.243 221.339 921.123 221.288 921.018C221.237 920.912 221.152 920.827 221.048 920.774L219.797 919.873C219.536 919.698 219.225 919.616 218.912 919.639C218.595 919.635 218.282 919.722 218.012 919.89L217.762 919.94Z" fill="#334752"/>
<path id="Vector_131" d="M248.402 933.404C248.279 933.462 248.171 933.548 248.087 933.655C248.003 933.762 247.945 933.888 247.919 934.021C247.908 934.148 247.934 934.275 247.993 934.387C248.052 934.499 248.142 934.592 248.252 934.655L250.788 936.474C251.053 936.653 251.369 936.741 251.688 936.724C252.035 936.727 252.375 936.634 252.673 936.457L255.742 934.589C255.865 934.526 255.972 934.437 256.056 934.327C256.14 934.217 256.198 934.09 256.225 933.955C256.237 933.836 256.214 933.717 256.161 933.611C256.108 933.505 256.026 933.416 255.925 933.354L253.323 931.552C253.059 931.367 252.745 931.268 252.422 931.269C252.07 931.261 251.723 931.354 251.422 931.535L248.402 933.404Z" fill="#334752"/>
<g id="Group_9" opacity="0.1">
<path id="Vector_132" opacity="0.1" d="M75.6989 1082.96C74.6423 1082.37 73.4562 1082.04 72.2439 1082.01C71.0316 1081.98 69.8299 1082.24 68.7434 1082.78L15.3677 1112.63C14.9395 1112.77 14.5661 1113.05 14.2981 1113.41C14.03 1113.77 13.8804 1114.21 13.8695 1114.66C13.8586 1115.11 13.9869 1115.56 14.237 1115.93C14.4871 1116.31 14.8469 1116.6 15.2676 1116.77L81.7704 1158.79C82.8327 1159.38 84.0207 1159.7 85.2341 1159.74C86.4475 1159.77 87.6508 1159.51 88.7426 1158.98L142.035 1129.13C142.461 1128.98 142.833 1128.71 143.099 1128.34C143.365 1127.98 143.513 1127.54 143.524 1127.09C143.535 1126.64 143.408 1126.19 143.16 1125.81C142.911 1125.44 142.554 1125.14 142.135 1124.98L75.6989 1082.96Z" fill="#334752"/>
</g>
<path id="Vector_133" d="M138.766 1123.49L138.966 1117.98C139.031 1117.54 138.952 1117.08 138.738 1116.68C138.525 1116.28 138.19 1115.96 137.782 1115.77L78.1842 1078.09C77.233 1077.57 76.1694 1077.28 75.0834 1077.25C73.9974 1077.23 72.9212 1077.46 71.9459 1077.94L24.1746 1104.64C23.7884 1104.8 23.4573 1105.07 23.2207 1105.42C22.9841 1105.76 22.852 1106.17 22.8402 1106.59L22.6067 1112.21C22.5984 1112.32 22.5984 1112.43 22.6067 1112.55C22.6694 1112.9 22.8116 1113.23 23.0227 1113.52C23.2337 1113.81 23.5079 1114.05 23.8243 1114.21L83.4717 1151.89C84.4215 1152.41 85.4844 1152.71 86.5704 1152.73C87.6564 1152.76 88.7334 1152.53 89.71 1152.05L137.481 1125.36C137.867 1125.2 138.199 1124.92 138.435 1124.58C138.672 1124.23 138.804 1123.83 138.816 1123.41L138.766 1123.49Z" fill="#C3D0D8"/>
<path id="Vector_134" d="M78.1841 1078.09C77.2329 1077.57 76.1693 1077.28 75.0833 1077.25C73.9973 1077.23 72.921 1077.46 71.9458 1077.94L24.1745 1104.64C23.7896 1104.76 23.4532 1105.01 23.2113 1105.33C22.9693 1105.66 22.8336 1106.05 22.8227 1106.45C22.8117 1106.86 22.9261 1107.26 23.1501 1107.6C23.3742 1107.93 23.6969 1108.19 24.0744 1108.34L83.7218 1146.01C84.6693 1146.55 85.7329 1146.84 86.8202 1146.87C87.9075 1146.9 88.9854 1146.66 89.9601 1146.18L137.731 1119.49C138.115 1119.35 138.449 1119.11 138.689 1118.78C138.929 1118.46 139.063 1118.07 139.074 1117.66C139.085 1117.26 138.972 1116.86 138.75 1116.52C138.528 1116.18 138.207 1115.92 137.831 1115.77L78.1841 1078.09Z" fill="url(#paint59_linear)"/>
<path id="Vector_135" d="M143.352 1111.56V1106.05C143.399 1105.6 143.299 1105.15 143.068 1104.76C142.837 1104.37 142.486 1104.06 142.068 1103.89L80.9363 1068.7C79.967 1068.21 78.892 1067.96 77.8047 1067.97C76.7174 1067.99 75.6509 1068.27 74.698 1068.8L27.9943 1097.5C27.6172 1097.68 27.2994 1097.96 27.0779 1098.31C26.8563 1098.67 26.7403 1099.08 26.7433 1099.5V1105.12C26.7266 1105.24 26.7266 1105.35 26.7433 1105.47C26.8172 1105.83 26.9731 1106.17 27.1987 1106.46C27.4244 1106.75 27.7138 1106.98 28.0443 1107.14L89.2262 1142.31C90.1954 1142.8 91.2705 1143.05 92.3578 1143.03C93.445 1143.02 94.5115 1142.73 95.4645 1142.21L142.168 1113.51C142.546 1113.33 142.865 1113.05 143.087 1112.7C143.309 1112.34 143.424 1111.93 143.419 1111.51L143.352 1111.56Z" fill="url(#paint60_linear)"/>
<path id="Vector_136" d="M80.9196 1068.7C79.9504 1068.21 78.8753 1067.96 77.7881 1067.97C76.7008 1067.99 75.6343 1068.27 74.6813 1068.8L27.9776 1097.5C27.5984 1097.64 27.2715 1097.89 27.0407 1098.22C26.8099 1098.56 26.6862 1098.95 26.6862 1099.36C26.6862 1099.76 26.8099 1100.16 27.0407 1100.49C27.2715 1100.82 27.5984 1101.07 27.9776 1101.22L89.1095 1136.4C90.0808 1136.89 91.1549 1137.13 92.2409 1137.12C93.3268 1137.1 94.3925 1136.82 95.3477 1136.3L142.051 1107.61C142.431 1107.46 142.758 1107.21 142.988 1106.88C143.219 1106.55 143.343 1106.15 143.343 1105.75C143.343 1105.34 143.219 1104.95 142.988 1104.61C142.758 1104.28 142.431 1104.03 142.051 1103.89L80.9196 1068.7Z" fill="url(#paint61_linear)"/>
<path id="Vector_137" d="M95.7646 1100.48C95.8193 1100.5 95.8677 1100.53 95.9034 1100.58C95.9392 1100.62 95.9606 1100.68 95.9648 1100.73C95.9648 1100.83 95.8981 1100.92 95.7646 1100.98L83.5716 1108.09C83.4395 1108.17 83.2902 1108.21 83.138 1108.21C82.985 1108.21 82.834 1108.17 82.7043 1108.09L81.8369 1107.61C81.7202 1107.61 81.6534 1107.47 81.6534 1107.37C81.6534 1107.27 81.6534 1107.21 81.8536 1107.12L87.2245 1104L80.9029 1100.47L75.5152 1103.6C75.3802 1103.67 75.2326 1103.71 75.0816 1103.72C74.9309 1103.71 74.7837 1103.67 74.6479 1103.6L73.7805 1103.12C73.6638 1103.12 73.597 1102.98 73.597 1102.88C73.6133 1102.83 73.6413 1102.78 73.6788 1102.74C73.7163 1102.7 73.7625 1102.67 73.8139 1102.65L85.9902 1095.54C86.1204 1095.46 86.2701 1095.42 86.4239 1095.41C86.5678 1095.4 86.7117 1095.43 86.8409 1095.49L87.7083 1095.98C87.8417 1095.98 87.9084 1096.14 87.9084 1096.24C87.9084 1096.34 87.9084 1096.41 87.7083 1096.49L82.5208 1099.51L88.8425 1103.05L94.0299 1100.02C94.1636 1099.94 94.312 1099.9 94.4636 1099.9C94.6143 1099.89 94.7636 1099.93 94.8973 1100L95.7646 1100.48Z" fill="white"/>
<path id="Vector_138" d="M82.0039 1093.93C82.104 1094.76 81.5035 1095.59 80.2192 1096.31C78.9729 1097.05 77.5454 1097.42 76.0992 1097.38C74.6103 1097.32 73.1579 1096.9 71.8625 1096.16L68.5266 1094.34L63.8228 1097.08C63.6862 1097.14 63.5394 1097.18 63.3891 1097.2C63.2437 1097.2 63.0998 1097.17 62.9721 1097.1L62.0547 1096.58C61.938 1096.58 61.8879 1096.44 61.8879 1096.34C61.8879 1096.24 61.888 1096.19 62.0881 1096.11L74.2811 1089C74.4571 1088.92 74.6551 1088.89 74.8482 1088.92C74.9944 1088.91 75.1406 1088.94 75.2652 1089.02L79.8689 1091.59C81.1532 1092.26 81.8871 1093.12 82.0039 1093.93ZM73.297 1095.23C74.064 1095.72 74.9545 1096 75.8681 1096.01C76.7818 1096.03 77.6822 1095.79 78.4678 1095.33C79.2517 1094.86 79.6521 1094.38 79.6187 1093.88C79.5853 1093.37 79.1016 1092.87 78.1842 1092.37L74.9983 1090.59L70.1111 1093.44L73.297 1095.23Z" fill="white"/>
<path id="Vector_139" d="M106.54 1107.67C106.673 1108.51 106.056 1109.34 104.772 1110.06C103.523 1110.8 102.088 1111.17 100.635 1111.13C99.151 1111.07 97.7031 1110.65 96.4152 1109.91L93.0793 1108.09L88.3755 1110.83C88.2519 1110.91 88.1062 1110.95 87.9585 1110.94C87.8124 1110.96 87.6662 1110.92 87.5415 1110.84L86.6408 1110.34C86.5074 1110.34 86.4407 1110.19 86.4574 1110.11C86.474 1110.03 86.4573 1109.94 86.6575 1109.88L98.8338 1102.77C98.9692 1102.68 99.1248 1102.64 99.2842 1102.63C99.4307 1102.62 99.5786 1102.65 99.7012 1102.73L104.288 1105.29C105.773 1106.05 106.54 1106.86 106.54 1107.67ZM97.833 1108.97C98.6063 1109.47 99.5008 1109.74 100.419 1109.76C101.337 1109.78 102.242 1109.55 103.037 1109.09C103.821 1108.62 104.188 1108.14 104.171 1107.64C104.155 1107.14 103.654 1106.64 102.737 1106.12L99.5511 1104.35L94.6972 1107.27L97.8831 1109.04L97.833 1108.97Z" fill="white"/>
<path id="Vector_140" opacity="0.1" d="M310.469 1208.55C310.469 1226.43 285.449 1240.91 254.741 1240.91C224.033 1240.91 199.03 1226.43 199.03 1208.55C199.03 1190.66 223.967 1176.2 254.741 1176.2C285.515 1176.2 310.469 1190.69 310.469 1208.55Z" fill="#334752"/>
<path id="Vector_141" d="M306.232 1150.65L281.679 1148.65L264.149 1147.08L228.087 1148.22L205.168 1149.78L201.415 1152.32L207.871 1205.28C207.871 1220.03 228.454 1231.97 253.84 1231.97C278.46 1231.97 298.559 1220.73 299.777 1206.61L306.232 1150.65Z" fill="#C3D0D8"/>
<path id="Vector_142" d="M306.249 1151.65C306.249 1166.85 282.797 1179.15 253.84 1179.15C224.884 1179.15 201.449 1166.85 201.449 1151.65C201.449 1136.45 224.901 1124.16 253.84 1124.16C282.78 1124.16 306.249 1136.47 306.249 1151.65Z" fill="#EDF2F6"/>
<path id="Vector_143" opacity="0.2" d="M288.001 1151.65C288.001 1161.55 272.705 1169.57 253.84 1169.57C234.975 1169.57 219.696 1161.55 219.696 1151.65C219.696 1141.76 234.975 1133.73 253.84 1133.73C272.705 1133.73 288.001 1141.76 288.001 1151.65Z" fill="#334752"/>
<g id="Group_10" opacity="0.1">
<path id="Vector_144" opacity="0.1" d="M379.24 1022.72C378.34 1022.22 377.333 1021.95 376.306 1021.92C375.278 1021.9 374.26 1022.12 373.335 1022.57L328.166 1047.86C327.807 1047.99 327.495 1048.22 327.271 1048.53C327.047 1048.84 326.923 1049.21 326.914 1049.59C326.905 1049.97 327.012 1050.35 327.22 1050.67C327.429 1050.99 327.73 1051.24 328.083 1051.38L384.461 1086.98C385.358 1087.49 386.365 1087.77 387.394 1087.79C388.423 1087.82 389.443 1087.59 390.365 1087.13L435.518 1061.84C435.878 1061.71 436.191 1061.48 436.417 1061.17C436.642 1060.87 436.768 1060.5 436.779 1060.12C436.79 1059.73 436.685 1059.36 436.477 1059.04C436.27 1058.72 435.97 1058.47 435.618 1058.32L379.24 1022.72Z" fill="#334752"/>
</g>
<path id="Vector_145" d="M432.682 1057.07L432.849 1052.4C432.891 1052.02 432.811 1051.63 432.623 1051.3C432.434 1050.97 432.146 1050.7 431.798 1050.55L381.258 1018.63C380.45 1018.18 379.546 1017.93 378.622 1017.91C377.699 1017.89 376.783 1018.09 375.954 1018.49L335.472 1041.17C335.146 1041.31 334.868 1041.54 334.67 1041.84C334.472 1042.14 334.362 1042.48 334.354 1042.84L334.154 1047.59C334.146 1047.69 334.146 1047.78 334.154 1047.88C334.207 1048.18 334.329 1048.47 334.511 1048.72C334.693 1048.98 334.93 1049.18 335.205 1049.33L385.745 1081.25C386.55 1081.69 387.451 1081.94 388.372 1081.96C389.293 1081.98 390.206 1081.78 391.032 1081.38L431.514 1058.7C431.842 1058.56 432.123 1058.33 432.324 1058.03C432.524 1057.74 432.637 1057.39 432.649 1057.04L432.682 1057.07Z" fill="#C3D0D8"/>
<path id="Vector_146" d="M381.308 1018.59C380.5 1018.15 379.596 1017.9 378.672 1017.88C377.749 1017.85 376.833 1018.05 376.004 1018.46L335.522 1041.14C335.194 1041.25 334.91 1041.46 334.709 1041.74C334.507 1042.03 334.399 1042.37 334.399 1042.71C334.399 1043.06 334.507 1043.4 334.709 1043.68C334.91 1043.96 335.194 1044.18 335.522 1044.29L386.062 1076.21C386.869 1076.66 387.772 1076.91 388.696 1076.93C389.619 1076.96 390.535 1076.76 391.366 1076.36L431.798 1053.68C432.132 1053.57 432.422 1053.36 432.628 1053.08C432.834 1052.79 432.945 1052.45 432.945 1052.1C432.945 1051.75 432.834 1051.4 432.628 1051.12C432.422 1050.83 432.132 1050.62 431.798 1050.51L381.308 1018.59Z" fill="url(#paint62_linear)"/>
<path id="Vector_147" d="M436.569 1046.98V1042.3C436.612 1041.92 436.53 1041.54 436.334 1041.2C436.138 1040.87 435.84 1040.61 435.484 1040.47L383.677 1010.64C382.861 1010.21 381.954 1009.99 381.033 1009.99C380.112 1009.99 379.205 1010.21 378.389 1010.64L338.858 1034.95C338.543 1035.1 338.278 1035.33 338.092 1035.63C337.906 1035.92 337.807 1036.27 337.807 1036.61V1041.39C337.79 1041.47 337.79 1041.56 337.807 1041.65C337.869 1041.96 338 1042.24 338.191 1042.48C338.382 1042.73 338.628 1042.92 338.908 1043.05L390.716 1072.89C391.533 1073.31 392.439 1073.53 393.359 1073.53C394.279 1073.53 395.186 1073.31 396.003 1072.89L435.535 1048.56C435.849 1048.41 436.115 1048.17 436.3 1047.88C436.486 1047.58 436.585 1047.24 436.585 1046.89L436.569 1046.98Z" fill="url(#paint63_linear)"/>
<path id="Vector_148" d="M383.66 1010.64C382.844 1010.21 381.937 1009.99 381.016 1009.99C380.095 1009.99 379.188 1010.21 378.372 1010.64L338.841 1034.95C338.513 1035.06 338.229 1035.27 338.028 1035.55C337.827 1035.84 337.719 1036.18 337.719 1036.52C337.719 1036.87 337.827 1037.21 338.028 1037.49C338.229 1037.77 338.513 1037.99 338.841 1038.1L390.649 1067.93C391.471 1068.34 392.382 1068.55 393.303 1068.54C394.224 1068.52 395.127 1068.29 395.936 1067.85L435.468 1043.52C435.79 1043.4 436.068 1043.19 436.265 1042.91C436.461 1042.63 436.567 1042.3 436.567 1041.95C436.567 1041.61 436.461 1041.28 436.265 1041C436.068 1040.71 435.79 1040.5 435.468 1040.38L383.66 1010.64Z" fill="url(#paint64_linear)"/>
<path id="Vector_149" d="M382.859 1028.86C383.638 1029.21 384.294 1029.79 384.744 1030.52C384.896 1030.77 384.984 1031.06 385.002 1031.35C385.019 1031.64 384.965 1031.93 384.844 1032.19C384.57 1032.77 384.136 1033.26 383.593 1033.59L383.243 1033.68H382.909L382.109 1033.24L381.942 1033.06C381.942 1033.06 381.942 1032.91 382.075 1032.81C382.759 1032.19 383.026 1031.66 382.876 1031.14C382.726 1030.62 382.309 1030.24 381.492 1029.79C380.529 1029.31 379.454 1029.09 378.38 1029.17C377.305 1029.24 376.271 1029.61 375.387 1030.22C375.07 1030.39 374.619 1030.67 374.002 1031.04C373.385 1031.41 372.901 1031.71 372.585 1031.93C370.533 1033.28 370.416 1034.45 372.251 1035.45C373 1035.86 373.832 1036.11 374.686 1036.16C375.639 1036.17 376.583 1035.98 377.455 1035.6C377.587 1035.54 377.729 1035.51 377.872 1035.51L378.222 1035.6L379.006 1036.03L379.156 1036.21L379.023 1036.41C378.279 1036.8 377.481 1037.08 376.654 1037.23C375.709 1037.37 374.748 1037.37 373.802 1037.23C372.78 1037.07 371.793 1036.74 370.883 1036.25C369.465 1035.48 368.798 1034.58 368.865 1033.78C368.932 1032.98 369.632 1032.01 370.983 1031.11L372.434 1030.22L373.952 1029.31C375.321 1028.51 376.857 1028.04 378.439 1027.94C379.97 1027.81 381.505 1028.13 382.859 1028.86Z" fill="white"/>
<path id="Vector_150" d="M402.775 1039.58C403.454 1039.9 404.032 1040.39 404.443 1041.02C404.58 1041.23 404.669 1041.46 404.703 1041.71C404.738 1041.95 404.717 1042.2 404.643 1042.44C404.474 1042.9 404.158 1043.29 403.743 1043.55L403.392 1043.65H403.059L402.258 1043.22L402.108 1043.04L402.208 1042.8C402.392 1042.69 402.532 1042.51 402.607 1042.31C402.682 1042.1 402.689 1041.88 402.625 1041.67C402.386 1041.14 401.958 1040.72 401.424 1040.48C400.755 1040.12 400.016 1039.9 399.256 1039.83C398.579 1039.77 397.898 1039.92 397.321 1040.28C397.169 1040.36 397.032 1040.46 396.921 1040.59C396.809 1040.71 396.724 1040.86 396.67 1041.02C396.637 1041.33 396.726 1041.65 396.921 1041.9C397.261 1042.39 397.641 1042.85 398.055 1043.27C398.567 1043.77 399.016 1044.33 399.389 1044.94C399.504 1045.12 399.577 1045.32 399.603 1045.53C399.629 1045.74 399.607 1045.96 399.539 1046.16C399.295 1046.65 398.897 1047.05 398.405 1047.29C397.331 1047.94 396.086 1048.24 394.836 1048.16C393.449 1048.1 392.095 1047.72 390.882 1047.04C390.161 1046.7 389.532 1046.19 389.048 1045.56C388.89 1045.35 388.78 1045.11 388.725 1044.85C388.67 1044.59 388.672 1044.33 388.731 1044.07C388.893 1043.56 389.244 1043.12 389.715 1042.85L390.048 1042.77H390.382L391.166 1043.19C391.349 1043.29 391.366 1043.42 391.166 1043.6C390.991 1043.74 390.861 1043.92 390.793 1044.13C390.724 1044.34 390.721 1044.56 390.782 1044.77C390.899 1045.22 391.349 1045.67 392.2 1046.14C392.969 1046.59 393.83 1046.86 394.719 1046.93C395.435 1046.97 396.149 1046.8 396.77 1046.44C396.922 1046.37 397.055 1046.27 397.157 1046.14C397.259 1046.01 397.327 1045.85 397.354 1045.69C397.367 1045.36 397.254 1045.03 397.037 1044.77C396.648 1044.27 396.23 1043.78 395.786 1043.32C395.314 1042.88 394.92 1042.36 394.619 1041.79C394.533 1041.6 394.489 1041.39 394.489 1041.19C394.489 1040.98 394.533 1040.77 394.619 1040.58C394.888 1040.1 395.294 1039.71 395.786 1039.45C396.421 1039.07 397.124 1038.82 397.855 1038.72C399.576 1038.45 401.336 1038.77 402.859 1039.62L402.775 1039.58Z" fill="white"/>
<path id="Vector_151" d="M392.917 1034.26C393.591 1034.58 394.167 1035.08 394.585 1035.7C394.714 1035.91 394.797 1036.14 394.828 1036.39C394.86 1036.63 394.84 1036.88 394.769 1037.11C394.605 1037.58 394.287 1037.97 393.868 1038.23L393.534 1038.33H393.184L392.4 1037.9L392.25 1037.73V1037.48C392.436 1037.37 392.578 1037.19 392.653 1036.99C392.729 1036.78 392.734 1036.56 392.667 1036.35C392.428 1035.82 392 1035.39 391.466 1035.16C390.804 1034.79 390.07 1034.57 389.314 1034.51C388.638 1034.45 387.96 1034.61 387.38 1034.96C387.225 1035.03 387.087 1035.14 386.972 1035.26C386.858 1035.39 386.769 1035.54 386.712 1035.7C386.685 1036.01 386.781 1036.33 386.979 1036.58C387.314 1037.07 387.694 1037.53 388.114 1037.95C388.616 1038.46 389.063 1039.02 389.448 1039.62C389.559 1039.8 389.63 1040 389.656 1040.21C389.682 1040.42 389.662 1040.63 389.598 1040.84C389.349 1041.32 388.952 1041.72 388.464 1041.97C387.382 1042.61 386.134 1042.92 384.878 1042.85C383.491 1042.78 382.14 1042.39 380.924 1041.72C380.206 1041.38 379.582 1040.87 379.106 1040.23C378.94 1040.03 378.823 1039.8 378.765 1039.54C378.707 1039.29 378.709 1039.02 378.773 1038.77C378.947 1038.25 379.302 1037.81 379.774 1037.53H380.107H380.424L381.208 1037.95C381.242 1037.97 381.271 1038 381.29 1038.04C381.31 1038.08 381.32 1038.12 381.32 1038.16C381.32 1038.2 381.31 1038.24 381.29 1038.28C381.271 1038.31 381.242 1038.34 381.208 1038.37C381.034 1038.5 380.903 1038.68 380.832 1038.89C380.761 1039.1 380.752 1039.32 380.808 1039.53C380.924 1039.98 381.392 1040.45 382.226 1040.9C382.995 1041.35 383.856 1041.62 384.744 1041.69C385.461 1041.73 386.175 1041.56 386.796 1041.2C387.185 1040.97 387.385 1040.72 387.396 1040.45C387.402 1040.12 387.29 1039.79 387.079 1039.53C386.683 1039.03 386.26 1038.54 385.812 1038.08C385.347 1037.64 384.958 1037.13 384.661 1036.56C384.576 1036.37 384.532 1036.16 384.532 1035.96C384.532 1035.75 384.576 1035.54 384.661 1035.35C384.937 1034.86 385.348 1034.47 385.845 1034.21C386.478 1033.83 387.181 1033.58 387.913 1033.48C388.725 1033.34 389.553 1033.34 390.365 1033.48C391.253 1033.6 392.114 1033.86 392.917 1034.26Z" fill="white"/>
</g>
<defs>
<linearGradient id="paint0_linear" x1="272.922" y1="641.81" x2="290.312" y2="726.015" gradientUnits="userSpaceOnUse">
<stop stop-color="#AFF57A"/>
<stop offset="1" stop-color="#54D169"/>
</linearGradient>
<linearGradient id="paint1_linear" x1="22047.8" y1="24278.9" x2="22778.9" y2="27194.6" gradientUnits="userSpaceOnUse">
<stop stop-color="#AFF57A"/>
<stop offset="1" stop-color="#54D169"/>
</linearGradient>
<linearGradient id="paint2_linear" x1="22049" y1="41802.4" x2="23992.2" y2="45540.5" gradientUnits="userSpaceOnUse">
<stop stop-color="#AFF57A"/>
<stop offset="1" stop-color="#54D169"/>
</linearGradient>
<linearGradient id="paint3_linear" x1="57075.1" y1="75873.8" x2="59830.8" y2="81821" gradientUnits="userSpaceOnUse">
<stop stop-color="#AFF57A"/>
<stop offset="1" stop-color="#54D169"/>
</linearGradient>
<linearGradient id="paint4_linear" x1="57199.2" y1="30661.4" x2="57931.3" y2="33579.5" gradientUnits="userSpaceOnUse">
<stop stop-color="#AFF57A"/>
<stop offset="1" stop-color="#54D169"/>
</linearGradient>
<linearGradient id="paint5_linear" x1="57199.7" y1="51890" x2="59142.7" y2="55628.6" gradientUnits="userSpaceOnUse">
<stop stop-color="#AFF57A"/>
<stop offset="1" stop-color="#54D169"/>
</linearGradient>
<linearGradient id="paint6_linear" x1="941.953" y1="996.188" x2="871.332" y2="1151.52" gradientUnits="userSpaceOnUse">
<stop stop-color="#15EDED"/>
<stop offset="1" stop-color="#029CF5"/>
</linearGradient>
<linearGradient id="paint7_linear" x1="930.994" y1="1066.56" x2="899.872" y2="1135.56" gradientUnits="userSpaceOnUse">
<stop stop-color="#46EEAA"/>
<stop offset="1" stop-color="#2CBFC7"/>
</linearGradient>
<linearGradient id="paint8_linear" x1="137.948" y1="757.984" x2="111.881" y2="664.788" gradientUnits="userSpaceOnUse">
<stop stop-color="#F8A980"/>
<stop offset="1" stop-color="#FFDF75"/>
</linearGradient>
<linearGradient id="paint9_linear" x1="9160.71" y1="80747.3" x2="1615.58" y2="73013" gradientUnits="userSpaceOnUse">
<stop stop-color="#F8A980"/>
<stop offset="1" stop-color="#FFDF75"/>
</linearGradient>
<linearGradient id="paint10_linear" x1="9915.01" y1="81387.7" x2="2374.42" y2="73654.5" gradientUnits="userSpaceOnUse">
<stop stop-color="#F8A980"/>
<stop offset="1" stop-color="#FFDF75"/>
</linearGradient>
<linearGradient id="paint11_linear" x1="6409.83" y1="15139.6" x2="6007.87" y2="15158.6" gradientUnits="userSpaceOnUse">
<stop stop-color="#F8A980"/>
<stop offset="1" stop-color="#FFDF75"/>
</linearGradient>
<linearGradient id="paint12_linear" x1="6759.68" y1="42037.3" x2="7410.94" y2="42029.5" gradientUnits="userSpaceOnUse">
<stop stop-color="#2CBFC7"/>
<stop offset="1" stop-color="#2CBFC7"/>
</linearGradient>
<linearGradient id="paint13_linear" x1="15309.9" y1="112269" x2="37072.8" y2="127802" gradientUnits="userSpaceOnUse">
<stop stop-color="#3ADAFF"/>
<stop offset="1" stop-color="#3AF3FF"/>
</linearGradient>
<linearGradient id="paint14_linear" x1="20215.5" y1="38378.3" x2="20036.2" y2="44016.2" gradientUnits="userSpaceOnUse">
<stop stop-color="#15EDED"/>
<stop offset="1" stop-color="#029CF5"/>
</linearGradient>
<linearGradient id="paint15_linear" x1="10865" y1="44653.6" x2="13865.6" y2="46415.7" gradientUnits="userSpaceOnUse">
<stop stop-color="#2CBFC7"/>
<stop offset="1" stop-color="#2CBFC7"/>
</linearGradient>
<linearGradient id="paint16_linear" x1="5865.19" y1="12217" x2="5602.12" y2="11645.9" gradientUnits="userSpaceOnUse">
<stop stop-color="#F8A980"/>
<stop offset="1" stop-color="#FFDF75"/>
</linearGradient>
<linearGradient id="paint17_linear" x1="11282.2" y1="29227.8" x2="11318.9" y2="25786.5" gradientUnits="userSpaceOnUse">
<stop stop-color="#F8A980"/>
<stop offset="1" stop-color="#FFDF75"/>
</linearGradient>
<linearGradient id="paint18_linear" x1="50.7956" y1="560.023" x2="72.6902" y2="620.4" gradientUnits="userSpaceOnUse">
<stop stop-color="#2C4755"/>
<stop offset="1" stop-color="#334752"/>
</linearGradient>
<linearGradient id="paint19_linear" x1="29.5456" y1="569.366" x2="64.5977" y2="597.821" gradientUnits="userSpaceOnUse">
<stop stop-color="#FF7C6E"/>
<stop offset="1" stop-color="#F5317F"/>
</linearGradient>
<linearGradient id="paint20_linear" x1="6913.7" y1="63211.1" x2="9427.72" y2="66722.2" gradientUnits="userSpaceOnUse">
<stop stop-color="#2C4755"/>
<stop offset="1" stop-color="#334752"/>
</linearGradient>
<linearGradient id="paint21_linear" x1="121062" y1="42570.6" x2="103170" y2="76907.4" gradientUnits="userSpaceOnUse">
<stop stop-color="#15EDED"/>
<stop offset="1" stop-color="#029CF5"/>
</linearGradient>
<linearGradient id="paint22_linear" x1="108384" y1="53035.4" x2="100721" y2="77908.7" gradientUnits="userSpaceOnUse">
<stop stop-color="#15EDED"/>
<stop offset="1" stop-color="#029CF5"/>
</linearGradient>
<linearGradient id="paint23_linear" x1="65589.9" y1="58038.2" x2="65497.6" y2="73729.1" gradientUnits="userSpaceOnUse">
<stop stop-color="#46EEAA"/>
<stop offset="1" stop-color="#2CBFC7"/>
</linearGradient>
<linearGradient id="paint24_linear" x1="60213.3" y1="64322" x2="64942.8" y2="79355.7" gradientUnits="userSpaceOnUse">
<stop stop-color="#46EEAA"/>
<stop offset="1" stop-color="#2CBFC7"/>
</linearGradient>
<linearGradient id="paint25_linear" x1="62583" y1="44695.5" x2="62488.6" y2="60394.1" gradientUnits="userSpaceOnUse">
<stop stop-color="#FF7C6E"/>
<stop offset="1" stop-color="#F5317F"/>
</linearGradient>
<linearGradient id="paint26_linear" x1="57410.7" y1="51274.4" x2="62139.9" y2="66307.8" gradientUnits="userSpaceOnUse">
<stop stop-color="#FF7C6E"/>
<stop offset="1" stop-color="#F5317F"/>
</linearGradient>
<linearGradient id="paint27_linear" x1="100817" y1="13053.2" x2="82101.5" y2="35286.2" gradientUnits="userSpaceOnUse">
<stop stop-color="#46EEAA"/>
<stop offset="1" stop-color="#2CBFC7"/>
</linearGradient>
<linearGradient id="paint28_linear" x1="84994.8" y1="31739.4" x2="78455" y2="74659.2" gradientUnits="userSpaceOnUse">
<stop stop-color="#3ADAFF"/>
<stop offset="1" stop-color="#2CBFC7"/>
</linearGradient>
<linearGradient id="paint29_linear" x1="36653.1" y1="10040.2" x2="39396.2" y2="8023.85" gradientUnits="userSpaceOnUse">
<stop stop-color="#F8A980"/>
<stop offset="1" stop-color="#FFDF75"/>
</linearGradient>
<linearGradient id="paint30_linear" x1="19844.7" y1="34553" x2="20934.9" y2="34553" gradientUnits="userSpaceOnUse">
<stop stop-color="#4789EC"/>
<stop offset="1" stop-color="#54D169"/>
</linearGradient>
<linearGradient id="paint31_linear" x1="455.517" y1="890.658" x2="494.114" y2="890.658" gradientUnits="userSpaceOnUse">
<stop stop-color="#334752"/>
<stop offset="1" stop-color="#6A6D89"/>
</linearGradient>
<linearGradient id="paint32_linear" x1="23497" y1="129679" x2="35472" y2="128421" gradientUnits="userSpaceOnUse">
<stop stop-color="#0470AE"/>
<stop offset="1" stop-color="#029CF5"/>
</linearGradient>
<linearGradient id="paint33_linear" x1="16981.1" y1="20120.8" x2="16328.9" y2="19317.9" gradientUnits="userSpaceOnUse">
<stop stop-color="#F8A980"/>
<stop offset="1" stop-color="#FFDF75"/>
</linearGradient>
<linearGradient id="paint34_linear" x1="19578.8" y1="15790.1" x2="20771.2" y2="15126" gradientUnits="userSpaceOnUse">
<stop stop-color="#D28259"/>
<stop offset="1" stop-color="#FFDF75"/>
</linearGradient>
<linearGradient id="paint35_linear" x1="25637.8" y1="16674.7" x2="25613.8" y2="16437.4" gradientUnits="userSpaceOnUse">
<stop stop-color="#334752"/>
<stop offset="1" stop-color="#6A6D89"/>
</linearGradient>
<linearGradient id="paint36_linear" x1="40156.1" y1="174013" x2="16860" y2="166551" gradientUnits="userSpaceOnUse">
<stop stop-color="#15EDED"/>
<stop offset="1" stop-color="#029CF5"/>
</linearGradient>
<linearGradient id="paint37_linear" x1="41693.1" y1="58641.2" x2="49789.2" y2="74916.9" gradientUnits="userSpaceOnUse">
<stop stop-color="#7AABF5"/>
<stop offset="1" stop-color="#54D169"/>
</linearGradient>
<linearGradient id="paint38_linear" x1="54578.7" y1="12879.3" x2="60476.9" y2="10063.1" gradientUnits="userSpaceOnUse">
<stop stop-color="#F8A980"/>
<stop offset="1" stop-color="#FFDF75"/>
</linearGradient>
<linearGradient id="paint39_linear" x1="33539.2" y1="37697.9" x2="30263.5" y2="33917.9" gradientUnits="userSpaceOnUse">
<stop stop-color="#029CF5"/>
<stop offset="1" stop-color="#4789EC"/>
</linearGradient>
<linearGradient id="paint40_linear" x1="-144074" y1="-13895" x2="-147500" y2="-16783.1" gradientUnits="userSpaceOnUse">
<stop stop-color="#F8A980"/>
<stop offset="1" stop-color="#FFDF75"/>
</linearGradient>
<linearGradient id="paint41_linear" x1="881.966" y1="866.312" x2="838.187" y2="846.592" gradientUnits="userSpaceOnUse">
<stop stop-color="#EDF2F6"/>
<stop offset="1" stop-color="#C3D0D8"/>
</linearGradient>
<linearGradient id="paint42_linear" x1="-164215" y1="17964.6" x2="-165350" y2="17964.6" gradientUnits="userSpaceOnUse">
<stop stop-color="#334752"/>
<stop offset="1" stop-color="#6A6D89"/>
</linearGradient>
<linearGradient id="paint43_linear" x1="1044.83" y1="1175.25" x2="725.174" y2="1047.72" gradientUnits="userSpaceOnUse">
<stop stop-color="#00FFFF"/>
<stop offset="1" stop-color="#00D1FF"/>
</linearGradient>
<linearGradient id="paint44_linear" x1="-139382" y1="33825.9" x2="-138553" y2="32805.8" gradientUnits="userSpaceOnUse">
<stop stop-color="#F8A980"/>
<stop offset="1" stop-color="#FFDF75"/>
</linearGradient>
<linearGradient id="paint45_linear" x1="-165802" y1="26916.9" x2="-167318" y2="26071.5" gradientUnits="userSpaceOnUse">
<stop stop-color="#F8A980"/>
<stop offset="1" stop-color="#FFDF75"/>
</linearGradient>
<linearGradient id="paint46_linear" x1="-210274" y1="25201.7" x2="-210244" y2="24900.1" gradientUnits="userSpaceOnUse">
<stop stop-color="#334752"/>
<stop offset="1" stop-color="#6A6D89"/>
</linearGradient>
<linearGradient id="paint47_linear" x1="50305.1" y1="224851" x2="53728.5" y2="224851" gradientUnits="userSpaceOnUse">
<stop stop-color="#00F0FF"/>
<stop offset="1" stop-color="#FFC400"/>
</linearGradient>
<linearGradient id="paint48_linear" x1="64118.8" y1="107582" x2="80792.9" y2="117586" gradientUnits="userSpaceOnUse">
<stop stop-color="#EDF2F6"/>
<stop offset="1" stop-color="#C3D0D8"/>
</linearGradient>
<linearGradient id="paint49_linear" x1="-720072" y1="285557" x2="-721068" y2="290609" gradientUnits="userSpaceOnUse">
<stop stop-color="#F8A980"/>
<stop offset="1" stop-color="#FFDF75"/>
</linearGradient>
<linearGradient id="paint50_linear" x1="24894.8" y1="54240.3" x2="29497.8" y2="57141" gradientUnits="userSpaceOnUse">
<stop stop-color="#EDF2F6"/>
<stop offset="1" stop-color="#C3D0D8"/>
</linearGradient>
<linearGradient id="paint51_linear" x1="553.028" y1="1076.72" x2="539.343" y2="1221.69" gradientUnits="userSpaceOnUse">
<stop stop-color="#FFDF40"/>
<stop offset="1" stop-color="#FF8359"/>
</linearGradient>
<linearGradient id="paint52_linear" x1="124334" y1="106880" x2="123357" y2="116655" gradientUnits="userSpaceOnUse">
<stop stop-color="#FFDF40"/>
<stop offset="1" stop-color="#FF8359"/>
</linearGradient>
<linearGradient id="paint53_linear" x1="128263" y1="108551" x2="127931" y2="122374" gradientUnits="userSpaceOnUse">
<stop stop-color="#AFF57A"/>
<stop offset="1" stop-color="#54D169"/>
</linearGradient>
<linearGradient id="paint54_linear" x1="133112" y1="99771.6" x2="127242" y2="118357" gradientUnits="userSpaceOnUse">
<stop stop-color="#AFF57A"/>
<stop offset="1" stop-color="#54D169"/>
</linearGradient>
<linearGradient id="paint55_linear" x1="128945" y1="101097" x2="127494" y2="115938" gradientUnits="userSpaceOnUse">
<stop stop-color="#15EDED"/>
<stop offset="1" stop-color="#029CF5"/>
</linearGradient>
<linearGradient id="paint56_linear" x1="129689" y1="97701.4" x2="125718" y2="116713" gradientUnits="userSpaceOnUse">
<stop stop-color="#15EDED"/>
<stop offset="1" stop-color="#029CF5"/>
</linearGradient>
<linearGradient id="paint57_linear" x1="260.145" y1="928.516" x2="276.05" y2="1023.87" gradientUnits="userSpaceOnUse">
<stop stop-color="#EDF2F6"/>
<stop offset="1" stop-color="#E6E4EB"/>
</linearGradient>
<linearGradient id="paint58_linear" x1="726685" y1="72039" x2="725947" y2="79218.9" gradientUnits="userSpaceOnUse">
<stop stop-color="#EDF2F6"/>
<stop offset="1" stop-color="#E6E4EB"/>
</linearGradient>
<linearGradient id="paint59_linear" x1="14362.7" y1="50884.4" x2="14131.5" y2="53200.6" gradientUnits="userSpaceOnUse">
<stop stop-color="#EDF2F6"/>
<stop offset="1" stop-color="#E6E4EB"/>
</linearGradient>
<linearGradient id="paint60_linear" x1="27695.9" y1="52615.3" x2="28102" y2="56170.8" gradientUnits="userSpaceOnUse">
<stop stop-color="#AFF57A"/>
<stop offset="1" stop-color="#54D169"/>
</linearGradient>
<linearGradient id="paint61_linear" x1="28818.7" y1="48316.8" x2="28362.9" y2="53223.5" gradientUnits="userSpaceOnUse">
<stop stop-color="#AFF57A"/>
<stop offset="1" stop-color="#54D169"/>
</linearGradient>
<linearGradient id="paint62_linear" x1="30397.5" y1="41008.7" x2="30231.5" y2="42672.8" gradientUnits="userSpaceOnUse">
<stop stop-color="#EDF2F6"/>
<stop offset="1" stop-color="#E6E4EB"/>
</linearGradient>
<linearGradient id="paint63_linear" x1="380.091" y1="1001.94" x2="391.773" y2="1067.71" gradientUnits="userSpaceOnUse">
<stop stop-color="#59C2FF"/>
<stop offset="1" stop-color="#1270E3"/>
</linearGradient>
<linearGradient id="paint64_linear" x1="42567.6" y1="39068.3" x2="42240.3" y2="42590.1" gradientUnits="userSpaceOnUse">
<stop stop-color="#59C2FF"/>
<stop offset="1" stop-color="#1270E3"/>
</linearGradient>
</defs>
</svg>
