<svg width="1500" height="573" viewBox="0 0 1500 573" fill="none" xmlns="http://www.w3.org/2000/svg">
<g clip-path="url(#clip0)">
<path fill-rule="evenodd" clip-rule="evenodd" d="M1500 0H0V383V468.137L28.125 482.409C28.5911 482.644 29.0655 482.883 29.5478 483.126C57.36 497.152 111.883 524.647 166.406 519.81C194.348 517.579 222.488 506.856 250.626 496.134C278.347 485.571 306.067 475.009 333.594 472.566C361.328 470.352 389.062 476.257 416.797 482.163C444.531 488.068 472.266 493.974 500 491.759C520.308 489.957 540.616 483.736 560.925 477.514C596.085 466.743 631.246 455.971 666.406 468.137C692.02 476.772 717.799 497.58 743.592 518.397C773.656 542.663 803.738 566.942 833.594 571.975C879.194 579.662 924.794 542.782 970.394 505.902C980.263 497.92 990.131 489.939 1000 482.409C1055.47 439.594 1110.94 411.543 1166.41 406.622C1221.88 401.701 1278.12 420.893 1333.59 448.944C1389.06 477.488 1444.53 515.381 1471.88 534.082L1500 553.274V383V0Z" fill="url(#paint0_linear)"/>
<path d="M221.427 127.378C156.907 223.634 31.5835 265.631 -83.2378 239.547C-198.109 214.075 -303.039 119.859 -309.187 22.0886C-315.615 -76.013 -223.26 -177.67 -106.276 -226.818C10.9885 -275.635 152.552 -271.664 221.387 -195.197C290.171 -118.119 285.896 31.7333 221.427 127.378Z" fill="#9BDBFF" fill-opacity="0.3"/>
<path d="M192.191 109.788C136.4 193.181 27.8229 229.427 -71.7479 206.638C-171.361 184.38 -262.456 102.514 -267.925 17.7059C-273.638 -67.3897 -193.726 -155.427 -92.3887 -197.887C9.1926 -240.059 131.913 -236.411 191.693 -169.99C251.429 -103.04 247.938 26.9257 192.191 109.788Z" fill="#9BDBFF" fill-opacity="0.29"/>
<path d="M156.135 87.5552C110.709 155.355 22.4348 184.911 -58.4581 166.505C-139.386 148.529 -213.329 82.1238 -217.684 13.2391C-222.238 -55.8789 -157.204 -127.476 -74.8071 -162.073C7.78794 -196.437 107.514 -193.602 156.024 -139.711C204.499 -85.3894 201.526 20.1865 156.135 87.5552Z" fill="#9BDBFF" fill-opacity="0.41"/>
<path d="M1490.45 43.7711C1441.22 117.212 1345.6 149.255 1257.99 129.354C1170.35 109.919 1090.29 38.0346 1085.6 -36.5625C1080.69 -111.412 1151.16 -188.974 1240.42 -226.473C1329.89 -263.72 1437.9 -260.69 1490.42 -202.347C1542.9 -143.538 1539.63 -29.2037 1490.45 43.7711Z" fill="#9BDBFF" fill-opacity="0.3"/>
<path d="M1467.71 30.0868C1425.27 93.5264 1342.67 121.099 1266.92 103.764C1191.14 86.8314 1121.84 24.553 1117.68 -39.9633C1113.34 -104.698 1174.13 -171.671 1251.22 -203.971C1328.5 -236.053 1421.85 -233.278 1467.33 -182.75C1512.77 -131.818 1510.12 -32.9495 1467.71 30.0868Z" fill="#9BDBFF" fill-opacity="0.29"/>
<path d="M1441.11 13.6818C1406.31 65.6213 1338.69 88.2639 1276.72 74.1631C1214.72 60.3923 1158.07 9.52095 1154.74 -43.25C1151.25 -96.1996 1201.07 -151.049 1264.19 -177.553C1327.47 -203.878 1403.86 -201.706 1441.03 -160.422C1478.16 -118.807 1475.89 -37.9277 1441.11 13.6818Z" fill="#9BDBFF" fill-opacity="0.42"/>
</g>
<defs>
<linearGradient id="paint0_linear" x1="-420" y1="185" x2="1480" y2="837" gradientUnits="userSpaceOnUse">
<stop stop-color="#169CBA"/>
<stop offset="1" stop-color="#1C60C7" stop-opacity="0.71"/>
</linearGradient>
<clipPath id="clip0">
<rect width="1500" height="573" fill="white"/>
</clipPath>
</defs>
</svg>
