<svg width="740" height="933" viewBox="0 0 740 933" fill="none" xmlns="http://www.w3.org/2000/svg">
<path fill-rule="evenodd" clip-rule="evenodd" d="M740 0H0V743V749V828.137L13.875 842.409L14.5769 843.126C28.2976 857.152 55.1957 884.647 82.0938 879.81C95.8783 877.579 109.761 866.856 123.642 856.134C137.318 845.571 150.993 835.009 164.573 832.566C178.255 830.352 191.938 836.257 205.62 842.163C219.302 848.068 232.984 853.974 246.667 851.759C256.685 849.957 266.704 843.736 276.723 837.514C294.069 826.743 311.415 815.971 328.76 828.137C341.396 836.772 354.114 857.58 366.839 878.397C381.671 902.663 396.511 926.942 411.24 931.975C433.736 939.662 456.232 902.782 478.728 865.902C483.596 857.92 488.465 849.939 493.333 842.409C520.698 799.594 548.062 771.543 575.427 766.622C602.792 761.701 630.542 780.893 657.906 808.944C685.271 837.488 712.635 875.381 726.125 894.082L740 913.274V749V743V0Z" fill="url(#paint0_linear)"/>
<defs>
<linearGradient id="paint0_linear" x1="-207.2" y1="185" x2="811.321" y2="357.427" gradientUnits="userSpaceOnUse">
<stop stop-color="#169CBA"/>
<stop offset="1" stop-color="#1C60C7" stop-opacity="0.71"/>
</linearGradient>
</defs>
</svg>
