<svg width="1920" height="1024" viewBox="0 0 1920 1024" fill="none" xmlns="http://www.w3.org/2000/svg">
<g clip-path="url(#clip0)">
<path fill-rule="evenodd" clip-rule="evenodd" d="M1920 0H0V709V850.148L36 873.809C36.5966 874.199 37.2037 874.595 37.8211 874.998C73.4206 898.251 143.21 943.836 213 935.817C248.765 932.118 284.784 914.341 320.802 896.564C356.284 879.052 391.765 861.54 427 857.492C462.5 853.82 498 863.611 533.5 873.401C569 883.192 604.5 892.983 640 889.311C665.995 886.324 691.989 876.009 717.984 865.695C762.989 847.837 807.995 829.979 853 850.148C885.785 864.465 918.783 898.961 951.798 933.475C990.28 973.704 1028.79 1013.96 1067 1022.3C1125.37 1035.04 1183.74 973.901 1242.1 912.758C1254.74 899.525 1267.37 886.293 1280 873.809C1351 802.827 1422 756.321 1493 748.163C1564 740.004 1636 771.823 1707 818.329C1778 865.65 1849 928.474 1884 959.477L1920 991.297V709V0Z" fill="url(#paint0_linear)"/>
<path d="M397.609 280.997C314.058 405.648 151.765 460.033 3.07313 426.255C-145.684 393.269 -281.567 271.261 -289.528 144.649C-297.852 17.6091 -178.254 -114.035 -26.7614 -177.682C125.095 -240.899 308.418 -235.756 397.558 -136.733C486.633 -36.9183 481.096 157.139 397.609 280.997Z" fill="#9BDBFF" fill-opacity="0.3"/>
<path d="M334.311 242.651C269.462 339.583 143.257 381.713 27.5203 355.225C-88.2659 329.353 -194.15 234.195 -200.507 135.618C-207.148 36.7066 -114.262 -65.624 3.52821 -114.977C121.602 -163.996 264.247 -159.756 333.732 -82.5519C403.167 -4.7315 399.109 146.335 334.311 242.651Z" fill="#9BDBFF" fill-opacity="0.29"/>
<path d="M259.717 196.84C216.449 261.419 132.368 289.571 55.3176 272.039C-21.7663 254.917 -92.1965 191.666 -96.3452 126.054C-100.682 60.2191 -38.7381 -7.97749 39.7452 -40.931C118.417 -73.6623 213.406 -70.9624 259.612 -19.6312C305.784 32.1103 302.952 132.671 259.717 196.84Z" fill="#9BDBFF" fill-opacity="0.41"/>
<path d="M1788.21 128.604C1723.29 225.46 1597.19 267.719 1481.65 241.473C1366.06 215.841 1260.48 121.039 1254.29 22.6582C1247.82 -76.0551 1340.75 -178.346 1458.47 -227.801C1576.46 -276.922 1718.91 -272.926 1788.17 -195.983C1857.39 -118.424 1853.09 32.363 1788.21 128.604Z" fill="#9BDBFF" fill-opacity="0.3"/>
<path d="M1739.03 98.8076C1688.64 174.126 1590.58 206.862 1500.65 186.28C1410.68 166.177 1328.4 92.2375 1323.46 15.6407C1318.3 -61.2158 1390.48 -140.729 1482 -179.078C1573.75 -217.167 1684.59 -213.872 1738.58 -153.883C1792.53 -93.4142 1789.38 23.9678 1739.03 98.8076Z" fill="#9BDBFF" fill-opacity="0.29"/>
<path d="M1681.07 63.2116C1647.45 113.391 1582.12 135.266 1522.25 121.643C1462.35 108.339 1407.62 59.1918 1404.4 8.20917C1401.03 -42.946 1449.16 -95.9364 1510.15 -121.542C1571.27 -146.975 1645.08 -144.877 1680.99 -104.992C1716.86 -64.7872 1714.66 13.351 1681.07 63.2116Z" fill="#9BDBFF" fill-opacity="0.42"/>
</g>
<defs>
<linearGradient id="paint0_linear" x1="9.71755e-06" y1="185" x2="1900" y2="837" gradientUnits="userSpaceOnUse">
<stop stop-color="#169CBA"/>
<stop offset="1" stop-color="#1C60C7" stop-opacity="0.71"/>
</linearGradient>
<clipPath id="clip0">
<rect width="1920" height="1024" fill="white"/>
</clipPath>
</defs>
</svg>
