<svg width="1020" height="1177" viewBox="0 0 1020 1177" fill="none" xmlns="http://www.w3.org/2000/svg">
<g clip-path="url(#clip0)">
<path fill-rule="evenodd" clip-rule="evenodd" d="M1020 0H0V987V995V1072.14L19.125 1086.41L20.0921 1087.13C39.0042 1101.15 76.0803 1128.65 113.156 1123.81C132.157 1121.58 151.292 1110.86 170.426 1100.13C189.276 1089.57 208.125 1079.01 226.844 1076.57C245.703 1074.35 264.562 1080.26 283.422 1086.16C302.281 1092.07 321.141 1097.97 340 1095.76C353.81 1093.96 367.619 1087.74 381.429 1081.51C405.338 1070.74 429.247 1059.97 453.156 1072.14C470.573 1080.77 488.104 1101.58 505.643 1122.4C526.086 1146.66 546.542 1170.94 566.844 1175.98C597.852 1183.66 628.86 1146.78 659.868 1109.9C666.579 1101.92 673.289 1093.94 680 1086.41C717.719 1043.59 755.438 1015.54 793.156 1010.62C830.875 1005.7 869.125 1024.89 906.844 1052.94C944.562 1081.49 982.281 1119.38 1000.88 1138.08L1020 1157.27V995V987V0Z" fill="url(#paint0_linear)"/>
<path d="M-306.235 553.031C-372.154 457.728 -365.307 325.732 -298.963 228.455C-233.17 130.908 -107.058 67.7999 -13.8347 97.9065C79.7988 127.873 140.543 251.054 143.406 377.911C145.858 504.908 90.2887 635.169 -6.08218 671.196C-103.004 706.952 -240.867 648.063 -306.235 553.031Z" fill="#9BDBFF" fill-opacity="0.3"/>
<path d="M-279.156 532.274C-336.305 449.806 -330.243 335.5 -272.554 251.205C-215.342 166.676 -105.79 111.917 -24.8765 137.904C56.3937 163.77 109.025 270.384 111.398 380.231C113.414 490.2 65.0508 603.048 -18.6547 634.331C-102.838 665.38 -222.485 614.508 -279.156 532.274Z" fill="#9BDBFF" fill-opacity="0.29"/>
<path d="M-245.257 506.873C-291.695 439.763 -286.849 346.798 -240.081 278.277C-193.701 209.564 -104.82 165.098 -39.1302 186.287C26.8488 207.378 69.6358 294.123 71.6332 383.467C73.341 472.909 34.1607 564.66 -33.7577 590.048C-102.064 615.246 -199.207 573.793 -245.257 506.873Z" fill="#9BDBFF" fill-opacity="0.41"/>
<path d="M901.552 489.47C853.372 415.338 861.494 314.82 914.229 242.088C966.551 169.138 1064.12 123.778 1134.55 148.788C1205.31 173.7 1248.93 268.98 1248.32 365.792C1247.4 462.702 1202.16 560.827 1127.87 586.186C1053.17 611.326 949.318 563.384 901.552 489.47Z" fill="#9BDBFF" fill-opacity="0.3"/>
<path d="M923.072 473.942C881.422 409.98 888.536 323.193 934.25 260.357C979.606 197.334 1064.11 158.094 1125.07 179.628C1186.3 201.077 1223.99 283.301 1223.39 366.882C1222.51 450.549 1183.26 535.301 1118.93 557.255C1054.23 579.021 964.364 537.716 923.072 473.942Z" fill="#9BDBFF" fill-opacity="0.29"/>
<path d="M948.611 455.935C914.531 403.52 920.293 332.438 957.618 280.999C994.65 229.406 1063.69 197.316 1113.53 214.991C1163.59 232.596 1194.44 299.967 1193.99 368.426C1193.33 436.955 1161.3 506.35 1108.73 524.293C1055.87 542.081 982.398 508.195 948.611 455.935Z" fill="#9BDBFF" fill-opacity="0.42"/>
</g>
<defs>
<linearGradient id="paint0_linear" x1="-285.6" y1="185" x2="1083.97" y2="504.585" gradientUnits="userSpaceOnUse">
<stop stop-color="#169CBA"/>
<stop offset="1" stop-color="#1C60C7" stop-opacity="0.71"/>
</linearGradient>
<clipPath id="clip0">
<rect width="1020" height="1177" fill="white"/>
</clipPath>
</defs>
</svg>
