<svg width="740" height="1045" viewBox="0 0 740 1045" fill="none" xmlns="http://www.w3.org/2000/svg">
<g clip-path="url(#clip0)">
<path fill-rule="evenodd" clip-rule="evenodd" d="M740 0H0V855V871V940.137L13.875 954.409L14.5769 955.126C28.2976 969.152 55.1957 996.647 82.0938 991.81C95.8783 989.579 109.761 978.856 123.642 968.134C137.318 957.571 150.993 947.009 164.573 944.566C178.255 942.352 191.938 948.257 205.62 954.163C219.302 960.068 232.984 965.974 246.667 963.759C256.685 961.957 266.704 955.736 276.723 949.514C294.069 938.743 311.415 927.971 328.76 940.137C341.396 948.772 354.114 969.58 366.839 990.397C381.671 1014.66 396.511 1038.94 411.24 1043.98C433.736 1051.66 456.232 1014.78 478.728 977.902C483.596 969.92 488.465 961.939 493.333 954.409C520.698 911.594 548.062 883.543 575.427 878.622C602.792 873.701 630.542 892.893 657.906 920.944C685.271 949.488 712.635 987.381 726.125 1006.08L740 1025.27V871V855V0Z" fill="url(#paint0_linear)"/>
<path d="M-332.235 533.031C-398.154 437.728 -391.307 305.732 -324.963 208.455C-259.17 110.908 -133.058 47.7999 -39.8347 77.9065C53.7988 107.873 114.543 231.054 117.406 357.911C119.858 484.908 64.2887 615.169 -32.0822 651.196C-129.004 686.952 -266.867 628.063 -332.235 533.031Z" fill="#9BDBFF" fill-opacity="0.3"/>
<path d="M-305.156 512.274C-362.305 429.806 -356.243 315.5 -298.554 231.205C-241.342 146.676 -131.79 91.9167 -50.8765 117.904C30.3937 143.77 83.0252 250.384 85.3981 360.231C87.4142 470.2 39.0508 583.048 -44.6547 614.331C-128.838 645.38 -248.485 594.508 -305.156 512.274Z" fill="#9BDBFF" fill-opacity="0.29"/>
<path d="M-271.257 486.873C-317.695 419.763 -312.849 326.798 -266.081 258.277C-219.701 189.564 -130.82 145.098 -65.1302 166.287C0.848768 187.378 43.6358 274.123 45.6332 363.467C47.341 452.909 8.16068 544.66 -59.7577 570.048C-128.064 595.246 -225.207 553.793 -271.257 486.873Z" fill="#9BDBFF" fill-opacity="0.41"/>
<path d="M677.552 483.47C629.372 409.338 637.494 308.82 690.229 236.088C742.551 163.138 840.119 117.778 910.555 142.788C981.307 167.7 1024.93 262.98 1024.32 359.792C1023.4 456.702 978.161 554.827 903.871 580.186C829.167 605.326 725.318 557.384 677.552 483.47Z" fill="#9BDBFF" fill-opacity="0.3"/>
<path d="M699.072 467.942C657.422 403.98 664.536 317.193 710.25 254.357C755.606 191.334 840.111 152.094 901.07 173.628C962.302 195.077 999.989 277.301 999.387 360.882C998.511 444.549 959.262 529.301 894.926 551.255C830.231 573.021 740.364 531.716 699.072 467.942Z" fill="#9BDBFF" fill-opacity="0.29"/>
<path d="M724.611 449.935C690.531 397.52 696.293 326.438 733.618 274.999C770.65 223.406 839.692 191.316 889.527 208.991C939.586 226.596 970.436 293.967 969.995 362.426C969.329 430.955 937.303 500.35 884.733 518.293C831.871 536.081 758.398 502.195 724.611 449.935Z" fill="#9BDBFF" fill-opacity="0.42"/>
</g>
<defs>
<linearGradient id="paint0_linear" x1="-207.2" y1="185" x2="811.321" y2="357.427" gradientUnits="userSpaceOnUse">
<stop stop-color="#169CBA"/>
<stop offset="1" stop-color="#1C60C7" stop-opacity="0.71"/>
</linearGradient>
<clipPath id="clip0">
<rect width="740" height="1045" fill="white"/>
</clipPath>
</defs>
</svg>
