<svg width="1048" height="1400" viewBox="0 0 1048 1400" fill="none" xmlns="http://www.w3.org/2000/svg">
<g clip-path="url(#clip0)">
<path fill-rule="evenodd" clip-rule="evenodd" d="M0 0L21.8333 17.9666C43.6667 35.9332 87.3333 71.2468 131 71.2468C156.141 71.2468 181.283 59.5404 206.424 47.8341C224.949 39.2083 243.475 30.5826 262 26.6401C305.667 17.9666 349.333 35.9332 393 58.2365C397.776 60.6757 402.551 63.1669 407.327 65.658L407.328 65.6585C446.219 85.9449 485.109 106.231 524 98.5064C544.402 94.1646 564.803 82.1142 585.205 70.0638C608.47 56.3222 631.735 42.5805 655 40.2699C691.294 36.6653 727.589 60.4529 763.883 84.2404C771.255 89.0723 778.628 93.9041 786 98.5064C829.667 125.147 873.333 143.113 917 129.483C960.667 115.853 1004.33 71.2468 1026.17 48.9434L1048 26.6401V197V241V1280V1289V1338.54L1031.99 1350.72C1031.57 1351.04 1031.14 1351.37 1030.71 1351.7C1014.35 1364.16 983.848 1387.4 952.661 1392.01C920.639 1397.09 889.344 1382.2 857.322 1365.28C854.029 1363.5 850.728 1361.69 847.42 1359.87C819.289 1344.44 790.636 1328.73 761.983 1328.73C747.429 1328.73 732.718 1332.97 717.922 1337.24C700.904 1342.15 683.774 1347.1 666.644 1345.65C653.941 1344.69 641.118 1340.1 628.223 1335.49C609.352 1328.74 590.329 1321.94 571.306 1326.36C552.776 1330.57 533.992 1346.05 515.255 1361.48C502.346 1372.12 489.46 1382.74 476.694 1389.64C444.672 1406.56 412.65 1401.82 381.356 1382.2C371.53 1376.28 361.704 1368.96 351.9 1361.65C329.751 1345.15 307.709 1328.73 286.017 1328.73C265.485 1328.73 244.954 1342.78 224.615 1356.7C213.231 1364.49 201.908 1372.24 190.678 1377.46C158.656 1392.01 127.361 1387.27 95.3389 1377.46C63.3167 1367.64 32.0222 1353.09 16.0111 1345.65L0 1338.54V1289V1280V241V197V0Z" fill="url(#paint0_linear)"/>
<g opacity="0.57">
<path d="M778.75 848.498C719.434 780.206 713.444 677.204 756.597 596.039C799.299 514.711 891.759 454.931 966.679 470.296C1041.91 485.518 1099.59 575.884 1112.68 674.065C1125.46 772.391 1093.49 878.225 1021.79 914.442C949.641 950.496 837.615 916.627 778.75 848.498Z" fill="#F1FAFF" fill-opacity="0.46"/>
<path d="M805.905 822.799C757.567 767.157 752.697 683.225 787.879 617.08C822.694 550.803 898.062 502.079 959.126 514.591C1020.44 526.986 1067.45 600.615 1078.1 680.619C1088.5 760.74 1062.44 846.985 1003.99 876.506C945.181 905.894 853.876 878.308 805.905 822.799Z" fill="#F1FAFF" fill-opacity="0.34"/>
<path d="M838.106 792.659C802.592 751.649 798.881 689.903 824.549 641.308C849.948 592.616 905.092 556.904 949.857 566.21C994.806 575.431 1029.38 629.671 1037.32 688.537C1045.08 747.489 1026.12 810.884 983.346 832.5C940.302 854.018 873.351 833.572 838.106 792.659Z" fill="#F1FAFF" fill-opacity="0.46"/>
</g>
<g opacity="0.48">
<path d="M340.496 547.575C375.702 630.897 349.448 730.677 283.247 794.453C217.423 858.524 110.981 886.675 44.5229 848.829C-22.2719 811.024 -49.0833 707.221 -31.0686 609.823C-12.7177 512.384 50.5009 421.686 129.898 409.495C209.673 397.599 305.667 464.547 340.496 547.575Z" fill="#F1FAFF" fill-opacity="0.46"/>
<path d="M306.709 563.583C335.403 631.475 313.998 712.778 260.034 764.747C206.378 816.955 119.614 839.897 65.4432 809.062C10.9987 778.26 -10.8519 693.68 3.83598 614.318C18.7979 534.922 70.3321 461.017 135.051 451.081C200.077 441.385 278.322 495.932 306.709 563.583Z" fill="#F1FAFF" fill-opacity="0.34"/>
<path d="M266.747 582.248C287.788 632.251 272.163 692.103 232.688 730.339C193.438 768.751 129.937 785.597 90.266 762.864C50.3948 740.155 34.3543 677.868 45.0637 619.441C55.9737 560.99 93.6584 506.602 141.029 499.321C188.625 492.216 245.931 532.421 266.747 582.248Z" fill="#F1FAFF" fill-opacity="0.46"/>
</g>
</g>
<defs>
<linearGradient id="paint0_linear" x1="-356" y1="97" x2="1016" y2="761" gradientUnits="userSpaceOnUse">
<stop stop-color="#169CBA"/>
<stop offset="1" stop-color="#1C4CC7" stop-opacity="0.86"/>
</linearGradient>
<clipPath id="clip0">
<rect width="1048" height="1400" fill="white"/>
</clipPath>
</defs>
</svg>
