<svg width="1048" height="933" viewBox="0 0 1048 933" fill="none" xmlns="http://www.w3.org/2000/svg">
<g clip-path="url(#clip0)">
<path fill-rule="evenodd" clip-rule="evenodd" d="M0 0L21.8333 17.9666C43.6667 35.9332 87.3333 71.2468 131 71.2468C156.141 71.2468 181.283 59.5404 206.424 47.8341C224.949 39.2083 243.475 30.5826 262 26.6401C305.667 17.9666 349.333 35.9332 393 58.2365C397.776 60.6757 402.551 63.1669 407.327 65.658L407.328 65.6585C446.219 85.9449 485.109 106.231 524 98.5064C544.402 94.1646 564.803 82.1142 585.205 70.0638C608.47 56.3222 631.735 42.5805 655 40.2699C691.294 36.6653 727.589 60.4529 763.883 84.2404C771.255 89.0723 778.628 93.9041 786 98.5064C829.667 125.147 873.333 143.113 917 129.483C960.667 115.853 1004.33 71.2468 1026.17 48.9434L1048 26.6401V197V241V813V823V871.543L1031.99 883.725C1031.57 884.043 1031.14 884.368 1030.71 884.702C1014.35 897.164 983.848 920.395 952.661 925.009C920.639 930.085 889.344 915.196 857.322 898.276C854.029 896.496 850.728 894.685 847.42 892.871C819.289 877.443 790.636 861.729 761.983 861.729C747.429 861.729 732.718 865.974 717.922 870.243C700.904 875.154 683.774 880.097 666.644 878.649C653.941 877.687 641.118 873.101 628.223 868.49C609.352 861.741 590.329 854.938 571.306 859.36C552.776 863.568 533.992 879.045 515.255 894.484C502.346 905.121 489.46 915.739 476.694 922.64C444.672 939.56 412.65 934.823 381.356 915.196C371.53 909.277 361.704 901.957 351.9 894.652C329.751 878.151 307.709 861.729 286.017 861.729C265.485 861.729 244.954 875.779 224.615 889.698C213.231 897.488 201.908 905.237 190.678 910.458C158.656 925.009 127.361 920.272 95.3389 910.458C63.3167 900.645 32.0222 886.094 16.0111 878.649L0 871.543V823V813V241V197V0Z" fill="url(#paint0_linear)"/>
<g opacity="0.57">
<path d="M854.75 583.498C795.434 515.206 789.444 412.204 832.597 331.039C875.299 249.711 967.759 189.931 1042.68 205.296C1117.91 220.518 1175.59 310.884 1188.68 409.065C1201.46 507.391 1169.49 613.225 1097.79 649.442C1025.64 685.496 913.615 651.627 854.75 583.498Z" fill="#F1FAFF" fill-opacity="0.46"/>
<path d="M881.905 557.799C833.567 502.157 828.697 418.225 863.879 352.08C898.694 285.803 974.062 237.079 1035.13 249.591C1096.44 261.986 1143.45 335.615 1154.1 415.619C1164.5 495.74 1138.44 581.985 1079.99 611.506C1021.18 640.894 929.876 613.308 881.905 557.799Z" fill="#F1FAFF" fill-opacity="0.34"/>
<path d="M914.106 527.66C878.592 486.649 874.881 424.903 900.549 376.308C925.948 327.616 981.092 291.904 1025.86 301.21C1070.81 310.431 1105.38 364.671 1113.32 423.537C1121.08 482.489 1102.12 545.884 1059.35 567.5C1016.3 589.018 949.351 568.572 914.106 527.66Z" fill="#F1FAFF" fill-opacity="0.46"/>
</g>
<g opacity="0.48">
<path d="M353.496 358.575C388.702 441.897 362.448 541.677 296.247 605.453C230.423 669.524 123.981 697.675 57.5229 659.829C-9.27194 622.024 -36.0833 518.221 -18.0686 420.823C0.282333 323.384 63.5009 232.686 142.898 220.495C222.673 208.599 318.667 275.547 353.496 358.575Z" fill="#F1FAFF" fill-opacity="0.46"/>
<path d="M319.709 374.583C348.403 442.475 326.998 523.778 273.034 575.747C219.378 627.955 132.614 650.897 78.4432 620.062C23.9987 589.26 2.14815 504.68 16.836 425.318C31.798 345.922 83.3322 272.017 148.051 262.081C213.077 252.385 291.322 306.932 319.709 374.583Z" fill="#F1FAFF" fill-opacity="0.34"/>
<path d="M279.747 393.248C300.788 443.251 285.163 503.103 245.688 541.339C206.438 579.751 142.937 596.597 103.266 573.864C63.3948 551.155 47.3543 488.868 58.0637 430.441C68.9737 371.99 106.658 317.602 154.029 310.321C201.625 303.216 258.931 343.421 279.747 393.248Z" fill="#F1FAFF" fill-opacity="0.46"/>
</g>
</g>
<defs>
<linearGradient id="paint0_linear" x1="-356" y1="97" x2="1016" y2="761" gradientUnits="userSpaceOnUse">
<stop stop-color="#169CBA"/>
<stop offset="1" stop-color="#1C4CC7" stop-opacity="0.86"/>
</linearGradient>
<clipPath id="clip0">
<rect width="1048" height="933" fill="white"/>
</clipPath>
</defs>
</svg>
