<svg width="1440" height="709" viewBox="0 0 1440 709" fill="none" xmlns="http://www.w3.org/2000/svg">
<g clip-path="url(#clip0)">
<path fill-rule="evenodd" clip-rule="evenodd" d="M0 0L30 17.9666C60 35.9332 120 71.2468 180 71.2468C214.545 71.2468 249.091 59.5404 283.636 47.8341C309.091 39.2083 334.545 30.5826 360 26.6401C420 17.9666 480 35.9332 540 58.2365C546.562 60.6758 553.124 63.1669 559.686 65.658L559.688 65.6585C613.125 85.9449 666.562 106.231 720 98.5064C748.033 94.1646 776.066 82.1142 804.098 70.0638C836.066 56.3222 868.033 42.5805 900 40.2699C949.87 36.6653 999.74 60.4529 1049.61 84.2404C1059.74 89.0723 1069.87 93.9041 1080 98.5064C1140 125.147 1200 143.113 1260 129.483C1320 115.853 1380 71.2468 1410 48.9434L1440 26.6401V197V241V557V579V631.154L1418 646.585C1417.43 646.987 1416.84 647.4 1416.24 647.823C1393.76 663.608 1351.85 693.034 1309 698.878C1265 705.308 1222 686.448 1178 665.016C1173.48 662.761 1168.94 660.468 1164.39 658.17C1125.74 638.628 1086.37 618.724 1047 618.724C1027 618.724 1006.79 624.101 986.458 629.508C963.074 635.729 939.537 641.99 916 640.155C898.545 638.937 880.925 633.128 863.207 627.287C837.278 618.739 811.139 610.121 785 615.723C759.54 621.053 733.73 640.658 707.984 660.214C690.247 673.686 672.54 687.136 655 695.878C611 717.31 567 711.309 524 686.448C510.499 678.951 496.998 669.679 483.526 660.426C453.092 639.524 422.806 618.724 393 618.724C364.789 618.724 336.578 636.52 308.631 654.15C292.989 664.018 277.43 673.833 262 680.447C218 698.878 175 692.877 131 680.447C87 668.017 44 649.585 22 640.155L0 631.154V579V557V241V197V0Z" fill="url(#paint0_linear)"/>
<g opacity="0.57">
<path d="M1282.75 528.498C1223.43 460.206 1217.44 357.204 1260.6 276.039C1303.3 194.711 1395.76 134.931 1470.68 150.296C1545.91 165.518 1603.59 255.884 1616.68 354.065C1629.46 452.391 1597.49 558.225 1525.79 594.442C1453.64 630.496 1341.61 596.627 1282.75 528.498Z" fill="#F1FAFF" fill-opacity="0.46"/>
<path d="M1309.91 502.799C1261.57 447.157 1256.7 363.225 1291.88 297.08C1326.69 230.803 1402.06 182.079 1463.13 194.591C1524.44 206.986 1571.45 280.615 1582.1 360.619C1592.5 440.74 1566.44 526.985 1507.99 556.506C1449.18 585.894 1357.88 558.308 1309.91 502.799Z" fill="#F1FAFF" fill-opacity="0.34"/>
<path d="M1342.11 472.66C1306.59 431.649 1302.88 369.903 1328.55 321.308C1353.95 272.616 1409.09 236.904 1453.86 246.21C1498.81 255.431 1533.38 309.671 1541.32 368.537C1549.08 427.489 1530.12 490.884 1487.35 512.5C1444.3 534.018 1377.35 513.572 1342.11 472.66Z" fill="#F1FAFF" fill-opacity="0.46"/>
</g>
<g opacity="0.48">
<path d="M462.496 292.575C497.702 375.897 471.448 475.677 405.247 539.453C339.423 603.524 232.981 631.675 166.523 593.829C99.7281 556.024 72.9167 452.221 90.9314 354.823C109.282 257.384 172.501 166.686 251.898 154.495C331.673 142.599 427.667 209.547 462.496 292.575Z" fill="#F1FAFF" fill-opacity="0.46"/>
<path d="M428.709 308.583C457.403 376.475 435.998 457.778 382.034 509.747C328.378 561.955 241.614 584.897 187.443 554.062C132.999 523.26 111.148 438.68 125.836 359.318C140.798 279.922 192.332 206.017 257.051 196.081C322.077 186.385 400.322 240.932 428.709 308.583Z" fill="#F1FAFF" fill-opacity="0.34"/>
<path d="M388.747 327.248C409.788 377.251 394.163 437.103 354.688 475.339C315.438 513.751 251.937 530.597 212.266 507.864C172.395 485.155 156.354 422.868 167.064 364.441C177.974 305.99 215.658 251.602 263.029 244.321C310.625 237.216 367.931 277.421 388.747 327.248Z" fill="#F1FAFF" fill-opacity="0.46"/>
</g>
</g>
<defs>
<linearGradient id="paint0_linear" x1="36" y1="97" x2="1408" y2="761" gradientUnits="userSpaceOnUse">
<stop stop-color="#169CBA"/>
<stop offset="1" stop-color="#1C4CC7" stop-opacity="0.86"/>
</linearGradient>
<clipPath id="clip0">
<rect width="1440" height="709" fill="white"/>
</clipPath>
</defs>
</svg>
