<svg width="1920" height="886" viewBox="0 0 1920 886" fill="none" xmlns="http://www.w3.org/2000/svg">
<g clip-path="url(#clip0)">
<path fill-rule="evenodd" clip-rule="evenodd" d="M1920 0H0V525V569.88V582H10.8021L40 614.76C80 659.64 160 749.4 240 756.88C286.316 761.211 332.632 737.963 378.947 714.714C412.632 697.807 446.316 680.899 480 674.6C560 659.64 640 704.52 720 756.88C726.667 761.244 733.333 765.659 740 770.074C813.333 818.642 886.667 867.21 960 846.64C993.846 837.146 1027.69 812.925 1061.54 788.703C1107.69 755.674 1153.85 722.645 1200 726.96C1240 730.7 1280 762.49 1320 794.28C1360 826.07 1400 857.86 1440 861.6C1500 867.21 1560 809.708 1620 752.205C1640 733.038 1660 713.87 1680 697.04C1760 629.72 1840 599.8 1880 584.84L1887.59 582H1920V569.88V525V0Z" fill="url(#paint0_linear)"/>
<path d="M1915.48 -10.3257C1978.45 53.3432 2020.78 149.02 1991.46 220.119C1962.61 291.333 1863.18 337.774 1768.09 379.79C1673.6 421.495 1584.51 458.581 1497.11 447.977C1410.31 437.062 1325.06 378.885 1301.48 308C1278.37 237.23 1316.59 153.211 1341.68 65.9503C1367.38 -21.6218 1380.08 -112.863 1435.17 -147.352C1490.27 -181.841 1587.3 -159.694 1677.86 -132.732C1768.42 -105.771 1852.5 -73.9946 1915.48 -10.3257Z" fill="#56C8EC" fill-opacity="0.28"/>
<path d="M1867.08 16.7226C1919.75 69.9675 1955.14 149.98 1930.63 209.439C1906.5 268.994 1823.35 307.831 1743.83 342.968C1664.8 377.845 1590.3 408.859 1517.21 399.991C1444.62 390.863 1373.33 342.211 1353.61 282.931C1334.29 223.748 1366.25 153.485 1387.23 80.5105C1408.72 7.27595 1419.34 -69.0267 1465.42 -97.8692C1511.49 -126.712 1592.64 -108.191 1668.37 -85.6434C1744.1 -63.096 1814.42 -36.5223 1867.08 16.7226Z" fill="#56C8EC" fill-opacity="0.35"/>
<path d="M1814.67 48.7902C1856.05 90.6253 1883.86 153.492 1864.6 200.209C1845.64 247.002 1780.31 277.517 1717.83 305.125C1655.74 332.528 1597.2 356.896 1539.78 349.928C1482.74 342.757 1426.73 304.53 1411.23 257.953C1396.05 211.453 1421.16 156.246 1437.65 98.909C1454.53 41.3678 1462.87 -18.584 1499.08 -41.2459C1535.28 -63.9077 1599.04 -49.3556 1658.54 -31.6399C1718.04 -13.9242 1773.3 6.95511 1814.67 48.7902Z" fill="#63D1F3" fill-opacity="0.28"/>
<path d="M842.481 -157.394C899.495 -102.754 882.696 16.2504 848.59 122.29C814.483 228.792 763.069 323.255 682.13 357.058C600.681 390.397 490.217 363.54 398.079 317.235C305.432 270.467 231.619 205.176 216.857 131.551C202.094 57.9252 246.382 -24.0352 307.468 -79.6015C368.554 -135.168 445.93 -164.34 550.285 -183.788C654.641 -202.774 785.467 -212.035 842.481 -157.394Z" fill="#3FB7DD" fill-opacity="0.3"/>
<path d="M792.278 -115.618C839.608 -70.3305 825.662 28.304 797.349 116.192C769.035 204.464 726.354 282.758 659.163 310.775C591.548 338.408 499.847 316.148 423.358 277.769C346.447 239.006 285.172 184.891 272.917 123.868C260.662 62.8452 297.427 -5.0859 348.137 -51.1409C398.848 -97.1959 463.081 -121.375 549.712 -137.494C636.343 -153.23 744.948 -160.905 792.278 -115.618Z" fill="#3FB7DD" fill-opacity="0.3"/>
<path d="M730.779 -65.0464C766.246 -31.0808 755.796 42.895 734.579 108.811C713.362 175.015 681.378 233.735 631.028 254.748C580.36 275.473 511.643 258.778 454.325 229.994C396.691 200.921 350.774 160.335 341.59 114.568C332.407 68.801 359.957 17.8526 397.958 -16.6886C435.958 -51.2299 484.092 -69.364 549.01 -81.4535C613.928 -93.2551 695.312 -99.012 730.779 -65.0464Z" fill="#3FB7DD" fill-opacity="0.3"/>
</g>
<defs>
<linearGradient id="paint0_linear" x1="1077" y1="146" x2="1565.69" y2="1086.16" gradientUnits="userSpaceOnUse">
<stop stop-color="#169CBA"/>
<stop offset="1" stop-color="#1630BA" stop-opacity="0.15"/>
</linearGradient>
<clipPath id="clip0">
<rect width="1920" height="886" fill="white"/>
</clipPath>
</defs>
</svg>
