<svg width="1561" height="930" viewBox="0 0 1561 930" fill="none" xmlns="http://www.w3.org/2000/svg">
<g clip-path="url(#clip0)">
<path fill-rule="evenodd" clip-rule="evenodd" d="M1585 0H0V589V610V633.883L33.0208 678.765C66.0417 723.648 132.083 813.414 198.125 820.894C236.36 825.225 274.594 801.975 312.829 778.726C340.636 761.817 368.443 744.908 396.25 738.609C462.292 723.648 528.333 768.531 594.375 820.894C599.879 825.258 605.382 829.673 610.886 834.089C671.424 882.66 731.962 931.231 792.5 910.659C820.441 901.165 848.381 876.942 876.322 852.719C914.423 819.688 952.524 786.656 990.625 790.972C1023.65 794.712 1056.67 826.504 1089.69 858.296C1122.71 890.088 1155.73 921.88 1188.75 925.62C1238.28 931.231 1287.81 873.725 1337.34 816.219C1353.85 797.05 1370.36 777.881 1386.88 761.05C1452.92 693.726 1518.96 663.805 1551.98 648.844L1585 633.883V610V589V0Z" fill="url(#paint0_linear)"/>
<path d="M1659.48 29.2605C1722.45 92.9294 1764.78 188.607 1735.46 259.705C1706.61 330.92 1607.18 377.36 1512.09 419.376C1417.6 461.082 1328.51 498.167 1241.11 487.563C1154.31 476.648 1069.06 418.471 1045.48 347.586C1022.37 276.817 1060.59 192.798 1085.68 105.536C1111.38 17.9645 1124.08 -73.2764 1179.17 -107.765C1234.27 -142.255 1331.3 -120.108 1421.86 -93.1461C1512.42 -66.1846 1596.5 -34.4084 1659.48 29.2605Z" fill="#56C8EC" fill-opacity="0.28"/>
<path d="M1611.08 56.3088C1663.75 109.554 1699.14 189.566 1674.63 249.025C1650.5 308.58 1567.35 347.417 1487.83 382.554C1408.8 417.431 1334.3 448.445 1261.21 439.577C1188.62 430.449 1117.33 381.797 1097.61 322.517C1078.29 263.334 1110.25 193.071 1131.23 120.097C1152.72 46.8621 1163.34 -29.4406 1209.42 -58.283C1255.49 -87.1255 1336.64 -68.6045 1412.37 -46.0572C1488.1 -23.5098 1558.42 3.06393 1611.08 56.3088Z" fill="#56C8EC" fill-opacity="0.35"/>
<path d="M1558.67 88.3765C1600.05 130.212 1627.86 193.079 1608.6 239.795C1589.64 286.589 1524.31 317.103 1461.83 344.711C1399.74 372.114 1341.2 396.482 1283.78 389.515C1226.74 382.343 1170.73 344.116 1155.23 297.539C1140.05 251.039 1165.16 195.832 1181.65 138.495C1198.53 80.9541 1206.87 21.0022 1243.08 -1.65964C1279.28 -24.3215 1343.04 -9.76937 1402.54 7.94634C1462.04 25.662 1517.29 46.5414 1558.67 88.3765Z" fill="#63D1F3" fill-opacity="0.28"/>
<path d="M723.481 -117.808C780.495 -63.168 763.696 55.8367 729.589 161.876C695.483 268.378 644.069 362.841 563.13 396.644C481.681 429.984 371.217 403.126 279.079 356.821C186.432 310.053 112.619 244.762 97.8566 171.137C83.0941 97.5114 127.382 15.551 188.468 -40.0153C249.554 -95.5817 326.93 -124.754 431.285 -144.202C535.641 -163.187 666.467 -172.449 723.481 -117.808Z" fill="#3FB7DD" fill-opacity="0.3"/>
<path d="M673.278 -76.0317C720.608 -30.7443 706.662 67.8902 678.349 155.779C650.035 244.051 607.354 322.344 540.163 350.361C472.548 377.994 380.847 355.734 304.358 317.355C227.447 278.592 166.172 224.477 153.917 163.454C141.662 102.431 178.427 34.5003 229.137 -11.5547C279.848 -57.6097 344.081 -81.7886 430.712 -97.9079C517.343 -113.643 625.948 -121.319 673.278 -76.0317Z" fill="#3FB7DD" fill-opacity="0.3"/>
<path d="M611.779 -25.4602C647.246 8.50539 636.796 82.4813 615.579 148.397C594.362 214.602 562.378 273.322 512.028 294.334C461.36 315.059 392.643 298.364 335.325 269.58C277.691 240.508 231.774 199.922 222.59 154.154C213.407 108.387 240.957 57.4388 278.958 22.8976C316.958 -11.6437 365.092 -29.7778 430.01 -41.8673C494.927 -53.6689 576.312 -59.4257 611.779 -25.4602Z" fill="#3FB7DD" fill-opacity="0.3"/>
</g>
<defs>
<linearGradient id="paint0_linear" x1="1077" y1="146" x2="1565.69" y2="1086.16" gradientUnits="userSpaceOnUse">
<stop stop-color="#169CBA"/>
<stop offset="1" stop-color="#1630BA" stop-opacity="0.15"/>
</linearGradient>
<clipPath id="clip0">
<rect width="1561" height="930" fill="white"/>
</clipPath>
</defs>
</svg>
