<svg width="1220" height="661" viewBox="0 0 1220 661" fill="none" xmlns="http://www.w3.org/2000/svg">
<g clip-path="url(#clip0)">
<path fill-rule="evenodd" clip-rule="evenodd" d="M1220 0H0V379V391V414.959L25.4167 450.919C50.8333 486.878 101.667 558.797 152.5 564.79C181.93 568.26 211.36 549.633 240.789 531.006C262.193 517.459 283.596 503.912 305 498.865C355.833 486.878 406.667 522.838 457.5 564.79C461.736 568.286 465.972 571.824 470.208 575.362C516.805 614.276 563.403 653.191 610 636.709C631.506 629.102 653.013 609.695 674.519 590.288C703.846 563.824 733.173 537.36 762.5 540.817C787.917 543.814 813.333 569.285 838.75 594.757C864.167 620.228 889.583 645.699 915 648.696C953.125 653.191 991.25 607.118 1029.37 561.045C1042.08 545.687 1054.79 530.329 1067.5 516.844C1118.33 462.905 1169.17 438.932 1194.58 426.946L1220 414.959V391V379V0Z" fill="url(#paint0_linear)"/>
<path d="M444.486 -90.9485C494.13 -44.2303 479.503 57.5205 449.805 148.186C420.107 239.246 375.339 320.014 304.862 348.916C233.942 377.422 137.756 354.458 57.5279 314.867C-23.1438 274.879 -87.4152 219.055 -100.269 156.104C-113.124 93.153 -74.5609 23.0757 -21.3708 -24.4344C31.8194 -71.9445 99.1935 -96.8872 190.06 -113.516C280.926 -129.748 394.842 -137.667 444.486 -90.9485Z" fill="#3FB7DD" fill-opacity="0.3"/>
<path d="M400.772 -55.2289C441.984 -16.5075 429.842 67.8264 405.188 142.972C380.534 218.446 343.37 285.388 284.864 309.343C225.989 332.97 146.141 313.937 79.5396 281.122C12.5701 247.979 -40.7847 201.711 -51.4557 149.535C-62.1267 97.3597 -30.1138 39.2776 14.0419 -0.100146C58.1976 -39.4779 114.128 -60.1512 189.561 -73.9334C264.994 -87.3874 359.56 -93.9504 400.772 -55.2289Z" fill="#3FB7DD" fill-opacity="0.3"/>
<path d="M347.223 -11.9895C378.106 17.0515 369.006 80.302 350.532 136.661C332.057 193.267 304.208 243.473 260.366 261.439C216.248 279.159 156.412 264.885 106.504 240.274C56.3195 215.417 16.3375 180.715 8.34115 141.584C0.344747 102.452 24.3339 58.8904 57.4225 29.3571C90.511 -0.176204 132.423 -15.6812 188.949 -26.0178C245.476 -36.1084 316.34 -41.0306 347.223 -11.9895Z" fill="#3FB7DD" fill-opacity="0.3"/>
<path d="M1310.79 56.4324C1357.97 103.264 1389.67 173.64 1367.71 225.937C1346.1 278.318 1271.62 312.478 1200.39 343.383C1129.61 374.059 1062.87 401.338 997.406 393.538C932.383 385.51 868.527 342.717 850.864 290.577C833.553 238.523 862.178 176.722 880.977 112.537C900.222 48.1236 909.735 -18.9888 951.009 -44.3574C992.283 -69.7259 1064.97 -53.4357 1132.8 -33.6041C1200.64 -13.7725 1263.62 9.60061 1310.79 56.4324Z" fill="#56C8EC" fill-opacity="0.28"/>
<path d="M1274.54 76.3278C1313.99 115.492 1340.51 174.346 1322.14 218.08C1304.07 261.886 1241.78 290.453 1182.21 316.298C1123.02 341.952 1067.21 364.764 1012.46 358.242C958.086 351.528 904.685 315.741 889.914 272.138C875.436 228.606 899.375 176.924 915.096 123.247C931.19 69.3793 939.146 13.2547 973.662 -7.96044C1008.18 -29.1756 1068.96 -15.5525 1125.69 1.03229C1182.42 17.617 1235.09 37.1634 1274.54 76.3278Z" fill="#56C8EC" fill-opacity="0.35"/>
<path d="M1235.28 99.9152C1266.28 130.687 1287.11 176.929 1272.68 211.292C1258.48 245.711 1209.54 268.156 1162.74 288.463C1116.23 308.619 1072.38 326.543 1029.36 321.418C986.639 316.143 944.682 288.025 933.076 253.765C921.701 219.562 940.51 178.955 952.862 136.78C965.507 94.4557 971.758 50.358 998.878 33.689C1026 17.02 1073.76 27.7239 1118.33 40.7547C1162.9 53.7855 1204.29 69.1433 1235.28 99.9152Z" fill="#63D1F3" fill-opacity="0.28"/>
</g>
<defs>
<linearGradient id="paint0_linear" x1="612" y1="153" x2="860" y2="729" gradientUnits="userSpaceOnUse">
<stop stop-color="#169CBA"/>
<stop offset="1" stop-color="#1630BA" stop-opacity="0.15"/>
</linearGradient>
<clipPath id="clip0">
<rect width="1220" height="661" fill="white"/>
</clipPath>
</defs>
</svg>
