<svg width="1500" height="600" viewBox="0 0 1500 555" fill="none" xmlns="http://www.w3.org/2000/svg">
<g clip-path="url(#clip0)">
<path fill-rule="evenodd" clip-rule="evenodd" d="M1500 -0.21106H0V278.789V306.789V315.547L31.25 352.306C62.5 389.065 125 462.582 187.5 468.708C223.684 472.255 259.868 453.214 296.053 434.173C322.368 420.325 348.684 406.476 375 401.317C437.5 389.065 500 425.823 562.5 468.708C567.708 472.282 572.917 475.898 578.125 479.514C635.417 519.294 692.708 559.073 750 542.225C776.442 534.449 802.885 514.611 829.327 494.773C865.385 467.72 901.442 440.668 937.5 444.202C968.75 447.266 1000 473.303 1031.25 499.34C1062.5 525.377 1093.75 551.415 1125 554.478C1171.88 559.073 1218.75 511.976 1265.62 464.879C1281.25 449.18 1296.88 433.481 1312.5 419.697C1375 364.559 1437.5 340.053 1468.75 327.8L1500 315.547V306.789V278.789V-0.21106Z" fill="url(#paint0_linear)"/>
<path d="M500.851 -102.218C541.932 -65.3647 529.828 14.8997 505.253 86.4194C480.677 158.251 443.631 221.963 385.31 244.762C326.623 267.249 247.028 249.134 180.638 217.903C113.881 186.36 60.6954 142.323 50.0583 92.6657C39.4212 43.0079 71.3325 -12.2715 115.348 -49.749C159.364 -87.2266 215.117 -106.902 290.31 -120.019C365.503 -132.824 459.77 -139.071 500.851 -102.218Z" fill="#3FB7DD" fill-opacity="0.3"/>
<path d="M464.677 -74.0409C498.781 -43.4961 488.732 23.0294 468.331 82.307C447.93 141.843 417.176 194.65 368.761 213.546C320.042 232.183 253.966 217.17 198.853 191.284C143.435 165.14 99.2827 128.642 90.4524 87.484C81.622 46.3262 108.113 0.509102 144.653 -30.5534C181.192 -61.6159 227.475 -77.9237 289.897 -88.7955C352.318 -99.4085 430.574 -104.586 464.677 -74.0409Z" fill="#3FB7DD" fill-opacity="0.3"/>
<path d="M420.365 -39.9321C445.92 -17.0235 438.391 32.8706 423.103 77.3287C407.815 121.981 384.769 161.586 348.489 175.758C311.981 189.736 262.466 178.476 221.166 159.062C179.638 139.454 146.552 112.08 139.935 81.2115C133.318 50.3432 153.169 15.9804 180.551 -7.31651C207.932 -30.6134 242.615 -42.8442 289.391 -50.9981C336.167 -58.9579 394.809 -62.8407 420.365 -39.9321Z" fill="#3FB7DD" fill-opacity="0.3"/>
<path d="M1536.99 -8.15692C1576.6 29.3297 1603.23 85.6621 1584.78 127.523C1566.64 169.452 1504.1 196.796 1444.28 221.534C1384.85 246.089 1328.81 267.924 1273.84 261.68C1219.24 255.254 1165.62 221 1150.79 179.265C1136.25 137.598 1160.29 88.1296 1176.07 36.7524C1192.23 -14.8078 1200.22 -68.5281 1234.88 -88.8344C1269.54 -109.141 1330.57 -96.1012 1387.53 -80.2269C1444.49 -64.3526 1497.38 -45.6436 1536.99 -8.15692Z" fill="#56C8EC" fill-opacity="0.28"/>
<path d="M1506.55 7.76843C1539.68 39.1177 1561.94 86.2272 1546.52 121.235C1531.34 156.299 1479.04 179.166 1429.02 199.853C1379.32 220.388 1332.46 238.648 1286.48 233.427C1240.82 228.053 1195.98 199.408 1183.58 164.505C1171.42 129.66 1191.52 88.2908 1204.72 45.3252C1218.24 2.20649 1224.92 -42.7186 1253.9 -59.7004C1282.88 -76.6821 1333.92 -65.7774 1381.56 -52.5021C1429.19 -39.2268 1473.43 -23.5808 1506.55 7.76843Z" fill="#56C8EC" fill-opacity="0.35"/>
<path d="M1473.58 26.6491C1499.61 51.2805 1517.11 88.295 1504.99 115.801C1493.06 143.351 1451.97 161.318 1412.67 177.572C1373.62 193.707 1336.8 208.054 1300.67 203.952C1264.8 199.729 1229.57 177.222 1219.82 149.799C1210.27 122.421 1226.06 89.9164 1236.43 56.1578C1247.05 22.279 1252.3 -13.0192 1275.07 -26.3619C1297.85 -39.7046 1337.95 -31.1367 1375.38 -20.7062C1412.8 -10.2756 1447.56 2.01761 1473.58 26.6491Z" fill="#63D1F3" fill-opacity="0.28"/>
</g>
<defs>
<linearGradient id="paint0_linear" x1="600" y1="117" x2="914" y2="819" gradientUnits="userSpaceOnUse">
<stop stop-color="#169CBA"/>
<stop offset="1" stop-color="#1630BA" stop-opacity="0.15"/>
</linearGradient>
<clipPath id="clip0">
<rect width="1500" height="555" fill="white"/>
</clipPath>
</defs>
</svg>
