<svg width="804" height="920" viewBox="0 0 804 920" fill="none" xmlns="http://www.w3.org/2000/svg">
<g clip-path="url(#clip0)">
<path fill-rule="evenodd" clip-rule="evenodd" d="M4 13.2L19.075 33C33.6475 52.8 63.7975 92.4 93.445 82.5C107.269 77.8838 121.093 62.5054 134.968 47.0703C150.85 29.4029 166.798 11.6613 182.89 9.9C200.89 7.89643 218.891 26.5726 236.891 45.2487C248.538 57.3333 260.185 69.4179 271.832 75.9C301.983 92.4 331.63 72.6 361.277 49.5C364.255 47.1802 367.237 44.8272 370.224 42.4709L370.225 42.4695C396.977 21.363 424.053 0 450.723 0C476.732 0 502.742 20.3186 529.09 40.9022L529.097 40.9076C532.781 43.7849 536.47 46.6673 540.167 49.5C569.815 72.6 599.463 92.4 629.11 92.4C649.285 92.4 669.235 83.5342 689.11 74.7015C698.937 70.3344 708.746 65.9754 718.555 62.7C748.203 52.8 778.352 52.8 792.925 52.8H808V120V132V710V722V920L785.89 906.875C785.264 906.514 784.622 906.144 783.964 905.764C760.68 892.327 717.657 867.5 674 867.5C657.143 867.5 640.38 871.202 623.64 874.898C595.804 881.045 568.033 887.178 540 876.25C522.688 869.501 505.476 856.245 488.286 843.007C460.903 821.919 433.578 800.874 406 806.25C385.464 810.253 365.067 828.906 344.683 847.549C320.51 869.656 296.354 891.749 272 889.375C247.65 887.002 223.496 860.169 199.327 833.318C178.939 810.669 158.54 788.007 138 780C94.0503 762.867 50.7429 812.831 27.5696 839.567C27.0738 840.139 26.5872 840.7 26.11 841.25L4 867.5V722V710V132V120V13.2Z" fill="url(#paint0_linear)"/>
<g opacity="0.57">
<path d="M608.75 556.498C549.434 488.206 543.444 385.204 586.597 304.039C629.299 222.711 721.759 162.931 796.679 178.296C871.906 193.518 929.593 283.884 942.678 382.065C955.457 480.391 923.49 586.225 851.791 622.442C779.641 658.496 667.615 624.627 608.75 556.498Z" fill="#F1FAFF" fill-opacity="0.46"/>
<path d="M635.905 530.799C587.567 475.157 582.696 391.225 617.879 325.08C652.694 258.803 728.062 210.079 789.126 222.591C850.439 234.986 897.447 308.615 908.101 388.619C918.505 468.74 892.437 554.985 833.993 584.506C775.181 613.894 683.876 586.308 635.905 530.799Z" fill="#F1FAFF" fill-opacity="0.34"/>
<path d="M668.106 500.66C632.592 459.649 628.881 397.903 654.549 349.308C679.948 300.616 735.092 264.904 779.857 274.21C824.806 283.431 859.376 337.671 867.318 396.537C875.077 455.489 856.122 518.884 813.346 540.5C770.302 562.018 703.351 541.572 668.106 500.66Z" fill="#F1FAFF" fill-opacity="0.46"/>
</g>
</g>
<defs>
<linearGradient id="paint0_linear" x1="-796" y1="175" x2="780" y2="915" gradientUnits="userSpaceOnUse">
<stop stop-color="#169CBA"/>
<stop offset="1" stop-color="#1C60C7" stop-opacity="0.88"/>
</linearGradient>
<clipPath id="clip0">
<rect width="804" height="920" fill="white"/>
</clipPath>
</defs>
</svg>
