<svg width="1600" height="726" viewBox="0 0 1600 726" fill="none" xmlns="http://www.w3.org/2000/svg">
<g clip-path="url(#clip0)">
<path fill-rule="evenodd" clip-rule="evenodd" d="M0 17.9L30 44.75C59 71.6 119 125.3 178 111.875C205.511 105.615 233.021 84.7611 260.633 63.8302C292.239 39.8721 323.977 15.8134 356 13.425C391.821 10.708 427.643 36.034 463.464 61.36C486.643 77.7474 509.821 94.1348 533 102.925C593 125.3 652 98.45 711 67.125C716.926 63.9786 722.862 60.7871 728.807 57.5912C782.043 28.9694 835.926 0 889 0C940.76 0 992.521 27.5533 1044.96 55.4659L1044.96 55.4679C1052.29 59.3714 1059.64 63.2819 1067 67.125C1126 98.45 1185 125.3 1244 125.3C1284.15 125.3 1323.85 113.277 1363.4 101.3C1382.96 95.3777 1402.48 89.4666 1422 85.025C1481 71.6 1541 71.6 1570 71.6H1600V160V179V516V530V726L1556 712.875C1554.75 712.514 1553.48 712.144 1552.17 711.764C1505.83 698.327 1420.21 673.5 1333.33 673.5C1299.79 673.5 1266.43 677.202 1233.12 680.898C1177.72 687.045 1122.45 693.178 1066.67 682.25C1032.22 675.501 997.962 662.245 963.754 649.007C909.26 627.919 854.882 606.874 800 612.25C759.132 616.253 718.542 634.906 677.976 653.549C629.871 675.656 581.798 697.749 533.333 695.375C484.875 693.002 436.809 666.169 388.71 639.318C348.137 616.669 307.542 594.007 266.667 586C179.205 568.867 93.0207 618.831 46.9047 645.567C45.918 646.139 44.9496 646.7 44 647.25L0 673.5V530V516V179V160V17.9Z" fill="url(#paint0_linear)"/>
<g opacity="0.57">
<path d="M1428.75 528.498C1369.43 460.206 1363.44 357.204 1406.6 276.039C1449.3 194.711 1541.76 134.931 1616.68 150.296C1691.91 165.518 1749.59 255.884 1762.68 354.065C1775.46 452.391 1743.49 558.225 1671.79 594.442C1599.64 630.496 1487.61 596.627 1428.75 528.498Z" fill="#F1FAFF" fill-opacity="0.46"/>
<path d="M1455.9 502.799C1407.57 447.157 1402.7 363.225 1437.88 297.08C1472.69 230.803 1548.06 182.079 1609.13 194.591C1670.44 206.986 1717.45 280.615 1728.1 360.619C1738.5 440.74 1712.44 526.985 1653.99 556.506C1595.18 585.894 1503.88 558.308 1455.9 502.799Z" fill="#F1FAFF" fill-opacity="0.34"/>
<path d="M1488.11 472.66C1452.59 431.649 1448.88 369.903 1474.55 321.308C1499.95 272.616 1555.09 236.904 1599.86 246.21C1644.81 255.431 1679.38 309.671 1687.32 368.537C1695.08 427.489 1676.12 490.884 1633.35 512.5C1590.3 534.018 1523.35 513.572 1488.11 472.66Z" fill="#F1FAFF" fill-opacity="0.46"/>
</g>
</g>
<defs>
<linearGradient id="paint0_linear" x1="1.24283e-05" y1="175" x2="1576" y2="915" gradientUnits="userSpaceOnUse">
<stop stop-color="#169CBA"/>
<stop offset="1" stop-color="#1C60C7" stop-opacity="0.88"/>
</linearGradient>
<clipPath id="clip0">
<rect width="1600" height="726" fill="white"/>
</clipPath>
</defs>
</svg>
