<svg width="1500" height="765" viewBox="0 0 1500 765" fill="none" xmlns="http://www.w3.org/2000/svg">
<g clip-path="url(#clip0)">
<path fill-rule="evenodd" clip-rule="evenodd" d="M1500 0H0V420V429V533.504L35.9375 544.933C71.0938 556.362 142.969 578.826 214.062 575.279C264.044 572.539 313.648 557.029 363.399 541.473C385.192 534.659 407.013 527.837 428.906 522.074C500 503.157 571.094 495.669 642.969 495.669C714.062 495.669 785.938 503.157 857.031 526.016C876.765 532.183 896.439 539.509 916.071 546.82C967.944 566.136 1019.52 585.34 1071.09 582.767C1108.63 580.709 1145.95 567.365 1183.28 554.018C1217.44 541.807 1251.6 529.593 1285.94 526.016C1357.03 518.527 1428.91 548.48 1464.06 563.85L1500 578.826V429V420V0Z" fill="url(#paint0_linear)"/>
<path d="M1493.94 101.495C1445.62 173.587 1351.75 205.042 1265.76 185.506C1179.72 166.428 1101.13 95.8644 1096.53 22.6381C1091.72 -50.8361 1160.89 -126.973 1248.5 -163.783C1336.33 -200.345 1442.35 -197.371 1493.91 -140.1C1545.43 -82.3722 1542.22 29.8616 1493.94 101.495Z" fill="#9BDBFF" fill-opacity="0.3"/>
<path d="M1457.33 79.3175C1419.82 135.379 1346.83 159.745 1279.9 144.425C1212.93 129.462 1151.69 74.4273 1148.02 17.4148C1144.17 -39.791 1197.9 -98.9743 1266.02 -127.518C1334.31 -155.868 1416.81 -153.416 1456.99 -108.765C1497.15 -63.7569 1494.81 23.6128 1457.33 79.3175Z" fill="#9BDBFF" fill-opacity="0.29"/>
<path d="M1414.19 52.8226C1389.16 90.1721 1340.54 106.454 1295.97 96.3144C1251.39 86.412 1210.66 49.8306 1208.26 11.8833C1205.75 -26.1925 1241.58 -65.6342 1286.97 -84.693C1332.47 -103.623 1387.4 -102.062 1414.13 -72.3742C1440.83 -42.4493 1439.19 15.7105 1414.19 52.8226Z" fill="#9BDBFF" fill-opacity="0.42"/>
<path d="M278.627 201.955C213.662 298.877 87.471 341.164 -28.1442 314.9C-143.81 289.252 -249.466 194.385 -255.656 95.9381C-262.128 -2.8418 -169.135 -105.202 -51.3421 -154.69C66.7336 -203.845 209.276 -199.845 278.587 -122.85C347.847 -45.2395 343.542 105.65 278.627 201.955Z" fill="#9BDBFF" fill-opacity="0.3"/>
<path d="M229.409 172.139C178.986 247.508 80.8554 280.266 -9.13544 259.671C-99.1647 239.554 -181.495 165.564 -186.438 88.9158C-191.601 12.0075 -119.378 -67.5596 -27.7904 -105.934C64.0175 -144.049 174.931 -140.752 228.959 -80.7218C282.948 -20.2127 279.793 97.2486 229.409 172.139Z" fill="#9BDBFF" fill-opacity="0.29"/>
<path d="M171.409 136.519C137.766 186.732 72.3888 208.622 12.4783 194.99C-47.4582 181.677 -102.221 132.496 -105.447 81.4792C-108.819 30.2895 -60.6545 -22.7366 0.370044 -48.3595C61.5411 -73.8097 135.4 -71.7104 171.327 -31.798C207.228 8.43356 205.026 86.6246 171.409 136.519Z" fill="#9BDBFF" fill-opacity="0.41"/>
</g>
<defs>
<linearGradient id="paint0_linear" x1="1.35706e-05" y1="37.5" x2="1959.96" y2="973.648" gradientUnits="userSpaceOnUse">
<stop stop-color="#28A9C6"/>
<stop offset="1" stop-color="#3D67D2" stop-opacity="0.72"/>
</linearGradient>
<clipPath id="clip0">
<rect width="1500" height="765" fill="white"/>
</clipPath>
</defs>
</svg>
