<svg width="1920" height="1024" viewBox="0 0 1920 1024" fill="none" xmlns="http://www.w3.org/2000/svg">
<g clip-path="url(#clip0)">
<path fill-rule="evenodd" clip-rule="evenodd" d="M1920 0H0V621V625V787.426L46 804.184C91 820.942 183 853.88 274 848.679C337.976 844.661 401.469 821.92 465.15 799.111C493.045 789.12 520.976 779.116 549 770.667C640 742.93 731 731.95 823 731.95C914 731.95 1006 742.93 1097 776.446C1122.26 785.489 1147.44 796.231 1172.57 806.95C1238.97 835.272 1304.98 863.432 1371 859.659C1419.05 856.641 1466.82 837.075 1514.6 817.505C1558.32 799.6 1602.05 781.692 1646 776.446C1737 765.467 1829 809.384 1874 831.921L1920 853.88V625V621V0Z" fill="url(#paint0_linear)"/>
<path d="M292.956 222.312C227.99 319.234 101.8 361.521 -13.8155 335.257C-129.481 309.609 -235.137 214.742 -241.327 116.295C-247.799 17.5151 -154.806 -84.8446 -37.0133 -134.333C81.0623 -183.488 223.605 -179.488 292.915 -102.493C362.175 -24.8825 357.87 126.006 292.956 222.312Z" fill="#9BDBFF" fill-opacity="0.3"/>
<path d="M243.738 192.496C193.315 267.865 95.1841 300.623 5.1933 280.028C-84.836 259.911 -167.166 185.921 -172.109 109.273C-177.273 32.3644 -105.049 -47.2026 -13.4617 -85.5772C78.3463 -123.692 189.26 -120.395 243.288 -60.3649C297.277 0.144259 294.122 117.606 243.738 192.496Z" fill="#9BDBFF" fill-opacity="0.29"/>
<path d="M185.738 156.876C152.095 207.089 86.7175 228.979 26.8071 215.347C-33.1294 202.034 -87.8923 152.853 -91.1181 101.836C-94.4905 50.6464 -46.3258 -2.37967 14.6988 -28.0026C75.8699 -53.4528 149.728 -51.3535 185.656 -11.441C221.557 28.7905 219.355 106.982 185.738 156.876Z" fill="#9BDBFF" fill-opacity="0.41"/>
<path d="M1893.94 106.495C1845.62 178.587 1751.75 210.042 1665.76 190.506C1579.72 171.428 1501.13 100.864 1496.53 27.6381C1491.72 -45.8361 1560.89 -121.973 1648.5 -158.783C1736.33 -195.345 1842.35 -192.371 1893.91 -135.1C1945.43 -77.3722 1942.22 34.8616 1893.94 106.495Z" fill="#9BDBFF" fill-opacity="0.3"/>
<path d="M1857.33 84.3175C1819.82 140.379 1746.83 164.745 1679.9 149.425C1612.93 134.462 1551.69 79.4273 1548.02 22.4148C1544.17 -34.791 1597.9 -93.9743 1666.02 -122.518C1734.31 -150.868 1816.81 -148.416 1856.99 -103.765C1897.15 -58.7569 1894.81 28.6128 1857.33 84.3175Z" fill="#9BDBFF" fill-opacity="0.29"/>
<path d="M1814.19 57.8226C1789.16 95.1721 1740.54 111.454 1695.97 101.314C1651.39 91.412 1610.66 54.8306 1608.26 16.8833C1605.75 -21.1925 1641.58 -60.6342 1686.97 -79.693C1732.47 -98.6233 1787.4 -97.0618 1814.13 -67.3742C1840.83 -37.4493 1839.19 20.7105 1814.19 57.8226Z" fill="#9BDBFF" fill-opacity="0.42"/>
</g>
<defs>
<linearGradient id="paint0_linear" x1="1.24023e-05" y1="37.5" x2="1908.5" y2="912" gradientUnits="userSpaceOnUse">
<stop stop-color="#28A9C6"/>
<stop offset="1" stop-color="#3D67D2" stop-opacity="0.72"/>
</linearGradient>
<clipPath id="clip0">
<rect width="1920" height="1024" fill="white"/>
</clipPath>
</defs>
</svg>
