<svg width="826" height="1346" viewBox="0 0 826 1346" fill="none" xmlns="http://www.w3.org/2000/svg">
<g clip-path="url(#clip0)">
<path fill-rule="evenodd" clip-rule="evenodd" d="M34.4167 34.5801L0 49.1404V117V136V1248V1256V1287.2L34.4167 1297C68.8333 1306.8 137.667 1326.4 206.5 1323.13C250.303 1321.05 294.106 1309.72 337.909 1298.38C362.939 1291.9 387.97 1285.42 413 1280.67C481.833 1267.6 550.667 1267.6 619.5 1280.67C688.332 1293.73 757.163 1319.87 791.581 1332.93L791.582 1332.93L791.583 1332.93L826 1346L826 1256L826 1248V136L826 117L826 70.7298L791.583 56.6716C757.167 42.1113 688.333 12.9907 619.5 20.5219C589.464 23.5892 559.427 33.5398 529.391 43.4904C490.594 56.3433 451.797 69.1962 413 67.2152C375.814 65.3166 338.628 49.644 301.443 33.9714C269.795 20.6331 238.148 7.29475 206.5 2.44709C139.307 -8.33535 72.1148 19.1565 36.9359 33.5499C36.0769 33.9014 35.237 34.245 34.4167 34.5801Z" fill="url(#paint0_linear)"/>
</g>
<defs>
<linearGradient id="paint0_linear" x1="-614" y1="128.444" x2="829.657" y2="380.894" gradientUnits="userSpaceOnUse">
<stop stop-color="#28A9C6"/>
<stop offset="1" stop-color="#3D67D2" stop-opacity="0.79"/>
</linearGradient>
<clipPath id="clip0">
<rect width="826" height="1346" fill="white"/>
</clipPath>
</defs>
</svg>
