<svg width="1440" height="667" viewBox="0 0 1440 667" fill="none" xmlns="http://www.w3.org/2000/svg">
<path fill-rule="evenodd" clip-rule="evenodd" d="M0 49.1404L60 34.5801C61.4302 34.245 62.8944 33.9014 64.3919 33.5499C125.721 19.1565 242.86 -8.33535 360 2.44709C415.172 7.29475 470.345 20.6331 525.517 33.9714C590.345 49.644 655.172 65.3166 720 67.2152C787.636 69.1962 855.273 56.3433 922.909 43.4904C975.273 33.5398 1027.64 23.5892 1080 20.5219C1200 12.9907 1320 42.1113 1380 56.6716L1440 70.7298V117V136V569V577V667L1380 653.933C1320 640.867 1200 614.733 1080 601.667C960 588.6 840 588.6 720 601.667C676.364 606.418 632.727 612.898 589.091 619.377C512.727 630.716 436.364 642.055 360 644.133C240 647.4 120.001 627.8 60.0005 618H60L0 608.2V577V569V136V117V49.1404Z" fill="url(#paint0_linear)"/>
<defs>
<linearGradient id="paint0_linear" x1="-4.03283e-06" y1="104" x2="1421.5" y2="411" gradientUnits="userSpaceOnUse">
<stop stop-color="#28A9C6"/>
<stop offset="1" stop-color="#3D67D2" stop-opacity="0.79"/>
</linearGradient>
</defs>
</svg>
