<svg width="1084" height="894" viewBox="0 0 1084 894" fill="none" xmlns="http://www.w3.org/2000/svg">
<path fill-rule="evenodd" clip-rule="evenodd" d="M0 49.1404L45.1667 34.5801C46.2433 34.245 47.3455 33.9014 48.4728 33.5499C94.6397 19.1565 182.82 -8.33535 271 2.44709C312.533 7.29475 354.065 20.6331 395.598 33.9714C444.398 49.644 493.199 65.3166 542 67.2152C592.915 69.1962 643.83 56.3433 694.745 43.4904C734.164 33.5398 773.582 23.5892 813 20.5219C903.333 12.9907 993.667 42.1113 1038.83 56.6716L1084 70.7298V117V136V796V802V894L1038.83 880.933C993.667 867.867 903.333 841.733 813 828.667C722.667 815.6 632.333 815.6 542 828.667C509.151 833.418 476.303 839.898 443.455 846.377C385.97 857.716 328.485 869.055 271 871.133C180.667 874.4 90.3333 854.8 45.1667 845L0 835.2V802V796V136V117V49.1404Z" fill="url(#paint0_linear)"/>
<defs>
<linearGradient id="paint0_linear" x1="-356" y1="104" x2="1065.5" y2="411" gradientUnits="userSpaceOnUse">
<stop stop-color="#28A9C6"/>
<stop offset="1" stop-color="#3D67D2" stop-opacity="0.79"/>
</linearGradient>
</defs>
</svg>
