<svg width="1600" height="1200" viewBox="0 0 1600 1200" fill="none" xmlns="http://www.w3.org/2000/svg">
<mask id="mask0" mask-type="alpha" maskUnits="userSpaceOnUse" x="0" y="0" width="1600" height="1200">
<path d="M1600 0H0V1200H1600V0Z" fill="white"/>
</mask>
<g mask="url(#mask0)">
<path d="M1600 0H0V1200H1600V0Z" fill="white" fill-opacity="0.17"/>
<path fill-rule="evenodd" clip-rule="evenodd" d="M1600 0V1200H1009.94L356 396.07L865.25 0L1600 0Z" fill="white" fill-opacity="0.1"/>
<path d="M450 663C587.519 663 699 551.519 699 414C699 276.481 587.519 165 450 165C312.481 165 201 276.481 201 414C201 551.519 312.481 663 450 663Z" fill="#E3FAFF" fill-opacity="0.3"/>
<path d="M1461.38 119.766L952.395 414.643L992.576 483.999L1501.56 189.122L1461.38 119.766Z" fill="#DC4618" fill-opacity="0.3"/>
<path fill-rule="evenodd" clip-rule="evenodd" d="M873.219 896.332L667.313 642.858L617.687 675.816L823.719 935.785L873.219 896.332Z" fill="#DC4618" fill-opacity="0.3"/>
<path fill-rule="evenodd" clip-rule="evenodd" d="M171.224 983.293L414.414 805.623L392.075 773.475L145.57 932.898L171.224 983.293Z" fill="#EAE8E4" fill-opacity="0.3"/>
<path d="M702.681 964.043L611.925 829L591 843.062L681.756 978.106L702.681 964.043Z" fill="#60BEBF" fill-opacity="0.3"/>
<path fill-rule="evenodd" clip-rule="evenodd" d="M826.604 692.001L732.012 576.813L691.734 600L783.91 725.902L826.604 692.001Z" fill="#3A8EAA" fill-opacity="0.3"/>
<path fill-rule="evenodd" clip-rule="evenodd" d="M1492.54 -172.314L511.509 513.907L559.875 577.109L1576.96 -67.4693L1492.54 -172.314Z" fill="#2A3E4C" fill-opacity="0.3"/>
<path fill-rule="evenodd" clip-rule="evenodd" d="M573.375 589.383L912.85 403.734L937.3 447.767L601.875 631.594L573.375 589.383Z" fill="#E5AB17" fill-opacity="0.3"/>
<path d="M405.161 863L114 1107.67L146.403 1146.23L437.564 901.559L405.161 863Z" fill="#EAE8E4" fill-opacity="0.3"/>
<path fill-rule="evenodd" clip-rule="evenodd" d="M315.848 909.492L437.235 812.55L460.308 837.943L338.921 934.884L315.848 909.492Z" fill="#E5AB17" fill-opacity="0.3"/>
<path d="M1116.34 452.616L1453.04 267.764L1465.98 293.073L1129.28 477.925L1116.34 452.616Z" fill="#28203D" fill-opacity="0.3"/>
<path fill-rule="evenodd" clip-rule="evenodd" d="M1145.03 241.089L1470.31 44.9794L1484.98 69.3241L1159.7 265.434L1145.03 241.089Z" fill="#BFCBBA" fill-opacity="0.3"/>
<path d="M1401.38 358.066L1063.15 531.045L1066.42 537.442L1404.66 364.463L1401.38 358.066Z" fill="#849C9B" fill-opacity="0.3"/>
<path d="M828.445 964.33L238.871 222L222.124 235.301L811.698 977.631L828.445 964.33Z" fill="#28203D" fill-opacity="0.3"/>
<path fill-rule="evenodd" clip-rule="evenodd" d="M624.656 773.079L228.268 292.368L166.207 332.766L556.273 824.414L624.656 773.079Z" fill="#849C9B" fill-opacity="0.3"/>
<path d="M1001.39 760.097C1022.47 755.04 1035.49 733.94 1030.46 712.97C1025.43 692 1004.26 679.1 983.175 684.157C962.092 689.214 949.078 710.314 954.108 731.284C959.138 752.254 980.307 765.154 1001.39 760.097Z" fill="#849C9B" fill-opacity="0.3"/>
<path d="M187.553 753.249C225.522 744.141 248.959 706.144 239.9 668.379C230.842 630.614 192.719 607.383 154.749 616.491C116.78 625.598 93.3433 663.596 102.402 701.36C111.46 739.125 149.584 762.356 187.553 753.249Z" fill="#EAE8E4" fill-opacity="0.3"/>
<path d="M493.066 452.672C509.585 448.71 519.781 432.179 515.84 415.749C511.899 399.319 495.313 389.212 478.794 393.174C462.275 397.137 452.079 413.668 456.02 430.098C459.961 446.528 476.547 456.635 493.066 452.672Z" fill="#DC4618" fill-opacity="0.3"/>
<path d="M326.002 751.858C342.441 747.915 352.588 731.464 348.666 715.114C344.744 698.764 328.239 688.706 311.8 692.649C295.361 696.592 285.215 713.043 289.136 729.393C293.058 745.743 309.564 755.801 326.002 751.858Z" fill="#BFCBBA" fill-opacity="0.3"/>
<path d="M508.127 485.163L787.934 291.961L785.562 288.526L505.755 481.728L508.127 485.163Z" fill="#28203D" fill-opacity="0.3"/>
<path d="M1075.34 911.576L1220.05 1081.24L1225.38 1076.7L1080.66 907.033L1075.34 911.576Z" fill="#28203D" fill-opacity="0.3"/>
<path d="M164.371 70.6138L309.165 251.424L312.423 248.815L167.629 68.0045L164.371 70.6138Z" fill="#28203D" fill-opacity="0.3"/>
<path d="M262.116 945.804L78.1713 1094.54L80.796 1097.78L264.741 949.05L262.116 945.804Z" fill="#28203D" fill-opacity="0.3"/>
<path fill-rule="evenodd" clip-rule="evenodd" d="M1204.59 764.609L1165.8 719.979L1169.27 716.963L1208.06 761.593L1252.69 722.797L1255.71 726.267L1211.08 765.063L1249.88 809.693L1246.41 812.709L1207.61 768.079L1162.98 806.875L1159.96 803.406L1204.59 764.609Z" fill="#DC4618" fill-opacity="0.3"/>
<path fill-rule="evenodd" clip-rule="evenodd" d="M169.961 680.514L149.983 657.532L151.769 655.978L171.748 678.961L194.73 658.983L196.283 660.769L173.301 680.748L193.279 703.73L191.493 705.283L171.514 682.301L148.532 702.279L146.978 700.493L169.961 680.514Z" fill="#DC4618" fill-opacity="0.3"/>
</g>
</svg>
