<svg width="484" height="705" viewBox="0 0 484 705" fill="none" xmlns="http://www.w3.org/2000/svg">
<g clip-path="url(#clip0)">
<path fill-rule="evenodd" clip-rule="evenodd" d="M483 0H0V545V555V668.76L10.0833 652.259C20.1667 635.758 40.3333 602.755 60.5 611.006C70.1032 614.934 79.7063 628.218 89.3095 641.501C99.873 656.113 110.437 670.725 121 672.886C132.092 675.155 143.183 663.697 154.275 652.238C163.35 642.864 172.425 633.489 181.5 631.632C192.844 629.312 204.188 638.739 215.531 648.166C224.354 655.498 233.177 662.83 242 664.635C252.859 666.856 263.718 660.705 274.577 654.554C283.885 649.281 293.192 644.008 302.5 644.008C317.625 644.008 332.75 657.931 347.875 671.854C352.917 676.495 357.958 681.136 363 685.262C383.167 701.763 403.333 710.014 423.5 701.763C443.667 693.513 463.833 668.76 473.917 656.384L484 644.008V545H483V0Z" fill="url(#paint0_linear)"/>
<path d="M75.9373 276.874C37.9183 333.595 -35.9312 358.343 -103.592 342.972C-171.282 327.962 -233.114 272.444 -236.736 214.831C-240.524 157.023 -186.103 97.1195 -117.168 68.158C-48.0672 39.3915 35.3518 41.7319 75.9138 86.7911C116.446 132.211 113.927 220.514 75.9373 276.874Z" fill="#9BDBFF" fill-opacity="0.3"/>
<path d="M47.1339 259.425C17.6255 303.533 -39.8028 322.704 -92.4674 310.651C-145.155 298.878 -193.336 255.578 -196.229 210.721C-199.25 165.713 -156.984 119.148 -103.385 96.6908C-49.6567 74.3852 15.2523 76.3148 46.8705 111.446C78.4663 146.857 76.6198 215.598 47.1339 259.425Z" fill="#9BDBFF" fill-opacity="0.29"/>
<path d="M13.1912 238.58C-6.49752 267.965 -44.7576 280.776 -79.8185 272.798C-114.895 265.007 -146.943 236.225 -148.831 206.369C-150.804 176.412 -122.617 145.38 -86.9046 130.385C-51.1059 115.491 -7.8823 116.719 13.1432 140.077C34.1535 163.621 32.8647 209.38 13.1912 238.58Z" fill="#9BDBFF" fill-opacity="0.41"/>
<path d="M445.699 305.753C398.486 275.785 376.718 215.83 387.921 160.123C398.828 104.399 443.018 52.644 490.112 48.5023C537.362 44.2212 587.515 87.5531 612.633 143.399C637.594 199.384 637.381 267.726 601.319 301.854C564.962 335.964 492.617 335.704 445.699 305.753Z" fill="#9BDBFF" fill-opacity="0.3"/>
<path d="M459.397 281.816C422.684 258.557 405.817 211.933 414.609 168.57C423.172 125.195 457.638 84.8659 494.303 81.5819C531.089 78.1893 570.074 111.842 589.554 155.265C608.912 198.797 608.658 251.977 580.542 278.579C552.195 305.169 495.88 305.061 459.397 281.816Z" fill="#9BDBFF" fill-opacity="0.29"/>
<path d="M475.77 253.601C451.31 238.082 440.042 207.02 445.857 178.153C451.52 149.278 474.429 122.452 498.834 120.297C523.319 118.07 549.3 140.513 562.306 169.445C575.23 198.449 575.106 233.861 556.413 251.551C537.566 269.233 500.077 269.112 475.77 253.601Z" fill="#9BDBFF" fill-opacity="0.42"/>
</g>
<defs>
<linearGradient id="paint0_linear" x1="-1434" y1="98" x2="442" y2="615" gradientUnits="userSpaceOnUse">
<stop stop-color="#169CBA"/>
<stop offset="1" stop-color="#1C60C7" stop-opacity="0.71"/>
</linearGradient>
<clipPath id="clip0">
<rect width="484" height="705" fill="white"/>
</clipPath>
</defs>
</svg>
