<svg width="582" height="871" viewBox="0 0 582 871" fill="none" xmlns="http://www.w3.org/2000/svg">
<g clip-path="url(#clip0)">
<path fill-rule="evenodd" clip-rule="evenodd" d="M581 0H0V640V711V818.679L12.125 794.855C24.25 771.031 48.5 723.384 72.75 735.296C84.2976 740.968 95.8452 760.146 107.393 779.324C120.095 800.42 132.798 821.515 145.5 824.635C158.838 827.911 172.175 811.368 185.513 794.825C196.425 781.291 207.338 767.756 218.25 765.075C231.891 761.725 245.531 775.335 259.172 788.946C269.781 799.532 280.391 810.117 291 812.723C304.058 815.93 317.115 807.049 330.173 798.168C341.365 790.556 352.558 782.943 363.75 782.943C381.938 782.943 400.125 803.045 418.312 823.146C424.375 829.846 430.438 836.547 436.5 842.503C460.75 866.327 485 878.239 509.25 866.327C533.5 854.415 557.75 818.679 569.875 800.811L582 782.943V640H581V0Z" fill="url(#paint0_linear)"/>
<path d="M688.979 249.938C657.844 296.389 597.365 316.656 541.954 304.068C486.52 291.776 435.882 246.309 432.916 199.127C429.814 151.785 474.382 102.728 530.836 79.0097C587.426 55.4514 655.742 57.3682 688.96 94.2693C722.154 131.466 720.091 203.782 688.979 249.938Z" fill="#9BDBFF" fill-opacity="0.3"/>
<path d="M665.391 235.648C641.225 271.77 594.194 287.47 551.065 277.599C507.917 267.958 468.459 232.497 466.089 195.762C463.615 158.902 498.229 120.768 542.124 102.377C586.124 84.1095 639.281 85.6898 665.175 114.46C691.05 143.46 689.538 199.755 665.391 235.648Z" fill="#9BDBFF" fill-opacity="0.29"/>
<path d="M637.593 218.576C621.469 242.642 590.136 253.133 561.423 246.599C532.698 240.219 506.452 216.648 504.906 192.198C503.289 167.664 526.373 142.25 555.62 129.97C584.937 117.773 620.335 118.779 637.554 137.908C654.761 157.189 653.705 194.664 637.593 218.576Z" fill="#9BDBFF" fill-opacity="0.42"/>
<path d="M71.9373 268.874C33.9183 325.595 -39.9312 350.343 -107.592 334.972C-175.282 319.962 -237.114 264.444 -240.736 206.831C-244.524 149.023 -190.103 89.1195 -121.168 60.158C-52.0672 31.3915 31.3518 33.7319 71.9138 78.7911C112.446 124.211 109.927 212.514 71.9373 268.874Z" fill="#9BDBFF" fill-opacity="0.3"/>
<path d="M43.1339 251.425C13.6255 295.533 -43.8028 314.704 -96.4674 302.651C-149.155 290.878 -197.336 247.578 -200.229 202.721C-203.25 157.713 -160.984 111.148 -107.385 88.6908C-53.6567 66.3852 11.2523 68.3148 42.8705 103.446C74.4663 138.857 72.6198 207.598 43.1339 251.425Z" fill="#9BDBFF" fill-opacity="0.29"/>
<path d="M9.19119 230.58C-10.4975 259.965 -48.7576 272.776 -83.8185 264.798C-118.895 257.007 -150.943 228.225 -152.831 198.369C-154.804 168.412 -126.617 137.38 -90.9046 122.385C-55.1059 107.491 -11.8823 108.719 9.14319 132.077C30.1535 155.621 28.8647 201.38 9.19119 230.58Z" fill="#9BDBFF" fill-opacity="0.41"/>
</g>
<defs>
<linearGradient id="paint0_linear" x1="-1336" y1="98" x2="540" y2="615" gradientUnits="userSpaceOnUse">
<stop stop-color="#169CBA"/>
<stop offset="1" stop-color="#1C60C7" stop-opacity="0.71"/>
</linearGradient>
<clipPath id="clip0">
<rect width="582" height="871" fill="white"/>
</clipPath>
</defs>
</svg>
