<svg width="1920" height="832" viewBox="0 0 1920 832" fill="none" xmlns="http://www.w3.org/2000/svg">
<g clip-path="url(#clip0)">
<path fill-rule="evenodd" clip-rule="evenodd" d="M1920 0H0V482V509V752.726L40.0417 716.629C80.0833 680.532 160.167 608.339 240.25 626.387C278.385 634.982 316.52 664.039 354.655 693.097C396.603 725.06 438.552 757.023 480.5 761.75C524.546 766.713 568.592 741.649 612.638 716.584C648.675 696.077 684.713 675.569 720.75 671.508C765.797 666.432 810.844 687.054 855.891 707.675C890.927 723.715 925.964 739.754 961 743.702C1004.12 748.561 1047.24 735.105 1090.37 721.648C1127.33 710.115 1164.29 698.581 1201.25 698.581C1261.31 698.581 1321.37 729.037 1381.44 759.494C1401.46 769.646 1421.48 779.799 1441.5 788.823C1521.58 824.919 1601.67 842.968 1681.75 824.919C1761.83 806.871 1841.92 752.726 1881.96 725.653L1922 698.581V482H1920V0Z" fill="url(#paint0_linear)"/>
<path d="M1938.33 180.553C1870.42 281.865 1738.52 326.068 1617.67 298.614C1496.76 271.804 1386.32 172.64 1379.85 69.7338C1373.08 -33.5206 1470.29 -140.517 1593.42 -192.247C1716.84 -243.628 1865.84 -239.448 1938.29 -158.965C2010.69 -77.8388 2006.19 79.8851 1938.33 180.553Z" fill="#9BDBFF" fill-opacity="0.3"/>
<path d="M1886.88 149.386C1834.18 228.17 1731.6 262.412 1637.53 240.883C1543.43 219.855 1457.37 142.514 1452.2 62.3934C1446.8 -17.9987 1522.3 -101.17 1618.03 -141.283C1714 -181.124 1829.94 -177.677 1886.41 -114.928C1942.85 -51.6783 1939.55 71.1037 1886.88 149.386Z" fill="#9BDBFF" fill-opacity="0.29"/>
<path d="M1826.26 112.153C1791.09 164.64 1722.75 187.522 1660.13 173.272C1597.48 159.356 1540.23 107.948 1536.86 54.62C1533.34 1.11152 1583.68 -54.3165 1647.47 -81.1001C1711.41 -107.703 1788.62 -105.509 1826.17 -63.7883C1863.7 -21.7344 1861.4 59.9985 1826.26 112.153Z" fill="#9BDBFF" fill-opacity="0.42"/>
<path d="M399.374 245.247C321.902 360.827 171.418 411.256 33.545 379.935C-104.388 349.349 -230.384 236.219 -237.766 118.82C-245.484 1.02321 -134.589 -121.042 5.88119 -180.058C146.688 -238.675 316.672 -233.906 399.326 -142.089C481.919 -49.5366 476.786 130.401 399.374 245.247Z" fill="#9BDBFF" fill-opacity="0.3"/>
<path d="M340.681 209.69C280.551 299.569 163.529 338.634 56.2131 314.073C-51.1481 290.084 -149.328 201.85 -155.223 110.446C-161.38 18.7312 -75.2528 -76.1536 33.9668 -121.916C143.449 -167.368 275.715 -163.436 340.144 -91.8498C404.527 -19.6918 400.765 120.383 340.681 209.69Z" fill="#9BDBFF" fill-opacity="0.29"/>
<path d="M271.515 167.213C231.395 227.093 153.432 253.197 81.988 236.94C10.5129 221.064 -54.7926 162.416 -58.6395 101.577C-62.6611 40.5329 -5.22404 -22.7015 67.5487 -53.2572C140.496 -83.607 228.573 -81.1035 271.417 -33.5073C314.23 14.4694 311.604 107.713 271.515 167.213Z" fill="#9BDBFF" fill-opacity="0.41"/>
</g>
<defs>
<linearGradient id="paint0_linear" x1="-1.85912e-05" y1="98.0001" x2="1876" y2="615" gradientUnits="userSpaceOnUse">
<stop stop-color="#169CBA"/>
<stop offset="1" stop-color="#1C60C7" stop-opacity="0.71"/>
</linearGradient>
<clipPath id="clip0">
<rect width="1920" height="832" fill="white"/>
</clipPath>
</defs>
</svg>
