<svg width="884" height="999" viewBox="0 0 884 999" fill="none" xmlns="http://www.w3.org/2000/svg">
<g clip-path="url(#clip0)">
<path fill-rule="evenodd" clip-rule="evenodd" d="M883 0H-1V768H-2V946.679L16.4583 922.855C34.9167 899.031 71.8333 851.384 108.75 863.296C126.329 868.968 143.909 888.146 161.488 907.324C180.825 928.42 200.163 949.515 219.5 952.635C239.804 955.911 260.108 939.368 280.413 922.825C297.025 909.29 313.638 895.756 330.25 893.075C351.016 889.725 371.781 903.335 392.547 916.946C408.698 927.532 424.849 938.117 441 940.723C460.878 943.93 480.756 935.049 500.635 926.168C517.673 918.556 534.712 910.943 551.75 910.943C579.438 910.943 607.125 931.045 634.812 951.146C644.042 957.846 653.271 964.547 662.5 970.503C699.417 994.327 736.333 1006.24 773.25 994.327C810.167 982.415 847.083 946.679 865.542 928.811L884 910.943V768H883V0Z" fill="url(#paint0_linear)"/>
<path d="M1000.45 301.079C955.044 368.814 866.854 398.368 786.054 380.012C705.219 362.087 631.38 295.788 627.054 226.987C622.53 157.953 687.52 86.4168 769.842 51.8312C852.361 17.4784 951.979 20.2734 1000.42 74.0828C1048.82 128.322 1045.81 233.774 1000.45 301.079Z" fill="#9BDBFF" fill-opacity="0.3"/>
<path d="M966.05 280.241C930.811 332.914 862.23 355.808 799.339 341.414C736.42 327.356 678.882 275.646 675.428 222.079C671.819 168.33 722.294 112.724 786.301 85.9048C850.463 59.2677 927.977 61.572 965.735 103.525C1003.47 145.813 1001.26 227.903 966.05 280.241Z" fill="#9BDBFF" fill-opacity="0.29"/>
<path d="M925.515 255.347C902.003 290.44 856.313 305.738 814.444 296.211C772.556 286.907 734.284 252.536 732.03 216.882C729.673 181.107 763.334 144.049 805.982 126.142C848.732 108.356 900.35 109.823 925.458 137.716C950.548 165.833 949.009 220.478 925.515 255.347Z" fill="#9BDBFF" fill-opacity="0.42"/>
<path d="M212.845 327.224C157.947 409.126 51.3119 444.861 -46.3869 422.666C-144.128 400.993 -233.411 320.827 -238.641 237.636C-244.111 154.164 -165.529 67.6667 -65.9898 25.8476C33.788 -15.6899 154.241 -12.3103 212.811 52.753C271.338 118.337 267.7 245.843 212.845 327.224Z" fill="#9BDBFF" fill-opacity="0.3"/>
<path d="M171.254 302.028C128.645 365.718 45.7214 393.4 -30.3238 375.996C-106.402 358.997 -175.973 296.473 -180.15 231.702C-184.514 166.712 -123.482 99.4754 -46.0879 67.0477C31.4928 34.8394 125.218 37.6257 170.874 88.3529C216.496 139.485 213.83 238.744 171.254 302.028Z" fill="#9BDBFF" fill-opacity="0.29"/>
<path d="M122.242 271.928C93.8127 314.36 38.5669 332.858 -12.0594 321.338C-62.7077 310.088 -108.984 268.529 -111.71 225.418C-114.56 182.161 -73.8591 137.352 -22.2913 115.7C29.4002 94.1939 91.8131 95.9679 122.173 129.695C152.511 163.692 150.65 229.766 122.242 271.928Z" fill="#9BDBFF" fill-opacity="0.41"/>
</g>
<defs>
<linearGradient id="paint0_linear" x1="-1034" y1="97.9999" x2="842" y2="615" gradientUnits="userSpaceOnUse">
<stop stop-color="#169CBA"/>
<stop offset="1" stop-color="#1C60C7" stop-opacity="0.71"/>
</linearGradient>
<clipPath id="clip0">
<rect width="884" height="999" fill="white"/>
</clipPath>
</defs>
</svg>
