<svg width="2564" height="1992" viewBox="0 0 2564 1992" fill="none" xmlns="http://www.w3.org/2000/svg">
<g opacity="0.17">
<path d="M30.6611 616.767C80.2531 749.105 118.851 886.059 158.046 1021.75C199.838 1166.37 199.956 1318.53 215.693 1466.3C225.119 1555.34 243.6 1641.16 302.53 1711.94C343.793 1761.46 393.278 1794.81 454.687 1814.05C540.241 1840.86 633.31 1841.41 717.179 1872.71C736.59 1879.95 756.227 1889.72 769.113 1906.55C779.803 1920.55 784.899 1938.13 791.983 1953.67C798.294 1967.5 808.935 1973.01 822.428 1974.47C863.584 1978.91 916.448 1954.15 959.171 1946.6C968.196 1945 979.749 1943.31 987.686 1938.55C993.35 1935.15 993.183 1930.32 992.88 1926.11C990.518 1893.46 991.998 1859.2 983.816 1827.03C974.438 1790.15 951.038 1764.64 919.035 1748.61C864.162 1721.16 793.385 1719.12 731.044 1708.24C669.517 1697.45 607.579 1685.69 548.599 1664.57C498.674 1646.72 451.885 1621.43 412.552 1585.56C363.283 1540.57 336.67 1478.43 320.315 1415.69C280.14 1261.38 283.472 1096 245.119 939.406C226.041 861.493 201.867 784.218 178.026 707.649C157.615 642.078 135.832 575.939 106.406 514.357C98.1262 497.016 88.0236 473.676 69.592 464.363C60.6456 459.844 51.6209 460.668 42.9881 462.295C30.1712 464.716 17.2955 470.451 9.60336 481.263C-15.8737 517.024 15.7374 581.556 30.6611 616.718" fill="#137D9F"/>
<path d="M128.556 510.76C158.965 581.106 182.822 654.05 205.295 727.16C220.058 775.201 234.243 823.468 248.506 871.675C270.273 945.208 283.378 1020.54 294.041 1096.32C305.616 1178.56 314.955 1261.94 331.533 1342.95C350.348 1434.88 380.58 1522.59 455.819 1584.29C515.657 1633.31 589.002 1660.28 663.171 1679.12C709.276 1690.81 756.028 1699.49 802.809 1707.73C846.442 1715.41 892.075 1719.41 933.275 1736.77C988.689 1760.11 1014.94 1805.92 1041.91 1855.87C1051.91 1874.38 1068.4 1887.14 1086.37 1896.62C1129.44 1919.32 1179.94 1929.47 1228.61 1937.49C1234.97 1938.54 1241.56 1939.57 1248.37 1940.34C1261.95 1941.87 1275.62 1942.34 1289.27 1941.75C1290.25 1941.75 1291.23 1941.69 1292.21 1941.62C1301.79 1940.9 1313.15 1940.31 1321.58 1934.87C1326.57 1931.66 1326.41 1926.4 1325.51 1921.21C1307.92 1823.49 1283.69 1721.21 1197.87 1663.7C1146.86 1629.5 1082.98 1624.89 1022.81 1615.44C953.767 1604.65 884.493 1593.55 816.464 1578.8C732.985 1560.71 646.956 1537.97 572.208 1494.54C493.939 1449.06 451.993 1380.47 423.428 1297.37C386.839 1190.92 371.222 1077.27 349.759 966.257C328.374 855.636 295.67 748.485 262.062 641.255C241.855 576.792 220.794 511.211 191.513 451.228C182.978 433.747 173.1 416.384 158.612 402.717C148.175 392.824 135.206 383.02 121.032 379.667C111.987 377.559 98.6661 380.441 92.8982 388.412C82.0391 403.393 91.7995 426.502 97.5871 441.65C106.592 465.18 117.844 487.975 128.585 510.76" fill="#0ABBAB"/>
<path d="M197.91 430.411C229.056 493.255 252.134 559.52 273.457 626.098C288.162 672.149 302.162 718.602 316.338 764.849C339.288 839.735 354.807 916.464 370.11 993.212C386.835 1077.03 404.491 1161.26 430.363 1242.31C445.588 1289.99 464.097 1337.58 490.567 1380.58C517.605 1424.48 558.113 1456.11 602.876 1480.6C694.05 1530.45 798.615 1554.53 899.709 1574.66C953.874 1585.44 1008.37 1594.41 1062.89 1603.18C1113.73 1611.36 1166.34 1615.92 1213.16 1638.98C1287.42 1675.47 1330.14 1746.38 1369.64 1815.69C1383.03 1839.21 1400.6 1859.4 1420.31 1877.36C1463.54 1916.76 1509.3 1948.04 1564.97 1968.17C1571.93 1970.84 1579.05 1973.05 1586.3 1974.78C1598.95 1977.51 1612.27 1979.35 1625.33 1976.74C1626.09 1976.6 1626.84 1976.41 1627.56 1976.22C1637.06 1973.71 1641.28 1968.66 1643.49 1961.41C1644.91 1956.75 1643.18 1950.45 1640.72 1943.94C1595.63 1824.64 1551.31 1689.63 1445.84 1612.15C1391.39 1572.15 1325.96 1566.61 1260.08 1557.11C1178.28 1545.35 1096.28 1533.53 1015.19 1518.61C911.405 1499.52 804.242 1477.53 707.726 1432.78C661.649 1411.4 618.062 1382 587.651 1340.59C561.623 1305.13 541.879 1264.33 525.144 1224.08C482.067 1120.46 455.989 1010.17 428.245 901.11C401.697 796.682 368.551 694.763 334.484 592.726C315.387 535.534 296.005 477.216 268.996 424.199C260.653 407.806 250.683 391.992 238.262 377.991C223.066 360.864 205.822 341.336 185.558 332.224C177.372 328.55 164.451 323.014 156.147 327.962C137.03 339.318 189.744 415.086 197.93 430.508" fill="#B2CD0D"/>
<path d="M272.461 394.898C305.118 451.39 328.641 512.039 350.056 573.365C365.752 618.257 380.594 663.796 395.406 708.952C420.225 784.595 438.118 862.807 458.277 939.842C481.026 1026.79 507.856 1113.32 542.641 1195.96C562.103 1242.17 584.146 1288.68 613.722 1329.73C647.752 1376.96 696.556 1408.81 749.42 1431.47C861.251 1479.39 984.638 1501.23 1103.97 1521.13C1166.64 1531.57 1229.54 1540.6 1292.41 1549.56C1340.95 1556.49 1393.11 1559.05 1438.79 1578.07C1528.79 1615.56 1584.66 1703.59 1632.16 1783.82C1647.13 1809.13 1663.47 1833.61 1680.77 1857.46C1713.47 1902.57 1748.1 1960.22 1799.67 1985.44C1804.58 1987.86 1809.82 1990.27 1814.83 1991.32C1825.41 1993.62 1833.47 1989.82 1837.5 1983.65C1837.85 1983.15 1838.18 1982.64 1838.48 1982.1C1842.46 1974.31 1840.92 1961.93 1839.31 1953.92C1837.72 1946.81 1835.31 1939.9 1832.14 1933.33C1770.58 1801.93 1693.31 1658.71 1573.16 1576.13C1519.4 1539.18 1459.37 1532.61 1394.69 1524.21C1312.79 1513.57 1230.5 1504.86 1148.9 1493.35C1044.16 1478.57 935.521 1461.87 837.355 1420.05C741.72 1379.29 684.401 1304.85 646.761 1211.24C606.326 1110.67 585.313 1003 557.797 897.902C531.34 797.097 493.308 701.087 455.471 604.303C434.459 550.567 412.721 495.859 383.958 446.771C374.423 430.693 363.175 415.694 350.409 402.036C326.611 376.296 300.536 351.173 270.607 332.787C257.952 325.011 243.905 316.323 229.543 312.479C212.867 308.017 233.036 336.101 235.498 339.779C247.809 358.165 260.876 376.002 272.422 394.898" fill="#EAE9F9"/>
<path d="M382.551 406.429C422.376 459.549 454.171 517.306 480.8 577.641C499.899 620.939 515.87 666.443 532.88 710.212C561.48 783.731 575.578 863.711 592.206 941.475C610.943 1029.11 631.218 1118.01 663.258 1201.24C681.073 1247.48 701.495 1292.57 735.154 1330.19C771.802 1371.14 818.079 1399.04 869.238 1418.2C974.536 1457.54 1089.41 1470.29 1200.47 1482.44C1258.68 1488.84 1316.99 1494.29 1375.19 1500.79C1424.21 1506.27 1477.72 1508.32 1524.42 1525.3C1616.83 1558.84 1689.88 1640.85 1752.02 1713.39C1772.99 1737.9 1794.55 1761.98 1816.05 1785.93C1867.15 1842.79 1914.69 1919.5 1991.39 1944.17C1999.24 1946.69 2007.65 1948.91 2016.02 1949C2030.41 1949.14 2048.02 1943.05 2055.89 1929.84C2056.43 1928.97 2056.91 1928.06 2057.34 1927.13C2063.6 1912.95 2057.49 1897.61 2052.52 1884C2049.49 1875.7 2044.1 1867.18 2038.9 1860.08C1981.89 1782.29 1911.24 1711.17 1838.02 1647.25C1760.84 1579.8 1677.63 1516.19 1587.8 1468.33C1557.17 1452.02 1524.78 1436.61 1490.73 1427.91C1459.04 1419.81 1424.85 1418.5 1392.31 1416.35C1317.86 1411.45 1243.04 1411.22 1168.64 1408.51C1074.9 1405.17 976.478 1401.15 887.141 1369.3C842.344 1353.33 801.029 1327.49 769.4 1291.69C740.154 1258.58 726.683 1214.65 718.731 1172.17C700.142 1073.02 708.015 970.158 702.446 869.387C699.672 819.129 694.123 768.616 680.749 719.975C668.455 675.246 647.63 633.448 626.688 592.473C600.217 540.636 570.598 489.075 534.449 444.326C522.288 429.419 508.547 415.875 493.467 403.929C459.299 376.639 422.278 350.338 380.992 334.987C366.069 329.439 349.51 324.91 334.235 323.175C312.067 320.646 332.078 346.231 337 352.387C351.706 370.787 367.932 387.921 382.551 406.399" fill="#FE9572"/>
<path d="M512.308 377.05C565.084 425.843 612.124 479.743 649.309 540.543C673.727 580.466 697.359 624.388 709.813 669.015C730.877 744.489 725.503 827.804 723.542 907.061C721.375 994.453 718.237 1083.29 732.661 1168.3C740.448 1214.18 757.589 1256.51 792.871 1289.13C825.996 1319.78 866.094 1340.36 909.3 1352.66C1000.24 1378.54 1098.15 1376.31 1191.8 1375.26C1242.12 1374.69 1292.45 1373.58 1342.76 1374.46C1388.05 1375.25 1436.33 1375.03 1480.54 1385.93C1603.64 1416.31 1718.1 1495.88 1820.81 1566.6C1857.03 1591.55 1893.66 1616.35 1929.56 1641.67C1987.42 1682.48 2042.33 1727.78 2099.86 1769.34C2149.59 1805.27 2203.56 1837.55 2264.11 1849.98C2277.18 1852.67 2291.31 1854.98 2304.14 1853.58C2322.13 1851.62 2348.81 1845.04 2351.79 1822.33C2351.97 1821.03 2352.04 1819.72 2351.98 1818.41C2351 1795.99 2329.5 1775.72 2315.14 1760.9C2306.02 1751.63 2296.39 1742.87 2286.32 1734.64C2182.97 1648.92 2065.39 1576.53 1948.14 1509.2C1828.29 1440.49 1704.35 1375.61 1576.27 1325.64C1504.94 1297.82 1436.59 1278.85 1359.32 1279.58C1294.37 1280.21 1229.61 1288.21 1165.16 1294.28C1085.27 1301.81 1000.08 1310.05 921.773 1286.84C880.175 1274.51 841.421 1250.74 812.297 1218.45C782.879 1185.91 774.475 1141.11 774.828 1099.57C775.661 1000.84 810.463 901.572 828.399 802.868C836.901 756.084 843.226 708.153 839.705 660.527C836.283 614.262 819.622 574.614 798.902 534.084C770.729 478.92 737.388 425.137 697.193 378.795C683.624 363.197 668.386 349.132 651.751 336.853C607.623 304.193 556.857 275.249 500.383 270.603C482.546 269.133 461.649 269.926 445.361 277.827C399.253 300.184 495.784 362.426 512.308 377.05Z" fill="#F75F68"/>
<path d="M643.997 279.471C705.21 332.252 762.304 389.808 805.461 457.353C831.492 498.106 857.857 544.819 865.125 592.13C877.601 673.292 851.305 761.237 831.109 842.007C809.325 929.11 776.752 1024.35 785.991 1112.19C790.542 1155.65 807.57 1190.77 843.38 1219.11C874.948 1243.97 912.308 1260.43 951.967 1266.94C1028.47 1279.77 1108.09 1264.68 1183.67 1252.24C1262.95 1239.24 1345.07 1223.44 1425.69 1232.44C1482.84 1238.81 1538.99 1261.37 1592.17 1282.07C1672.33 1313.28 1750.66 1349.34 1827.83 1386.97C1877.1 1410.97 1926.49 1435.38 1975.14 1460.66C2071.86 1510.9 2166.24 1566.08 2261.96 1618.55C2332.65 1657.3 2407.66 1699.48 2486.94 1716.18C2497.95 1718.5 2510.13 1720.18 2521.14 1717.96C2544.4 1713.24 2535.07 1683.18 2528.33 1670.71C2527.31 1668.92 2526.2 1667.19 2524.99 1665.53C2504.66 1636.62 2473.42 1614.55 2444.64 1595.17C2431.22 1586.11 2417.12 1577.33 2403.18 1568.81C2270.77 1487.85 2131.35 1416.2 1990.86 1349.08C1861.03 1287.04 1728.64 1226.86 1592.64 1180.63C1525.27 1157.72 1462.03 1140.06 1390.33 1145.45C1331.7 1149.86 1273.99 1163.01 1216.56 1174.39C1144.68 1188.63 1067.66 1203.98 994.663 1187.56C955.331 1178.73 917.413 1158 889.076 1129.25C857.592 1097.31 849.274 1053.9 851.128 1011.96C855.503 913.327 899.591 814.401 929.8 717.701C944.768 669.831 958.921 620.697 963.149 570.513C966.876 526.673 959.147 489.087 940.119 450.265C913.791 396.524 879.619 346.992 838.721 303.293C824.35 288.125 809.017 273.897 792.818 260.698C741.079 218.22 679.934 180.83 614.013 164.537C597.388 160.439 575.074 156.782 559.086 164.586C509.476 188.8 627.558 265.717 644.007 279.471" fill="#7158D1"/>
<path d="M1429.44 60.3619C1488.11 99.9004 1505.39 155.847 1516.61 222.392C1530.35 303.677 1550.79 383.333 1586.65 457.15C1610.2 505.717 1641.36 566.609 1687.5 598.464C1740.82 635.264 1819.93 617.168 1876.22 600.956C1959.94 576.845 2046.76 538.876 2122.28 492.92C2151.92 474.883 2168.74 465.187 2197.73 486.247C2201.85 489.191 2207.07 493.401 2212.72 490.447C2217.07 488.18 2220.57 482.174 2223.98 476.561C2231.38 464.15 2239.75 452.338 2249 441.232C2257.41 431.242 2268 418.612 2268 404.697C2268 395.561 2263.53 389.133 2259.76 384.334C2253.18 375.963 2238.75 351.056 2224.98 356.68C2213.34 361.439 2202.64 371.508 2191.61 378.809C2162.62 398.053 2131.65 414.903 2100.89 430.359C1997.56 482.302 1848.19 544.941 1743.59 461.438C1670.37 402.97 1621.61 325.708 1604.48 234.747C1593.01 173.815 1585.76 113.06 1553.3 59.0861C1541.14 38.8802 1524.84 22.4328 1504.76 11.2553C1484.27 -0.12833 1453.56 -4.95656 1431.57 6.75091C1412.46 16.9569 1412.56 47.7908 1429.44 60.3619Z" fill="#0ABBAB"/>
<path d="M1317.74 80.0165C1303.03 80.2909 1293.33 95.3441 1298.33 108.281C1299.3 110.638 1300.77 112.76 1302.63 114.504C1335.1 143.983 1362.07 181.832 1376.08 223.12C1382.25 241.319 1387.23 260.126 1391.9 278.894C1400.73 314.341 1409.84 349.995 1418.03 385.58C1427.14 425.104 1435.69 465.119 1445.49 504.438C1449.81 521.657 1454.41 539.013 1459.22 556.075C1474.29 608.997 1492.83 661.536 1517.77 710.283C1536.15 746.24 1558.03 777.238 1600.44 785.745C1643.24 794.32 1690.45 784.383 1731.41 774.083C1844.77 745.554 1955.78 692.907 2064.37 646.914C2083.68 638.741 2105.99 626.833 2125.97 628.803C2142.64 630.45 2158.33 639.044 2174.29 647.061C2177.65 648.737 2181.33 650.462 2184.9 650.854C2187.51 651.252 2190.16 650.432 2192.08 648.629C2195.42 645.483 2197.14 638.741 2198.5 632.047C2200.68 621.267 2202.75 610.398 2204.77 599.569C2205.49 595.776 2206.18 592.032 2206.92 588.367C2209.69 574.529 2211.88 559.064 2207.57 545.246C2204.95 537.139 2200.47 529.755 2194.49 523.685C2182.67 511.023 2164.91 489.12 2144.48 493.461C2129.14 496.725 2114.52 505.055 2100.28 511.856C2068.29 527.125 2035.78 541.581 2003.58 556.271C1965.24 573.775 1926.24 590.798 1886.89 605.185C1826.87 627.098 1754.39 652.01 1689.11 640.466C1632.04 630.322 1594.79 579.047 1566.17 533.907C1528.42 474.39 1506.48 406.974 1491.01 337.744C1483.84 305.688 1478.67 272.69 1471.33 240.898C1464.97 213.3 1456.5 185.83 1443.68 161.133C1433.86 142.087 1420.21 125.271 1403.59 111.74C1380.88 93.1685 1347.41 79.4579 1317.74 80.0165Z" fill="#FFD300"/>
<path d="M1196.1 127.278C1186.01 126.298 1167.9 127.189 1168 142.163C1168.1 143.952 1168.69 145.678 1169.71 147.151C1192.93 185.948 1225.07 218.14 1243.25 259.847C1251.62 279.064 1258.96 299.046 1265.76 318.919C1278.52 356.52 1290.7 395.17 1301.53 433.114C1313.66 475.625 1322.33 519.988 1331.44 563.694C1335.6 583.617 1339.74 603.589 1344.04 623.472C1357.18 684.142 1371.97 744.988 1392.83 803.129C1407.32 843.543 1422.53 893.178 1459.37 919.676C1497.48 947.115 1548.8 941.02 1591.88 934.268C1738.88 911.19 1876.45 841.935 2021.75 807.696C2050.56 800.914 2083.15 791.124 2111.91 798.386C2135.55 804.364 2158.12 817.76 2180.81 827.256C2185.17 829.078 2189.93 830.656 2194.32 830.891C2197.41 831.058 2200.27 830.313 2202.33 827.785C2205.14 824.355 2205.98 817.436 2206 810.341C2206 798.513 2205.34 786.597 2204.23 774.759C2203.85 770.624 2203.35 766.508 2202.89 762.519C2201.17 747.526 2198.38 731.67 2191.58 718.195C2187.18 709.833 2181.36 702.292 2174.39 695.901C2155.25 678.458 2134.53 659.29 2106.66 660.623C2087.03 661.603 2067.99 668.668 2049.49 674.587C2013.01 686.258 1977.09 698.91 1941.52 712.992C1899.38 729.651 1857.1 747.212 1814.64 762.764C1747.22 787.44 1670.34 815.339 1597.05 812.674C1523.16 809.989 1493.23 749.956 1465.19 691.207C1426.51 610.164 1403.71 522.085 1384.19 433.918C1375.98 396.875 1367.21 359.803 1357.81 323.182C1350.37 294.165 1342.04 264.894 1329.87 238.141C1320.95 218.505 1308.89 200.454 1294.15 184.703C1269.16 157.999 1231.39 130.58 1196.1 127.278Z" fill="#FE9572"/>
<path d="M1067.68 152.948C1054.8 147.708 1036.72 140.686 1023.15 145.749C1022.13 146.066 1021.36 146.902 1021.12 147.943C1019.16 163.517 1041.72 183.253 1050.84 194.282C1068.23 215.232 1086.28 236.105 1100.87 258.926C1113.62 278.858 1125.67 299.672 1136.57 320.632C1157.64 361.4 1175.51 403.738 1190.02 447.267C1204.84 491.597 1216.14 534.439 1221.51 581.081C1223.86 601.571 1225.59 622.414 1227.15 643.08C1231.85 705.149 1234.73 768.285 1246.47 828.943C1255.3 874.497 1267.86 924.861 1292.92 965.088C1319.58 1007.89 1363.55 1030.42 1410.97 1035.61C1582.88 1054.51 1758.04 954.01 1930.17 936.164C1987.88 930.18 2044.33 943.667 2097.05 966.586C2148.31 988.859 2197.31 1022.83 2250.2 1042.06C2256.41 1044.32 2261.83 1045.58 2265.45 1044.74C2267.98 1044.14 2269.42 1042.18 2268.89 1037.6C2268.27 1032.22 2264.79 1023.29 2260.71 1013.97C2254.07 998.811 2246.98 983.668 2239.77 968.78C2237.3 963.697 2234.86 958.8 2232.49 954.089C2224.39 937.8 2216.19 920.689 2205.36 906.516C2198.64 897.534 2191 889.272 2182.58 881.863C2155.76 858.777 2126.67 835.926 2090.09 832.498C2028.76 826.749 1957.34 847.484 1899.9 864.037C1854.61 877.093 1809.31 892.324 1764.08 906.154C1688.85 929.083 1609.09 953.021 1529.58 954.206C1493.49 954.745 1459.03 946.811 1432.81 920.65C1407.56 895.458 1394.08 859.571 1380.66 827.523C1340.57 731.78 1315.54 630.23 1290.15 529.326C1279.36 486.308 1265.83 443.956 1253.28 401.398C1243.82 369.282 1234.01 336.842 1220.97 306.479C1211.85 285.104 1200.16 264.916 1186.16 246.36C1155.74 206.182 1113.85 171.735 1067.68 152.948Z" fill="#EAE9F9"/>
<path d="M913.663 138.487C896.187 129.236 876.288 119.642 856.007 117.241C854.115 117 852.203 116.935 850.299 117.074C831.185 117.858 869.659 152.354 873.15 155.627C895.216 176.422 918.665 196.081 939.338 218.062C957.452 237.328 975.105 257.574 991.385 278.33C1022.36 317.843 1049.71 360.904 1070.82 406.375C1091.94 451.846 1098.97 495.034 1096 544.846C1094.72 566.308 1091.93 588.25 1088.65 609.672C1078.63 675.027 1062.47 740.784 1055 806.296C1049.61 853.531 1049.58 901.139 1058.49 948.452C1068.45 1001.46 1094.26 1042.53 1139.82 1067.88C1229.57 1117.74 1346.47 1094.68 1445.61 1072.58C1536.82 1052.26 1635.87 1014.53 1730.38 1021.13C1845.66 1029.17 1961.76 1085.97 2063.46 1135.92C2123.55 1165.43 2182.86 1197.34 2242.18 1228.79C2288.84 1253.54 2336.03 1281.24 2384.8 1299.61C2393.45 1302.87 2403.17 1306.85 2412.6 1307C2417.02 1307.07 2419.84 1305.13 2418.77 1299.87C2417.01 1291.2 2411.44 1282.64 2407 1274.96C2396.74 1257.26 2384.62 1240.09 2372.17 1223.62C2367.72 1217.74 2363.3 1212.09 2358.93 1206.66C2343.9 1187.97 2327.96 1169.59 2310.34 1153.54C2296.84 1141.31 2282.66 1129.86 2267.86 1119.24C2199.14 1069.81 2124.68 1027.18 2045.98 997.657C2003.29 981.624 1958.09 968.463 1911.96 964.935C1870.5 961.77 1827.92 968.62 1787.76 976.901C1742.36 986.27 1696.97 999.019 1651.83 1010.73C1575.93 1030.44 1497.96 1049.76 1418.9 1049.31C1381.29 1049.1 1343.07 1041.72 1311.76 1019.91C1278.07 996.393 1259.51 962.819 1245.83 926.05C1206.87 821.25 1199.01 708.209 1188.04 595.854C1182.71 541.397 1173.1 490.575 1154.96 439.126C1142.21 403.053 1127.59 366.999 1109.79 333.425C1097.42 310.226 1083.13 288.099 1067.08 267.276C1026.05 213.946 972.32 169.523 913.663 138.487Z" fill="#1DAACC"/>
<path d="M984.233 536.791C976.62 627.933 936.888 717.86 907.585 805.484C878.86 891.383 843.121 1004.08 893.369 1082.51C936.604 1149.98 1035.75 1167.02 1114.64 1162.01C1195.98 1156.82 1275.15 1134.38 1354.61 1117.82C1391.62 1110.1 1428.99 1103.23 1466.76 1100.75C1509.49 1097.94 1548.57 1104.67 1589.57 1116.6C1740.84 1160.7 1885.85 1231.4 2025.99 1301.7C2133.97 1355.88 2240.63 1413.52 2347.77 1469.85C2388.75 1491.41 2429.76 1512.97 2471.58 1532.9C2496.62 1544.8 2523.28 1558.74 2550.74 1563.48C2557.7 1564.69 2563.34 1563.94 2563.84 1559.56C2566.33 1537.75 2538.87 1508.06 2524.52 1491.48C2500.29 1463.48 2470.17 1440.09 2439.94 1418.38C2257.14 1287.12 2047.18 1180.98 1835.13 1102.58C1768.61 1077.99 1693.54 1048.16 1621.4 1049.4C1561.29 1050.44 1501.86 1064.87 1443.56 1078.26C1317.01 1107.35 1090.02 1160.93 1038.17 1001.63C1010.58 916.854 1023.22 818.685 1036.51 728.199C1049 643.084 1074.21 548.669 1057.65 463.936C1044.47 396.461 999.645 330.006 955.234 278.074C903.847 218.009 837.332 170.37 765.776 136.892C745.782 127.543 722.894 117.772 700.399 117.037C662.139 115.782 693.385 147.035 706.285 158.031C731.527 179.533 760.242 196.928 785.749 217.813C848.83 269.44 907.31 328.144 948.111 398.382C974.109 443.169 988.569 484.869 984.233 536.791Z" fill="#EAE9F9"/>
</g>
</svg>
