<svg width="1600" height="1000" viewBox="0 0 1600 1000" fill="none" xmlns="http://www.w3.org/2000/svg">
<g clip-path="url(#clip0)">
<rect width="1600" height="1000" fill="#38B0F3"/>
<path fill-rule="evenodd" clip-rule="evenodd" d="M0.468994 35L34.0041 87.9328C66.8231 140.431 133.893 246.296 171.349 399.312C208.806 552.328 218.08 753.364 306.108 823.106C394.135 892.847 562.348 832.165 672.049 866.218C781.75 900.271 834.371 1029.93 859.966 1094.32L886.277 1159.15L712.889 1444.66L664.905 1415.52C617.637 1386.82 521.669 1328.54 426.417 1270.69C331.165 1212.85 235.196 1154.57 139.944 1096.72C44.6924 1038.87 -51.2758 980.594 -146.528 922.749C-241.78 864.903 -337.748 806.623 -385.016 777.917L-433 748.777L0.468994 35Z" fill="#0075FF" fill-opacity="0.22"/>
<path fill-rule="evenodd" clip-rule="evenodd" d="M1553.66 1190.74L1530.14 1130.72C1507.26 1071.23 1460.21 951.188 1453.82 782.52C1447.44 613.851 1480.42 395.497 1404 312.85C1327.59 230.203 1140.47 282.205 1034.04 236.424C927.605 190.644 900.561 46.0235 887.688 -25.7576L874.166 -98.0677L1114.28 -393L1157.81 -357.556C1200.7 -322.642 1287.77 -251.755 1374.19 -181.397C1460.62 -111.038 1547.69 -40.1513 1634.11 30.2068C1720.53 100.565 1807.6 171.452 1894.03 241.81C1980.45 312.168 2067.52 383.056 2110.41 417.97L2153.94 453.414L1553.66 1190.74Z" fill="#0075FF" fill-opacity="0.22"/>
</g>
<defs>
<clipPath id="clip0">
<rect width="1600" height="1000" fill="white"/>
</clipPath>
</defs>
</svg>
