<svg width="802" height="813" viewBox="0 0 802 813" fill="none" xmlns="http://www.w3.org/2000/svg">
<g clip-path="url(#clip0)">
<path fill-rule="evenodd" clip-rule="evenodd" d="M802 0H0V645V655V736.139L8.68833 728.544C9.42239 727.948 10.2058 727.306 11.035 726.626C20.7756 718.636 36.8373 705.462 53.4667 701.962C71.5117 698.165 88.8883 705.76 106.933 728.544C114.249 737.782 121.455 749.516 128.64 761.216C139.178 778.376 149.671 795.462 160.4 804.494C178.445 819.684 195.822 812.089 213.867 800.696C222.889 795 231.745 788.354 240.6 781.709C249.455 775.063 258.311 768.418 267.333 762.721C285.378 751.329 302.755 743.734 320.8 747.532C325.772 748.578 330.693 750.489 335.591 752.391C348.471 757.393 361.193 762.334 374.267 751.329C381.194 745.498 388.023 735.19 394.829 724.916C405.752 708.427 416.616 692.027 427.733 694.367C437.901 696.507 447.857 714.321 457.84 732.184C465.573 746.021 473.323 759.888 481.2 766.519C497.358 780.121 512.981 763.273 529.027 745.969C530.901 743.949 532.78 741.922 534.667 739.937C552.712 720.949 570.088 705.76 588.133 717.152C599.497 724.326 610.595 742.042 621.763 759.868C628.329 770.349 634.919 780.867 641.6 789.304C659.645 812.089 677.022 819.684 695.067 804.494C703.421 797.461 711.633 785.544 719.834 773.642C729.345 759.838 738.843 746.055 748.533 739.937C765.905 728.969 782.657 742.638 792.231 750.449C792.602 750.752 792.963 751.046 793.312 751.329L802 758.924V655V645V0Z" fill="url(#paint0_linear)"/>
<path d="M918.463 188.764C856.204 254.714 754.03 270.908 668.774 235.909C583.4 201.374 514.595 115.063 522.503 38.7948C530.236 -37.7647 614.681 -104.28 711.342 -127.074C808.178 -149.576 916.938 -128.183 960.177 -60.2453C1003.3 8.1581 980.605 123.28 918.463 188.764Z" fill="#75BDFF" fill-opacity="0.25"/>
<path d="M891.843 165.846C840.514 220.29 756.195 233.579 685.792 204.579C615.293 175.963 558.424 104.574 564.881 41.5546C571.195 -21.7058 640.835 -76.5963 720.599 -95.3451C800.507 -113.853 890.297 -96.0751 926.047 -39.8931C961.701 16.6734 943.075 111.788 891.843 165.846Z" fill="#75BDFF" fill-opacity="0.25"/>
<path d="M860.522 138.548C821.834 179.54 758.33 189.594 705.333 167.822C652.264 146.339 609.486 92.6685 614.39 45.2533C619.186 -2.34337 671.663 -43.6845 731.74 -57.8419C791.925 -71.8178 859.529 -58.502 886.414 -16.2581C913.225 26.2751 899.137 97.8443 860.522 138.548Z" fill="#75BDFF" fill-opacity="0.25"/>
<path d="M212.476 44.3175C237.27 131.558 198.891 227.624 125.188 282.956C51.8256 338.627 -57.5392 353.563 -119.014 307.736C-180.829 261.909 -194.755 155.32 -164.866 60.6115C-134.638 -34.097 -60.596 -116.585 19.8992 -118.961C100.734 -120.998 188.022 -42.5834 212.476 44.3175Z" fill="#75BDFF" fill-opacity="0.28"/>
<path d="M179.163 55.4575C199.666 127.419 167.929 206.66 106.983 252.3C46.3173 298.221 -44.119 310.541 -94.9543 272.741C-146.07 234.94 -157.586 147.019 -132.87 68.8977C-107.874 -9.22335 -46.6467 -77.2643 19.9166 -79.2243C86.7608 -80.9044 158.941 -16.2235 179.163 55.4575Z" fill="#75BDFF" fill-opacity="0.28"/>
<path d="M139.681 68.3942C155.098 122.611 131.233 182.314 85.4055 216.7C39.789 251.298 -28.2135 260.58 -66.4385 232.101C-104.875 203.621 -113.533 137.379 -94.9489 78.5204C-76.1531 19.662 -30.1142 -31.6017 19.9373 -33.0784C70.2 -34.3442 124.475 14.388 139.681 68.3942Z" fill="#75BDFF" fill-opacity="0.28"/>
</g>
<defs>
<linearGradient id="paint0_linear" x1="-1204" y1="51" x2="338" y2="539" gradientUnits="userSpaceOnUse">
<stop stop-color="#169CBA"/>
<stop offset="1" stop-color="#1C60C7" stop-opacity="0.68"/>
</linearGradient>
<clipPath id="clip0">
<rect width="802" height="813" fill="white"/>
</clipPath>
</defs>
</svg>
