<svg width="1920" height="737" viewBox="0 0 1920 737" fill="none" xmlns="http://www.w3.org/2000/svg">
<g clip-path="url(#clip0)">
<path fill-rule="evenodd" clip-rule="evenodd" d="M1920 0H0V491V507V625.539L20.8 614.327C22.5574 613.448 24.4331 612.499 26.4184 611.495C49.7375 599.701 88.1894 580.253 128 575.087C171.2 569.481 212.8 580.693 256 614.327C273.514 627.964 290.765 645.285 307.967 662.557C333.194 687.888 358.314 713.111 384 726.443C427.2 748.866 468.8 737.655 512 720.837C533.6 712.429 554.8 702.618 576 692.808C597.2 682.998 618.4 673.188 640 664.779C683.2 647.962 724.8 636.75 768 642.356C779.902 643.901 791.683 646.722 803.41 649.53C834.244 656.914 864.702 664.207 896 647.962C912.584 639.354 928.932 624.137 945.226 608.971C971.375 584.63 997.384 560.421 1024 563.875C1048.34 567.034 1072.18 593.331 1096.08 619.7C1114.59 640.127 1133.14 660.597 1152 670.385C1190.68 690.464 1228.08 665.594 1266.5 640.05C1270.98 637.067 1275.48 634.075 1280 631.145C1323.2 603.116 1364.8 580.693 1408 597.51C1435.2 608.1 1461.77 634.253 1488.51 660.567C1504.23 676.038 1520 691.566 1536 704.02C1579.2 737.655 1620.8 748.866 1664 726.443C1684 716.061 1703.66 698.469 1723.29 680.9C1746.06 660.523 1768.8 640.176 1792 631.145C1833.59 614.955 1873.69 635.132 1896.61 646.663C1897.5 647.11 1898.36 647.544 1899.2 647.962L1920 659.174V507V491V0Z" fill="url(#paint0_linear)"/>
<path d="M294.476 16.3175C319.27 103.558 280.891 199.624 207.188 254.956C133.826 310.627 24.4608 325.563 -37.0145 279.736C-98.8294 233.909 -112.755 127.32 -82.8662 32.6115C-52.638 -62.097 21.404 -144.585 101.899 -146.961C182.734 -148.998 270.022 -70.5834 294.476 16.3175Z" fill="#75BDFF" fill-opacity="0.28"/>
<path d="M261.163 27.4575C281.666 99.4186 249.929 178.66 188.983 224.3C128.317 270.221 37.881 282.541 -12.9543 244.741C-64.0705 206.94 -75.5857 119.019 -50.8702 40.8977C-25.8738 -37.2234 35.3533 -105.264 101.917 -107.224C168.761 -108.904 240.941 -44.2235 261.163 27.4575Z" fill="#75BDFF" fill-opacity="0.28"/>
<path d="M221.681 40.3942C237.097 94.6114 213.233 154.314 167.406 188.7C121.789 223.298 53.7865 232.58 15.5615 204.101C-22.8747 175.621 -31.5334 109.379 -12.9489 50.5204C5.84683 -8.33796 51.8858 -59.6017 101.937 -61.0784C152.2 -62.3442 206.475 -13.612 221.681 40.3942Z" fill="#75BDFF" fill-opacity="0.28"/>
<path d="M1912.46 156.764C1850.2 222.714 1748.03 238.908 1662.77 203.909C1577.4 169.374 1508.6 83.0625 1516.5 6.79479C1524.24 -69.7647 1608.68 -136.28 1705.34 -159.074C1802.18 -181.576 1910.94 -160.183 1954.18 -92.2453C1997.3 -23.8419 1974.6 91.2801 1912.46 156.764Z" fill="#75BDFF" fill-opacity="0.25"/>
<path d="M1885.84 133.846C1834.51 188.29 1750.19 201.579 1679.79 172.579C1609.29 143.963 1552.42 72.5737 1558.88 9.55458C1565.2 -53.7058 1634.84 -108.596 1714.6 -127.345C1794.51 -145.853 1884.3 -128.075 1920.05 -71.8931C1955.7 -15.3266 1937.08 79.7876 1885.84 133.846Z" fill="#75BDFF" fill-opacity="0.25"/>
<path d="M1854.52 106.548C1815.83 147.54 1752.33 157.594 1699.33 135.822C1646.26 114.339 1603.49 60.6685 1608.39 13.2533C1613.19 -34.3434 1665.66 -75.6845 1725.74 -89.8419C1785.93 -103.818 1853.53 -90.502 1880.41 -48.2581C1907.23 -5.72491 1893.14 65.8443 1854.52 106.548Z" fill="#75BDFF" fill-opacity="0.25"/>
</g>
<defs>
<linearGradient id="paint0_linear" x1="-86" y1="51" x2="1456" y2="539" gradientUnits="userSpaceOnUse">
<stop stop-color="#169CBA"/>
<stop offset="1" stop-color="#1C60C7" stop-opacity="0.68"/>
</linearGradient>
<clipPath id="clip0">
<rect width="1920" height="737" fill="white"/>
</clipPath>
</defs>
</svg>
