<svg width="1440" height="615" viewBox="0 0 1440 615" fill="none" xmlns="http://www.w3.org/2000/svg">
<g clip-path="url(#clip0)">
<path fill-rule="evenodd" clip-rule="evenodd" d="M1440 0H0V367V369V501.539L15.6 490.327C16.9181 489.448 18.3249 488.499 19.8139 487.495C37.3032 475.701 66.1421 456.253 96 451.087C128.4 445.481 159.6 456.693 192 490.327C205.136 503.964 218.074 521.285 230.975 538.557C249.896 563.888 268.736 589.111 288 602.443C320.4 624.866 351.6 613.655 384 596.837C400.2 588.429 416.1 578.618 432 568.808C447.9 558.998 463.8 549.188 480 540.779C512.4 523.962 543.6 512.75 576 518.356C584.927 519.901 593.762 522.722 602.557 525.53C625.683 532.914 648.527 540.207 672 523.962C684.438 515.354 696.699 500.137 708.919 484.971C728.532 460.63 748.038 436.421 768 439.875C786.257 443.034 804.132 469.331 822.057 495.7C835.942 516.127 849.857 536.597 864 546.385C893.012 566.464 921.063 541.594 949.874 516.05C953.238 513.067 956.612 510.075 960 507.145C992.4 479.116 1023.6 456.693 1056 473.51C1076.4 484.1 1096.33 510.253 1116.38 536.567C1128.17 552.039 1140 567.566 1152 580.02C1184.4 613.655 1215.6 624.866 1248 602.443C1263 592.061 1277.74 574.469 1292.47 556.9C1309.55 536.523 1326.6 516.176 1344 507.145C1375.19 490.955 1405.27 511.132 1422.46 522.663C1423.13 523.11 1423.77 523.544 1424.4 523.962L1440 535.174V369V367V0Z" fill="url(#paint0_linear)"/>
<path d="M294.476 16.3175C319.27 103.558 280.891 199.624 207.188 254.956C133.826 310.627 24.4608 325.563 -37.0145 279.736C-98.8294 233.909 -112.755 127.32 -82.8662 32.6115C-52.638 -62.097 21.404 -144.585 101.899 -146.961C182.734 -148.998 270.022 -70.5834 294.476 16.3175Z" fill="#75BDFF" fill-opacity="0.28"/>
<path d="M261.163 27.4575C281.666 99.4186 249.929 178.66 188.983 224.3C128.317 270.221 37.881 282.541 -12.9543 244.741C-64.0705 206.94 -75.5857 119.019 -50.8702 40.8977C-25.8738 -37.2234 35.3533 -105.264 101.917 -107.224C168.761 -108.904 240.941 -44.2235 261.163 27.4575Z" fill="#75BDFF" fill-opacity="0.28"/>
<path d="M221.681 40.3942C237.097 94.6114 213.233 154.314 167.406 188.7C121.789 223.298 53.7865 232.58 15.5615 204.101C-22.8747 175.621 -31.5334 109.379 -12.9489 50.5204C5.84683 -8.33796 51.8858 -59.6017 101.937 -61.0784C152.2 -62.3442 206.475 -13.612 221.681 40.3942Z" fill="#75BDFF" fill-opacity="0.28"/>
<path d="M1416.46 127.764C1354.2 193.714 1252.03 209.908 1166.77 174.909C1081.4 140.374 1012.6 54.0625 1020.5 -22.2052C1028.24 -98.7647 1112.68 -165.28 1209.34 -188.074C1306.18 -210.576 1414.94 -189.183 1458.18 -121.245C1501.3 -52.8419 1478.6 62.2801 1416.46 127.764Z" fill="#75BDFF" fill-opacity="0.25"/>
<path d="M1389.84 104.846C1338.51 159.29 1254.19 172.579 1183.79 143.579C1113.29 114.963 1056.42 43.5737 1062.88 -19.4454C1069.2 -82.7058 1138.84 -137.596 1218.6 -156.345C1298.51 -174.853 1388.3 -157.075 1424.05 -100.893C1459.7 -44.3266 1441.08 50.7876 1389.84 104.846Z" fill="#75BDFF" fill-opacity="0.25"/>
<path d="M1358.52 77.5476C1319.83 118.54 1256.33 128.594 1203.33 106.822C1150.26 85.3393 1107.49 31.6685 1112.39 -15.7467C1117.19 -63.3434 1169.66 -104.685 1229.74 -118.842C1289.93 -132.818 1357.53 -119.502 1384.41 -77.2581C1411.23 -34.7249 1397.14 36.8443 1358.52 77.5476Z" fill="#75BDFF" fill-opacity="0.25"/>
</g>
<defs>
<linearGradient id="paint0_linear" x1="-86" y1="51" x2="1456" y2="539" gradientUnits="userSpaceOnUse">
<stop stop-color="#169CBA"/>
<stop offset="1" stop-color="#1C60C7" stop-opacity="0.68"/>
</linearGradient>
<clipPath id="clip0">
<rect width="1440" height="615" fill="white"/>
</clipPath>
</defs>
</svg>
