<svg width="1600" height="924" viewBox="0 0 1600 924" fill="none" xmlns="http://www.w3.org/2000/svg">
<rect y="232" width="1600" height="406" fill="#13BADF"/>
<path fill-rule="evenodd" clip-rule="evenodd" d="M0 0L66.6667 30C133.333 60 266.667 120 400 126C533.333 132 666.667 84 800 78C933.333 72 1066.67 108 1200 108C1333.33 108 1466.67 72 1533.33 54L1600 36V252H1533.33C1466.67 252 1333.33 252 1200 252C1066.67 252 933.333 252 800 252C666.667 252 533.333 252 400 252C266.667 252 133.333 252 66.6667 252H0V0Z" fill="#13BADF"/>
<path fill-rule="evenodd" clip-rule="evenodd" d="M0 819.364L38.6667 806.206C76 793.049 152 766.733 228 786.47C305.333 806.206 381.333 871.994 457.333 898.309C533.333 924.624 609.333 911.467 685.333 871.994C761.333 832.521 838.667 766.733 914.667 766.733C990.667 766.733 1066.67 832.521 1142.67 825.943C1218.67 819.364 1294.67 740.418 1372 720.682C1448 700.946 1524 740.418 1561.33 760.155L1600 779.891V622H1561.33C1524 622 1448 622 1372 622C1294.67 622 1218.67 622 1142.67 622C1066.67 622 990.667 622 914.667 622C838.667 622 761.333 622 685.333 622C609.333 622 533.333 622 457.333 622C381.333 622 305.333 622 228 622C152 622 76 622 38.6667 622H0V819.364Z" fill="#13BADF"/>
</svg>
