<svg width="1600" height="725" viewBox="0 0 1600 725" fill="none" xmlns="http://www.w3.org/2000/svg">
<g clip-path="url(#clip0)">
<rect y="232" width="1600" height="225" fill="#13BADF"/>
<path fill-rule="evenodd" clip-rule="evenodd" d="M0 0L66.6667 30C133.333 60 266.667 120 400 126C533.333 132 666.667 84 800 78C933.333 72 1066.67 108 1200 108C1333.33 108 1466.67 72 1533.33 54L1600 36V252H1533.33C1466.67 252 1333.33 252 1200 252C1066.67 252 933.333 252 800 252C666.667 252 533.333 252 400 252C266.667 252 133.333 252 66.6667 252H0V0Z" fill="#13BADF"/>
<path fill-rule="evenodd" clip-rule="evenodd" d="M-21 632.364L17.6667 619.206C55 606.049 131 579.733 207 599.47C284.333 619.206 360.333 684.994 436.333 711.309C512.333 737.624 588.333 724.467 664.333 684.994C740.333 645.521 817.667 579.733 893.667 579.733C969.667 579.733 1045.67 645.521 1121.67 638.943C1197.67 632.364 1273.67 553.418 1351 533.682C1427 513.946 1503 553.418 1540.33 573.155L1579 592.891V435H1540.33C1503 435 1427 435 1351 435C1273.67 435 1197.67 435 1121.67 435C1045.67 435 969.667 435 893.667 435C817.667 435 740.333 435 664.333 435C588.333 435 512.333 435 436.333 435C360.333 435 284.333 435 207 435C131 435 55 435 17.6667 435H-21V632.364Z" fill="#13BADF"/>
</g>
<defs>
<clipPath id="clip0">
<rect width="1600" height="725" fill="white"/>
</clipPath>
</defs>
</svg>
