<svg width="1600" height="732" viewBox="0 0 1600 732" fill="none" xmlns="http://www.w3.org/2000/svg">
<rect y="232" width="1600" height="212" fill="#86F0FF"/>
<path fill-rule="evenodd" clip-rule="evenodd" d="M0 0L66.6667 30C133.333 60 266.667 120 400 126C533.333 132 666.667 84 800 78C933.333 72 1066.67 108 1200 108C1333.33 108 1466.67 72 1533.33 54L1600 36V252H1533.33C1466.67 252 1333.33 252 1200 252C1066.67 252 933.333 252 800 252C666.667 252 533.333 252 400 252C266.667 252 133.333 252 66.6667 252H0V0Z" fill="#86F0FF"/>
<path fill-rule="evenodd" clip-rule="evenodd" d="M0 625.364L38.6667 612.206C76 599.049 152 572.733 228 592.47C305.333 612.206 381.333 677.994 457.333 704.309C533.333 730.624 609.333 717.467 685.333 677.994C761.333 638.521 838.667 572.733 914.667 572.733C990.667 572.733 1066.67 638.521 1142.67 631.943C1218.67 625.364 1294.67 546.418 1372 526.682C1448 506.946 1524 546.418 1561.33 566.155L1600 585.891V428H1561.33C1524 428 1448 428 1372 428C1294.67 428 1218.67 428 1142.67 428C1066.67 428 990.667 428 914.667 428C838.667 428 761.333 428 685.333 428C609.333 428 533.333 428 457.333 428C381.333 428 305.333 428 228 428C152 428 76 428 38.6667 428H0V625.364Z" fill="#86F0FF"/>
</svg>
