<svg width="790" height="800" viewBox="0 0 790 800" fill="none" xmlns="http://www.w3.org/2000/svg">
<g clip-path="url(#clip0)">
<path fill-rule="evenodd" clip-rule="evenodd" d="M16.4583 14.556L0 0V126V130V671V677V789.754L21.9444 780.125C43.8889 770.038 87.7778 750.322 131.667 737.025C175.556 723.729 219.444 717.31 263.333 737.025C278.668 743.914 294.002 754.049 309.337 764.184L309.337 764.185C337.892 783.057 366.446 801.929 395 799.841C417.672 798.183 440.345 783.188 463.017 768.193C484.234 754.161 505.45 740.129 526.667 737.025C550.263 733.574 573.859 743.376 597.455 753.179C617.748 761.608 638.041 770.038 658.333 770.038C702.222 770.038 746.111 730.606 768.056 710.432L790 690.716V677V671V130V126V21.583L773.542 36.139C757.083 50.695 724.167 79.305 691.25 79.305C675.744 79.305 660.238 72.9561 644.731 66.6072C627.321 59.4787 609.91 52.3501 592.5 54.2085C576.883 55.8755 561.265 64.8867 545.648 73.8978C528.349 83.8794 511.049 93.861 493.75 93.861C471.806 93.861 449.861 77.7992 427.917 61.7374C416.944 53.7066 405.972 45.6757 395 39.6525C362.083 21.583 329.167 21.583 296.25 25.0965C263.333 28.61 230.417 36.139 197.5 46.6795C192.982 48.1952 188.464 49.777 183.946 51.3588C155.547 61.3017 127.149 71.2446 98.75 64.749C67.2095 58.0158 35.6689 31.0056 18.6076 16.3949C17.8632 15.7574 17.1464 15.1435 16.4583 14.556Z" fill="url(#paint0_linear)"/>
</g>
<defs>
<linearGradient id="paint0_linear" x1="-682" y1="229.282" x2="839.389" y2="493.504" gradientUnits="userSpaceOnUse">
<stop stop-color="#169CBA"/>
<stop offset="1" stop-color="#1C60C7" stop-opacity="0.73"/>
</linearGradient>
<clipPath id="clip0">
<rect width="790" height="800" fill="white"/>
</clipPath>
</defs>
</svg>
