<svg width="1006" height="500" viewBox="0 0 1006 500" fill="none" xmlns="http://www.w3.org/2000/svg">
<g clip-path="url(#clip0)">
<path fill-rule="evenodd" clip-rule="evenodd" d="M20.9583 14.556L0 0V126V130V371V391V489.754L27.9444 480.125C55.8889 470.038 111.778 450.322 167.667 437.025C223.556 423.729 279.444 417.31 335.333 437.025C354.861 443.914 374.388 454.049 393.916 464.185C430.277 483.057 466.639 501.929 503 499.841C531.872 498.183 560.743 483.188 589.615 468.193C616.632 454.161 643.649 440.129 670.667 437.025C700.714 433.574 730.762 443.376 760.81 453.179C786.651 461.608 812.492 470.038 838.333 470.038C894.222 470.038 950.111 430.606 978.056 410.432L1005.6 391H1006L1006 390.716V371V130L1006 126L1006 21.583L985.042 36.139C964.083 50.695 922.167 79.305 880.25 79.305C860.504 79.305 840.758 72.9561 821.012 66.6072C798.842 59.4787 776.671 52.3501 754.5 54.2085C734.613 55.8755 714.725 64.8867 694.838 73.8978C672.808 83.8794 650.779 93.861 628.75 93.861C600.806 93.861 572.861 77.7992 544.917 61.7374C530.944 53.7066 516.972 45.6757 503 39.6525C461.083 21.583 419.167 21.583 377.25 25.0965C335.333 28.61 293.417 36.139 251.5 46.6795C245.747 48.1952 239.993 49.777 234.24 51.3588C198.077 61.3017 161.913 71.2446 125.75 64.749C85.5857 58.0158 45.4214 31.0056 23.6953 16.3949C22.7474 15.7574 21.8345 15.1435 20.9583 14.556Z" fill="url(#paint0_linear)"/>
</g>
<defs>
<linearGradient id="paint0_linear" x1="-466" y1="229.282" x2="1055.39" y2="493.505" gradientUnits="userSpaceOnUse">
<stop stop-color="#169CBA"/>
<stop offset="1" stop-color="#1C60C7" stop-opacity="0.73"/>
</linearGradient>
<clipPath id="clip0">
<rect width="1006" height="500" fill="white"/>
</clipPath>
</defs>
</svg>
