<svg width="1440" height="631" viewBox="0 0 1440 631" fill="none" xmlns="http://www.w3.org/2000/svg">
<path fill-rule="evenodd" clip-rule="evenodd" d="M0 0L30 20.2664C31.254 21.0843 32.5604 21.9389 33.917 22.8263L33.9177 22.8267C65.0168 43.1693 122.508 80.7758 180 90.1506C231.765 99.1944 283.529 85.3508 335.294 71.5073C343.529 69.3049 351.765 67.1025 360 64.9923C420 50.3166 480 39.834 540 34.9421C600 30.0502 660 30.0502 720 55.2085C740 63.5946 760 74.7761 780 85.9575C820 108.32 860 130.683 900 130.683C931.533 130.683 963.066 116.786 994.599 102.888C1023.07 90.3422 1051.53 77.7959 1080 75.4749C1111.74 72.8875 1143.47 82.8126 1175.21 92.7378C1203.47 101.577 1231.74 110.417 1260 110.417C1320 110.417 1380 70.583 1410 50.3166L1440 30.0502V169V181V450V471V477.663L1400 505.327C1360 533.634 1280 588.961 1200 588.961C1163.01 588.961 1126.02 577.133 1089.03 565.305C1046.02 551.551 1003.01 537.798 960 542.64C921.327 546.994 882.654 566.683 843.981 586.371C802.654 607.411 761.327 628.451 720 630.777C667.952 633.707 615.904 607.227 563.855 580.747C535.904 566.527 507.952 552.306 480 542.64C400 514.977 320 523.984 240 542.64C160 561.297 80 588.961 40 603.114L0 616.624V471V450V181V169V0Z" fill="url(#paint0_linear)"/>
<defs>
<linearGradient id="paint0_linear" x1="-32" y1="166" x2="1450" y2="521.5" gradientUnits="userSpaceOnUse">
<stop stop-color="#169CBA"/>
<stop offset="1" stop-color="#1C60C7" stop-opacity="0.73"/>
</linearGradient>
</defs>
</svg>
