<svg width="518" height="751" viewBox="0 0 518 751" fill="none" xmlns="http://www.w3.org/2000/svg">
<g clip-path="url(#clip0)">
<path fill-rule="evenodd" clip-rule="evenodd" d="M10.7917 14.556L0 0V126V130V622V628V740.754L14.3889 731.125C28.7778 721.038 57.5556 701.322 86.3333 688.025C115.111 674.729 143.889 668.31 172.667 688.025C182.721 694.914 192.776 705.049 202.831 715.184L202.831 715.185C221.554 734.057 240.277 752.929 259 750.841C273.866 749.183 288.732 734.188 303.599 719.193C317.51 705.161 331.422 691.129 345.333 688.025C360.805 684.574 376.277 694.376 391.749 704.179C405.055 712.608 418.361 721.038 431.667 721.038C460.444 721.038 489.222 681.606 503.611 661.432L518 641.716V628V622V130V126V21.583L507.208 36.139C496.417 50.695 474.833 79.305 453.25 79.305C443.083 79.305 432.915 72.9561 422.748 66.6073C411.332 59.4787 399.916 52.3501 388.5 54.2085C378.26 55.8755 368.019 64.8867 357.779 73.8978C346.436 83.8794 335.093 93.861 323.75 93.861C309.361 93.861 294.972 77.7992 280.583 61.7375C273.389 53.7066 266.194 45.6757 259 39.6525C237.417 21.583 215.833 21.583 194.25 25.0965C172.667 28.61 151.083 36.139 129.5 46.6795C126.538 48.1952 123.575 49.777 120.613 51.3588C101.992 61.3017 83.3709 71.2446 64.75 64.749C44.069 58.0158 23.388 31.0056 12.2009 16.3949C11.7129 15.7574 11.2428 15.1435 10.7917 14.556Z" fill="url(#paint0_linear)"/>
</g>
<defs>
<linearGradient id="paint0_linear" x1="-954" y1="229.282" x2="567.389" y2="493.505" gradientUnits="userSpaceOnUse">
<stop stop-color="#169CBA"/>
<stop offset="1" stop-color="#1C60C7" stop-opacity="0.73"/>
</linearGradient>
<clipPath id="clip0">
<rect width="518" height="751" fill="white"/>
</clipPath>
</defs>
</svg>
