<svg width="792" height="1778" viewBox="0 0 792 1778" fill="none" xmlns="http://www.w3.org/2000/svg">
<g clip-path="url(#clip0)">
<path d="M224.2 421.515C258.832 543.583 205.224 677.999 102.279 755.42C-0.192288 833.315 -152.95 854.214 -238.817 790.093C-325.158 725.972 -344.609 576.831 -302.862 444.314C-260.64 311.797 -157.22 196.379 -44.7862 193.054C68.1218 190.204 190.043 299.923 224.2 421.515Z" fill="url(#paint0_linear)" fill-opacity="0.3"/>
<path d="M170.703 439.209C198.443 537.008 155.503 644.701 73.0427 706.729C-9.0379 769.138 -131.399 785.881 -200.179 734.508C-269.34 683.136 -284.92 563.646 -251.48 457.475C-217.659 351.304 -134.819 258.833 -44.7581 256.169C45.6825 253.886 143.343 341.791 170.703 439.209Z" fill="url(#paint1_linear)" fill-opacity="0.3"/>
<path d="M109.952 459.28C129.867 529.55 99.0403 606.929 39.8423 651.498C-19.0829 696.34 -106.925 708.37 -156.302 671.458C-205.952 634.545 -217.137 548.69 -193.13 472.404C-168.851 396.119 -109.38 329.676 -44.7263 327.762C20.2006 326.122 90.3106 389.283 109.952 459.28Z" fill="url(#paint2_linear)" fill-opacity="0.3"/>
<path d="M1058.41 978.759C1089.89 1089.74 1041.15 1211.95 947.56 1282.33C854.396 1353.15 715.513 1372.16 637.446 1313.86C558.947 1255.56 541.263 1119.97 579.218 999.487C617.605 879.007 711.632 774.072 813.853 771.049C916.505 768.458 1027.35 868.211 1058.41 978.759Z" fill="url(#paint3_linear)" fill-opacity="0.3"/>
<path d="M1009.77 994.846C1034.99 1083.76 995.95 1181.67 920.979 1238.07C846.354 1294.81 735.107 1310.03 672.574 1263.32C609.696 1216.62 595.531 1107.98 625.933 1011.45C656.682 914.925 731.998 830.853 813.878 828.432C896.104 826.356 984.894 906.276 1009.77 994.846Z" fill="url(#paint4_linear)" fill-opacity="0.3"/>
<path d="M954.536 1013.09C972.642 1076.98 944.615 1147.33 890.794 1187.85C837.221 1228.62 757.358 1239.56 712.466 1206C667.325 1172.44 657.156 1094.38 678.983 1025.03C701.057 955.669 755.126 895.262 813.907 893.522C872.937 892.03 936.679 949.454 954.536 1013.09Z" fill="url(#paint5_linear)" fill-opacity="0.3"/>
</g>
<defs>
<linearGradient id="paint0_linear" x1="-44.6454" y1="193" x2="-44.6454" y2="828.025" gradientUnits="userSpaceOnUse">
<stop stop-color="#169CBA" stop-opacity="0.68"/>
<stop offset="1" stop-color="#1C60C7" stop-opacity="0.65"/>
</linearGradient>
<linearGradient id="paint1_linear" x1="-44.6454" y1="256.126" x2="-44.6454" y2="764.9" gradientUnits="userSpaceOnUse">
<stop stop-color="#169CBA" stop-opacity="0.68"/>
<stop offset="1" stop-color="#1C60C7" stop-opacity="0.65"/>
</linearGradient>
<linearGradient id="paint2_linear" x1="-44.6453" y1="327.731" x2="-44.6453" y2="693.295" gradientUnits="userSpaceOnUse">
<stop stop-color="#169CBA" stop-opacity="0.68"/>
<stop offset="1" stop-color="#1C60C7" stop-opacity="0.65"/>
</linearGradient>
<linearGradient id="paint3_linear" x1="813.981" y1="771" x2="813.981" y2="1348.35" gradientUnits="userSpaceOnUse">
<stop stop-color="#169CBA" stop-opacity="0.68"/>
<stop offset="1" stop-color="#1C60C7" stop-opacity="0.65"/>
</linearGradient>
<linearGradient id="paint4_linear" x1="813.981" y1="828.392" x2="813.981" y2="1290.95" gradientUnits="userSpaceOnUse">
<stop stop-color="#169CBA" stop-opacity="0.68"/>
<stop offset="1" stop-color="#1C60C7" stop-opacity="0.65"/>
</linearGradient>
<linearGradient id="paint5_linear" x1="813.981" y1="893.493" x2="813.981" y2="1225.85" gradientUnits="userSpaceOnUse">
<stop stop-color="#169CBA" stop-opacity="0.68"/>
<stop offset="1" stop-color="#1C60C7" stop-opacity="0.65"/>
</linearGradient>
<clipPath id="clip0">
<rect width="792" height="1778" fill="white"/>
</clipPath>
</defs>
</svg>
