<svg width="1222" height="650" viewBox="0 0 1222 650" fill="none" xmlns="http://www.w3.org/2000/svg">
<g clip-path="url(#clip0)">
<path d="M1274.42 405.282C1296.95 426.879 1290.31 473.917 1276.83 515.831C1263.35 557.927 1243.03 595.265 1211.03 608.626C1178.84 621.804 1135.18 611.188 1098.76 592.885C1062.14 574.4 1032.96 548.593 1027.13 519.491C1021.29 490.39 1038.8 457.994 1062.94 436.03C1087.09 414.067 1117.67 402.536 1158.92 394.849C1200.17 387.345 1251.88 383.684 1274.42 405.282Z" fill="#3FB7DD" fill-opacity="0.1"/>
<path d="M1254.57 421.794C1273.28 439.695 1267.77 478.681 1256.58 513.421C1245.39 548.311 1228.52 579.258 1201.96 590.332C1175.23 601.254 1138.98 592.456 1108.75 577.286C1078.35 561.964 1054.13 540.575 1049.29 516.455C1044.44 492.334 1058.98 465.484 1079.02 447.28C1099.06 429.076 1124.45 419.519 1158.69 413.148C1192.94 406.928 1235.86 403.894 1254.57 421.794Z" fill="#3FB7DD" fill-opacity="0.08"/>
<path d="M1230.26 441.783C1244.28 455.209 1240.15 484.449 1231.77 510.503C1223.38 536.671 1210.74 559.881 1190.84 568.187C1170.81 576.378 1143.65 569.78 1120.99 558.402C1098.21 546.911 1080.06 530.869 1076.43 512.779C1072.8 494.688 1083.69 474.55 1098.71 460.898C1113.73 447.245 1132.76 440.077 1158.42 435.298C1184.08 430.634 1216.25 428.358 1230.26 441.783Z" fill="#3FB7DD" fill-opacity="0.17"/>
<path d="M1266.19 64.675C1293.42 90.7735 1285.4 147.615 1269.11 198.264C1252.82 249.134 1228.26 294.254 1189.6 310.4C1150.7 326.324 1097.93 313.496 1053.92 291.379C1009.67 269.04 974.416 237.854 967.364 202.688C960.313 167.521 981.467 128.373 1010.64 101.832C1039.82 75.2913 1076.78 61.3574 1126.62 52.068C1176.47 42.9999 1238.96 38.5764 1266.19 64.675Z" fill="#3FB7DD" fill-opacity="0.09"/>
<path d="M1242.21 84.6293C1264.82 106.261 1258.16 153.373 1244.63 195.352C1231.11 237.515 1210.72 274.911 1178.63 288.293C1146.33 301.492 1102.53 290.859 1066 272.528C1029.26 254.013 999.995 228.165 994.141 199.018C988.288 169.871 1005.85 137.424 1030.07 115.426C1054.29 93.4284 1084.97 81.8795 1126.35 74.1803C1167.73 66.6643 1219.6 62.998 1242.21 84.6293Z" fill="#3FB7DD" fill-opacity="0.07"/>
<path d="M1212.84 108.784C1229.78 125.008 1224.79 160.342 1214.65 191.826C1204.52 223.448 1189.24 251.496 1165.19 261.532C1140.99 271.431 1108.17 263.457 1080.79 249.708C1053.26 235.822 1031.33 216.437 1026.94 194.576C1022.56 172.716 1035.72 148.381 1053.87 131.882C1072.02 115.384 1095.01 106.722 1126.02 100.948C1157.02 95.3107 1195.9 92.561 1212.84 108.784Z" fill="#42C3EC" fill-opacity="0.12"/>
</g>
<defs>
<clipPath id="clip0">
<rect width="1222" height="650" fill="white"/>
</clipPath>
</defs>
</svg>
