<svg width="914" height="503" viewBox="0 0 914 503" fill="none" xmlns="http://www.w3.org/2000/svg">
<g clip-path="url(#clip0)">
<path d="M101.275 244.785C120.804 263.07 115.05 302.894 103.367 338.38C91.6844 374.02 74.0735 405.632 46.3492 416.944C18.4506 428.101 -19.3869 419.113 -50.9472 403.617C-82.6818 387.966 -107.965 366.117 -113.022 341.479C-118.078 316.84 -102.908 289.413 -81.9843 270.818C-61.0604 252.223 -34.5567 242.46 1.18836 235.952C36.9334 229.599 81.7456 226.5 101.275 244.785Z" fill="#3FB7DD" fill-opacity="0.12"/>
<path d="M84.0784 258.765C100.29 273.92 95.5136 306.928 85.8154 336.339C76.1172 365.879 61.4974 392.08 38.4822 401.455C15.3222 410.703 -16.0885 403.253 -42.2882 390.41C-68.6327 377.438 -89.6214 359.329 -93.8192 338.908C-98.0169 318.487 -85.4237 295.754 -68.0537 280.342C-50.6837 264.93 -28.6817 256.838 0.991982 251.444C30.6657 246.178 67.8664 243.61 84.0784 258.765Z" fill="#3FB7DD" fill-opacity="0.12"/>
<path d="M63.0132 275.689C75.1618 287.055 71.5824 311.811 64.3149 333.869C57.0474 356.024 46.0919 375.675 28.8452 382.706C11.4901 389.642 -12.0479 384.055 -31.681 374.422C-51.4225 364.693 -67.1506 351.111 -70.2962 335.796C-73.4418 320.48 -64.005 303.43 -50.9886 291.871C-37.9722 280.312 -21.4848 274.244 0.751541 270.198C22.9879 266.249 50.8646 264.322 63.0132 275.689Z" fill="#3FB7DD" fill-opacity="0.08"/>
<path d="M948.276 49.0163C966.717 66.2823 961.283 103.887 950.252 137.395C939.22 171.049 922.591 200.898 896.412 211.58C870.068 222.115 834.34 213.628 804.539 198.996C774.573 184.218 750.699 163.586 745.924 140.321C741.149 117.056 755.474 91.157 775.231 73.5984C794.989 56.0398 820.015 46.8215 853.768 40.676C887.521 34.6768 929.836 31.7504 948.276 49.0163Z" fill="#3FB7DD" fill-opacity="0.12"/>
<path d="M932.038 62.2175C947.347 76.528 942.836 107.696 933.679 135.468C924.521 163.361 910.716 188.102 888.984 196.955C867.114 205.687 837.454 198.653 812.715 186.525C787.839 174.276 768.02 157.176 764.056 137.894C760.092 118.611 771.984 97.1449 788.385 82.5918C804.787 68.0387 825.563 60.3983 853.583 55.3047C881.603 50.3324 916.73 47.9069 932.038 62.2175Z" fill="#3FB7DD" fill-opacity="0.11"/>
<path d="M912.147 78.1978C923.619 88.9307 920.239 112.307 913.376 133.136C906.514 154.056 896.169 172.611 879.884 179.251C863.496 185.8 841.27 180.524 822.731 171.429C804.09 162.242 789.238 149.417 786.268 134.955C783.298 120.493 792.208 104.393 804.499 93.4785C816.79 82.5637 832.359 76.8334 853.356 73.0132C874.353 69.284 900.676 67.4649 912.147 78.1978Z" fill="#3FB7DD" fill-opacity="0.15"/>
</g>
<defs>
<clipPath id="clip0">
<rect width="914" height="503" fill="white"/>
</clipPath>
</defs>
</svg>
