<svg width="868" height="1140" viewBox="0 0 868 1070" fill="none" xmlns="http://www.w3.org/2000/svg">
<g clip-path="url(#clip0)">
<path d="M191.357 764.711C213.615 785.551 207.057 830.941 193.742 871.385C180.427 912.006 160.355 948.035 128.757 960.928C96.9595 973.644 53.8345 963.4 17.864 945.739C-18.3054 927.901 -47.1216 902.999 -52.8848 874.917C-58.648 846.836 -41.3583 815.575 -17.5104 794.382C6.33748 773.188 36.5448 762.062 77.285 754.644C118.025 747.403 169.099 743.871 191.357 764.711Z" fill="#3FB7DD" fill-opacity="0.3"/>
<path d="M171.758 780.645C190.236 797.918 184.791 835.538 173.738 869.06C162.684 902.727 146.022 932.589 119.79 943.275C93.394 953.815 57.5938 945.324 27.7329 930.686C-2.293 915.902 -26.2147 895.262 -30.9991 871.987C-35.7834 848.712 -21.4304 822.803 -1.63309 805.237C18.1642 787.671 43.2408 778.449 77.0612 772.301C110.882 766.299 153.281 763.372 171.758 780.645Z" fill="#3FB7DD" fill-opacity="0.3"/>
<path d="M147.749 799.933C161.596 812.888 157.516 841.103 149.233 866.244C140.95 891.495 128.463 913.892 108.807 921.906C89.0262 929.811 62.199 923.443 39.8224 912.464C17.3222 901.376 -0.603836 885.896 -4.18904 868.44C-7.77424 850.984 2.98137 831.552 17.8167 818.377C32.652 805.203 51.4434 798.287 76.7871 793.676C102.131 789.174 133.903 786.979 147.749 799.933Z" fill="#3FB7DD" fill-opacity="0.3"/>
<path d="M918.468 118.358C941.643 140.057 934.815 187.317 920.951 229.428C907.087 271.723 886.188 309.237 853.288 322.661C820.18 335.901 775.278 325.235 737.825 306.846C700.166 288.273 670.162 262.345 664.161 233.106C658.16 203.868 676.163 171.319 700.993 149.252C725.824 127.185 757.276 115.6 799.695 107.877C842.114 100.337 895.293 96.6592 918.468 118.358Z" fill="#3FB7DD" fill-opacity="0.3"/>
<path d="M898.061 134.949C917.3 152.934 911.632 192.104 900.123 227.007C888.614 262.062 871.264 293.155 843.952 304.281C816.468 315.255 779.192 306.415 748.101 291.173C716.838 275.779 691.93 254.289 686.949 230.055C681.967 205.821 696.912 178.844 717.525 160.554C738.138 142.265 764.248 132.663 799.462 126.261C834.676 120.012 878.822 116.964 898.061 134.949Z" fill="#3FB7DD" fill-opacity="0.3"/>
<path d="M873.063 155.032C887.48 168.521 883.232 197.899 874.608 224.076C865.983 250.367 852.982 273.686 832.516 282.031C811.92 290.261 783.987 283.631 760.689 272.2C737.261 260.655 718.597 244.537 714.864 226.362C711.131 208.187 722.329 187.954 737.776 174.236C753.223 160.519 772.789 153.318 799.177 148.517C825.565 143.83 858.646 141.544 873.063 155.032Z" fill="#3FB7DD" fill-opacity="0.3"/>
</g>
<defs>
<clipPath id="clip0">
<rect width="868" height="1070" fill="white"/>
</clipPath>
</defs>
</svg>
