<svg width="1180" height="1992" viewBox="0 0 1180 1992" fill="none" xmlns="http://www.w3.org/2000/svg">
<g opacity="0.2" clip-path="url(#clip0)">
<path d="M301.162 871.287C120.838 920.198 -142.641 902.333 -93.6601 755.167C-12.6616 511.811 183.337 349.072 425.776 381.85C521.166 394.745 612.447 474.807 657.904 549.268C762.446 720.513 576.307 796.654 301.162 871.287Z" fill="#FF7A00"/>
<path d="M244.061 231.77C423.686 267.839 669.21 424.388 563.162 654.32C504.355 781.825 241.169 889.291 149.982 845.644C-1.16934 773.293 -45.6793 173.59 244.061 231.77Z" fill="#0D37CD"/>
<path d="M374.698 711.569C268.18 874.595 -71.3749 977.179 -217.757 867.335C-364.142 757.49 -261.921 476.813 -155.403 313.787C-48.8867 150.764 92.177 59.0939 238.562 168.939C384.944 278.783 481.215 548.546 374.698 711.569Z" fill="#0AB7E0"/>
<path d="M227.913 738.457C92.2488 874.032 -231.716 930.489 -331.301 816.044C-430.886 701.598 -381.075 425.975 -245.41 290.4C-109.748 154.826 150.293 120.799 249.879 235.244C349.464 349.69 363.576 602.883 227.913 738.457Z" fill="#DD2121"/>
<path d="M898.95 1165.11C1095.85 1151.55 1371.38 1222.04 1299.66 1361.05C1181.06 1590.93 952.126 1716.43 700.823 1635.05C601.945 1603.03 516.551 1503.94 478.737 1419.63C391.772 1225.73 598.514 1185.8 898.95 1165.11Z" fill="#FF7A00"/>
<path d="M870.692 1829.88C684.756 1756.88 445.32 1547.48 589.562 1333.82C669.548 1215.34 963.976 1158.46 1054.89 1221.41C1205.59 1325.77 1170.61 1947.64 870.692 1829.88Z" fill="#0D37CD"/>
<path d="M797.369 1303.47C931.128 1155.62 1301.06 1118.43 1439.68 1262.74C1578.3 1407.05 1433.12 1678.22 1299.36 1826.06C1165.6 1973.9 1005.28 2040.41 866.658 1896.1C728.038 1751.79 663.613 1451.31 797.369 1303.47Z" fill="#0AB7E0"/>
<path d="M954.69 1301.33C1114.65 1187.39 1460.58 1195.05 1549.14 1335.34C1637.71 1475.62 1548.53 1753.8 1388.58 1867.73C1228.62 1981.66 952.473 1963.7 863.906 1823.41C775.338 1683.13 794.738 1415.26 954.69 1301.33Z" fill="#DD2121"/>
</g>
<defs>
<clipPath id="clip0">
<rect width="1180" height="1992" fill="white"/>
</clipPath>
</defs>
</svg>
