<svg width="1600" height="1200" viewBox="0 0 1600 1200" fill="none" xmlns="http://www.w3.org/2000/svg">
<g clip-path="url(#clip0)">
<path d="M1512.04 466.414L1598.12 742.612L1362.03 910.862L1130.04 738.648L1222.75 463.964L1512.04 466.414Z" fill="#7BE2FA" fill-opacity="0.55"/>
<path d="M1264.82 396.897C1330.94 382.799 1388.4 337.073 1386.27 268.043C1384.14 199.012 1326.32 144.78 1257.12 146.913C1187.91 149.046 1144.72 213.551 1135.67 275.767C1126.61 337.984 1198.7 410.994 1264.82 396.897Z" fill="#EFF3F0" fill-opacity="0.1"/>
<path d="M1151.53 699.463C1167.29 698.978 1178.42 686.41 1177.96 671.345C1177.49 656.279 1163.7 642.616 1149.85 644.907C1136.01 647.198 1120.82 656.62 1123.43 673.026C1126.04 689.431 1135.78 699.949 1151.53 699.463Z" fill="#7252A4" fill-opacity="0.1"/>
<path d="M1219.39 688.821C1226.55 688.6 1231.61 682.888 1231.4 676.04C1231.19 669.192 1224.92 662.981 1218.62 664.023C1212.33 665.064 1205.43 669.347 1206.61 676.804C1207.8 684.261 1212.23 689.042 1219.39 688.821Z" fill="#7252A4" fill-opacity="0.1"/>
<path d="M1509.75 553.797C1523.39 554.206 1532.93 543.31 1533.65 528.45C1534.36 513.589 1521.79 502.148 1508.23 504.623C1494.68 507.099 1484.92 515.842 1484.33 529.97C1483.75 544.098 1496.1 553.388 1509.75 553.797Z" fill="#F07733" fill-opacity="0.1"/>
<path d="M1455.97 502.507C1469.61 502.916 1479.15 492.021 1479.87 477.16C1480.58 462.3 1468.01 450.858 1454.45 453.333C1440.9 455.809 1431.14 464.552 1430.55 478.68C1429.97 492.809 1442.33 502.098 1455.97 502.507Z" fill="#F07733" fill-opacity="0.1"/>
<path d="M1170.69 1071.98C1178.24 1072.21 1183.52 1066.18 1183.92 1057.96C1184.31 1049.73 1177.35 1043.4 1169.85 1044.77C1162.36 1046.14 1156.95 1050.98 1156.63 1058.8C1156.31 1066.61 1163.14 1071.75 1170.69 1071.98Z" fill="#F0C933" fill-opacity="0.1"/>
<path d="M1589.25 685.665C1596.8 685.891 1602.08 679.863 1602.48 671.641C1602.87 663.419 1595.91 657.088 1588.41 658.458C1580.91 659.827 1575.51 664.665 1575.19 672.482C1574.87 680.299 1581.7 685.439 1589.25 685.665Z" fill="#F0C933" fill-opacity="0.1"/>
<path d="M1164.52 1032.51C1168.3 1032.62 1170.93 1029.61 1171.13 1025.5C1171.33 1021.39 1167.85 1018.22 1164.1 1018.91C1160.35 1019.59 1157.65 1022.01 1157.49 1025.92C1157.33 1029.83 1160.75 1032.4 1164.52 1032.51Z" fill="#F0C933" fill-opacity="0.1"/>
<path d="M1602.61 803.112C1610.16 803.338 1615.44 797.31 1615.84 789.088C1616.23 780.866 1609.27 774.535 1601.77 775.905C1594.27 777.274 1588.87 782.112 1588.55 789.929C1588.23 797.746 1595.06 802.885 1602.61 803.112Z" fill="#453264" fill-opacity="0.1"/>
<path d="M1190.47 824.076C1191.82 831.507 1198.81 835.416 1206.94 834.094C1215.06 832.772 1219.81 824.65 1216.91 817.599C1214.01 810.548 1208.16 806.271 1200.44 807.581C1192.73 808.89 1189.12 816.645 1190.47 824.076Z" fill="#453264" fill-opacity="0.1"/>
<path d="M1215.13 815.595C1238.12 816.284 1254.2 797.925 1255.4 772.885C1256.61 747.844 1235.42 728.565 1212.58 732.736C1189.74 736.907 1173.29 751.64 1172.31 775.446C1171.33 799.252 1192.14 814.905 1215.13 815.595Z" fill="#453264" fill-opacity="0.1"/>
<path d="M1214.04 484.874C1220.57 483.479 1226.25 478.952 1226.04 472.119C1225.83 465.285 1220.11 459.916 1213.27 460.127C1206.44 460.338 1202.17 466.723 1201.28 472.882C1200.38 479.041 1207.5 486.269 1214.04 484.874Z" fill="#EFF3F0"/>
</g>
<defs>
<clipPath id="clip0">
<rect width="1600" height="1200" fill="white"/>
</clipPath>
</defs>
</svg>
