<svg width="1600" height="1200" viewBox="0 0 1600 1200" fill="none" xmlns="http://www.w3.org/2000/svg">
<g opacity="0.2" clip-path="url(#clip0)">
<path d="M337.855 986.994C99.8696 1047.23 -247.86 1025.23 -183.216 843.992C-76.3176 544.298 182.353 343.884 502.315 384.25C628.208 400.13 748.678 498.727 808.67 590.426C946.64 801.315 700.981 895.083 337.855 986.994Z" fill="#FF7A00"/>
<path d="M262.496 199.425C499.558 243.846 823.591 436.636 683.633 719.798C606.022 876.821 258.679 1009.17 138.333 955.414C-61.1506 866.314 -119.893 127.776 262.496 199.425Z" fill="#0D37CD"/>
<path d="M434.905 790.301C294.327 991.068 -153.805 1117.4 -346.995 982.127C-540.188 846.852 -405.281 501.197 -264.703 300.43C-124.126 99.6666 62.0444 -13.2255 255.237 122.05C448.428 257.323 575.482 589.537 434.905 790.301Z" fill="#0AB7E0"/>
<path d="M241.184 823.413C62.1391 990.375 -365.417 1059.9 -496.846 918.961C-628.275 778.021 -562.535 438.59 -383.491 271.628C-204.448 104.669 138.744 62.7645 270.173 203.705C401.602 344.645 420.226 656.453 241.184 823.413Z" fill="#DD2121"/>
</g>
<defs>
<clipPath id="clip0">
<rect width="1600" height="1200" fill="white"/>
</clipPath>
</defs>
</svg>
