<svg width="621" height="1312" viewBox="0 0 621 1312" fill="none" xmlns="http://www.w3.org/2000/svg">
<g clip-path="url(#clip0)">
<path d="M749.889 149.286C779.069 176.607 770.471 236.111 753.016 289.132C735.56 342.384 709.247 389.617 667.822 406.518C626.138 423.189 569.603 409.76 522.447 386.607C475.03 363.222 437.253 330.576 429.698 293.762C422.143 256.949 444.809 215.967 476.072 188.184C507.336 160.4 546.936 145.813 600.345 136.089C653.754 126.596 720.71 121.965 749.889 149.286Z" fill="#3FB7DD" fill-opacity="0.1"/>
<path d="M724.196 170.175C748.419 192.819 741.282 242.138 726.791 286.083C712.3 330.22 690.456 369.368 656.068 383.376C621.463 397.193 574.531 386.063 535.384 366.873C496.022 347.491 464.661 320.433 458.389 289.921C452.117 259.409 470.933 225.442 496.887 202.414C522.84 179.386 555.715 167.296 600.052 159.237C644.389 151.369 699.972 147.531 724.196 170.175Z" fill="#3FB7DD" fill-opacity="0.12"/>
<path d="M692.721 195.461C710.873 212.445 705.524 249.433 694.666 282.392C683.807 315.495 667.438 344.856 641.669 355.362C615.737 365.725 580.568 357.377 551.233 342.985C521.736 328.448 498.236 308.155 493.536 285.271C488.836 262.387 502.936 236.912 522.385 219.641C541.833 202.37 566.468 193.302 599.692 187.258C632.917 181.357 674.569 178.478 692.721 195.461Z" fill="#3FB7DD" fill-opacity="0.12"/>
<path d="M99.7889 1002.48C128.799 1029.64 120.251 1088.8 102.897 1141.51C85.5428 1194.46 59.3818 1241.41 18.1977 1258.22C-23.2455 1274.79 -79.4528 1261.44 -126.335 1238.42C-173.477 1215.17 -211.035 1182.72 -218.546 1146.12C-226.058 1109.52 -203.523 1068.77 -172.441 1041.15C-141.359 1013.53 -101.988 999.024 -48.8885 989.356C4.2106 979.918 70.7787 975.315 99.7889 1002.48Z" fill="#3FB7DD" fill-opacity="0.13"/>
<path d="M74.2441 1023.24C98.3269 1045.76 91.2311 1094.79 76.8244 1138.48C62.4178 1182.36 40.7003 1221.28 6.51129 1235.21C-27.8927 1248.95 -74.5531 1237.88 -113.473 1218.8C-152.607 1199.53 -183.786 1172.63 -190.022 1142.3C-196.257 1111.96 -177.55 1078.19 -151.747 1055.3C-125.944 1032.4 -93.2603 1020.38 -49.1802 1012.37C-5.10007 1004.55 50.1613 1000.73 74.2441 1023.24Z" fill="#3FB7DD" fill-opacity="0.12"/>
<path d="M42.9519 1048.38C60.9986 1065.27 55.6812 1102.04 44.8854 1134.81C34.0896 1167.72 17.8154 1196.91 -7.80446 1207.36C-33.5854 1217.66 -68.5509 1209.36 -97.7157 1195.05C-127.042 1180.6 -150.406 1160.42 -155.078 1137.67C-159.751 1114.92 -145.733 1089.59 -126.397 1072.42C-107.061 1055.25 -82.5694 1046.24 -49.5375 1040.23C-16.5056 1034.36 24.9052 1031.5 42.9519 1048.38Z" fill="#3FB7DD" fill-opacity="0.12"/>
</g>
<defs>
<clipPath id="clip0">
<rect width="621" height="1312" fill="white"/>
</clipPath>
</defs>
</svg>
