<svg width="1600" height="722" viewBox="0 0 1600 722" fill="none" xmlns="http://www.w3.org/2000/svg">
<path d="M1515.19 79.675C1542.42 105.774 1534.4 162.615 1518.11 213.264C1501.82 264.134 1477.26 309.254 1438.6 325.4C1399.7 341.324 1346.93 328.496 1302.92 306.379C1258.67 284.04 1223.42 252.854 1216.36 217.688C1209.31 182.521 1230.47 143.373 1259.64 116.832C1288.82 90.2913 1325.78 76.3574 1375.62 67.068C1425.47 57.9999 1487.96 53.5764 1515.19 79.675Z" fill="#3FB7DD" fill-opacity="0.07"/>
<path d="M1491.21 99.6293C1513.82 121.261 1507.16 168.373 1493.63 210.352C1480.11 252.515 1459.72 289.911 1427.63 303.293C1395.33 316.492 1351.53 305.859 1315 287.528C1278.26 269.013 1248.99 243.165 1243.14 214.018C1237.29 184.871 1254.85 152.424 1279.07 130.426C1303.29 108.428 1333.97 96.8795 1375.35 89.1803C1416.73 81.6643 1468.6 77.998 1491.21 99.6293Z" fill="#3FB7DD" fill-opacity="0.11"/>
<path d="M1461.84 123.784C1478.78 140.008 1473.79 175.342 1463.65 206.826C1453.52 238.448 1438.24 266.496 1414.19 276.532C1389.99 286.431 1357.17 278.457 1329.79 264.708C1302.26 250.822 1280.33 231.437 1275.94 209.576C1271.56 187.716 1284.72 163.381 1302.87 146.882C1321.02 130.384 1344.01 121.722 1375.02 115.948C1406.02 110.311 1444.9 107.561 1461.84 123.784Z" fill="#3FB7DD" fill-opacity="0.16"/>
<path d="M1362.76 421.765C1380.42 438.697 1375.22 475.575 1364.65 508.435C1354.08 541.438 1338.15 570.711 1313.07 581.186C1287.83 591.517 1253.6 583.194 1225.04 568.845C1196.33 554.352 1173.46 534.12 1168.89 511.304C1164.31 488.489 1178.03 463.091 1196.96 445.872C1215.89 428.652 1239.87 419.612 1272.21 413.586C1304.55 407.702 1345.09 404.833 1362.76 421.765Z" fill="#3FB7DD" fill-opacity="0.1"/>
<path d="M1347.2 434.711C1361.87 448.744 1357.54 479.31 1348.77 506.545C1340 533.899 1326.77 558.161 1305.95 566.843C1285 575.406 1256.58 568.508 1232.88 556.615C1209.04 544.603 1190.06 527.834 1186.26 508.924C1182.46 490.014 1193.85 468.963 1209.57 454.691C1225.28 440.419 1245.19 432.927 1272.03 427.932C1298.88 423.055 1332.53 420.677 1347.2 434.711Z" fill="#3FB7DD" fill-opacity="0.11"/>
<path d="M1328.14 450.382C1339.13 460.907 1335.89 483.831 1329.32 504.258C1322.74 524.773 1312.83 542.97 1297.23 549.481C1281.53 555.904 1260.23 550.73 1242.47 541.81C1224.61 532.801 1210.38 520.224 1207.54 506.042C1204.69 491.859 1213.23 476.071 1225.01 465.367C1236.78 454.663 1251.7 449.044 1271.81 445.298C1291.93 441.641 1317.15 439.857 1328.14 450.382Z" fill="#3FB7DD" fill-opacity="0.17"/>
</svg>
