<svg width="621" height="1312" viewBox="0 0 621 1312" fill="none" xmlns="http://www.w3.org/2000/svg">
<g clip-path="url(#clip0)">
<path d="M709.258 182.064C730.6 202.047 724.312 245.568 711.545 284.348C698.778 323.297 679.532 357.843 649.234 370.205C618.746 382.397 577.396 372.575 542.906 355.641C508.225 338.537 480.595 314.66 475.069 287.734C469.543 260.809 486.121 230.835 508.988 210.514C531.854 190.193 560.818 179.524 599.881 172.412C638.944 165.469 687.916 162.082 709.258 182.064Z" fill="#3FB7DD" fill-opacity="0.3"/>
<path d="M690.466 197.342C708.183 213.904 702.963 249.976 692.364 282.118C681.766 314.4 665.789 343.033 640.637 353.279C615.327 363.384 581.001 355.244 552.369 341.208C523.579 327.032 500.642 307.242 496.054 284.925C491.467 262.608 505.229 237.765 524.212 220.922C543.194 204.079 567.238 195.237 599.667 189.342C632.095 183.587 672.749 180.78 690.466 197.342Z" fill="#3FB7DD" fill-opacity="0.3"/>
<path d="M667.445 215.837C680.721 228.258 676.81 255.312 668.868 279.418C660.925 303.63 648.953 325.105 630.105 332.789C611.139 340.368 585.416 334.263 563.961 323.736C542.386 313.104 525.198 298.261 521.761 281.524C518.323 264.786 528.636 246.154 542.861 233.522C557.085 220.89 575.103 214.258 599.404 209.837C623.704 205.521 654.169 203.415 667.445 215.837Z" fill="#3FB7DD" fill-opacity="0.3"/>
<path d="M107.571 1042.7C128.397 1062.2 122.261 1104.67 109.803 1142.51C97.3443 1180.52 78.5638 1214.23 48.9983 1226.29C19.2469 1238.19 -21.1034 1228.61 -54.7597 1212.08C-88.6019 1195.39 -115.564 1172.09 -120.957 1145.82C-126.349 1119.54 -110.172 1090.29 -87.8581 1070.46C-65.5446 1050.63 -37.2807 1040.22 0.838229 1033.28C38.9572 1026.51 86.7454 1023.2 107.571 1042.7Z" fill="#3FB7DD" fill-opacity="0.3"/>
<path d="M89.2332 1057.61C106.522 1073.77 101.428 1108.97 91.0855 1140.34C80.7432 1171.84 65.1525 1199.78 40.6088 1209.78C15.9108 1219.64 -17.586 1211.69 -45.5257 1198C-73.6198 1184.16 -96.0024 1164.85 -100.479 1143.07C-104.955 1121.3 -91.5259 1097.05 -73.0023 1080.62C-54.4788 1064.18 -31.0156 1055.55 0.628815 1049.8C32.2732 1044.19 71.9445 1041.45 89.2332 1057.61Z" fill="#3FB7DD" fill-opacity="0.3"/>
<path d="M66.7689 1075.66C79.7244 1087.78 75.9072 1114.18 68.157 1137.7C60.4069 1161.33 48.7239 1182.28 30.3318 1189.78C11.824 1197.18 -13.2771 1191.22 -34.2141 1180.95C-55.2666 1170.57 -72.0393 1156.09 -75.3938 1139.76C-78.7484 1123.42 -68.6848 1105.24 -54.8039 1092.91C-40.9231 1080.59 -23.3407 1074.12 0.37234 1069.8C24.0854 1065.59 53.8135 1063.54 66.7689 1075.66Z" fill="#3FB7DD" fill-opacity="0.3"/>
</g>
<defs>
<clipPath id="clip0">
<rect width="621" height="1312" fill="white"/>
</clipPath>
</defs>
</svg>
